<?xml version="1.0" encoding="UTF-8"?>
<svg id="Layer_1" data-name="Layer 1" xmlns="http://www.w3.org/2000/svg" viewBox="0 0 800.02 162.22">
  <defs>
    <style>
      .cls-1 {
        stroke: #000;
        stroke-width: 3px;
      }

      .cls-1, .cls-2 {
        fill: none;
        stroke-miterlimit: 10;
      }

      .cls-3 {
        letter-spacing: 0em;
      }

      .cls-4 {
        letter-spacing: 0em;
      }

      .cls-5 {
        letter-spacing: .02em;
      }

      .cls-6 {
        font-size: 36.94px;
      }

      .cls-6, .cls-7 {
        font-family: MyriadPro-Regular, 'Myriad Pro';
      }

      .cls-8 {
        letter-spacing: -.01em;
      }

      .cls-2 {
        stroke: #00538e;
        stroke-width: 5px;
      }

      .cls-9 {
        letter-spacing: 0em;
      }

      .cls-10 {
        letter-spacing: 0em;
      }

      .cls-7 {
        font-size: 51.01px;
      }

      .cls-11 {
        letter-spacing: 0em;
      }

      .cls-12 {
        letter-spacing: 0em;
      }

      .cls-13 {
        letter-spacing: 0em;
      }

      .cls-14 {
        letter-spacing: 0em;
      }

      .cls-15 {
        letter-spacing: 0em;
      }

      .cls-16 {
        letter-spacing: 0em;
      }

      .cls-17 {
        fill: #fff;
      }

      .cls-17, .cls-18 {
        stroke-width: 0px;
      }

      .cls-18 {
        fill: #00538e;
      }

      .cls-19 {
        letter-spacing: 0em;
      }
    </style>
  </defs>
  <rect class="cls-18" x="453.73" y="3.45" width="201.63" height="90.76"/>
  <ellipse class="cls-1" cx="179.88" cy="81.11" rx="79.58" ry="79.61"/>
  <line class="cls-2" x1="309.08" y1="105.97" x2="800.02" y2="105.97"/>
  <text class="cls-7" transform="translate(0 61.85)"><tspan class="cls-3" x="0" y="0">A</tspan><tspan x="31.06" y="0">pp</tspan><tspan class="cls-14" x="89.11" y="0">r</tspan><tspan class="cls-12" x="105.28" y="0">o</tspan><tspan class="cls-14" x="132.93" y="0">v</tspan><tspan class="cls-13" x="156.95" y="0">ed</tspan></text>
  <text class="cls-6" transform="translate(309.09 145.69)"><tspan class="cls-16" x="0" y="0">G</tspan><tspan x="24.05" y="0">ene</tspan><tspan class="cls-15" x="81.56" y="0">r</tspan><tspan class="cls-4" x="93.45" y="0">al </tspan><tspan class="cls-10" x="127.8" y="0">S</tspan><tspan x="146.24" y="0">e</tspan><tspan class="cls-5" x="164.74" y="0">r</tspan><tspan x="177.74" y="0">vi</tspan><tspan class="cls-9" x="204.15" y="0">c</tspan><tspan x="220.48" y="0">es </tspan><tspan class="cls-8" x="261.44" y="0">A</tspan><tspan x="283.61" y="0">dminist</tspan><tspan class="cls-19" x="399.89" y="0">r</tspan><tspan class="cls-11" x="411.78" y="0">a</tspan><tspan x="429.44" y="0">tion</tspan></text>
  <path class="cls-18" d="m160.73,85.65c1.36-4.28,7.77-6.16,13.61-7.88,4.92-1.45,9.49-2.79,14.32-.72,6.16,2.64,8.65,9.06,9.31,10.75,2.38,6.11.76,10.26,2.15,10.75,2.25.79,7.72-9.59,15.04-22.93,13.4-24.42,16.57-28.82,18.62-31.52,7.8-10.27,13.19-17.37,22.92-20.78,1.97-.69,7.87-2.87,20.05-3.58,12.17-.72,11.74-1.65,12.17-.72,0,0-9.06,6.76-15.76,13.61-8.47,8.66-30.8,38.69-30.8,38.69-20.98,30.69-17.92,27.05-26.72,40.35-11.92,18.01-17.6,29.73-22.7,29.15-5.14-.58-3.21-13.06-13.61-29.37-9.48-14.88-20.63-19.48-18.62-25.79Z"/>
  <g>
    <g>
      <g>
        <path class="cls-17" d="m497.22,86c-19.66,0-32.73-14.85-32.73-37.17s13.18-37.17,33.25-37.17c8.23,0,14.82,2.49,18.32,4.68v11.76c-5.04-2.99-11.53-5.08-18.12-5.08-12.46,0-20.79,10.36-20.79,25.81s8.03,25.81,20.07,25.81c3.29,0,6.9-.7,8.85-1.59v-20.73h12.15v28.2c-5.56,3.29-12.56,5.48-21,5.48Z"/>
        <path class="cls-17" d="m531.6,81.62v-11.76c5.04,2.79,11.32,5.28,17.71,5.28,7.1,0,11.94-3.09,11.94-8.67s-3.71-8.87-12.66-12.76c-11.22-4.88-17.7-10.36-17.7-22.02,0-12.76,8.85-20.03,22.65-20.03,6.48,0,12.56,1.79,16.37,3.79v11.36c-3.91-2.29-9.88-4.29-15.44-4.29-6.9,0-11.22,3.39-11.22,8.97,0,5.08,3.29,8.77,12.35,12.66,11.22,4.98,17.91,10.36,17.91,21.72,0,12.76-8.44,20.13-23.16,20.13-7.31,0-14.1-1.99-18.73-4.38Z"/>
      </g>
      <rect class="cls-17" x="496.47" y="44.96" width="21.75" height="10.31"/>
    </g>
    <g>
      <polygon class="cls-17" points="594.24 49.83 611.38 11.66 628.62 49.83 616.6 49.83 611.43 36.96 606.05 49.83 594.24 49.83"/>
      <polygon class="cls-17" points="644.61 86 632.07 86 620.05 58.19 628.62 49.83 644.61 86"/>
      <polygon class="cls-17" points="602.49 58.09 596.43 72.2 611.43 64.57 620.05 71.16 590.58 86 577.93 86 594.24 49.83 602.49 58.09"/>
    </g>
  </g>
</svg>