<?xml version="1.0" encoding="utf-8"?>
<!-- Generator: Adobe Illustrator 23.0.3, SVG Export Plug-In . SVG Version: 6.00 Build 0)  -->
<svg version="1.1" id="Layer_1" xmlns="http://www.w3.org/2000/svg" xmlns:xlink="http://www.w3.org/1999/xlink" x="0px" y="0px"
	 viewBox="0 0 250 250" style="enable-background:new 0 0 250 250;" xml:space="preserve">
<style type="text/css">
	.st0{fill:#9AD7D9;}
	.st1{fill:#FFFFFF;stroke:#FFFFFF;stroke-width:10;stroke-linecap:round;stroke-linejoin:round;stroke-miterlimit:10;}
	.st2{fill:none;stroke:#FFFFFF;stroke-width:10;stroke-linecap:round;stroke-linejoin:round;stroke-miterlimit:10;}
</style>
<circle class="st0" cx="125" cy="125" r="125"/>
<g>
	<g>
		<path class="st1" d="M144.12,178.21v-6.45c14.97-1.84,16.82-4.15,13.59-12.9c-2.99-8.98-7.6-20.5-12.44-35.01H95.51
			c-3.69,10.37-7.14,19.35-10.37,28.79c-5.07,14.97-1.84,16.82,17.05,19.12v6.45H48.98v-6.45c14.51-1.84,18.2-3.46,26.26-24.19
			l47.69-120.94l7.37-1.38c14.51,39.39,30.41,82.93,44.92,122.78c7.37,20.04,9.44,21.88,25.8,23.73v6.45H144.12z M121.08,55.43
			c-7.37,19.81-15.2,40.77-22.11,58.97h43.08L121.08,55.43z"/>
	</g>
	<line class="st2" x1="45.01" y1="196.57" x2="204.99" y2="196.57"/>
	<circle class="st1" cx="169.43" cy="34.49" r="9.21"/>
</g>
<g>
	<g>
		<path d="M94.43,81.99h3.44c3.85,0,7.26,1.3,7.26,6.28c0,4.99-3.4,6.28-7.26,6.28h-3.44V81.99z M96.95,92.58h1.4
			c2.11,0,4.14-1.57,4.14-4.3s-2.03-4.3-4.14-4.3h-1.4V92.58z"/>
		<path d="M107.43,81.99h7.42v1.98h-4.9v3.1h4.48v1.98h-4.48v3.53h4.93v1.98h-7.45V81.99z"/>
		<path d="M124.19,84.3c-0.79-0.34-1.67-0.54-2.56-0.54c-0.86,0-1.98,0.38-1.98,1.75c0,2.18,5.51,1.26,5.51,5.47
			c0,2.75-2.18,3.8-4.72,3.8c-1.37,0-1.98-0.18-3.22-0.49l0.23-2.27c0.86,0.47,1.85,0.77,2.84,0.77c0.95,0,2.23-0.49,2.23-1.62
			c0-2.4-5.51-1.4-5.51-5.56c0-2.81,2.18-3.83,4.39-3.83c1.08,0,2.09,0.14,3.01,0.45L124.19,84.3z"/>
		<path d="M127.23,81.99h2.52v12.57h-2.52V81.99z"/>
		<path d="M142.26,84.42c-0.97-0.45-2.23-0.67-3.24-0.67c-2.93,0-4.55,1.98-4.55,4.56c0,2.56,1.58,4.48,4.27,4.48
			c0.68,0,1.22-0.07,1.66-0.18v-3.28h-2.67v-1.98h5.08v6.77c-1.33,0.36-2.72,0.65-4.07,0.65c-4.07,0-6.9-2.03-6.9-6.28
			c0-4.3,2.63-6.72,6.9-6.72c1.46,0,2.61,0.2,3.69,0.52L142.26,84.42z"/>
		<path d="M145.32,81.99h3.1l4.79,9.4h0.04v-9.4h2.41v12.57h-3.08l-4.81-9.4h-0.04v9.4h-2.41V81.99z"/>
	</g>
	<g>
		<path d="M21.06,114.09h1.32l2,7.17h0.02l1.79-7.17h1.7l1.81,7.17h0.02l2-7.17H33l-2.58,8.37h-1.55l-1.82-7.32h-0.02l-1.83,7.32
			h-1.61L21.06,114.09z"/>
		<path d="M37.71,122.21c-0.43,0.16-0.92,0.4-1.93,0.4c-2.17,0-3.17-1.32-3.17-3.31c0-1.81,1.14-3.09,2.87-3.09
			c2.04,0,2.7,1.49,2.7,3.45h-4.37c0,1.21,0.95,2.04,2.02,2.04c0.74,0,1.61-0.38,1.88-0.61V122.21z M36.98,118.81
			c0-0.94-0.55-1.7-1.52-1.7c-1.1,0-1.56,0.91-1.64,1.7H36.98z"/>
		<path d="M46.14,121.6h-0.02c-0.3,0.46-1,1.01-2.09,1.01c-1.85,0-2.63-1.64-2.63-3.31c0-1.64,0.86-3.09,2.64-3.09
			c1.07,0,1.68,0.42,2.03,0.98h0.02v-3.72h1.13v9h-1.08V121.6z M44.29,121.69c1.27,0,1.8-1.26,1.8-2.28c0-1.14-0.59-2.3-1.81-2.3
			c-1.22,0-1.7,1.15-1.68,2.27C42.57,120.34,43.08,121.69,44.29,121.69z"/>
		<path d="M53.22,122.21c-0.43,0.16-0.92,0.4-1.93,0.4c-2.17,0-3.17-1.32-3.17-3.31c0-1.81,1.14-3.09,2.87-3.09
			c2.04,0,2.7,1.49,2.7,3.45h-4.37c0,1.21,0.95,2.04,2.02,2.04c0.74,0,1.61-0.38,1.88-0.61V122.21z M52.48,118.81
			c0-0.94-0.55-1.7-1.52-1.7c-1.1,0-1.56,0.91-1.64,1.7H52.48z"/>
		<path d="M54.73,113.47h1.13v9h-1.13V113.47z"/>
		<path d="M58.65,114.98h-1.27v-1.27h1.27V114.98z M57.45,116.34h1.13v6.12h-1.13V116.34z"/>
		<path d="M62.74,122.46H61.4l-2.19-6.12h1.24l1.66,4.99h0.02l1.69-4.99h1.13L62.74,122.46z"/>
		<path d="M70.11,122.21c-0.43,0.16-0.92,0.4-1.93,0.4c-2.17,0-3.17-1.32-3.17-3.31c0-1.81,1.14-3.09,2.87-3.09
			c2.04,0,2.7,1.49,2.7,3.45h-4.37c0,1.21,0.95,2.04,2.02,2.04c0.74,0,1.61-0.38,1.88-0.61V122.21z M69.38,118.81
			c0-0.94-0.55-1.7-1.52-1.7c-1.1,0-1.56,0.91-1.64,1.7H69.38z"/>
		<path d="M71.48,116.34h1.06v0.95h0.02c0.3-0.64,0.95-1.09,1.59-1.09c0.34,0,0.5,0.04,0.74,0.08v1.01
			c-0.2-0.08-0.43-0.11-0.62-0.11c-1.01,0-1.67,0.96-1.67,2.49v2.78h-1.13V116.34z"/>
		<path d="M82.59,121.6h-0.02c-0.3,0.46-1,1.01-2.09,1.01c-1.85,0-2.63-1.64-2.63-3.31c0-1.64,0.86-3.09,2.64-3.09
			c1.07,0,1.68,0.42,2.03,0.98h0.02v-3.72h1.13v9h-1.08V121.6z M80.74,121.69c1.27,0,1.8-1.26,1.8-2.28c0-1.14-0.59-2.3-1.81-2.3
			s-1.7,1.15-1.68,2.27C79.03,120.34,79.53,121.69,80.74,121.69z"/>
		<path d="M89.67,122.21c-0.43,0.16-0.92,0.4-1.93,0.4c-2.17,0-3.17-1.32-3.17-3.31c0-1.81,1.14-3.09,2.87-3.09
			c2.04,0,2.7,1.49,2.7,3.45h-4.37c0,1.21,0.95,2.04,2.02,2.04c0.74,0,1.61-0.38,1.88-0.61V122.21z M88.94,118.81
			c0-0.94-0.55-1.7-1.52-1.7c-1.1,0-1.56,0.91-1.64,1.7H88.94z"/>
		<path d="M90.59,121.26c0.44,0.29,1.08,0.43,1.4,0.43c0.52,0,1.15-0.22,1.15-0.88c0-1.12-2.65-1.02-2.65-2.73
			c0-1.27,0.95-1.88,2.16-1.88c0.53,0,0.96,0.11,1.4,0.24l-0.1,0.98c-0.25-0.16-0.92-0.31-1.19-0.31c-0.58,0-1.08,0.24-1.08,0.74
			c0,1.25,2.65,0.89,2.65,2.84c0,1.31-1.04,1.91-2.13,1.91c-0.58,0-1.16-0.06-1.68-0.34L90.59,121.26z"/>
		<path d="M96.44,114.98h-1.27v-1.27h1.27V114.98z M95.24,116.34h1.13v6.12h-1.13V116.34z"/>
		<path d="M103.23,122.2c0,1.86-0.96,2.93-3.15,2.93c-0.65,0-1.21-0.08-2.19-0.42l0.12-1.04c0.86,0.4,1.38,0.55,2.21,0.55
			c1.19,0,1.9-0.8,1.9-2.1v-0.6h-0.02c-0.48,0.64-1.27,0.95-2.05,0.95c-1.75,0-2.61-1.43-2.61-3.01c0-1.57,0.89-3.25,2.73-3.25
			c1.08,0,1.68,0.4,2.02,1.06h0.02v-0.91h1.04V122.2z M102.1,119.47c0-1.27-0.59-2.36-1.79-2.36c-1.14,0-1.7,1.24-1.7,2.28
			c0,1.15,0.65,2.16,1.7,2.16S102.1,120.61,102.1,119.47z"/>
		<path d="M104.54,116.34h1.09v0.97h0.02c0.34-0.7,1.15-1.12,2-1.12c1.58,0,2.29,0.98,2.29,2.63v3.63h-1.13v-3.17
			c0-1.43-0.31-2.12-1.3-2.18c-1.28,0-1.86,1.03-1.86,2.52v2.83h-1.13V116.34z"/>
		<path d="M110.81,121.26c0.44,0.29,1.08,0.43,1.4,0.43c0.52,0,1.15-0.22,1.15-0.88c0-1.12-2.65-1.02-2.65-2.73
			c0-1.27,0.95-1.88,2.16-1.88c0.53,0,0.96,0.11,1.4,0.24l-0.1,0.98c-0.25-0.16-0.92-0.31-1.19-0.31c-0.58,0-1.08,0.24-1.08,0.74
			c0,1.25,2.65,0.89,2.65,2.84c0,1.31-1.04,1.91-2.13,1.91c-0.58,0-1.16-0.06-1.68-0.34L110.81,121.26z"/>
		<path d="M121.29,117.26h-1.62v3.35c0,0.71,0.43,1.09,0.95,1.09c0.35,0,0.6-0.11,0.77-0.22v0.96c-0.25,0.07-0.6,0.17-0.96,0.17
			c-1.16,0-1.88-0.55-1.88-1.78v-3.57h-1.38v-0.91h1.38v-1.42l1.13-0.36v1.77h1.62V117.26z"/>
		<path d="M122.1,113.47h1.13v3.75h0.02c0.41-0.65,1.12-1.02,1.97-1.02c1.58,0,2.29,0.98,2.29,2.63v3.63h-1.13v-3.17
			c0-1.43-0.31-2.12-1.29-2.18c-1.28,0-1.86,1.03-1.86,2.52v2.83h-1.13V113.47z"/>
		<path d="M129.11,116.78c0.56-0.34,1.24-0.58,2.01-0.58c1.75,0,2.46,0.86,2.46,2.53v2.53c0,0.7,0.02,1.02,0.05,1.2h-1.06v-0.79
			h-0.02c-0.26,0.37-0.86,0.94-1.9,0.94c-1.32,0-2.24-0.58-2.24-1.91c0-1.54,1.68-2.01,2.84-2.01c0.44,0,0.76,0,1.2,0.02
			c0-1.06-0.38-1.6-1.51-1.6c-0.64,0-1.32,0.24-1.78,0.62L129.11,116.78z M132.45,119.55c-0.24,0-0.48-0.02-0.72-0.02
			c-0.61,0-2.12,0.1-2.12,1.18c0,0.65,0.62,1,1.14,1c1.12,0,1.7-0.7,1.7-1.61V119.55z"/>
		<path d="M138.13,117.26h-1.62v3.35c0,0.71,0.43,1.09,0.95,1.09c0.35,0,0.6-0.11,0.77-0.22v0.96c-0.25,0.07-0.6,0.17-0.96,0.17
			c-1.16,0-1.88-0.55-1.88-1.78v-3.57H134v-0.91h1.38v-1.42l1.13-0.36v1.77h1.62V117.26z"/>
		<path d="M148.58,122.46h-1.31l-1.58-5.13h-0.02l-1.55,5.13h-1.31l-1.97-6.12h1.24l1.4,5.06h0.02l1.56-5.06h1.33l1.54,5.06h0.02
			l1.49-5.06h1.1L148.58,122.46z"/>
		<path d="M153.75,116.2c1.86,0,3.11,1.34,3.11,3.2c0,1.75-1.27,3.2-3.11,3.2c-1.85,0-3.12-1.45-3.12-3.2
			C150.63,117.54,151.88,116.2,153.75,116.2z M153.75,121.69c1.32,0,1.91-1.2,1.91-2.29c0-1.16-0.71-2.29-1.91-2.29
			c-1.21,0-1.92,1.13-1.92,2.29C151.83,120.49,152.42,121.69,153.75,121.69z"/>
		<path d="M157.76,116.34h1.06v0.95h0.02c0.3-0.64,0.95-1.09,1.59-1.09c0.34,0,0.5,0.04,0.74,0.08v1.01
			c-0.2-0.08-0.43-0.11-0.62-0.11c-1.01,0-1.67,0.96-1.67,2.49v2.78h-1.13V116.34z"/>
		<path d="M161.82,113.47h1.13v5.36l2.46-2.48h1.54l-2.84,2.71l3.2,3.41h-1.62l-2.73-3.14v3.14h-1.13V113.47z"/>
		<path d="M171.33,117.26h-1.44v-0.91h1.44v-0.56c0-1.49,0.38-2.46,2.05-2.46c0.29,0,0.53,0.04,0.76,0.07l-0.05,0.91
			c-0.13-0.05-0.35-0.07-0.54-0.07c-0.97,0-1.09,0.62-1.09,1.45v0.66h1.62v0.91h-1.62v5.21h-1.13V117.26z"/>
		<path d="M177.37,116.2c1.86,0,3.11,1.34,3.11,3.2c0,1.75-1.27,3.2-3.11,3.2c-1.85,0-3.12-1.45-3.12-3.2
			C174.25,117.54,175.5,116.2,177.37,116.2z M177.37,121.69c1.32,0,1.91-1.2,1.91-2.29c0-1.16-0.71-2.29-1.91-2.29
			c-1.21,0-1.92,1.13-1.92,2.29C175.45,120.49,176.04,121.69,177.37,121.69z"/>
		<path d="M181.38,116.34h1.06v0.95h0.02c0.3-0.64,0.95-1.09,1.59-1.09c0.34,0,0.5,0.04,0.74,0.08v1.01
			c-0.2-0.08-0.43-0.11-0.62-0.11c-1.01,0-1.67,0.96-1.67,2.49v2.78h-1.13V116.34z"/>
		<path d="M187.7,124.12c0.14,0.05,0.33,0.1,0.53,0.1c1.01,0,1.34-1.39,1.34-1.51c0-0.13-0.14-0.44-0.22-0.65l-2.07-5.71h1.24
			l1.64,5.06h0.02l1.68-5.06H193l-2.25,6.25c-0.42,1.18-0.86,2.53-2.35,2.53c-0.36,0-0.56-0.05-0.77-0.08L187.7,124.12z"/>
		<path d="M196.26,116.2c1.86,0,3.11,1.34,3.11,3.2c0,1.75-1.27,3.2-3.11,3.2c-1.85,0-3.12-1.45-3.12-3.2
			C193.14,117.54,194.38,116.2,196.26,116.2z M196.26,121.69c1.32,0,1.91-1.2,1.91-2.29c0-1.16-0.71-2.29-1.91-2.29
			c-1.21,0-1.92,1.13-1.92,2.29C194.34,120.49,194.92,121.69,196.26,121.69z"/>
		<path d="M205.67,122.46h-1.09v-0.97h-0.02c-0.33,0.7-1.15,1.12-2,1.12c-1.58,0-2.29-0.98-2.29-2.63v-3.63h1.13v3.17
			c0,1.43,0.31,2.12,1.3,2.18c1.28,0,1.86-1.03,1.86-2.52v-2.83h1.13V122.46z"/>
		<path d="M207.02,121.12h1.34l-1.02,2.94h-1.08L207.02,121.12z"/>
		<path d="M215.68,117.26h-1.62v3.35c0,0.71,0.43,1.09,0.95,1.09c0.35,0,0.6-0.11,0.77-0.22v0.96c-0.25,0.07-0.6,0.17-0.96,0.17
			c-1.16,0-1.88-0.55-1.88-1.78v-3.57h-1.38v-0.91h1.38v-1.42l1.13-0.36v1.77h1.62V117.26z"/>
		<path d="M216.49,113.47h1.13v3.75h0.02c0.41-0.65,1.12-1.02,1.97-1.02c1.58,0,2.29,0.98,2.29,2.63v3.63h-1.13v-3.17
			c0-1.43-0.31-2.12-1.3-2.18c-1.28,0-1.86,1.03-1.86,2.52v2.83h-1.13V113.47z"/>
		<path d="M227.9,122.21c-0.43,0.16-0.92,0.4-1.93,0.4c-2.17,0-3.17-1.32-3.17-3.31c0-1.81,1.14-3.09,2.87-3.09
			c2.04,0,2.7,1.49,2.7,3.45H224c0,1.21,0.95,2.04,2.02,2.04c0.74,0,1.61-0.38,1.88-0.61V122.21z M227.17,118.81
			c0-0.94-0.55-1.7-1.52-1.7c-1.1,0-1.56,0.91-1.64,1.7H227.17z"/>
		<path d="M30.65,130.74h1.06v0.89h0.02c0.43-0.71,1.04-1.03,1.94-1.03c0.71,0,1.42,0.36,1.74,1.19c0.42-0.88,1.34-1.19,1.9-1.19
			c1.56,0,2.12,1.01,2.12,2.34v3.92H38.3v-3.65c0-0.75-0.18-1.7-1.09-1.7c-1.15,0-1.61,1.13-1.61,2.27v3.08h-1.13v-3.65
			c0-0.75-0.18-1.7-1.09-1.7c-1.15,0-1.61,1.13-1.61,2.27v3.08h-1.13V130.74z"/>
		<path d="M41,131.17c0.56-0.33,1.24-0.58,2.02-0.58c1.75,0,2.46,0.86,2.46,2.53v2.53c0,0.7,0.02,1.02,0.05,1.2h-1.06v-0.79h-0.02
			c-0.26,0.37-0.86,0.94-1.9,0.94c-1.32,0-2.24-0.58-2.24-1.91c0-1.54,1.68-2.01,2.84-2.01c0.44,0,0.76,0,1.2,0.02
			c0-1.06-0.38-1.6-1.51-1.6c-0.64,0-1.32,0.24-1.78,0.62L41,131.17z M44.35,133.95c-0.24,0-0.48-0.02-0.72-0.02
			c-0.61,0-2.12,0.1-2.12,1.17c0,0.65,0.62,1,1.14,1c1.12,0,1.7-0.7,1.7-1.61V133.95z"/>
		<path d="M46.78,130.74h1.06v0.95h0.02c0.3-0.64,0.95-1.09,1.59-1.09c0.34,0,0.5,0.04,0.74,0.08v1.01
			c-0.2-0.08-0.43-0.11-0.62-0.11c-1.01,0-1.67,0.96-1.67,2.5v2.78h-1.13V130.74z"/>
		<path d="M50.83,127.87h1.13v5.36l2.46-2.48h1.54l-2.84,2.71l3.2,3.41h-1.62l-2.73-3.14v3.14h-1.13V127.87z"/>
		<path d="M61.58,136.61c-0.43,0.16-0.92,0.4-1.93,0.4c-2.17,0-3.17-1.32-3.17-3.31c0-1.81,1.14-3.09,2.87-3.09
			c2.04,0,2.7,1.49,2.7,3.45h-4.37c0,1.21,0.95,2.04,2.02,2.04c0.74,0,1.61-0.38,1.88-0.61V136.61z M60.85,133.21
			c0-0.94-0.55-1.7-1.52-1.7c-1.1,0-1.56,0.91-1.64,1.7H60.85z"/>
		<path d="M66.2,131.66h-1.62V135c0,0.71,0.43,1.09,0.95,1.09c0.35,0,0.6-0.11,0.77-0.22v0.96c-0.25,0.07-0.6,0.17-0.96,0.17
			c-1.16,0-1.88-0.55-1.88-1.77v-3.57h-1.38v-0.91h1.38v-1.42l1.13-0.36v1.77h1.62V131.66z"/>
		<path d="M67.04,135.52h1.34l-1.02,2.94h-1.08L67.04,135.52z"/>
		<path d="M75.71,131.66h-1.62V135c0,0.71,0.43,1.09,0.95,1.09c0.35,0,0.6-0.11,0.77-0.22v0.96c-0.25,0.07-0.6,0.17-0.96,0.17
			c-1.16,0-1.88-0.55-1.88-1.77v-3.57h-1.38v-0.91h1.38v-1.42l1.13-0.36v1.77h1.62V131.66z"/>
		<path d="M76.51,127.87h1.13v3.75h0.02c0.41-0.65,1.12-1.02,1.97-1.02c1.58,0,2.29,0.98,2.29,2.63v3.63h-1.13v-3.17
			c0-1.43-0.31-2.12-1.3-2.18c-1.28,0-1.86,1.03-1.86,2.52v2.83h-1.13V127.87z"/>
		<path d="M87.92,136.61c-0.43,0.16-0.92,0.4-1.93,0.4c-2.17,0-3.17-1.32-3.17-3.31c0-1.81,1.14-3.09,2.87-3.09
			c2.04,0,2.7,1.49,2.7,3.45h-4.37c0,1.21,0.95,2.04,2.02,2.04c0.74,0,1.61-0.38,1.88-0.61V136.61z M87.19,133.21
			c0-0.94-0.55-1.7-1.52-1.7c-1.1,0-1.56,0.91-1.64,1.7H87.19z"/>
		<path d="M92.02,130.74h1.08v0.86h0.02c0.3-0.46,1-1.01,2.07-1.01c1.77,0,2.64,1.45,2.64,3.09c0,1.68-0.78,3.31-2.63,3.31
			c-1.08,0-1.69-0.42-2.04-0.98h-0.02v3.36h-1.13V130.74z M94.95,131.51c-1.22,0-1.81,1.16-1.81,2.3c0,1.02,0.53,2.28,1.8,2.28
			c1.21,0,1.72-1.36,1.69-2.32C96.66,132.67,96.18,131.51,94.95,131.51z"/>
		<path d="M98.74,130.74h1.06v0.95h0.02c0.3-0.64,0.95-1.09,1.59-1.09c0.34,0,0.5,0.04,0.74,0.08v1.01
			c-0.2-0.08-0.43-0.11-0.62-0.11c-1.01,0-1.67,0.96-1.67,2.5v2.78h-1.13V130.74z"/>
		<path d="M104.14,129.38h-1.27v-1.27h1.27V129.38z M102.94,130.74h1.13v6.12h-1.13V130.74z"/>
		<path d="M105.52,130.74h1.09v0.97h0.02c0.34-0.7,1.15-1.12,2-1.12c1.58,0,2.29,0.98,2.29,2.63v3.63h-1.13v-3.17
			c0-1.43-0.31-2.12-1.3-2.18c-1.28,0-1.86,1.03-1.86,2.52v2.83h-1.13V130.74z"/>
		<path d="M115.49,131.66h-1.62V135c0,0.71,0.43,1.09,0.95,1.09c0.35,0,0.6-0.11,0.77-0.22v0.96c-0.25,0.07-0.6,0.17-0.96,0.17
			c-1.16,0-1.88-0.55-1.88-1.77v-3.57h-1.38v-0.91h1.38v-1.42l1.13-0.36v1.77h1.62V131.66z"/>
		<path d="M120.98,136.61c-0.43,0.16-0.92,0.4-1.93,0.4c-2.17,0-3.17-1.32-3.17-3.31c0-1.81,1.14-3.09,2.87-3.09
			c2.04,0,2.7,1.49,2.7,3.45h-4.37c0,1.21,0.95,2.04,2.02,2.04c0.74,0,1.61-0.38,1.88-0.61V136.61z M120.25,133.21
			c0-0.94-0.55-1.7-1.52-1.7c-1.1,0-1.56,0.91-1.64,1.7H120.25z"/>
		<path d="M122.35,130.74h1.06v0.95h0.02c0.3-0.64,0.95-1.09,1.59-1.09c0.34,0,0.5,0.04,0.74,0.08v1.01
			c-0.2-0.08-0.43-0.11-0.62-0.11c-1.01,0-1.67,0.96-1.67,2.5v2.78h-1.13V130.74z"/>
		<path d="M125.34,135.52h1.34l-1.02,2.94h-1.08L125.34,135.52z"/>
		<path d="M131.04,131.17c0.56-0.33,1.24-0.58,2.01-0.58c1.75,0,2.46,0.86,2.46,2.53v2.53c0,0.7,0.02,1.02,0.05,1.2h-1.06v-0.79
			h-0.02c-0.26,0.37-0.86,0.94-1.9,0.94c-1.32,0-2.24-0.58-2.24-1.91c0-1.54,1.68-2.01,2.84-2.01c0.44,0,0.76,0,1.2,0.02
			c0-1.06-0.38-1.6-1.51-1.6c-0.64,0-1.32,0.24-1.78,0.62L131.04,131.17z M134.39,133.95c-0.24,0-0.48-0.02-0.72-0.02
			c-0.61,0-2.12,0.1-2.12,1.17c0,0.65,0.62,1,1.14,1c1.12,0,1.7-0.7,1.7-1.61V133.95z"/>
		<path d="M136.81,130.74h1.09v0.97h0.02c0.34-0.7,1.15-1.12,2-1.12c1.58,0,2.29,0.98,2.29,2.63v3.63h-1.13v-3.17
			c0-1.43-0.31-2.12-1.29-2.18c-1.28,0-1.86,1.03-1.86,2.52v2.83h-1.13V130.74z"/>
		<path d="M147.86,136h-0.02c-0.3,0.46-1,1.01-2.09,1.01c-1.85,0-2.63-1.64-2.63-3.31c0-1.64,0.86-3.09,2.64-3.09
			c1.07,0,1.68,0.42,2.03,0.98h0.02v-3.72h1.13v9h-1.08V136z M146.02,136.09c1.27,0,1.8-1.26,1.8-2.28c0-1.14-0.59-2.3-1.81-2.3
			c-1.22,0-1.7,1.15-1.68,2.27C144.3,134.74,144.81,136.09,146.02,136.09z"/>
		<path d="M156.23,131.66h-1.62V135c0,0.71,0.43,1.09,0.95,1.09c0.35,0,0.6-0.11,0.77-0.22v0.96c-0.25,0.07-0.6,0.17-0.96,0.17
			c-1.16,0-1.88-0.55-1.88-1.77v-3.57h-1.38v-0.91h1.38v-1.42l1.13-0.36v1.77h1.62V131.66z"/>
		<path d="M157.03,127.87h1.13v3.75h0.02c0.41-0.65,1.12-1.02,1.97-1.02c1.58,0,2.29,0.98,2.29,2.63v3.63h-1.13v-3.17
			c0-1.43-0.31-2.12-1.29-2.18c-1.28,0-1.86,1.03-1.86,2.52v2.83h-1.13V127.87z"/>
		<path d="M168.44,136.61c-0.43,0.16-0.92,0.4-1.93,0.4c-2.17,0-3.17-1.32-3.17-3.31c0-1.81,1.14-3.09,2.87-3.09
			c2.04,0,2.7,1.49,2.7,3.45h-4.37c0,1.21,0.95,2.04,2.01,2.04c0.74,0,1.61-0.38,1.88-0.61V136.61z M167.71,133.21
			c0-0.94-0.55-1.7-1.52-1.7c-1.1,0-1.56,0.91-1.64,1.7H167.71z"/>
		<path d="M176.42,131.78c-0.43-0.18-0.86-0.26-1.22-0.26c-1.26,0-1.97,1.13-1.97,2.29c0,1.09,0.59,2.29,2.04,2.29
			c0.38,0,0.86-0.12,1.21-0.35l0.08,1.01c-0.47,0.22-1.01,0.25-1.42,0.25c-1.85,0-3.12-1.45-3.12-3.2c0-1.86,1.25-3.2,3.12-3.2
			c0.46,0,1.04,0.11,1.37,0.24L176.42,131.78z"/>
		<path d="M182.66,136.86h-1.09v-0.97h-0.02c-0.33,0.7-1.15,1.12-2,1.12c-1.58,0-2.29-0.98-2.29-2.63v-3.63h1.13v3.17
			c0,1.43,0.31,2.12,1.3,2.18c1.28,0,1.86-1.03,1.86-2.52v-2.83h1.13V136.86z"/>
		<path d="M183.52,135.66c0.44,0.29,1.08,0.43,1.4,0.43c0.52,0,1.15-0.22,1.15-0.88c0-1.12-2.65-1.02-2.65-2.73
			c0-1.27,0.95-1.88,2.16-1.88c0.53,0,0.96,0.11,1.4,0.24l-0.1,0.98c-0.25-0.16-0.92-0.31-1.19-0.31c-0.58,0-1.08,0.24-1.08,0.74
			c0,1.25,2.65,0.89,2.65,2.84c0,1.31-1.04,1.91-2.13,1.91c-0.58,0-1.16-0.06-1.68-0.34L183.52,135.66z"/>
		<path d="M191.28,131.66h-1.62V135c0,0.71,0.43,1.09,0.95,1.09c0.35,0,0.6-0.11,0.77-0.22v0.96c-0.25,0.07-0.6,0.17-0.96,0.17
			c-1.16,0-1.88-0.55-1.88-1.77v-3.57h-1.38v-0.91h1.38v-1.42l1.13-0.36v1.77h1.62V131.66z"/>
		<path d="M194.8,130.6c1.86,0,3.11,1.34,3.11,3.2c0,1.75-1.27,3.2-3.11,3.2c-1.85,0-3.12-1.45-3.12-3.2
			C191.68,131.94,192.92,130.6,194.8,130.6z M194.8,136.09c1.32,0,1.91-1.2,1.91-2.29c0-1.16-0.71-2.29-1.91-2.29
			c-1.21,0-1.92,1.13-1.92,2.29C192.88,134.89,193.46,136.09,194.8,136.09z"/>
		<path d="M198.79,130.74h1.06v0.89h0.02c0.43-0.71,1.04-1.03,1.94-1.03c0.71,0,1.42,0.36,1.74,1.19c0.42-0.88,1.34-1.19,1.9-1.19
			c1.56,0,2.12,1.01,2.12,2.34v3.92h-1.13v-3.65c0-0.75-0.18-1.7-1.09-1.7c-1.15,0-1.61,1.13-1.61,2.27v3.08h-1.13v-3.65
			c0-0.75-0.18-1.7-1.09-1.7c-1.15,0-1.61,1.13-1.61,2.27v3.08h-1.13V130.74z"/>
		<path d="M213.55,136.61c-0.43,0.16-0.92,0.4-1.93,0.4c-2.17,0-3.17-1.32-3.17-3.31c0-1.81,1.14-3.09,2.87-3.09
			c2.04,0,2.7,1.49,2.7,3.45h-4.37c0,1.21,0.95,2.04,2.01,2.04c0.74,0,1.61-0.38,1.88-0.61V136.61z M212.82,133.21
			c0-0.94-0.55-1.7-1.52-1.7c-1.1,0-1.56,0.91-1.64,1.7H212.82z"/>
		<path d="M214.92,130.74h1.06v0.95H216c0.3-0.64,0.95-1.09,1.59-1.09c0.34,0,0.5,0.04,0.74,0.08v1.01
			c-0.2-0.08-0.43-0.11-0.62-0.11c-1.01,0-1.67,0.96-1.67,2.5v2.78h-1.13V130.74z"/>
		<path d="M217.91,135.52h1.34v1.34h-1.34V135.52z"/>
		<path d="M38.37,142.89h1.32l2,7.17h0.02l1.79-7.17h1.7l1.81,7.17h0.02l2-7.17h1.27l-2.58,8.37h-1.55l-1.82-7.32h-0.02l-1.83,7.32
			H40.9L38.37,142.89z"/>
		<path d="M55.03,151.01c-0.43,0.16-0.92,0.4-1.93,0.4c-2.17,0-3.17-1.32-3.17-3.31c0-1.81,1.14-3.09,2.87-3.09
			c2.04,0,2.7,1.49,2.7,3.45h-4.37c0,1.21,0.95,2.04,2.02,2.04c0.74,0,1.61-0.38,1.88-0.61V151.01z M54.3,147.61
			c0-0.94-0.55-1.7-1.52-1.7c-1.1,0-1.56,0.91-1.64,1.7H54.3z"/>
		<path d="M59.12,142.26h1.13v3.75h0.02c0.41-0.65,1.12-1.02,1.97-1.02c1.58,0,2.29,0.98,2.29,2.63v3.63H63.4v-3.17
			c0-1.43-0.31-2.12-1.3-2.18c-1.28,0-1.86,1.03-1.86,2.52v2.83h-1.13V142.26z"/>
		<path d="M66.13,145.58c0.56-0.34,1.24-0.58,2.02-0.58c1.75,0,2.46,0.86,2.46,2.53v2.53c0,0.7,0.02,1.02,0.05,1.2H69.6v-0.79h-0.02
			c-0.26,0.37-0.86,0.94-1.9,0.94c-1.32,0-2.24-0.58-2.24-1.91c0-1.54,1.68-2.01,2.84-2.01c0.44,0,0.76,0,1.2,0.02
			c0-1.06-0.38-1.59-1.51-1.59c-0.64,0-1.32,0.24-1.78,0.62L66.13,145.58z M69.48,148.35c-0.24,0-0.48-0.02-0.72-0.02
			c-0.61,0-2.12,0.1-2.12,1.18c0,0.65,0.62,1,1.14,1c1.12,0,1.7-0.7,1.7-1.61V148.35z"/>
		<path d="M74.61,151.26h-1.34l-2.19-6.12h1.24l1.66,4.99h0.02l1.69-4.99h1.13L74.61,151.26z"/>
		<path d="M81.98,151.01c-0.43,0.16-0.92,0.4-1.93,0.4c-2.17,0-3.17-1.32-3.17-3.31c0-1.81,1.14-3.09,2.87-3.09
			c2.04,0,2.7,1.49,2.7,3.45h-4.37c0,1.21,0.95,2.04,2.02,2.04c0.74,0,1.61-0.38,1.88-0.61V151.01z M81.25,147.61
			c0-0.94-0.55-1.7-1.52-1.7c-1.1,0-1.56,0.91-1.64,1.7H81.25z"/>
		<path d="M90.4,150.4h-0.02c-0.3,0.46-1,1.01-2.09,1.01c-1.85,0-2.63-1.64-2.63-3.31c0-1.64,0.86-3.09,2.64-3.09
			c1.07,0,1.68,0.42,2.03,0.98h0.02v-3.72h1.13v9H90.4V150.4z M88.56,150.49c1.27,0,1.8-1.26,1.8-2.28c0-1.14-0.59-2.3-1.81-2.3
			c-1.22,0-1.7,1.15-1.68,2.27C86.84,149.14,87.35,150.49,88.56,150.49z"/>
		<path d="M97.48,151.01c-0.43,0.16-0.92,0.4-1.93,0.4c-2.17,0-3.17-1.32-3.17-3.31c0-1.81,1.14-3.09,2.87-3.09
			c2.04,0,2.7,1.49,2.7,3.45h-4.37c0,1.21,0.95,2.04,2.02,2.04c0.74,0,1.61-0.38,1.88-0.61V151.01z M96.75,147.61
			c0-0.94-0.55-1.7-1.52-1.7c-1.1,0-1.56,0.91-1.64,1.7H96.75z"/>
		<path d="M98.4,150.06c0.44,0.29,1.08,0.43,1.4,0.43c0.52,0,1.15-0.22,1.15-0.88c0-1.12-2.65-1.02-2.65-2.73
			c0-1.27,0.95-1.88,2.16-1.88c0.53,0,0.96,0.11,1.4,0.24l-0.1,0.98c-0.25-0.16-0.92-0.31-1.19-0.31c-0.58,0-1.08,0.24-1.08,0.74
			c0,1.25,2.65,0.89,2.65,2.84c0,1.31-1.04,1.91-2.13,1.91c-0.58,0-1.16-0.06-1.68-0.34L98.4,150.06z"/>
		<path d="M104.25,143.78h-1.27v-1.27h1.27V143.78z M103.05,145.14h1.13v6.12h-1.13V145.14z"/>
		<path d="M111.04,151c0,1.86-0.96,2.93-3.15,2.93c-0.65,0-1.21-0.08-2.19-0.42l0.12-1.04c0.86,0.4,1.38,0.55,2.21,0.55
			c1.19,0,1.9-0.8,1.9-2.1v-0.6h-0.02c-0.48,0.64-1.27,0.95-2.05,0.95c-1.75,0-2.61-1.43-2.61-3.01c0-1.57,0.89-3.25,2.73-3.25
			c1.08,0,1.68,0.4,2.02,1.06H110v-0.91h1.04V151z M109.92,148.27c0-1.27-0.59-2.36-1.79-2.36c-1.14,0-1.7,1.24-1.7,2.28
			c0,1.15,0.65,2.16,1.7,2.16S109.92,149.41,109.92,148.27z"/>
		<path d="M112.35,145.14h1.09v0.97h0.02c0.34-0.7,1.15-1.12,2-1.12c1.58,0,2.29,0.98,2.29,2.63v3.63h-1.13v-3.17
			c0-1.43-0.31-2.12-1.3-2.18c-1.28,0-1.86,1.03-1.86,2.52v2.83h-1.13V145.14z"/>
		<path d="M123.76,151.01c-0.43,0.16-0.92,0.4-1.93,0.4c-2.17,0-3.17-1.32-3.17-3.31c0-1.81,1.14-3.09,2.87-3.09
			c2.04,0,2.7,1.49,2.7,3.45h-4.37c0,1.21,0.95,2.04,2.02,2.04c0.74,0,1.61-0.38,1.88-0.61V151.01z M123.03,147.61
			c0-0.94-0.55-1.7-1.52-1.7c-1.1,0-1.56,0.91-1.64,1.7H123.03z"/>
		<path d="M129.46,150.4h-0.02c-0.3,0.46-1,1.01-2.09,1.01c-1.85,0-2.63-1.64-2.63-3.31c0-1.64,0.86-3.09,2.64-3.09
			c1.07,0,1.68,0.42,2.03,0.98h0.02v-3.72h1.13v9h-1.08V150.4z M127.62,150.49c1.27,0,1.8-1.26,1.8-2.28c0-1.14-0.59-2.3-1.81-2.3
			c-1.22,0-1.7,1.15-1.68,2.27C125.9,149.14,126.41,150.49,127.62,150.49z"/>
		<path d="M134.87,145.58c0.56-0.34,1.23-0.58,2.01-0.58c1.75,0,2.46,0.86,2.46,2.53v2.53c0,0.7,0.02,1.02,0.05,1.2h-1.06v-0.79
			h-0.02c-0.26,0.37-0.86,0.94-1.89,0.94c-1.32,0-2.24-0.58-2.24-1.91c0-1.54,1.68-2.01,2.84-2.01c0.44,0,0.76,0,1.2,0.02
			c0-1.06-0.38-1.59-1.51-1.59c-0.64,0-1.32,0.24-1.78,0.62L134.87,145.58z M138.21,148.35c-0.24,0-0.48-0.02-0.72-0.02
			c-0.61,0-2.12,0.1-2.12,1.18c0,0.65,0.62,1,1.14,1c1.12,0,1.7-0.7,1.7-1.61V148.35z"/>
		<path d="M147.56,151.26h-1.31l-1.58-5.13h-0.02l-1.55,5.13h-1.31l-1.97-6.12h1.24l1.4,5.06h0.02l1.56-5.06h1.33l1.54,5.06h0.02
			l1.49-5.06h1.1L147.56,151.26z"/>
		<path d="M150.31,145.58c0.56-0.34,1.24-0.58,2.01-0.58c1.75,0,2.46,0.86,2.46,2.53v2.53c0,0.7,0.02,1.02,0.05,1.2h-1.06v-0.79
			h-0.02c-0.26,0.37-0.86,0.94-1.9,0.94c-1.32,0-2.24-0.58-2.24-1.91c0-1.54,1.68-2.01,2.84-2.01c0.44,0,0.76,0,1.2,0.02
			c0-1.06-0.38-1.59-1.51-1.59c-0.64,0-1.32,0.24-1.78,0.62L150.31,145.58z M153.66,148.35c-0.24,0-0.48-0.02-0.72-0.02
			c-0.61,0-2.12,0.1-2.12,1.18c0,0.65,0.62,1,1.14,1c1.12,0,1.7-0.7,1.7-1.61V148.35z"/>
		<path d="M156.08,145.14h1.06v0.95h0.02c0.3-0.64,0.95-1.09,1.59-1.09c0.34,0,0.5,0.04,0.74,0.08v1.01
			c-0.2-0.08-0.43-0.11-0.62-0.11c-1.01,0-1.67,0.96-1.67,2.49v2.78h-1.13V145.14z"/>
		<path d="M164.47,150.4h-0.02c-0.3,0.46-1,1.01-2.09,1.01c-1.85,0-2.63-1.64-2.63-3.31c0-1.64,0.86-3.09,2.64-3.09
			c1.07,0,1.68,0.42,2.03,0.98h0.02v-3.72h1.13v9h-1.08V150.4z M162.62,150.49c1.27,0,1.8-1.26,1.8-2.28c0-1.14-0.59-2.3-1.81-2.3
			c-1.22,0-1.7,1.15-1.68,2.27C160.91,149.14,161.41,150.49,162.62,150.49z"/>
		<path d="M166.35,147.58h3.08v0.91h-3.08V147.58z"/>
		<path d="M177.16,151.26h-1.31l-1.58-5.13h-0.02l-1.55,5.13h-1.31l-1.97-6.12h1.24l1.4,5.06h0.02l1.56-5.06h1.33l1.54,5.06h0.02
			l1.49-5.06h1.1L177.16,151.26z"/>
		<path d="M180.97,143.78h-1.27v-1.27h1.27V143.78z M179.77,145.14h1.13v6.12h-1.13V145.14z"/>
		<path d="M182.35,145.14h1.09v0.97h0.02c0.34-0.7,1.15-1.12,2-1.12c1.58,0,2.29,0.98,2.29,2.63v3.63h-1.13v-3.17
			c0-1.43-0.31-2.12-1.3-2.18c-1.28,0-1.86,1.03-1.86,2.52v2.83h-1.13V145.14z"/>
		<path d="M189.07,145.14h1.09v0.97h0.02c0.34-0.7,1.15-1.12,2-1.12c1.58,0,2.29,0.98,2.29,2.63v3.63h-1.13v-3.17
			c0-1.43-0.31-2.12-1.3-2.18c-1.28,0-1.86,1.03-1.86,2.52v2.83h-1.13V145.14z"/>
		<path d="M197.13,143.78h-1.27v-1.27h1.27V143.78z M195.93,145.14h1.13v6.12h-1.13V145.14z"/>
		<path d="M198.51,145.14h1.09v0.97h0.02c0.34-0.7,1.15-1.12,2-1.12c1.58,0,2.29,0.98,2.29,2.63v3.63h-1.13v-3.17
			c0-1.43-0.31-2.12-1.29-2.18c-1.28,0-1.86,1.03-1.86,2.52v2.83h-1.13V145.14z"/>
		<path d="M210.64,151c0,1.86-0.96,2.93-3.15,2.93c-0.65,0-1.21-0.08-2.19-0.42l0.12-1.04c0.86,0.4,1.38,0.55,2.21,0.55
			c1.19,0,1.9-0.8,1.9-2.1v-0.6h-0.02c-0.48,0.64-1.27,0.95-2.05,0.95c-1.75,0-2.61-1.43-2.61-3.01c0-1.57,0.89-3.25,2.73-3.25
			c1.08,0,1.68,0.4,2.01,1.06h0.02v-0.91h1.04V151z M209.52,148.27c0-1.27-0.59-2.36-1.79-2.36c-1.14,0-1.7,1.24-1.7,2.28
			c0,1.15,0.65,2.16,1.7,2.16S209.52,149.41,209.52,148.27z"/>
		<path d="M47.12,159.54h1.08v0.86h0.02c0.3-0.46,1-1.01,2.07-1.01c1.77,0,2.64,1.45,2.64,3.09c0,1.68-0.78,3.31-2.63,3.31
			c-1.08,0-1.69-0.42-2.04-0.98h-0.02v3.36h-1.13V159.54z M50.06,160.31c-1.22,0-1.81,1.16-1.81,2.3c0,1.02,0.53,2.28,1.8,2.28
			c1.21,0,1.72-1.36,1.69-2.31C51.76,161.47,51.28,160.31,50.06,160.31z"/>
		<path d="M53.84,159.54h1.06v0.95h0.02c0.3-0.64,0.95-1.09,1.59-1.09c0.34,0,0.5,0.04,0.74,0.08v1.01
			c-0.2-0.08-0.43-0.11-0.62-0.11c-1.01,0-1.67,0.96-1.67,2.49v2.78h-1.13V159.54z"/>
		<path d="M60.61,159.4c1.86,0,3.11,1.34,3.11,3.2c0,1.75-1.27,3.2-3.11,3.2c-1.85,0-3.12-1.45-3.12-3.2
			C57.49,160.74,58.74,159.4,60.61,159.4z M60.61,164.89c1.32,0,1.91-1.2,1.91-2.29c0-1.16-0.71-2.29-1.91-2.29
			c-1.21,0-1.92,1.13-1.92,2.29C58.69,163.69,59.28,164.89,60.61,164.89z"/>
		<path d="M70.03,165.4c0,1.86-0.96,2.93-3.15,2.93c-0.65,0-1.21-0.08-2.19-0.42l0.12-1.04c0.86,0.4,1.38,0.55,2.21,0.55
			c1.19,0,1.9-0.8,1.9-2.1v-0.6h-0.02c-0.48,0.64-1.27,0.95-2.05,0.95c-1.75,0-2.61-1.43-2.61-3.01c0-1.57,0.89-3.25,2.73-3.25
			c1.08,0,1.68,0.4,2.02,1.06h0.02v-0.91h1.04V165.4z M68.9,162.67c0-1.27-0.59-2.36-1.79-2.36c-1.14,0-1.7,1.24-1.7,2.28
			c0,1.15,0.65,2.16,1.7,2.16S68.9,163.81,68.9,162.67z"/>
		<path d="M71.34,159.54h1.06v0.95h0.02c0.3-0.64,0.95-1.09,1.59-1.09c0.34,0,0.5,0.04,0.74,0.08v1.01
			c-0.2-0.08-0.43-0.11-0.62-0.11c-1.01,0-1.67,0.96-1.67,2.49v2.78h-1.13V159.54z"/>
		<path d="M75.68,159.98c0.56-0.34,1.23-0.58,2.01-0.58c1.75,0,2.46,0.86,2.46,2.53v2.53c0,0.7,0.02,1.02,0.05,1.2h-1.06v-0.79
			h-0.02c-0.26,0.37-0.86,0.94-1.9,0.94c-1.32,0-2.24-0.58-2.24-1.91c0-1.54,1.68-2.01,2.84-2.01c0.44,0,0.76,0,1.2,0.02
			c0-1.06-0.38-1.59-1.51-1.59c-0.64,0-1.32,0.24-1.78,0.62L75.68,159.98z M79.03,162.75c-0.24,0-0.48-0.02-0.72-0.02
			c-0.61,0-2.12,0.1-2.12,1.18c0,0.65,0.62,1,1.14,1c1.12,0,1.7-0.7,1.7-1.61V162.75z"/>
		<path d="M81.44,159.54h1.06v0.89h0.02c0.43-0.71,1.04-1.03,1.94-1.03c0.71,0,1.42,0.36,1.74,1.19c0.42-0.88,1.34-1.19,1.9-1.19
			c1.56,0,2.12,1.01,2.12,2.34v3.92h-1.13v-3.65c0-0.76-0.18-1.7-1.09-1.7c-1.15,0-1.61,1.13-1.61,2.27v3.08h-1.13v-3.65
			c0-0.76-0.18-1.7-1.09-1.7c-1.15,0-1.61,1.13-1.61,2.27v3.08h-1.13V159.54z"/>
		<path d="M91.05,164.46c0.44,0.29,1.08,0.43,1.4,0.43c0.52,0,1.15-0.22,1.15-0.88c0-1.12-2.65-1.02-2.65-2.73
			c0-1.27,0.95-1.88,2.16-1.88c0.53,0,0.96,0.11,1.4,0.24l-0.1,0.98c-0.25-0.16-0.92-0.31-1.19-0.31c-0.58,0-1.08,0.24-1.08,0.74
			c0,1.25,2.65,0.89,2.65,2.84c0,1.31-1.04,1.91-2.13,1.91c-0.58,0-1.16-0.06-1.68-0.34L91.05,164.46z"/>
		<path d="M98.29,156.67h1.13v3.72h0.02c0.35-0.56,0.96-0.98,2.03-0.98c1.77,0,2.64,1.45,2.64,3.09c0,1.68-0.78,3.31-2.63,3.31
			c-1.09,0-1.79-0.55-2.09-1.01h-0.02v0.86h-1.08V156.67z M101.23,160.31c-1.22,0-1.81,1.16-1.81,2.3c0,1.02,0.53,2.28,1.8,2.28
			c1.21,0,1.72-1.36,1.69-2.31C102.93,161.47,102.45,160.31,101.23,160.31z"/>
		<path d="M107.72,159.4c1.86,0,3.11,1.34,3.11,3.2c0,1.75-1.27,3.2-3.11,3.2c-1.85,0-3.12-1.45-3.12-3.2
			C104.6,160.74,105.85,159.4,107.72,159.4z M107.72,164.89c1.32,0,1.91-1.2,1.91-2.29c0-1.16-0.71-2.29-1.91-2.29
			c-1.21,0-1.92,1.13-1.92,2.29C105.8,163.69,106.39,164.89,107.72,164.89z"/>
		<path d="M114.98,160.46h-1.62v3.35c0,0.71,0.43,1.09,0.95,1.09c0.35,0,0.6-0.11,0.77-0.22v0.96c-0.25,0.07-0.6,0.17-0.96,0.17
			c-1.16,0-1.88-0.55-1.88-1.78v-3.57h-1.38v-0.91h1.38v-1.42l1.13-0.36v1.78h1.62V160.46z"/>
		<path d="M115.79,156.67h1.13v3.75h0.02c0.41-0.65,1.12-1.02,1.97-1.02c1.58,0,2.29,0.98,2.29,2.63v3.63h-1.13v-3.17
			c0-1.43-0.31-2.12-1.3-2.18c-1.28,0-1.86,1.03-1.86,2.52v2.83h-1.13V156.67z"/>
		<path d="M125.37,156.67h1.13v9h-1.13V156.67z"/>
		<path d="M128.24,159.98c0.56-0.34,1.23-0.58,2.01-0.58c1.75,0,2.46,0.86,2.46,2.53v2.53c0,0.7,0.02,1.02,0.05,1.2h-1.06v-0.79
			h-0.02c-0.26,0.37-0.86,0.94-1.89,0.94c-1.32,0-2.24-0.58-2.24-1.91c0-1.54,1.68-2.01,2.84-2.01c0.44,0,0.76,0,1.2,0.02
			c0-1.06-0.38-1.59-1.51-1.59c-0.64,0-1.32,0.24-1.78,0.62L128.24,159.98z M131.59,162.75c-0.24,0-0.48-0.02-0.72-0.02
			c-0.61,0-2.12,0.1-2.12,1.18c0,0.65,0.62,1,1.14,1c1.12,0,1.7-0.7,1.7-1.61V162.75z"/>
		<path d="M134.01,159.54h1.06v0.95h0.02c0.3-0.64,0.95-1.09,1.59-1.09c0.34,0,0.5,0.04,0.74,0.08v1.01
			c-0.2-0.08-0.43-0.11-0.62-0.11c-1.01,0-1.67,0.96-1.67,2.49v2.78h-1.13V159.54z"/>
		<path d="M143.48,165.4c0,1.86-0.96,2.93-3.15,2.93c-0.65,0-1.21-0.08-2.2-0.42l0.12-1.04c0.86,0.4,1.38,0.55,2.21,0.55
			c1.19,0,1.89-0.8,1.89-2.1v-0.6h-0.02c-0.48,0.64-1.27,0.95-2.05,0.95c-1.75,0-2.62-1.43-2.62-3.01c0-1.57,0.89-3.25,2.73-3.25
			c1.08,0,1.68,0.4,2.02,1.06h0.02v-0.91h1.04V165.4z M142.35,162.67c0-1.27-0.59-2.36-1.79-2.36c-1.14,0-1.7,1.24-1.7,2.28
			c0,1.15,0.65,2.16,1.7,2.16C141.62,164.75,142.35,163.81,142.35,162.67z"/>
		<path d="M149.48,165.41c-0.43,0.16-0.92,0.4-1.93,0.4c-2.17,0-3.17-1.32-3.17-3.31c0-1.81,1.14-3.09,2.87-3.09
			c2.04,0,2.7,1.49,2.7,3.45h-4.37c0,1.21,0.95,2.04,2.02,2.04c0.74,0,1.61-0.38,1.88-0.61V165.41z M148.75,162.01
			c0-0.94-0.55-1.7-1.52-1.7c-1.1,0-1.56,0.91-1.64,1.7H148.75z"/>
		<path d="M153.86,159.98c0.56-0.34,1.24-0.58,2.01-0.58c1.75,0,2.46,0.86,2.46,2.53v2.53c0,0.7,0.02,1.02,0.05,1.2h-1.06v-0.79
			h-0.02c-0.26,0.37-0.86,0.94-1.9,0.94c-1.32,0-2.24-0.58-2.24-1.91c0-1.54,1.68-2.01,2.84-2.01c0.44,0,0.76,0,1.2,0.02
			c0-1.06-0.38-1.59-1.51-1.59c-0.64,0-1.32,0.24-1.78,0.62L153.86,159.98z M157.21,162.75c-0.24,0-0.48-0.02-0.72-0.02
			c-0.61,0-2.12,0.1-2.12,1.18c0,0.65,0.62,1,1.14,1c1.12,0,1.7-0.7,1.7-1.61V162.75z"/>
		<path d="M159.63,159.54h1.09v0.97h0.02c0.34-0.7,1.15-1.12,2-1.12c1.58,0,2.29,0.98,2.29,2.63v3.63h-1.13v-3.17
			c0-1.43-0.31-2.12-1.29-2.18c-1.28,0-1.86,1.03-1.86,2.52v2.83h-1.13V159.54z"/>
		<path d="M170.68,164.8h-0.02c-0.3,0.46-1,1.01-2.09,1.01c-1.85,0-2.63-1.64-2.63-3.31c0-1.64,0.86-3.09,2.64-3.09
			c1.07,0,1.68,0.42,2.03,0.98h0.02v-3.72h1.13v9h-1.08V164.8z M168.83,164.89c1.27,0,1.8-1.26,1.8-2.28c0-1.14-0.59-2.3-1.81-2.3
			c-1.22,0-1.7,1.15-1.68,2.27C167.12,163.54,167.62,164.89,168.83,164.89z"/>
		<path d="M175.34,164.46c0.44,0.29,1.08,0.43,1.4,0.43c0.52,0,1.15-0.22,1.15-0.88c0-1.12-2.65-1.02-2.65-2.73
			c0-1.27,0.95-1.88,2.16-1.88c0.53,0,0.96,0.11,1.4,0.24l-0.1,0.98c-0.25-0.16-0.92-0.31-1.19-0.31c-0.58,0-1.08,0.24-1.08,0.74
			c0,1.25,2.65,0.89,2.65,2.84c0,1.31-1.04,1.91-2.13,1.91c-0.58,0-1.16-0.06-1.68-0.34L175.34,164.46z"/>
		<path d="M179.84,159.54h1.06v0.89h0.02c0.43-0.71,1.04-1.03,1.94-1.03c0.71,0,1.42,0.36,1.74,1.19c0.42-0.88,1.34-1.19,1.89-1.19
			c1.56,0,2.12,1.01,2.12,2.34v3.92h-1.13v-3.65c0-0.76-0.18-1.7-1.09-1.7c-1.15,0-1.61,1.13-1.61,2.27v3.08h-1.13v-3.65
			c0-0.76-0.18-1.7-1.09-1.7c-1.15,0-1.61,1.13-1.61,2.27v3.08h-1.13V159.54z"/>
		<path d="M190.2,159.98c0.56-0.34,1.24-0.58,2.01-0.58c1.75,0,2.46,0.86,2.46,2.53v2.53c0,0.7,0.02,1.02,0.05,1.2h-1.06v-0.79
			h-0.02c-0.26,0.37-0.86,0.94-1.9,0.94c-1.32,0-2.24-0.58-2.24-1.91c0-1.54,1.68-2.01,2.84-2.01c0.44,0,0.76,0,1.2,0.02
			c0-1.06-0.38-1.59-1.51-1.59c-0.64,0-1.32,0.24-1.78,0.62L190.2,159.98z M193.54,162.75c-0.24,0-0.48-0.02-0.72-0.02
			c-0.61,0-2.12,0.1-2.12,1.18c0,0.65,0.62,1,1.14,1c1.12,0,1.7-0.7,1.7-1.61V162.75z"/>
		<path d="M196.11,156.67h1.13v9h-1.13V156.67z"/>
		<path d="M198.84,156.67h1.13v9h-1.13V156.67z"/>
		<path d="M201.45,164.32h1.34v1.34h-1.34V164.32z"/>
	</g>
</g>
</svg>
