<?xml version="1.0" encoding="utf-8"?>
<!-- Generator: Adobe Illustrator 23.0.3, SVG Export Plug-In . SVG Version: 6.00 Build 0)  -->
<svg version="1.1" id="Layer_1" xmlns="http://www.w3.org/2000/svg" xmlns:xlink="http://www.w3.org/1999/xlink" x="0px" y="0px"
	 viewBox="0 0 250 250" style="enable-background:new 0 0 250 250;" xml:space="preserve">
<style type="text/css">
	.st0{fill:#C4E7E8;}
	.st1{fill:none;stroke:#FFFFFF;stroke-width:10;stroke-miterlimit:10;}
	.st2{fill:none;stroke:#FFFFFF;stroke-width:10;stroke-linecap:round;stroke-linejoin:round;stroke-miterlimit:10;}
	.st3{fill:none;stroke:#FFFFFF;stroke-width:5;stroke-miterlimit:10;}
	.st4{fill:none;stroke:#FFFFFF;stroke-width:5;stroke-linecap:round;stroke-linejoin:round;stroke-miterlimit:10;}
	.st5{fill:none;stroke:#FFFFFF;stroke-width:3;stroke-miterlimit:10;}
	.st6{fill:none;stroke:#FFFFFF;stroke-width:3;stroke-linecap:round;stroke-linejoin:round;stroke-miterlimit:10;}
	.st7{fill:none;stroke:#FFFFFF;stroke-width:6;stroke-miterlimit:10;}
	.st8{fill:none;stroke:#FFFFFF;stroke-width:6;stroke-linecap:round;stroke-linejoin:round;stroke-miterlimit:10;}
	.st9{fill:none;stroke:#FFFFFF;stroke-width:7;stroke-miterlimit:10;}
	.st10{fill:none;stroke:#FFFFFF;stroke-width:7;stroke-linecap:round;stroke-linejoin:round;stroke-miterlimit:10;}
</style>
<circle class="st0" cx="125" cy="125" r="125"/>
<g>
	<g>
		<circle class="st1" cx="135.35" cy="117.73" r="34.93"/>
		<polygon class="st2" points="132.01,82.7 123.72,84.52 122.7,73.87 128.48,72.6 		"/>
		<polygon class="st2" points="138.68,152.76 146.98,150.94 147.99,161.59 142.22,162.86 		"/>
		<polygon class="st2" points="114.94,89.06 108.67,94.78 102.47,86.07 106.84,82.09 		"/>
		<polygon class="st2" points="155.75,146.4 162.02,140.68 168.23,149.39 163.86,153.37 		"/>
		<polygon class="st2" points="103.34,103.1 100.77,111.19 91.04,106.75 92.83,101.12 		"/>
		<polygon class="st2" points="167.35,132.36 169.92,124.27 179.65,128.71 177.86,134.34 		"/>
		<polygon class="st2" points="100.32,121.07 102.14,129.36 91.49,130.37 90.22,124.6 		"/>
		<polygon class="st2" points="170.38,114.39 168.56,106.1 179.21,105.09 180.47,110.86 		"/>
		<polygon class="st2" points="106.68,138.13 112.4,144.41 103.69,150.61 99.7,146.24 		"/>
		<polygon class="st2" points="164.02,97.33 158.3,91.05 167.01,84.85 170.99,89.22 		"/>
		<polygon class="st2" points="120.72,149.74 128.81,152.31 124.37,162.04 118.73,160.24 		"/>
		<polygon class="st2" points="149.97,85.72 141.88,83.15 146.33,73.42 151.96,75.22 		"/>
	</g>
	<g>
		<circle class="st3" cx="177.17" cy="62.03" r="14.06"/>
		<polygon class="st4" points="175.83,47.94 172.49,48.67 172.09,44.38 174.41,43.87 		"/>
		<polygon class="st4" points="178.52,76.13 181.85,75.4 182.26,79.68 179.94,80.19 		"/>
		<polygon class="st4" points="168.96,50.5 166.44,52.8 163.94,49.29 165.7,47.69 		"/>
		<polygon class="st4" points="185.38,73.57 187.91,71.27 190.4,74.77 188.65,76.38 		"/>
		<polygon class="st4" points="164.3,56.15 163.26,59.4 159.35,57.61 160.07,55.35 		"/>
		<polygon class="st4" points="190.05,67.92 191.09,64.66 195,66.45 194.28,68.72 		"/>
		<polygon class="st4" points="191.27,60.69 190.54,57.35 194.82,56.94 195.33,59.27 		"/>
		<polygon class="st4" points="165.64,70.24 167.94,72.77 164.43,75.26 162.83,73.51 		"/>
		<polygon class="st4" points="188.71,53.82 186.41,51.3 189.91,48.8 191.52,50.56 		"/>
		<polygon class="st4" points="171.29,74.91 174.54,75.95 172.76,79.86 170.49,79.14 		"/>
		<polygon class="st4" points="183.06,49.15 179.8,48.12 181.59,44.2 183.86,44.93 		"/>
	</g>
	<g>
		<circle class="st5" cx="106.54" cy="61.35" r="11.18"/>
		<polygon class="st6" points="105.48,50.14 102.82,50.72 102.5,47.31 104.35,46.91 		"/>
		<polygon class="st6" points="107.61,72.56 110.27,71.97 110.59,75.38 108.74,75.79 		"/>
		<polygon class="st6" points="100.02,52.17 98.01,54 96.02,51.22 97.42,49.94 		"/>
		<polygon class="st6" points="113.07,70.52 115.08,68.69 117.07,71.48 115.67,72.75 		"/>
		<polygon class="st6" points="96.3,56.67 95.48,59.26 92.37,57.83 92.94,56.03 		"/>
		<polygon class="st6" points="116.79,66.03 117.61,63.44 120.72,64.86 120.15,66.66 		"/>
		<polygon class="st6" points="95.34,62.42 95.92,65.07 92.51,65.39 92.11,63.55 		"/>
		<polygon class="st6" points="117.75,60.28 117.17,57.63 120.58,57.3 120.98,59.15 		"/>
		<polygon class="st6" points="97.37,67.88 99.2,69.88 96.41,71.87 95.14,70.47 		"/>
		<polygon class="st6" points="115.72,54.82 113.89,52.81 116.68,50.83 117.95,52.22 		"/>
		<polygon class="st6" points="101.86,71.59 104.45,72.41 103.03,75.52 101.23,74.95 		"/>
		<polygon class="st6" points="111.22,51.11 108.64,50.28 110.06,47.17 111.86,47.74 		"/>
	</g>
	<g>
		<circle class="st5" cx="71.77" cy="191.69" r="11.18"/>
		<polygon class="st6" points="70.71,180.48 68.05,181.06 67.73,177.65 69.57,177.25 		"/>
		<polygon class="st6" points="72.84,202.89 75.49,202.31 75.82,205.72 73.97,206.13 		"/>
		<polygon class="st6" points="65.24,182.51 63.24,184.34 61.25,181.56 62.65,180.28 		"/>
		<polygon class="st6" points="78.3,200.86 80.31,199.03 82.29,201.82 80.9,203.09 		"/>
		<polygon class="st6" points="61.53,187.01 60.71,189.59 57.6,188.17 58.17,186.37 		"/>
		<polygon class="st6" points="82.01,196.37 82.84,193.78 85.95,195.2 85.38,197 		"/>
		<polygon class="st6" points="60.56,192.75 61.15,195.41 57.74,195.73 57.33,193.88 		"/>
		<polygon class="st6" points="82.98,190.62 82.4,187.96 85.81,187.64 86.21,189.49 		"/>
		<polygon class="st6" points="62.6,198.22 64.43,200.22 61.64,202.21 60.37,200.81 		"/>
		<polygon class="st6" points="80.95,185.16 79.12,183.15 81.9,181.16 83.18,182.56 		"/>
		<polygon class="st6" points="67.09,201.93 69.68,202.75 68.26,205.86 66.46,205.29 		"/>
		<polygon class="st6" points="76.45,181.44 73.86,180.62 75.29,177.51 77.09,178.08 		"/>
	</g>
	<g>
		<circle class="st7" cx="207.25" cy="96.63" r="16.77"/>
		<polygon class="st8" points="205.64,79.81 201.66,80.68 201.17,75.57 203.95,74.96 		"/>
		<polygon class="st8" points="208.85,113.45 212.83,112.58 213.32,117.69 210.55,118.3 		"/>
		<polygon class="st8" points="197.45,82.87 194.44,85.61 191.46,81.43 193.56,79.52 		"/>
		<polygon class="st8" points="217.04,110.4 220.06,107.65 223.03,111.84 220.94,113.75 		"/>
		<polygon class="st8" points="191.88,89.61 190.64,93.49 185.97,91.36 186.83,88.66 		"/>
		<polygon class="st8" points="222.62,103.66 223.85,99.77 228.52,101.9 227.66,104.61 		"/>
		<polygon class="st8" points="190.43,98.24 191.3,102.22 186.19,102.7 185.58,99.93 		"/>
		<polygon class="st8" points="224.07,95.03 223.19,91.05 228.31,90.56 228.92,93.33 		"/>
		<polygon class="st8" points="193.48,106.43 196.23,109.44 192.04,112.42 190.13,110.32 		"/>
		<polygon class="st8" points="221.01,86.83 218.27,83.82 222.45,80.84 224.36,82.94 		"/>
		<polygon class="st8" points="200.22,112 204.11,113.24 201.97,117.91 199.27,117.05 		"/>
		<polygon class="st8" points="214.27,81.26 210.38,80.03 212.52,75.36 215.22,76.22 		"/>
	</g>
	<g>
		<circle class="st7" cx="204.11" cy="144.82" r="16.77"/>
		<polygon class="st8" points="202.51,128 198.52,128.87 198.04,123.76 200.81,123.15 		"/>
		<polygon class="st8" points="205.71,161.64 209.69,160.77 210.18,165.88 207.41,166.49 		"/>
		<polygon class="st8" points="194.31,131.05 191.3,133.8 188.32,129.61 190.42,127.7 		"/>
		<polygon class="st8" points="213.91,158.58 216.92,155.84 219.9,160.02 217.8,161.93 		"/>
		<polygon class="st8" points="188.74,137.79 187.5,141.68 182.83,139.54 183.69,136.84 		"/>
		<polygon class="st8" points="219.48,151.84 220.71,147.96 225.38,150.09 224.52,152.79 		"/>
		<polygon class="st8" points="187.29,146.42 188.16,150.4 183.05,150.89 182.44,148.12 		"/>
		<polygon class="st8" points="220.93,143.21 220.06,139.23 225.17,138.75 225.78,141.52 		"/>
		<polygon class="st8" points="190.34,154.62 193.09,157.63 188.9,160.61 186.99,158.51 		"/>
		<polygon class="st8" points="217.87,135.02 215.13,132.01 219.31,129.03 221.22,131.13 		"/>
		<polygon class="st8" points="197.09,160.19 200.97,161.42 198.84,166.09 196.13,165.23 		"/>
		<polygon class="st8" points="211.13,129.45 207.25,128.21 209.38,123.54 212.09,124.4 		"/>
	</g>
	<g>
		<circle class="st5" cx="99.5" cy="173.57" r="14.02"/>
		<polygon class="st6" points="98.17,159.51 94.84,160.24 94.43,155.97 96.75,155.46 		"/>
		<polygon class="st6" points="100.84,187.63 104.17,186.9 104.58,191.18 102.26,191.69 		"/>
		<polygon class="st6" points="91.31,162.07 88.8,164.36 86.31,160.87 88.06,159.27 		"/>
		<polygon class="st6" points="107.69,185.08 110.21,182.78 112.7,186.28 110.95,187.88 		"/>
		<polygon class="st6" points="86.66,167.7 85.63,170.95 81.72,169.17 82.44,166.9 		"/>
		<polygon class="st6" points="112.35,179.44 113.38,176.2 117.29,177.98 116.57,180.24 		"/>
		<polygon class="st6" points="85.44,174.91 86.17,178.24 81.9,178.65 81.39,176.33 		"/>
		<polygon class="st6" points="113.56,172.23 112.84,168.91 117.11,168.5 117.62,170.82 		"/>
		<polygon class="st6" points="88,181.76 90.29,184.28 86.8,186.77 85.2,185.02 		"/>
		<polygon class="st6" points="111.01,165.38 108.72,162.87 112.21,160.38 113.81,162.13 		"/>
		<polygon class="st6" points="93.63,186.42 96.88,187.45 95.1,191.36 92.84,190.64 		"/>
		<polygon class="st6" points="105.37,160.73 102.13,159.69 103.91,155.79 106.17,156.51 		"/>
	</g>
	<g>
		<circle class="st9" cx="53.98" cy="143.94" r="25.46"/>
		<polygon class="st10" points="51.55,118.4 45.5,119.73 44.76,111.97 48.97,111.04 		"/>
		<polygon class="st10" points="56.41,169.47 62.45,168.15 63.19,175.91 58.99,176.83 		"/>
		<polygon class="st10" points="39.1,123.04 34.53,127.21 30.01,120.86 33.19,117.95 		"/>
		<polygon class="st10" points="68.85,164.83 73.42,160.66 77.94,167.01 74.76,169.92 		"/>
		<polygon class="st10" points="30.65,133.28 28.77,139.17 21.68,135.93 22.99,131.83 		"/>
		<polygon class="st10" points="77.31,154.6 79.18,148.7 86.27,151.94 84.97,156.05 		"/>
		<polygon class="st10" points="28.44,146.37 29.77,152.41 22.01,153.15 21.08,148.94 		"/>
		<polygon class="st10" points="79.51,141.5 78.19,135.46 85.95,134.72 86.87,138.93 		"/>
		<polygon class="st10" points="33.08,158.81 37.25,163.38 30.9,167.9 28,164.72 		"/>
		<polygon class="st10" points="74.87,129.06 70.71,124.49 77.06,119.97 79.96,123.15 		"/>
		<polygon class="st10" points="43.32,167.27 49.21,169.14 45.97,176.23 41.87,174.93 		"/>
		<polygon class="st10" points="64.64,120.61 58.74,118.73 61.98,111.64 66.09,112.95 		"/>
	</g>
</g>
<g>
	<g>
		<path d="M22.71,81.99h3.19c2.74,0,5.24,0.79,5.24,3.8c0,2.93-2.14,4-4.84,4h-1.06v4.77h-2.52V81.99z M25.23,87.81h0.88
			c1.26,0,2.39-0.41,2.39-1.87s-1.1-1.96-2.39-1.96h-0.88V87.81z"/>
		<path d="M32.72,81.99h2.72c2.7,0,5.92-0.09,5.92,3.4c0,1.48-0.99,2.7-2.59,2.92v0.04c0.68,0.05,1.08,0.74,1.33,1.3l2.02,4.92
			h-2.81l-1.51-3.93c-0.36-0.94-0.68-1.3-1.75-1.3h-0.81v5.22h-2.52V81.99z M35.24,87.36h0.83c1.24,0,2.67-0.18,2.67-1.75
			c0-1.51-1.4-1.64-2.67-1.64h-0.83V87.36z"/>
		<path d="M49.48,81.78c3.94,0,6.16,2.66,6.16,6.46s-2.18,6.54-6.16,6.54c-4.03,0-6.16-2.68-6.16-6.54S45.48,81.78,49.48,81.78z
			 M49.48,92.8c2.57,0,3.53-2.29,3.53-4.56c0-2.21-1.03-4.48-3.53-4.48c-2.5,0-3.53,2.27-3.53,4.48
			C45.95,90.51,46.9,92.8,49.48,92.8z"/>
		<path d="M56.88,92.37c0.34,0.13,0.7,0.22,1.21,0.22c1.64,0,1.64-1.31,1.64-2.21v-8.37h2.52v9.58c0,1.33-0.86,3.2-3.44,3.2
			c-0.68,0-1.22-0.05-1.93-0.23V92.37z"/>
		<path d="M64.94,81.99h7.42v1.98h-4.9v3.1h4.48v1.98h-4.48v3.53h4.93v1.98h-7.45V81.99z"/>
		<path d="M84.09,94.38c-0.92,0.22-1.91,0.4-2.86,0.4c-4.07,0-6.9-2.03-6.9-6.28c0-4.3,2.63-6.72,6.9-6.72
			c0.83,0,1.93,0.16,2.85,0.52l-0.18,2.12c-0.95-0.54-1.82-0.67-2.72-0.67c-2.59,0-4.21,1.98-4.21,4.56c0,2.56,1.58,4.48,4.27,4.48
			c0.99,0,2.16-0.22,2.75-0.52L84.09,94.38z"/>
		<path d="M88.23,83.97h-3.6v-1.98h9.72v1.98h-3.6v10.59h-2.52V83.97z"/>
		<path d="M100.96,81.99h4.03l2.99,9.52h0.04l2.99-9.52h4.03v12.57h-2.41V84.19h-0.04l-3.38,10.37h-2.41l-3.38-10.37l-0.04,0.04
			v10.33h-2.41V81.99z"/>
		<path d="M121.55,81.99h2.84l4.93,12.57h-2.79l-1.08-2.88h-5.1l-1.1,2.88h-2.61L121.55,81.99z M122.94,84.51h-0.04l-1.82,5.19h3.67
			L122.94,84.51z"/>
		<path d="M130.82,81.99h3.1l4.79,9.4h0.04v-9.4h2.41v12.57h-3.08l-4.81-9.4h-0.04v9.4h-2.41V81.99z"/>
		<path d="M147.54,81.99h2.84l4.93,12.57h-2.79l-1.08-2.88h-5.1l-1.1,2.88h-2.61L147.54,81.99z M148.93,84.51h-0.04l-1.82,5.19h3.67
			L148.93,84.51z"/>
		<path d="M166.75,84.42c-0.97-0.45-2.23-0.67-3.24-0.67c-2.93,0-4.55,1.98-4.55,4.56c0,2.56,1.58,4.48,4.27,4.48
			c0.68,0,1.22-0.07,1.66-0.18v-3.28h-2.67v-1.98h5.08v6.77c-1.33,0.36-2.72,0.65-4.07,0.65c-4.07,0-6.9-2.03-6.9-6.28
			c0-4.3,2.63-6.72,6.9-6.72c1.46,0,2.61,0.2,3.69,0.52L166.75,84.42z"/>
		<path d="M169.93,81.99h7.42v1.98h-4.9v3.1h4.48v1.98h-4.48v3.53h4.93v1.98h-7.45V81.99z"/>
		<path d="M179.94,81.99h4.03l2.99,9.52H187l2.99-9.52h4.03v12.57h-2.41V84.19h-0.04l-3.38,10.37h-2.41l-3.38-10.37l-0.04,0.04
			v10.33h-2.41V81.99z"/>
		<path d="M196.93,81.99h7.42v1.98h-4.9v3.1h4.48v1.98h-4.48v3.53h4.93v1.98h-7.45V81.99z"/>
		<path d="M206.81,81.99h3.1l4.79,9.4h0.04v-9.4h2.41v12.57h-3.08l-4.81-9.4h-0.04v9.4h-2.41V81.99z"/>
		<path d="M222.22,83.97h-3.6v-1.98h9.72v1.98h-3.6v10.59h-2.52V83.97z"/>
	</g>
	<g>
		<path d="M19.14,114.09h1.32l2,7.17h0.02l1.79-7.17h1.7l1.81,7.17h0.02l2-7.17h1.27l-2.58,8.37h-1.55l-1.82-7.32h-0.02l-1.83,7.32
			h-1.61L19.14,114.09z"/>
		<path d="M33.12,114.98h-1.27v-1.27h1.27V114.98z M31.92,116.34h1.13v6.12h-1.13V116.34z"/>
		<path d="M38.07,117.26h-1.62v3.35c0,0.71,0.43,1.09,0.95,1.09c0.35,0,0.6-0.11,0.77-0.22v0.96c-0.25,0.07-0.6,0.17-0.96,0.17
			c-1.16,0-1.88-0.55-1.88-1.78v-3.57h-1.38v-0.91h1.38v-1.42l1.13-0.36v1.77h1.62V117.26z"/>
		<path d="M39.18,113.47h1.13v3.75h0.02c0.41-0.65,1.12-1.02,1.97-1.02c1.58,0,2.29,0.98,2.29,2.63v3.63h-1.13v-3.17
			c0-1.43-0.31-2.12-1.3-2.18c-1.28,0-1.86,1.03-1.86,2.52v2.83h-1.13V113.47z"/>
		<path d="M51.96,116.2c1.86,0,3.11,1.34,3.11,3.2c0,1.75-1.27,3.2-3.11,3.2c-1.85,0-3.12-1.45-3.12-3.2
			C48.84,117.54,50.09,116.2,51.96,116.2z M51.96,121.69c1.32,0,1.91-1.2,1.91-2.29c0-1.16-0.71-2.29-1.91-2.29
			c-1.21,0-1.92,1.13-1.92,2.29C50.04,120.49,50.63,121.69,51.96,121.69z"/>
		<path d="M58.99,122.46h-1.34l-2.19-6.12h1.24l1.66,4.99h0.02l1.69-4.99h1.13L58.99,122.46z"/>
		<path d="M66.67,122.21c-0.43,0.16-0.92,0.4-1.93,0.4c-2.17,0-3.17-1.32-3.17-3.31c0-1.81,1.14-3.09,2.87-3.09
			c2.04,0,2.7,1.49,2.7,3.45h-4.37c0,1.21,0.95,2.04,2.02,2.04c0.74,0,1.61-0.38,1.88-0.61V122.21z M65.94,118.81
			c0-0.94-0.55-1.7-1.52-1.7c-1.1,0-1.56,0.91-1.64,1.7H65.94z"/>
		<path d="M68.36,116.34h1.06v0.95h0.02c0.3-0.64,0.95-1.09,1.59-1.09c0.34,0,0.5,0.04,0.74,0.08v1.01
			c-0.2-0.08-0.43-0.11-0.62-0.11c-1.01,0-1.67,0.96-1.67,2.49v2.78h-1.13V116.34z"/>
		<path d="M78.03,115.47l-1.28,1.1l-0.64-0.8l2.05-1.68h1.07v8.37h-1.2V115.47z"/>
		<path d="M84.51,113.95c2.31,0,2.84,2.49,2.84,4.33s-0.53,4.33-2.84,4.33c-2.31,0-2.84-2.49-2.84-4.33S82.19,113.95,84.51,113.95z
			 M84.51,121.62c1.44,0,1.57-2.3,1.57-3.35c0-1.06-0.19-3.35-1.57-3.35c-1.38,0-1.57,2.29-1.57,3.35
			C82.94,119.32,83.07,121.62,84.51,121.62z"/>
		<path d="M90.88,113.95c2.31,0,2.84,2.49,2.84,4.33s-0.53,4.33-2.84,4.33c-2.31,0-2.84-2.49-2.84-4.33S88.56,113.95,90.88,113.95z
			 M90.88,121.62c1.44,0,1.57-2.3,1.57-3.35c0-1.06-0.19-3.35-1.57-3.35c-1.38,0-1.57,2.29-1.57,3.35
			C89.31,119.32,89.44,121.62,90.88,121.62z"/>
		<path d="M101.16,117.26h-1.62v3.35c0,0.71,0.43,1.09,0.95,1.09c0.35,0,0.6-0.11,0.77-0.22v0.96c-0.25,0.07-0.6,0.17-0.96,0.17
			c-1.16,0-1.88-0.55-1.88-1.78v-3.57h-1.38v-0.91h1.38v-1.42l1.13-0.36v1.77h1.62V117.26z"/>
		<path d="M104.99,116.2c1.86,0,3.11,1.34,3.11,3.2c0,1.75-1.27,3.2-3.11,3.2c-1.85,0-3.12-1.45-3.12-3.2
			C101.87,117.54,103.12,116.2,104.99,116.2z M104.99,121.69c1.32,0,1.91-1.2,1.91-2.29c0-1.16-0.71-2.29-1.91-2.29
			c-1.21,0-1.92,1.13-1.92,2.29C103.07,120.49,103.66,121.69,104.99,121.69z"/>
		<path d="M112.56,117.26h-1.62v3.35c0,0.71,0.43,1.09,0.95,1.09c0.35,0,0.6-0.11,0.77-0.22v0.96c-0.25,0.07-0.6,0.17-0.96,0.17
			c-1.16,0-1.88-0.55-1.88-1.78v-3.57h-1.38v-0.91h1.38v-1.42l1.13-0.36v1.77h1.62V117.26z"/>
		<path d="M113.97,116.78c0.56-0.34,1.24-0.58,2.02-0.58c1.75,0,2.46,0.86,2.46,2.53v2.53c0,0.7,0.02,1.02,0.05,1.2h-1.06v-0.79
			h-0.02c-0.26,0.37-0.86,0.94-1.9,0.94c-1.32,0-2.24-0.58-2.24-1.91c0-1.54,1.68-2.01,2.84-2.01c0.44,0,0.76,0,1.2,0.02
			c0-1.06-0.38-1.6-1.51-1.6c-0.64,0-1.32,0.24-1.78,0.62L113.97,116.78z M117.31,119.55c-0.24,0-0.48-0.02-0.72-0.02
			c-0.61,0-2.12,0.1-2.12,1.18c0,0.65,0.62,1,1.14,1c1.12,0,1.7-0.7,1.7-1.61V119.55z"/>
		<path d="M120.2,113.47h1.13v9h-1.13V113.47z"/>
		<path d="M125.67,124.12c0.14,0.05,0.34,0.1,0.53,0.1c1.01,0,1.34-1.39,1.34-1.51c0-0.13-0.14-0.44-0.22-0.65l-2.08-5.71h1.24
			l1.64,5.06h0.02l1.68-5.06h1.14l-2.25,6.25c-0.42,1.18-0.86,2.53-2.35,2.53c-0.36,0-0.56-0.05-0.77-0.08L125.67,124.12z"/>
		<path d="M136.51,122.21c-0.43,0.16-0.92,0.4-1.93,0.4c-2.17,0-3.17-1.32-3.17-3.31c0-1.81,1.14-3.09,2.87-3.09
			c2.04,0,2.7,1.49,2.7,3.45h-4.37c0,1.21,0.95,2.04,2.02,2.04c0.74,0,1.61-0.38,1.88-0.61V122.21z M135.78,118.81
			c0-0.94-0.55-1.7-1.52-1.7c-1.1,0-1.56,0.91-1.64,1.7H135.78z"/>
		<path d="M138.48,116.78c0.56-0.34,1.24-0.58,2.01-0.58c1.75,0,2.46,0.86,2.46,2.53v2.53c0,0.7,0.02,1.02,0.05,1.2h-1.06v-0.79
			h-0.02c-0.26,0.37-0.86,0.94-1.9,0.94c-1.32,0-2.24-0.58-2.24-1.91c0-1.54,1.68-2.01,2.84-2.01c0.44,0,0.76,0,1.2,0.02
			c0-1.06-0.38-1.6-1.51-1.6c-0.64,0-1.32,0.24-1.78,0.62L138.48,116.78z M141.83,119.55c-0.24,0-0.48-0.02-0.72-0.02
			c-0.61,0-2.12,0.1-2.12,1.18c0,0.65,0.62,1,1.14,1c1.12,0,1.7-0.7,1.7-1.61V119.55z"/>
		<path d="M144.57,116.34h1.06v0.95h0.02c0.3-0.64,0.95-1.09,1.59-1.09c0.34,0,0.5,0.04,0.74,0.08v1.01
			c-0.2-0.08-0.43-0.11-0.62-0.11c-1.01,0-1.67,0.96-1.67,2.49v2.78h-1.13V116.34z"/>
		<path d="M148.48,121.26c0.44,0.29,1.08,0.43,1.4,0.43c0.52,0,1.15-0.22,1.15-0.88c0-1.12-2.65-1.02-2.65-2.73
			c0-1.27,0.95-1.88,2.16-1.88c0.53,0,0.96,0.11,1.4,0.24l-0.1,0.98c-0.25-0.16-0.92-0.31-1.19-0.31c-0.58,0-1.08,0.24-1.08,0.74
			c0,1.25,2.65,0.89,2.65,2.84c0,1.31-1.04,1.91-2.13,1.91c-0.58,0-1.16-0.06-1.68-0.34L148.48,121.26z"/>
		<path d="M159.05,116.2c1.86,0,3.11,1.34,3.11,3.2c0,1.75-1.27,3.2-3.11,3.2c-1.85,0-3.12-1.45-3.12-3.2
			C155.93,117.54,157.18,116.2,159.05,116.2z M159.05,121.69c1.32,0,1.91-1.2,1.91-2.29c0-1.16-0.71-2.29-1.91-2.29
			c-1.21,0-1.92,1.13-1.92,2.29C157.13,120.49,157.72,121.69,159.05,121.69z"/>
		<path d="M164.1,117.26h-1.44v-0.91h1.44v-0.56c0-1.49,0.38-2.46,2.05-2.46c0.29,0,0.53,0.04,0.75,0.07l-0.05,0.91
			c-0.13-0.05-0.35-0.07-0.54-0.07c-0.97,0-1.09,0.62-1.09,1.45v0.66h1.62v0.91h-1.62v5.21h-1.13V117.26z"/>
		<path d="M175.46,122.21c-0.43,0.16-0.92,0.4-1.93,0.4c-2.17,0-3.17-1.32-3.17-3.31c0-1.81,1.14-3.09,2.87-3.09
			c2.04,0,2.7,1.49,2.7,3.45h-4.37c0,1.21,0.95,2.04,2.02,2.04c0.74,0,1.61-0.38,1.88-0.61V122.21z M174.73,118.81
			c0-0.94-0.55-1.7-1.52-1.7c-1.1,0-1.56,0.91-1.64,1.7H174.73z"/>
		<path d="M178.51,119.26l-1.99-2.91h1.4l1.33,2.18l1.36-2.18h1.26l-1.97,2.91l2.16,3.2h-1.39l-1.51-2.4l-1.51,2.4h-1.34
			L178.51,119.26z"/>
		<path d="M182.85,116.34h1.08v0.86h0.02c0.3-0.46,1-1.01,2.07-1.01c1.78,0,2.64,1.45,2.64,3.09c0,1.68-0.78,3.31-2.63,3.31
			c-1.08,0-1.69-0.42-2.04-0.98h-0.02v3.36h-1.13V116.34z M185.79,117.11c-1.22,0-1.81,1.16-1.81,2.3c0,1.02,0.53,2.28,1.8,2.28
			c1.21,0,1.72-1.36,1.69-2.31C187.49,118.27,187.01,117.11,185.79,117.11z"/>
		<path d="M194.57,122.21c-0.43,0.16-0.92,0.4-1.93,0.4c-2.17,0-3.17-1.32-3.17-3.31c0-1.81,1.14-3.09,2.87-3.09
			c2.04,0,2.7,1.49,2.7,3.45h-4.37c0,1.21,0.95,2.04,2.01,2.04c0.74,0,1.61-0.38,1.88-0.61V122.21z M193.84,118.81
			c0-0.94-0.55-1.7-1.52-1.7c-1.1,0-1.56,0.91-1.64,1.7H193.84z"/>
		<path d="M196.25,116.34h1.06v0.95h0.02c0.3-0.64,0.95-1.09,1.59-1.09c0.34,0,0.5,0.04,0.74,0.08v1.01
			c-0.2-0.08-0.43-0.11-0.62-0.11c-1.01,0-1.67,0.96-1.67,2.49v2.78h-1.13V116.34z"/>
		<path d="M201.96,114.98h-1.27v-1.27h1.27V114.98z M200.76,116.34h1.13v6.12h-1.13V116.34z"/>
		<path d="M208.34,122.21c-0.43,0.16-0.92,0.4-1.93,0.4c-2.17,0-3.17-1.32-3.17-3.31c0-1.81,1.14-3.09,2.87-3.09
			c2.04,0,2.7,1.49,2.7,3.45h-4.37c0,1.21,0.95,2.04,2.02,2.04c0.74,0,1.61-0.38,1.88-0.61V122.21z M207.61,118.81
			c0-0.94-0.55-1.7-1.52-1.7c-1.1,0-1.56,0.91-1.64,1.7H207.61z"/>
		<path d="M210.03,116.34h1.09v0.97h0.02c0.34-0.7,1.15-1.12,2-1.12c1.58,0,2.29,0.98,2.29,2.63v3.63h-1.13v-3.17
			c0-1.43-0.31-2.12-1.29-2.18c-1.28,0-1.86,1.03-1.86,2.52v2.83h-1.13V116.34z"/>
		<path d="M220.94,117.37c-0.43-0.18-0.86-0.26-1.22-0.26c-1.26,0-1.97,1.13-1.97,2.29c0,1.09,0.59,2.29,2.04,2.29
			c0.38,0,0.86-0.12,1.21-0.35l0.08,1.01c-0.47,0.22-1.01,0.25-1.42,0.25c-1.85,0-3.12-1.45-3.12-3.2c0-1.86,1.25-3.2,3.12-3.2
			c0.46,0,1.04,0.11,1.37,0.24L220.94,117.37z"/>
		<path d="M226.78,122.21c-0.43,0.16-0.92,0.4-1.93,0.4c-2.17,0-3.17-1.32-3.17-3.31c0-1.81,1.14-3.09,2.87-3.09
			c2.04,0,2.7,1.49,2.7,3.45h-4.37c0,1.21,0.95,2.04,2.02,2.04c0.74,0,1.61-0.38,1.88-0.61V122.21z M226.04,118.81
			c0-0.94-0.55-1.7-1.52-1.7c-1.1,0-1.56,0.91-1.64,1.7H226.04z"/>
		<path d="M228.49,121.12h1.34l-1.02,2.94h-1.08L228.49,121.12z"/>
		<path d="M25.78,136.86h-1.31l-1.58-5.13h-0.02l-1.55,5.13h-1.31l-1.97-6.12h1.24l1.4,5.06h0.02l1.56-5.06h1.33l1.54,5.06h0.02
			l1.49-5.06h1.1L25.78,136.86z"/>
		<path d="M33.25,136.61c-0.43,0.16-0.92,0.4-1.93,0.4c-2.17,0-3.17-1.32-3.17-3.31c0-1.81,1.14-3.09,2.87-3.09
			c2.04,0,2.7,1.49,2.7,3.45h-4.37c0,1.21,0.95,2.04,2.02,2.04c0.74,0,1.61-0.38,1.88-0.61V136.61z M32.52,133.21
			c0-0.94-0.55-1.7-1.52-1.7c-1.1,0-1.56,0.91-1.64,1.7H32.52z"/>
		<path d="M38.25,131.18c0.56-0.33,1.24-0.58,2.02-0.58c1.75,0,2.46,0.86,2.46,2.53v2.53c0,0.7,0.02,1.02,0.05,1.2h-1.06v-0.79H41.7
			c-0.26,0.37-0.86,0.94-1.9,0.94c-1.32,0-2.24-0.58-2.24-1.91c0-1.54,1.68-2.01,2.84-2.01c0.44,0,0.76,0,1.2,0.02
			c0-1.06-0.38-1.6-1.51-1.6c-0.64,0-1.32,0.24-1.78,0.62L38.25,131.18z M41.6,133.95c-0.24,0-0.48-0.02-0.72-0.02
			c-0.61,0-2.12,0.1-2.12,1.17c0,0.65,0.62,1,1.14,1c1.12,0,1.7-0.7,1.7-1.61V133.95z"/>
		<path d="M44.34,130.74h1.06v0.95h0.02c0.3-0.64,0.95-1.09,1.59-1.09c0.34,0,0.5,0.04,0.74,0.08v1.01
			c-0.2-0.08-0.43-0.11-0.62-0.11c-1.01,0-1.67,0.96-1.67,2.5v2.78h-1.13V130.74z"/>
		<path d="M53.39,136.61c-0.43,0.16-0.92,0.4-1.93,0.4c-2.17,0-3.17-1.32-3.17-3.31c0-1.81,1.14-3.09,2.87-3.09
			c2.04,0,2.7,1.49,2.7,3.45H49.5c0,1.21,0.95,2.04,2.02,2.04c0.74,0,1.61-0.38,1.88-0.61V136.61z M52.66,133.21
			c0-0.94-0.55-1.7-1.52-1.7c-1.1,0-1.56,0.91-1.64,1.7H52.66z"/>
		<path d="M59.46,129.38h-1.27v-1.27h1.27V129.38z M58.26,130.74h1.13v6.12h-1.13V130.74z"/>
		<path d="M61.15,130.74h1.09v0.97h0.02c0.34-0.7,1.15-1.12,2-1.12c1.58,0,2.29,0.98,2.29,2.63v3.63h-1.13v-3.17
			c0-1.43-0.31-2.12-1.3-2.18c-1.28,0-1.86,1.03-1.86,2.52v2.83h-1.13V130.74z"/>
		<path d="M72.07,131.78c-0.43-0.18-0.86-0.26-1.22-0.26c-1.26,0-1.97,1.13-1.97,2.29c0,1.09,0.59,2.29,2.04,2.29
			c0.38,0,0.86-0.12,1.21-0.35l0.08,1.01c-0.47,0.22-1.01,0.25-1.42,0.25c-1.85,0-3.12-1.45-3.12-3.2c0-1.86,1.25-3.2,3.12-3.2
			c0.46,0,1.04,0.11,1.37,0.24L72.07,131.78z"/>
		<path d="M73.21,130.74h1.06v0.95h0.02c0.3-0.64,0.95-1.09,1.59-1.09c0.34,0,0.5,0.04,0.74,0.08v1.01
			c-0.2-0.08-0.43-0.11-0.62-0.11c-1.01,0-1.67,0.96-1.67,2.5v2.78h-1.13V130.74z"/>
		<path d="M82.27,136.61c-0.43,0.16-0.92,0.4-1.93,0.4c-2.17,0-3.17-1.32-3.17-3.31c0-1.81,1.14-3.09,2.87-3.09
			c2.04,0,2.7,1.49,2.7,3.45h-4.37c0,1.21,0.95,2.04,2.02,2.04c0.74,0,1.61-0.38,1.88-0.61V136.61z M81.53,133.21
			c0-0.94-0.55-1.7-1.52-1.7c-1.1,0-1.56,0.91-1.64,1.7H81.53z"/>
		<path d="M88.28,136h-0.02c-0.3,0.46-1,1.01-2.09,1.01c-1.85,0-2.63-1.64-2.63-3.31c0-1.64,0.86-3.09,2.64-3.09
			c1.07,0,1.68,0.42,2.03,0.98h0.02v-3.72h1.13v9h-1.08V136z M86.43,136.09c1.27,0,1.8-1.26,1.8-2.28c0-1.14-0.59-2.3-1.81-2.3
			c-1.22,0-1.7,1.15-1.68,2.27C84.72,134.74,85.22,136.09,86.43,136.09z"/>
		<path d="M92.32,129.38h-1.27v-1.27h1.27V129.38z M91.12,130.74h1.13v6.12h-1.13V130.74z"/>
		<path d="M94.02,127.87h1.13v3.72h0.02c0.35-0.56,0.96-0.98,2.03-0.98c1.77,0,2.64,1.45,2.64,3.09c0,1.68-0.78,3.31-2.63,3.31
			c-1.09,0-1.79-0.55-2.09-1.01H95.1v0.86h-1.08V127.87z M96.95,131.51c-1.22,0-1.81,1.16-1.81,2.3c0,1.02,0.53,2.28,1.8,2.28
			c1.21,0,1.72-1.36,1.69-2.32C98.66,132.68,98.18,131.51,96.95,131.51z"/>
		<path d="M101.19,127.87h1.13v9h-1.13V127.87z"/>
		<path d="M103.63,138.52c0.14,0.05,0.34,0.1,0.53,0.1c1.01,0,1.34-1.39,1.34-1.51c0-0.13-0.14-0.44-0.22-0.65l-2.07-5.71h1.24
			l1.64,5.06h0.02l1.68-5.06h1.14l-2.25,6.25c-0.42,1.17-0.86,2.53-2.35,2.53c-0.36,0-0.56-0.05-0.77-0.08L103.63,138.52z"/>
		<path d="M117.51,136.61c-0.43,0.16-0.92,0.4-1.93,0.4c-2.17,0-3.17-1.32-3.17-3.31c0-1.81,1.14-3.09,2.87-3.09
			c2.04,0,2.7,1.49,2.7,3.45h-4.37c0,1.21,0.95,2.04,2.02,2.04c0.74,0,1.61-0.38,1.88-0.61V136.61z M116.78,133.21
			c0-0.94-0.55-1.7-1.52-1.7c-1.1,0-1.56,0.91-1.64,1.7H116.78z"/>
		<path d="M119.92,131.66h-1.44v-0.91h1.44v-0.56c0-1.49,0.38-2.46,2.05-2.46c0.29,0,0.53,0.04,0.76,0.07l-0.05,0.91
			c-0.13-0.05-0.35-0.07-0.54-0.07c-0.97,0-1.09,0.62-1.09,1.45v0.66h1.62v0.91h-1.62v5.21h-1.13V131.66z"/>
		<path d="M124.08,131.66h-1.44v-0.91h1.44v-0.56c0-1.49,0.38-2.46,2.05-2.46c0.29,0,0.53,0.04,0.75,0.07l-0.05,0.91
			c-0.13-0.05-0.35-0.07-0.54-0.07c-0.97,0-1.09,0.62-1.09,1.45v0.66h1.62v0.91h-1.62v5.21h-1.13V131.66z"/>
		<path d="M132.4,136.61c-0.43,0.16-0.92,0.4-1.93,0.4c-2.17,0-3.17-1.32-3.17-3.31c0-1.81,1.14-3.09,2.87-3.09
			c2.04,0,2.7,1.49,2.7,3.45h-4.37c0,1.21,0.95,2.04,2.01,2.04c0.74,0,1.61-0.38,1.88-0.61V136.61z M131.67,133.21
			c0-0.94-0.55-1.7-1.52-1.7c-1.1,0-1.56,0.91-1.64,1.7H131.67z"/>
		<path d="M137.97,131.78c-0.43-0.18-0.86-0.26-1.22-0.26c-1.26,0-1.97,1.13-1.97,2.29c0,1.09,0.59,2.29,2.04,2.29
			c0.38,0,0.86-0.12,1.21-0.35l0.08,1.01c-0.47,0.22-1.01,0.25-1.42,0.25c-1.85,0-3.12-1.45-3.12-3.2c0-1.86,1.25-3.2,3.12-3.2
			c0.46,0,1.04,0.11,1.37,0.24L137.97,131.78z"/>
		<path d="M142.36,131.66h-1.62V135c0,0.71,0.43,1.09,0.95,1.09c0.35,0,0.6-0.11,0.77-0.22v0.96c-0.25,0.07-0.6,0.17-0.96,0.17
			c-1.16,0-1.88-0.55-1.88-1.77v-3.57h-1.38v-0.91h1.38v-1.42l1.13-0.36v1.77h1.62V131.66z"/>
		<path d="M144.82,129.38h-1.27v-1.27h1.27V129.38z M143.62,130.74h1.13v6.12h-1.13V130.74z"/>
		<path d="M149.23,136.86h-1.34l-2.2-6.12h1.24l1.66,4.99h0.02l1.69-4.99h1.13L149.23,136.86z"/>
		<path d="M156.91,136.61c-0.43,0.16-0.92,0.4-1.93,0.4c-2.17,0-3.17-1.32-3.17-3.31c0-1.81,1.14-3.09,2.87-3.09
			c2.04,0,2.7,1.49,2.7,3.45h-4.37c0,1.21,0.95,2.04,2.02,2.04c0.74,0,1.61-0.38,1.88-0.61V136.61z M156.18,133.21
			c0-0.94-0.55-1.7-1.52-1.7c-1.1,0-1.56,0.91-1.64,1.7H156.18z"/>
		<path d="M161.91,131.18c0.56-0.33,1.24-0.58,2.01-0.58c1.75,0,2.46,0.86,2.46,2.53v2.53c0,0.7,0.02,1.02,0.05,1.2h-1.06v-0.79
			h-0.02c-0.26,0.37-0.86,0.94-1.9,0.94c-1.32,0-2.24-0.58-2.24-1.91c0-1.54,1.68-2.01,2.84-2.01c0.44,0,0.76,0,1.2,0.02
			c0-1.06-0.38-1.6-1.51-1.6c-0.64,0-1.32,0.24-1.78,0.62L161.91,131.18z M165.26,133.95c-0.24,0-0.48-0.02-0.72-0.02
			c-0.61,0-2.12,0.1-2.12,1.17c0,0.65,0.62,1,1.14,1c1.12,0,1.7-0.7,1.7-1.61V133.95z"/>
		<path d="M171.25,131.66h-1.62V135c0,0.71,0.43,1.09,0.95,1.09c0.35,0,0.6-0.11,0.77-0.22v0.96c-0.25,0.07-0.6,0.17-0.96,0.17
			c-1.16,0-1.88-0.55-1.88-1.77v-3.57h-1.38v-0.91h1.38v-1.42l1.13-0.36v1.77h1.62V131.66z"/>
		<path d="M175.39,130.74h1.06v0.89h0.02c0.43-0.71,1.04-1.03,1.94-1.03c0.71,0,1.42,0.36,1.74,1.19c0.42-0.88,1.34-1.19,1.9-1.19
			c1.56,0,2.12,1.01,2.12,2.34v3.92h-1.13v-3.65c0-0.75-0.18-1.7-1.09-1.7c-1.15,0-1.61,1.13-1.61,2.27v3.08h-1.13v-3.65
			c0-0.75-0.18-1.7-1.09-1.7c-1.15,0-1.61,1.13-1.61,2.27v3.08h-1.13V130.74z"/>
		<path d="M186.06,131.18c0.56-0.33,1.24-0.58,2.01-0.58c1.75,0,2.46,0.86,2.46,2.53v2.53c0,0.7,0.02,1.02,0.05,1.2h-1.06v-0.79
			h-0.02c-0.26,0.37-0.86,0.94-1.9,0.94c-1.32,0-2.24-0.58-2.24-1.91c0-1.54,1.68-2.01,2.84-2.01c0.44,0,0.76,0,1.2,0.02
			c0-1.06-0.38-1.6-1.51-1.6c-0.64,0-1.32,0.24-1.78,0.62L186.06,131.18z M189.4,133.95c-0.24,0-0.48-0.02-0.72-0.02
			c-0.61,0-2.12,0.1-2.12,1.17c0,0.65,0.62,1,1.14,1c1.12,0,1.7-0.7,1.7-1.61V133.95z"/>
		<path d="M192.14,130.74h1.09v0.97h0.02c0.34-0.7,1.15-1.12,2-1.12c1.58,0,2.29,0.98,2.29,2.63v3.63h-1.13v-3.17
			c0-1.43-0.31-2.12-1.3-2.18c-1.28,0-1.86,1.03-1.86,2.52v2.83h-1.13V130.74z"/>
		<path d="M199.46,131.18c0.56-0.33,1.23-0.58,2.01-0.58c1.75,0,2.46,0.86,2.46,2.53v2.53c0,0.7,0.02,1.02,0.05,1.2h-1.06v-0.79
			h-0.02c-0.26,0.37-0.86,0.94-1.89,0.94c-1.32,0-2.24-0.58-2.24-1.91c0-1.54,1.68-2.01,2.84-2.01c0.44,0,0.76,0,1.2,0.02
			c0-1.06-0.38-1.6-1.51-1.6c-0.64,0-1.32,0.24-1.78,0.62L199.46,131.18z M202.81,133.95c-0.24,0-0.48-0.02-0.72-0.02
			c-0.61,0-2.12,0.1-2.12,1.17c0,0.65,0.62,1,1.14,1c1.12,0,1.7-0.7,1.7-1.61V133.95z"/>
		<path d="M210.95,136.6c0,1.86-0.96,2.93-3.15,2.93c-0.65,0-1.21-0.08-2.2-0.42l0.12-1.04c0.86,0.4,1.38,0.55,2.21,0.55
			c1.19,0,1.89-0.8,1.89-2.1v-0.6h-0.02c-0.48,0.63-1.27,0.95-2.05,0.95c-1.75,0-2.62-1.43-2.62-3.01c0-1.57,0.89-3.25,2.73-3.25
			c1.08,0,1.68,0.4,2.02,1.06h0.02v-0.91h1.04V136.6z M209.83,133.87c0-1.27-0.59-2.36-1.79-2.36c-1.14,0-1.7,1.24-1.7,2.28
			c0,1.15,0.65,2.16,1.7,2.16C209.09,135.95,209.83,135.01,209.83,133.87z"/>
		<path d="M213.92,129.38h-1.27v-1.27h1.27V129.38z M212.72,130.74h1.13v6.12h-1.13V130.74z"/>
		<path d="M215.61,130.74h1.09v0.97h0.02c0.34-0.7,1.15-1.12,2-1.12c1.58,0,2.29,0.98,2.29,2.63v3.63h-1.13v-3.17
			c0-1.43-0.31-2.12-1.29-2.18c-1.28,0-1.86,1.03-1.86,2.52v2.83h-1.13V130.74z"/>
		<path d="M228.05,136.6c0,1.86-0.96,2.93-3.15,2.93c-0.65,0-1.21-0.08-2.2-0.42l0.12-1.04c0.86,0.4,1.38,0.55,2.21,0.55
			c1.19,0,1.89-0.8,1.89-2.1v-0.6h-0.02c-0.48,0.63-1.27,0.95-2.05,0.95c-1.75,0-2.62-1.43-2.62-3.01c0-1.57,0.89-3.25,2.74-3.25
			c1.08,0,1.68,0.4,2.01,1.06h0.02v-0.91h1.04V136.6z M226.93,133.87c0-1.27-0.59-2.36-1.79-2.36c-1.14,0-1.7,1.24-1.7,2.28
			c0,1.15,0.65,2.16,1.7,2.16C226.2,135.95,226.93,135.01,226.93,133.87z"/>
		<path d="M229.71,135.52h1.34l-1.02,2.94h-1.08L229.71,135.52z"/>
		<path d="M36.42,150.06c0.44,0.29,1.08,0.43,1.4,0.43c0.52,0,1.15-0.22,1.15-0.88c0-1.12-2.65-1.02-2.65-2.73
			c0-1.27,0.95-1.88,2.16-1.88c0.53,0,0.96,0.11,1.4,0.24l-0.1,0.98c-0.25-0.16-0.92-0.31-1.19-0.31c-0.58,0-1.08,0.24-1.08,0.74
			c0,1.25,2.65,0.89,2.65,2.84c0,1.31-1.04,1.91-2.13,1.91c-0.58,0-1.16-0.06-1.68-0.34L36.42,150.06z"/>
		<path d="M45.13,146.18c-0.43-0.18-0.86-0.26-1.22-0.26c-1.26,0-1.97,1.13-1.97,2.29c0,1.09,0.59,2.29,2.04,2.29
			c0.38,0,0.86-0.12,1.21-0.35l0.08,1.01c-0.47,0.22-1.01,0.25-1.42,0.25c-1.85,0-3.12-1.45-3.12-3.2c0-1.86,1.25-3.2,3.12-3.2
			c0.46,0,1.04,0.11,1.37,0.24L45.13,146.18z"/>
		<path d="M46.27,142.26h1.13v3.75h0.02c0.41-0.65,1.12-1.02,1.97-1.02c1.58,0,2.29,0.98,2.29,2.63v3.63h-1.13v-3.17
			c0-1.43-0.31-2.12-1.3-2.18c-1.28,0-1.86,1.03-1.86,2.52v2.83h-1.13V142.26z"/>
		<path d="M57.99,151.01c-0.43,0.16-0.92,0.4-1.93,0.4c-2.17,0-3.17-1.32-3.17-3.31c0-1.81,1.14-3.09,2.87-3.09
			c2.04,0,2.7,1.49,2.7,3.45h-4.37c0,1.21,0.95,2.04,2.02,2.04c0.74,0,1.61-0.38,1.88-0.61V151.01z M57.26,147.61
			c0-0.94-0.55-1.7-1.52-1.7c-1.1,0-1.56,0.91-1.64,1.7H57.26z"/>
		<path d="M64,150.4h-0.02c-0.3,0.46-1,1.01-2.09,1.01c-1.85,0-2.63-1.64-2.63-3.31c0-1.64,0.86-3.09,2.64-3.09
			c1.07,0,1.68,0.42,2.03,0.98h0.02v-3.72h1.13v9H64V150.4z M62.16,150.49c1.27,0,1.8-1.26,1.8-2.28c0-1.14-0.59-2.3-1.81-2.3
			c-1.22,0-1.7,1.15-1.68,2.27C60.44,149.14,60.95,150.49,62.16,150.49z"/>
		<path d="M72.12,151.26h-1.09v-0.97H71c-0.34,0.7-1.15,1.12-2,1.12c-1.58,0-2.29-0.98-2.29-2.63v-3.63h1.13v3.17
			c0,1.43,0.31,2.12,1.3,2.18c1.28,0,1.86-1.03,1.86-2.52v-2.83h1.13V151.26z"/>
		<path d="M73.88,142.26h1.13v9h-1.13V142.26z"/>
		<path d="M78.12,143.78h-1.27v-1.27h1.27V143.78z M76.92,145.14h1.13v6.12h-1.13V145.14z"/>
		<path d="M79.81,145.14h1.09v0.97h0.02c0.34-0.7,1.15-1.12,2-1.12c1.58,0,2.29,0.98,2.29,2.63v3.63h-1.13v-3.17
			c0-1.43-0.31-2.12-1.3-2.18c-1.28,0-1.86,1.03-1.86,2.52v2.83h-1.13V145.14z"/>
		<path d="M92.25,151c0,1.86-0.96,2.93-3.15,2.93c-0.65,0-1.21-0.08-2.19-0.42l0.12-1.04c0.86,0.4,1.38,0.55,2.21,0.55
			c1.19,0,1.9-0.8,1.9-2.1v-0.6H91.1c-0.48,0.64-1.27,0.95-2.05,0.95c-1.75,0-2.61-1.43-2.61-3.01c0-1.57,0.89-3.25,2.73-3.25
			c1.08,0,1.68,0.4,2.02,1.06h0.02v-0.91h1.04V151z M91.12,148.27c0-1.27-0.59-2.36-1.79-2.36c-1.14,0-1.7,1.24-1.7,2.28
			c0,1.15,0.65,2.16,1.7,2.16S91.12,149.41,91.12,148.27z"/>
		<path d="M93.91,149.92h1.34l-1.02,2.94h-1.08L93.91,149.92z"/>
		<path d="M100.23,145.58c0.56-0.34,1.24-0.58,2.02-0.58c1.75,0,2.46,0.86,2.46,2.53v2.53c0,0.7,0.02,1.02,0.05,1.2h-1.06v-0.79
			h-0.02c-0.26,0.37-0.86,0.94-1.9,0.94c-1.32,0-2.24-0.58-2.24-1.91c0-1.54,1.68-2.01,2.84-2.01c0.44,0,0.76,0,1.2,0.02
			c0-1.06-0.38-1.59-1.51-1.59c-0.64,0-1.32,0.24-1.78,0.62L100.23,145.58z M103.58,148.35c-0.24,0-0.48-0.02-0.72-0.02
			c-0.61,0-2.12,0.1-2.12,1.18c0,0.65,0.62,1,1.14,1c1.12,0,1.7-0.7,1.7-1.61V148.35z"/>
		<path d="M106.32,145.14h1.09v0.97h0.02c0.34-0.7,1.15-1.12,2-1.12c1.58,0,2.29,0.98,2.29,2.63v3.63h-1.13v-3.17
			c0-1.43-0.31-2.12-1.3-2.18c-1.28,0-1.86,1.03-1.86,2.52v2.83h-1.13V145.14z"/>
		<path d="M117.68,150.4h-0.02c-0.3,0.46-1,1.01-2.09,1.01c-1.85,0-2.63-1.64-2.63-3.31c0-1.64,0.86-3.09,2.64-3.09
			c1.07,0,1.68,0.42,2.03,0.98h0.02v-3.72h1.13v9h-1.08V150.4z M115.83,150.49c1.27,0,1.8-1.26,1.8-2.28c0-1.14-0.59-2.3-1.81-2.3
			c-1.22,0-1.7,1.15-1.68,2.27C114.12,149.14,114.62,150.49,115.83,150.49z"/>
		<path d="M126.67,146.06h-1.62v3.35c0,0.71,0.43,1.09,0.95,1.09c0.35,0,0.6-0.11,0.77-0.22v0.96c-0.25,0.07-0.6,0.17-0.96,0.17
			c-1.16,0-1.88-0.55-1.88-1.78v-3.57h-1.38v-0.91h1.38v-1.42l1.13-0.36v1.78h1.62V146.06z"/>
		<path d="M127.79,145.14h1.06v0.95h0.02c0.3-0.64,0.95-1.09,1.59-1.09c0.34,0,0.5,0.04,0.74,0.08v1.01
			c-0.2-0.08-0.43-0.11-0.62-0.11c-1.01,0-1.67,0.96-1.67,2.49v2.78h-1.13V145.14z"/>
		<path d="M132.44,145.58c0.56-0.34,1.24-0.58,2.01-0.58c1.75,0,2.46,0.86,2.46,2.53v2.53c0,0.7,0.02,1.02,0.05,1.2h-1.06v-0.79
			h-0.02c-0.26,0.37-0.86,0.94-1.9,0.94c-1.32,0-2.24-0.58-2.24-1.91c0-1.54,1.68-2.01,2.84-2.01c0.44,0,0.76,0,1.2,0.02
			c0-1.06-0.38-1.59-1.51-1.59c-0.64,0-1.32,0.24-1.78,0.62L132.44,145.58z M135.79,148.35c-0.24,0-0.48-0.02-0.72-0.02
			c-0.61,0-2.12,0.1-2.12,1.18c0,0.65,0.62,1,1.14,1c1.12,0,1.7-0.7,1.7-1.61V148.35z"/>
		<path d="M142.41,146.18c-0.43-0.18-0.86-0.26-1.22-0.26c-1.26,0-1.97,1.13-1.97,2.29c0,1.09,0.59,2.29,2.04,2.29
			c0.38,0,0.86-0.12,1.21-0.35l0.08,1.01c-0.47,0.22-1.01,0.25-1.42,0.25c-1.85,0-3.12-1.45-3.12-3.2c0-1.86,1.25-3.2,3.12-3.2
			c0.46,0,1.04,0.11,1.37,0.24L142.41,146.18z"/>
		<path d="M143.55,142.26h1.13v5.36l2.46-2.48h1.54l-2.84,2.71l3.2,3.41h-1.62l-2.73-3.14v3.14h-1.13V142.26z"/>
		<path d="M151.27,143.78H150v-1.27h1.27V143.78z M150.07,145.14h1.13v6.12h-1.13V145.14z"/>
		<path d="M152.96,145.14h1.09v0.97h0.02c0.34-0.7,1.15-1.12,2-1.12c1.58,0,2.29,0.98,2.29,2.63v3.63h-1.13v-3.17
			c0-1.43-0.31-2.12-1.29-2.18c-1.28,0-1.86,1.03-1.86,2.52v2.83h-1.13V145.14z"/>
		<path d="M165.4,151c0,1.86-0.96,2.93-3.15,2.93c-0.65,0-1.21-0.08-2.2-0.42l0.12-1.04c0.86,0.4,1.38,0.55,2.21,0.55
			c1.19,0,1.89-0.8,1.89-2.1v-0.6h-0.02c-0.48,0.64-1.27,0.95-2.05,0.95c-1.75,0-2.62-1.43-2.62-3.01c0-1.57,0.89-3.25,2.73-3.25
			c1.08,0,1.68,0.4,2.02,1.06h0.02v-0.91h1.04V151z M164.27,148.27c0-1.27-0.59-2.36-1.79-2.36c-1.14,0-1.7,1.24-1.7,2.28
			c0,1.15,0.65,2.16,1.7,2.16C163.54,150.35,164.27,149.41,164.27,148.27z"/>
		<path d="M170.06,145.14h1.08v0.86h0.02c0.3-0.46,1-1.01,2.08-1.01c1.77,0,2.64,1.45,2.64,3.09c0,1.68-0.78,3.31-2.63,3.31
			c-1.08,0-1.69-0.42-2.04-0.98h-0.02v3.36h-1.13V145.14z M173,145.91c-1.22,0-1.81,1.16-1.81,2.3c0,1.02,0.53,2.28,1.8,2.28
			c1.21,0,1.71-1.36,1.69-2.31C174.7,147.07,174.22,145.91,173,145.91z"/>
		<path d="M177.09,145.14h1.06v0.95h0.02c0.3-0.64,0.95-1.09,1.59-1.09c0.34,0,0.5,0.04,0.74,0.08v1.01
			c-0.2-0.08-0.43-0.11-0.62-0.11c-1.01,0-1.67,0.96-1.67,2.49v2.78h-1.13V145.14z"/>
		<path d="M184.17,145c1.86,0,3.11,1.34,3.11,3.2c0,1.75-1.27,3.2-3.11,3.2c-1.85,0-3.12-1.45-3.12-3.2
			C181.05,146.34,182.3,145,184.17,145z M184.17,150.49c1.32,0,1.91-1.2,1.91-2.29c0-1.16-0.71-2.29-1.91-2.29
			c-1.21,0-1.92,1.13-1.92,2.29C182.25,149.29,182.84,150.49,184.17,150.49z"/>
		<path d="M187.38,152.9c0.14,0.02,0.24,0.04,0.46,0.04c0.53,0,0.8-0.5,0.8-1.3v-6.5h1.13v6.33c0,0.89-0.04,2.45-1.73,2.45
			c-0.24,0-0.54-0.01-0.7-0.05L187.38,152.9z M189.84,143.78h-1.27v-1.27h1.27V143.78z"/>
		<path d="M196.22,151.01c-0.43,0.16-0.92,0.4-1.93,0.4c-2.17,0-3.17-1.32-3.17-3.31c0-1.81,1.14-3.09,2.87-3.09
			c2.04,0,2.7,1.49,2.7,3.45h-4.37c0,1.21,0.95,2.04,2.01,2.04c0.74,0,1.61-0.38,1.88-0.61V151.01z M195.49,147.61
			c0-0.94-0.55-1.7-1.52-1.7c-1.1,0-1.56,0.91-1.64,1.7H195.49z"/>
		<path d="M201.79,146.18c-0.43-0.18-0.86-0.26-1.22-0.26c-1.26,0-1.97,1.13-1.97,2.29c0,1.09,0.59,2.29,2.04,2.29
			c0.38,0,0.86-0.12,1.21-0.35l0.08,1.01c-0.47,0.22-1.01,0.25-1.42,0.25c-1.85,0-3.12-1.45-3.12-3.2c0-1.86,1.25-3.2,3.12-3.2
			c0.46,0,1.04,0.11,1.37,0.24L201.79,146.18z"/>
		<path d="M206.18,146.06h-1.62v3.35c0,0.71,0.43,1.09,0.95,1.09c0.35,0,0.6-0.11,0.77-0.22v0.96c-0.25,0.07-0.6,0.17-0.96,0.17
			c-1.16,0-1.88-0.55-1.88-1.78v-3.57h-1.38v-0.91h1.38v-1.42l1.13-0.36v1.78h1.62V146.06z"/>
		<path d="M206.84,150.06c0.44,0.29,1.08,0.43,1.4,0.43c0.52,0,1.15-0.22,1.15-0.88c0-1.12-2.65-1.02-2.65-2.73
			c0-1.27,0.95-1.88,2.16-1.88c0.53,0,0.96,0.11,1.4,0.24l-0.1,0.98c-0.25-0.16-0.92-0.31-1.19-0.31c-0.58,0-1.08,0.24-1.08,0.74
			c0,1.25,2.65,0.89,2.65,2.84c0,1.31-1.04,1.91-2.13,1.91c-0.58,0-1.16-0.06-1.68-0.34L206.84,150.06z"/>
		<path d="M211.7,149.92h1.34v1.34h-1.34V149.92z"/>
		<path d="M7.89,157.29h1.32l2,7.17h0.02l1.79-7.17h1.7l1.81,7.17h0.02l2-7.17h1.27l-2.58,8.37h-1.55l-1.82-7.32h-0.02l-1.83,7.32
			h-1.61L7.89,157.29z"/>
		<path d="M24.86,165.41c-0.43,0.16-0.92,0.4-1.93,0.4c-2.17,0-3.17-1.32-3.17-3.31c0-1.81,1.14-3.09,2.87-3.09
			c2.04,0,2.7,1.49,2.7,3.45h-4.37c0,1.21,0.95,2.04,2.02,2.04c0.74,0,1.61-0.38,1.88-0.61V165.41z M24.13,162.01
			c0-0.94-0.55-1.7-1.52-1.7c-1.1,0-1.56,0.91-1.64,1.7H24.13z"/>
		<path d="M33.46,160.58c-0.43-0.18-0.86-0.26-1.22-0.26c-1.26,0-1.97,1.13-1.97,2.29c0,1.09,0.59,2.29,2.04,2.29
			c0.38,0,0.86-0.12,1.21-0.35l0.08,1.01c-0.47,0.22-1.01,0.25-1.42,0.25c-1.85,0-3.12-1.45-3.12-3.2c0-1.86,1.25-3.2,3.12-3.2
			c0.46,0,1.04,0.11,1.37,0.24L33.46,160.58z"/>
		<path d="M37.32,159.4c1.86,0,3.11,1.34,3.11,3.2c0,1.75-1.27,3.2-3.11,3.2c-1.85,0-3.12-1.45-3.12-3.2
			C34.2,160.74,35.45,159.4,37.32,159.4z M37.32,164.89c1.32,0,1.91-1.2,1.91-2.29c0-1.16-0.71-2.29-1.91-2.29
			c-1.21,0-1.92,1.13-1.92,2.29C35.4,163.69,35.99,164.89,37.32,164.89z"/>
		<path d="M44.35,159.4c1.86,0,3.11,1.34,3.11,3.2c0,1.75-1.27,3.2-3.11,3.2c-1.85,0-3.12-1.45-3.12-3.2
			C41.23,160.74,42.48,159.4,44.35,159.4z M44.35,164.89c1.32,0,1.91-1.2,1.91-2.29c0-1.16-0.71-2.29-1.91-2.29
			c-1.21,0-1.92,1.13-1.92,2.29C42.43,163.69,43.02,164.89,44.35,164.89z"/>
		<path d="M48.67,159.54h1.06v0.95h0.02c0.3-0.64,0.95-1.09,1.59-1.09c0.34,0,0.5,0.04,0.74,0.08v1.01
			c-0.2-0.08-0.43-0.11-0.62-0.11c-1.01,0-1.67,0.96-1.67,2.49v2.78h-1.13V159.54z"/>
		<path d="M57.37,164.8h-0.02c-0.3,0.46-1,1.01-2.09,1.01c-1.85,0-2.63-1.64-2.63-3.31c0-1.64,0.86-3.09,2.64-3.09
			c1.07,0,1.68,0.42,2.03,0.98h0.02v-3.72h1.13v9h-1.08V164.8z M55.52,164.89c1.27,0,1.8-1.26,1.8-2.28c0-1.14-0.59-2.3-1.81-2.3
			s-1.7,1.15-1.68,2.27C53.81,163.54,54.31,164.89,55.52,164.89z"/>
		<path d="M61.41,158.18h-1.27v-1.27h1.27V158.18z M60.21,159.54h1.13v6.12h-1.13V159.54z"/>
		<path d="M63.11,159.54h1.09v0.97h0.02c0.34-0.7,1.15-1.12,2-1.12c1.58,0,2.29,0.98,2.29,2.63v3.63h-1.13v-3.17
			c0-1.43-0.31-2.12-1.3-2.18c-1.28,0-1.86,1.03-1.86,2.52v2.83h-1.13V159.54z"/>
		<path d="M70.43,159.98c0.56-0.34,1.23-0.58,2.01-0.58c1.75,0,2.46,0.86,2.46,2.53v2.53c0,0.7,0.02,1.02,0.05,1.2h-1.06v-0.79
			h-0.02c-0.26,0.37-0.86,0.94-1.9,0.94c-1.32,0-2.24-0.58-2.24-1.91c0-1.54,1.68-2.01,2.84-2.01c0.44,0,0.76,0,1.2,0.02
			c0-1.06-0.38-1.59-1.51-1.59c-0.64,0-1.32,0.24-1.78,0.62L70.43,159.98z M73.77,162.75c-0.24,0-0.48-0.02-0.72-0.02
			c-0.61,0-2.12,0.1-2.12,1.18c0,0.65,0.62,1,1.14,1c1.12,0,1.7-0.7,1.7-1.61V162.75z"/>
		<path d="M79.76,160.46h-1.62v3.35c0,0.71,0.43,1.09,0.95,1.09c0.35,0,0.6-0.11,0.77-0.22v0.96c-0.25,0.07-0.6,0.17-0.96,0.17
			c-1.16,0-1.88-0.55-1.88-1.78v-3.57h-1.38v-0.91h1.38v-1.42l1.13-0.36v1.78h1.62V160.46z"/>
		<path d="M85.57,165.41c-0.43,0.16-0.92,0.4-1.93,0.4c-2.17,0-3.17-1.32-3.17-3.31c0-1.81,1.14-3.09,2.87-3.09
			c2.04,0,2.7,1.49,2.7,3.45h-4.37c0,1.21,0.95,2.04,2.02,2.04c0.74,0,1.61-0.38,1.88-0.61V165.41z M84.84,162.01
			c0-0.94-0.55-1.7-1.52-1.7c-1.1,0-1.56,0.91-1.64,1.7H84.84z"/>
		<path d="M94.98,165.41c-0.43,0.16-0.92,0.4-1.93,0.4c-2.17,0-3.17-1.32-3.17-3.31c0-1.81,1.14-3.09,2.87-3.09
			c2.04,0,2.7,1.49,2.7,3.45h-4.37c0,1.21,0.95,2.04,2.02,2.04c0.74,0,1.61-0.38,1.88-0.61V165.41z M94.24,162.01
			c0-0.94-0.55-1.7-1.52-1.7c-1.1,0-1.56,0.91-1.64,1.7H94.24z"/>
		<path d="M99.37,165.66h-1.34l-2.19-6.12h1.24l1.66,4.99h0.02l1.69-4.99h1.13L99.37,165.66z"/>
		<path d="M107.05,165.41c-0.43,0.16-0.92,0.4-1.93,0.4c-2.17,0-3.17-1.32-3.17-3.31c0-1.81,1.14-3.09,2.87-3.09
			c2.04,0,2.7,1.49,2.7,3.45h-4.37c0,1.21,0.95,2.04,2.02,2.04c0.74,0,1.61-0.38,1.88-0.61V165.41z M106.32,162.01
			c0-0.94-0.55-1.7-1.52-1.7c-1.1,0-1.56,0.91-1.64,1.7H106.32z"/>
		<path d="M108.73,159.54h1.06v0.95h0.02c0.3-0.64,0.95-1.09,1.59-1.09c0.34,0,0.5,0.04,0.74,0.08v1.01
			c-0.2-0.08-0.43-0.11-0.62-0.11c-1.01,0-1.67,0.96-1.67,2.49v2.78h-1.13V159.54z"/>
		<path d="M112.64,167.32c0.14,0.05,0.34,0.1,0.53,0.1c1.01,0,1.34-1.39,1.34-1.51c0-0.13-0.14-0.44-0.22-0.65l-2.07-5.71h1.24
			l1.64,5.06h0.02l1.68-5.06h1.14l-2.25,6.25c-0.42,1.18-0.86,2.53-2.35,2.53c-0.36,0-0.56-0.05-0.77-0.08L112.64,167.32z"/>
		<path d="M121.51,159.4c1.86,0,3.11,1.34,3.11,3.2c0,1.75-1.27,3.2-3.11,3.2c-1.85,0-3.12-1.45-3.12-3.2
			C118.39,160.74,119.64,159.4,121.51,159.4z M121.51,164.89c1.32,0,1.91-1.2,1.91-2.29c0-1.16-0.71-2.29-1.91-2.29
			c-1.21,0-1.92,1.13-1.92,2.29C119.59,163.69,120.18,164.89,121.51,164.89z"/>
		<path d="M125.83,159.54h1.09v0.97h0.02c0.34-0.7,1.15-1.12,2-1.12c1.58,0,2.29,0.98,2.29,2.63v3.63h-1.13v-3.17
			c0-1.43-0.31-2.12-1.29-2.18c-1.28,0-1.86,1.03-1.86,2.52v2.83h-1.13V159.54z"/>
		<path d="M137.55,165.41c-0.43,0.16-0.92,0.4-1.93,0.4c-2.17,0-3.17-1.32-3.17-3.31c0-1.81,1.14-3.09,2.87-3.09
			c2.04,0,2.7,1.49,2.7,3.45h-4.37c0,1.21,0.95,2.04,2.02,2.04c0.74,0,1.61-0.38,1.88-0.61V165.41z M136.82,162.01
			c0-0.94-0.55-1.7-1.52-1.7c-1.1,0-1.56,0.91-1.64,1.7H136.82z"/>
		<path d="M143.61,158.18h-1.27v-1.27h1.27V158.18z M142.41,159.54h1.13v6.12h-1.13V159.54z"/>
		<path d="M145.31,159.54h1.09v0.97h0.02c0.34-0.7,1.15-1.12,2-1.12c1.58,0,2.29,0.98,2.29,2.63v3.63h-1.13v-3.17
			c0-1.43-0.31-2.12-1.29-2.18c-1.28,0-1.86,1.03-1.86,2.52v2.83h-1.13V159.54z"/>
		<path d="M155.05,165.66h-1.34l-2.2-6.12h1.24l1.66,4.99h0.02l1.69-4.99h1.13L155.05,165.66z"/>
		<path d="M160.75,159.4c1.86,0,3.11,1.34,3.11,3.2c0,1.75-1.27,3.2-3.11,3.2c-1.85,0-3.12-1.45-3.12-3.2
			C157.63,160.74,158.88,159.4,160.75,159.4z M160.75,164.89c1.32,0,1.91-1.2,1.91-2.29c0-1.16-0.71-2.29-1.91-2.29
			c-1.21,0-1.92,1.13-1.92,2.29C158.83,163.69,159.42,164.89,160.75,164.89z"/>
		<path d="M165.21,156.67h1.13v9h-1.13V156.67z"/>
		<path d="M170.82,165.66h-1.34l-2.19-6.12h1.24l1.66,4.99h0.02l1.69-4.99h1.13L170.82,165.66z"/>
		<path d="M178.5,165.41c-0.43,0.16-0.92,0.4-1.93,0.4c-2.17,0-3.17-1.32-3.17-3.31c0-1.81,1.14-3.09,2.87-3.09
			c2.04,0,2.7,1.49,2.7,3.45h-4.37c0,1.21,0.95,2.04,2.02,2.04c0.74,0,1.61-0.38,1.88-0.61V165.41z M177.76,162.01
			c0-0.94-0.55-1.7-1.52-1.7c-1.1,0-1.56,0.91-1.64,1.7H177.76z"/>
		<path d="M184.51,164.8h-0.02c-0.3,0.46-1,1.01-2.09,1.01c-1.85,0-2.63-1.64-2.63-3.31c0-1.64,0.86-3.09,2.64-3.09
			c1.07,0,1.68,0.42,2.03,0.98h0.02v-3.72h1.13v9h-1.08V164.8z M182.66,164.89c1.27,0,1.8-1.26,1.8-2.28c0-1.14-0.59-2.3-1.81-2.3
			c-1.22,0-1.7,1.15-1.68,2.27C180.95,163.54,181.45,164.89,182.66,164.89z"/>
		<path d="M190.98,160.46h-1.44v-0.91h1.44v-0.56c0-1.49,0.38-2.46,2.05-2.46c0.29,0,0.53,0.04,0.75,0.07l-0.05,0.91
			c-0.13-0.05-0.35-0.07-0.54-0.07c-0.97,0-1.09,0.62-1.09,1.45v0.66h1.62v0.91h-1.62v5.21h-1.13V160.46z"/>
		<path d="M194.76,156.67h1.13v9h-1.13V156.67z"/>
		<path d="M197.94,159.98c0.56-0.34,1.23-0.58,2.01-0.58c1.75,0,2.46,0.86,2.46,2.53v2.53c0,0.7,0.02,1.02,0.05,1.2h-1.06v-0.79
			h-0.02c-0.26,0.37-0.86,0.94-1.89,0.94c-1.32,0-2.24-0.58-2.24-1.91c0-1.54,1.68-2.01,2.84-2.01c0.44,0,0.76,0,1.2,0.02
			c0-1.06-0.38-1.59-1.51-1.59c-0.64,0-1.32,0.24-1.78,0.62L197.94,159.98z M201.28,162.75c-0.24,0-0.48-0.02-0.72-0.02
			c-0.61,0-2.12,0.1-2.12,1.18c0,0.65,0.62,1,1.14,1c1.12,0,1.7-0.7,1.7-1.61V162.75z"/>
		<path d="M210.94,165.66h-1.31l-1.58-5.13h-0.02l-1.55,5.13h-1.31l-1.97-6.12h1.24l1.4,5.06h0.02l1.56-5.06h1.33l1.54,5.06h0.02
			l1.49-5.06h1.1L210.94,165.66z"/>
		<path d="M213.86,156.67h1.13v9h-1.13V156.67z"/>
		<path d="M221.44,165.41c-0.43,0.16-0.92,0.4-1.93,0.4c-2.17,0-3.17-1.32-3.17-3.31c0-1.81,1.14-3.09,2.87-3.09
			c2.04,0,2.7,1.49,2.7,3.45h-4.37c0,1.21,0.95,2.04,2.02,2.04c0.74,0,1.61-0.38,1.88-0.61V165.41z M220.71,162.01
			c0-0.94-0.55-1.7-1.52-1.7c-1.1,0-1.56,0.91-1.64,1.7H220.71z"/>
		<path d="M222.67,164.46c0.44,0.29,1.08,0.43,1.4,0.43c0.52,0,1.15-0.22,1.15-0.88c0-1.12-2.65-1.02-2.65-2.73
			c0-1.27,0.95-1.88,2.16-1.88c0.53,0,0.96,0.11,1.4,0.24l-0.1,0.98c-0.25-0.16-0.92-0.31-1.19-0.31c-0.58,0-1.08,0.24-1.08,0.74
			c0,1.25,2.65,0.89,2.65,2.84c0,1.31-1.04,1.91-2.13,1.91c-0.58,0-1.16-0.06-1.68-0.34L222.67,164.46z"/>
		<path d="M227.04,164.46c0.44,0.29,1.08,0.43,1.4,0.43c0.52,0,1.15-0.22,1.15-0.88c0-1.12-2.65-1.02-2.65-2.73
			c0-1.27,0.95-1.88,2.16-1.88c0.53,0,0.96,0.11,1.4,0.24l-0.1,0.98c-0.25-0.16-0.92-0.31-1.19-0.31c-0.58,0-1.08,0.24-1.08,0.74
			c0,1.25,2.65,0.89,2.65,2.84c0,1.31-1.04,1.91-2.13,1.91c-0.58,0-1.16-0.06-1.68-0.34L227.04,164.46z"/>
		<path d="M232.01,156.67h1.13v9h-1.13V156.67z"/>
		<path d="M234.44,167.32c0.14,0.05,0.34,0.1,0.53,0.1c1.01,0,1.34-1.39,1.34-1.51c0-0.13-0.14-0.44-0.22-0.65l-2.08-5.71h1.24
			l1.64,5.06h0.02l1.68-5.06h1.14l-2.25,6.25c-0.42,1.18-0.86,2.53-2.35,2.53c-0.36,0-0.56-0.05-0.77-0.08L234.44,167.32z"/>
		<path d="M239.75,164.32h1.34v1.34h-1.34V164.32z"/>
	</g>
</g>
</svg>
