<?xml version="1.0" encoding="utf-8"?>
<!-- Generator: Adobe Illustrator 23.0.3, SVG Export Plug-In . SVG Version: 6.00 Build 0)  -->
<svg version="1.1" id="Layer_1" xmlns="http://www.w3.org/2000/svg" xmlns:xlink="http://www.w3.org/1999/xlink" x="0px" y="0px"
	 viewBox="0 0 250 250" style="enable-background:new 0 0 250 250;" xml:space="preserve">
<style type="text/css">
	.st0{fill:#5E5F5F;}
	.st1{fill:#9AD7D9;}
	.st2{fill:#9AD7D9;stroke:#FFFFFF;stroke-width:10;stroke-linecap:round;stroke-linejoin:round;stroke-miterlimit:10;}
	.st3{fill:none;stroke:#FFFFFF;stroke-width:10;stroke-linecap:round;stroke-linejoin:round;stroke-miterlimit:10;}
</style>
<circle class="st0" cx="125" cy="125" r="125"/>
<circle class="st1" cx="125" cy="125" r="122.5"/>
<g>
	<path class="st2" d="M38.1,178.6c-14.7-14.7,0-30.7,0-30.7l112.4-18.5l66.5,26.5c0,0-14.7,16,0,30.7L116.9,203L38.1,178.6z"/>
	<line class="st3" x1="116.9" y1="172.4" x2="217" y2="155.9"/>
	<line class="st3" x1="38.1" y1="147.9" x2="116.9" y2="172.4"/>
	<path class="st3" d="M116.9,172.4c0,0-14.7,16,0,30.7"/>
	<path class="st2" d="M19.8,135.6c-14.7-14.7,0-30.7,0-30.7l112.4-18.5l66.5,26.5c0,0-14.7,16,0,30.7L98.6,160L19.8,135.6z"/>
	<line class="st3" x1="98.6" y1="129.4" x2="198.7" y2="112.9"/>
	<line class="st3" x1="19.8" y1="104.9" x2="98.6" y2="129.4"/>
	<path class="st3" d="M98.6,129.4c0,0-14.7,16,0,30.7"/>
	<path class="st2" d="M45.2,96.1c-14.7-14.7,0-30.7,0-30.7L157.6,47l66.5,26.5c0,0-14.7,16,0,30.7L124,120.6L45.2,96.1z"/>
	<line class="st3" x1="124" y1="90" x2="224.1" y2="73.5"/>
	<line class="st3" x1="45.2" y1="65.5" x2="124" y2="90"/>
	<path class="st3" d="M124,90c0,0-14.7,16,0,30.7"/>
</g>
</svg>
