<?xml version="1.0" encoding="utf-8"?>
<!-- Generator: Adobe Illustrator 23.0.3, SVG Export Plug-In . SVG Version: 6.00 Build 0)  -->
<svg version="1.1" id="Layer_1" xmlns="http://www.w3.org/2000/svg" xmlns:xlink="http://www.w3.org/1999/xlink" x="0px" y="0px"
	 viewBox="0 0 250 250" style="enable-background:new 0 0 250 250;" xml:space="preserve">
<style type="text/css">
	.st0{fill:#9AD7D9;}
	.st1{fill:none;stroke:#FFFFFF;stroke-width:10;stroke-miterlimit:10;}
	.st2{fill:#FFFFFF;stroke:#FFFFFF;stroke-width:10;stroke-linecap:round;stroke-linejoin:round;stroke-miterlimit:10;}
	.st3{fill:none;stroke:#FFFFFF;stroke-width:10;stroke-linecap:round;stroke-linejoin:round;stroke-miterlimit:10;}
	.st4{fill:none;stroke:#9AD7D9;stroke-width:1.5;stroke-miterlimit:10;}
</style>
<circle class="st0" cx="125" cy="125" r="125"/>
<g>
	<g>
		<polyline class="st1" points="119.57,108.14 132.27,114.48 138.78,125.28 126.28,123.61 115.41,114.48 		"/>
	</g>
	
		<rect x="108.39" y="103.32" transform="matrix(-0.5486 0.8361 -0.8361 -0.5486 265.963 73.353)" class="st2" width="9.58" height="10.32"/>
	
		<rect x="96.84" y="97.66" transform="matrix(-0.5486 0.8361 -0.8361 -0.5486 247.8733 71.8003)" class="st2" width="15.42" height="10.32"/>
	
		<rect x="62.27" y="39.78" transform="matrix(-0.5486 0.8361 -0.8361 -0.5486 170.6644 65.1731)" class="st3" width="10.93" height="77.75"/>
	
		<rect x="67.38" y="49.24" transform="matrix(-0.5486 0.8361 -0.8361 -0.5486 181.3766 66.0926)" class="st3" width="10.93" height="65.53"/>
	<line class="st4" x1="123.62" y1="115.33" x2="150.43" y2="132.93"/>
	<circle class="st0" cx="123.66" cy="115.35" r="2.05"/>
</g>
<g>
	
		<rect x="96.9" y="137.13" transform="matrix(-1 -4.488289e-11 4.488289e-11 -1 250.4952 330.9523)" class="st1" width="56.7" height="56.7"/>
	
		<rect x="153.6" y="137.13" transform="matrix(-1 -4.491486e-11 4.491486e-11 -1 363.8918 330.9523)" class="st1" width="56.7" height="56.7"/>
	
		<rect x="125.25" y="165.48" transform="matrix(-1 -4.488289e-11 4.488289e-11 -1 307.1935 387.6506)" class="st1" width="56.7" height="56.7"/>
	
		<rect x="68.55" y="165.48" transform="matrix(-1 -4.491486e-11 4.491486e-11 -1 193.7969 387.6506)" class="st1" width="56.7" height="56.7"/>
	
		<rect x="153.6" y="108.78" transform="matrix(-1 -4.491486e-11 4.491486e-11 -1 363.8918 274.254)" class="st1" width="56.7" height="56.7"/>
	
		<rect x="39.7" y="137.13" transform="matrix(-1 -4.491486e-11 4.491486e-11 -1 136.1082 330.9523)" class="st1" width="56.7" height="56.7"/>
</g>
<g>
	<g>
		<path d="M71.34,81.99h2.84l4.93,12.57h-2.79l-1.08-2.88h-5.1l-1.1,2.88h-2.61L71.34,81.99z M72.72,84.52h-0.04l-1.82,5.19h3.67
			L72.72,84.52z"/>
		<path d="M80.51,81.99h2.72c2.7,0,5.92-0.09,5.92,3.4c0,1.48-0.99,2.7-2.59,2.92v0.04c0.68,0.05,1.08,0.74,1.33,1.3l2.02,4.92H87.1
			l-1.51-3.93c-0.36-0.94-0.68-1.3-1.75-1.3h-0.81v5.22h-2.52V81.99z M83.04,87.36h0.83c1.24,0,2.67-0.18,2.67-1.75
			c0-1.51-1.4-1.64-2.67-1.64h-0.83V87.36z"/>
		<path d="M93.69,83.98h-3.6v-1.98h9.72v1.98h-3.6v10.59h-2.52V83.98z"/>
		<path d="M113.17,84.3c-0.79-0.34-1.67-0.54-2.56-0.54c-0.86,0-1.98,0.38-1.98,1.75c0,2.18,5.51,1.26,5.51,5.47
			c0,2.75-2.18,3.8-4.72,3.8c-1.37,0-1.98-0.18-3.22-0.49l0.23-2.27c0.86,0.47,1.85,0.77,2.84,0.77c0.95,0,2.23-0.49,2.23-1.62
			c0-2.4-5.51-1.4-5.51-5.56c0-2.81,2.18-3.83,4.39-3.83c1.08,0,2.09,0.14,3.01,0.45L113.17,84.3z"/>
		<path d="M116.43,81.99h7.42v1.98h-4.9v3.1h4.48v1.98h-4.48v3.53h4.93v1.98h-7.45V81.99z"/>
		<path d="M126.22,81.99h2.72c2.7,0,5.92-0.09,5.92,3.4c0,1.48-0.99,2.7-2.59,2.92v0.04c0.68,0.05,1.08,0.74,1.33,1.3l2.02,4.92
			h-2.81l-1.51-3.93c-0.36-0.94-0.68-1.3-1.75-1.3h-0.81v5.22h-2.52V81.99z M128.74,87.36h0.83c1.24,0,2.67-0.18,2.67-1.75
			c0-1.51-1.4-1.64-2.67-1.64h-0.83V87.36z"/>
		<path d="M135.83,81.99h2.7l3.22,9.87h0.04l3.19-9.87h2.5l-4.23,12.57h-3.1L135.83,81.99z"/>
		<path d="M148.9,81.99h2.52v12.57h-2.52V81.99z"/>
		<path d="M163.27,94.38c-0.92,0.22-1.91,0.4-2.86,0.4c-4.07,0-6.9-2.03-6.9-6.28c0-4.3,2.63-6.72,6.9-6.72
			c0.83,0,1.93,0.16,2.85,0.52l-0.18,2.12c-0.95-0.54-1.82-0.67-2.72-0.67c-2.59,0-4.21,1.98-4.21,4.56c0,2.56,1.58,4.48,4.27,4.48
			c0.99,0,2.16-0.22,2.75-0.52L163.27,94.38z"/>
		<path d="M165.12,81.99h7.42v1.98h-4.9v3.1h4.48v1.98h-4.48v3.53h4.93v1.98h-7.45V81.99z"/>
		<path d="M181.88,84.3c-0.79-0.34-1.67-0.54-2.56-0.54c-0.86,0-1.98,0.38-1.98,1.75c0,2.18,5.51,1.26,5.51,5.47
			c0,2.75-2.18,3.8-4.72,3.8c-1.37,0-1.98-0.18-3.22-0.49l0.23-2.27c0.86,0.47,1.85,0.77,2.84,0.77c0.95,0,2.23-0.49,2.23-1.62
			c0-2.4-5.51-1.4-5.51-5.56c0-2.81,2.18-3.83,4.39-3.83c1.08,0,2.09,0.14,3.01,0.45L181.88,84.3z"/>
	</g>
	<g>
		<path d="M16.49,114.09h1.32l2,7.17h0.02l1.79-7.17h1.7l1.81,7.17h0.02l2-7.17h1.27l-2.58,8.37h-1.55l-1.82-7.32h-0.02l-1.83,7.32
			h-1.61L16.49,114.09z"/>
		<path d="M33.76,122.21c-0.43,0.16-0.92,0.4-1.93,0.4c-2.17,0-3.17-1.32-3.17-3.31c0-1.81,1.14-3.09,2.87-3.09
			c2.04,0,2.7,1.49,2.7,3.45h-4.37c0,1.21,0.95,2.04,2.02,2.04c0.74,0,1.61-0.38,1.88-0.61V122.21z M33.03,118.81
			c0-0.94-0.55-1.7-1.52-1.7c-1.1,0-1.56,0.91-1.64,1.7H33.03z"/>
		<path d="M42.96,117.38c-0.43-0.18-0.86-0.26-1.22-0.26c-1.26,0-1.97,1.13-1.97,2.29c0,1.09,0.59,2.29,2.04,2.29
			c0.38,0,0.86-0.12,1.21-0.35l0.08,1.01c-0.47,0.22-1.01,0.25-1.42,0.25c-1.85,0-3.12-1.45-3.12-3.2c0-1.86,1.25-3.2,3.12-3.2
			c0.46,0,1.04,0.11,1.37,0.24L42.96,117.38z"/>
		<path d="M44.69,116.78c0.56-0.34,1.24-0.58,2.02-0.58c1.75,0,2.46,0.86,2.46,2.53v2.53c0,0.7,0.02,1.02,0.05,1.2h-1.06v-0.79
			h-0.02c-0.26,0.37-0.86,0.94-1.9,0.94c-1.32,0-2.24-0.58-2.24-1.91c0-1.54,1.68-2.01,2.84-2.01c0.44,0,0.76,0,1.2,0.02
			c0-1.06-0.38-1.6-1.51-1.6c-0.64,0-1.32,0.24-1.78,0.62L44.69,116.78z M48.04,119.55c-0.24,0-0.48-0.02-0.72-0.02
			c-0.61,0-2.12,0.1-2.12,1.18c0,0.65,0.62,1,1.14,1c1.12,0,1.7-0.7,1.7-1.61V119.55z"/>
		<path d="M51.08,116.34h1.09v0.97h0.02c0.34-0.7,1.15-1.12,2-1.12c1.58,0,2.29,0.98,2.29,2.63v3.63h-1.13v-3.17
			c0-1.43-0.31-2.12-1.3-2.18c-1.28,0-1.86,1.03-1.86,2.52v2.83h-1.13V116.34z"/>
		<path d="M67.15,124.98h-1.13v-3.32H66c-0.35,0.58-1.14,0.95-2.04,0.95c-1.85,0-2.63-1.64-2.63-3.31c0-1.64,0.86-3.09,2.64-3.09
			c1.08,0,1.77,0.55,2.07,1.02h0.02v-0.88h1.08V124.98z M64.23,121.69c1.27,0,1.8-1.26,1.8-2.28c0-1.14-0.59-2.3-1.81-2.3
			s-1.7,1.15-1.68,2.27C62.51,120.34,63.02,121.69,64.23,121.69z"/>
		<path d="M74.49,122.46h-1.09v-0.97h-0.02c-0.34,0.7-1.15,1.12-2,1.12c-1.58,0-2.29-0.98-2.29-2.63v-3.63h1.13v3.17
			c0,1.43,0.31,2.12,1.3,2.18c1.28,0,1.86-1.03,1.86-2.52v-2.83h1.13V122.46z"/>
		<path d="M77.75,114.98h-1.27v-1.27h1.27V114.98z M76.55,116.34h1.13v6.12h-1.13V116.34z"/>
		<path d="M83.63,117.38c-0.43-0.18-0.86-0.26-1.22-0.26c-1.26,0-1.97,1.13-1.97,2.29c0,1.09,0.59,2.29,2.04,2.29
			c0.38,0,0.86-0.12,1.21-0.35l0.08,1.01c-0.47,0.22-1.01,0.25-1.42,0.25c-1.85,0-3.12-1.45-3.12-3.2c0-1.86,1.25-3.2,3.12-3.2
			c0.46,0,1.04,0.11,1.37,0.24L83.63,117.38z"/>
		<path d="M85.07,113.47h1.13v5.36l2.46-2.48h1.54l-2.84,2.71l3.2,3.41h-1.62l-2.73-3.14v3.14h-1.13V113.47z"/>
		<path d="M91.89,113.47h1.13v9h-1.13V113.47z"/>
		<path d="M94.62,124.12c0.14,0.05,0.34,0.1,0.53,0.1c1.01,0,1.34-1.39,1.34-1.51c0-0.13-0.14-0.44-0.22-0.65l-2.07-5.71h1.24
			l1.64,5.06h0.02l1.68-5.06h1.14l-2.25,6.25c-0.42,1.18-0.86,2.53-2.35,2.53c-0.36,0-0.56-0.05-0.77-0.08L94.62,124.12z"/>
		<path d="M109.11,122.21c-0.43,0.16-0.92,0.4-1.93,0.4c-2.17,0-3.17-1.32-3.17-3.31c0-1.81,1.14-3.09,2.87-3.09
			c2.04,0,2.7,1.49,2.7,3.45h-4.37c0,1.21,0.95,2.04,2.02,2.04c0.74,0,1.61-0.38,1.88-0.61V122.21z M108.37,118.81
			c0-0.94-0.55-1.7-1.52-1.7c-1.1,0-1.56,0.91-1.64,1.7H108.37z"/>
		<path d="M115.42,121.6h-0.02c-0.3,0.46-1,1.01-2.09,1.01c-1.85,0-2.63-1.64-2.63-3.31c0-1.64,0.86-3.09,2.64-3.09
			c1.07,0,1.68,0.42,2.03,0.98h0.02v-3.72h1.13v9h-1.08V121.6z M113.57,121.69c1.27,0,1.8-1.26,1.8-2.28c0-1.14-0.59-2.3-1.81-2.3
			c-1.22,0-1.7,1.15-1.68,2.27C111.86,120.34,112.36,121.69,113.57,121.69z"/>
		<path d="M119.76,114.98h-1.27v-1.27h1.27V114.98z M118.56,116.34h1.13v6.12h-1.13V116.34z"/>
		<path d="M125.01,117.26h-1.62v3.35c0,0.71,0.43,1.09,0.95,1.09c0.35,0,0.6-0.11,0.77-0.22v0.96c-0.25,0.07-0.6,0.17-0.96,0.17
			c-1.16,0-1.88-0.55-1.88-1.78v-3.57h-1.38v-0.91h1.38v-1.42l1.13-0.36v1.77h1.62V117.26z"/>
		<path d="M131.1,114.98h-1.27v-1.27h1.27V114.98z M129.9,116.34h1.13v6.12h-1.13V116.34z"/>
		<path d="M133.08,116.34h1.06v0.89h0.02c0.43-0.71,1.04-1.03,1.94-1.03c0.71,0,1.42,0.36,1.74,1.19c0.42-0.88,1.34-1.19,1.9-1.19
			c1.56,0,2.12,1.01,2.12,2.34v3.92h-1.13v-3.65c0-0.76-0.18-1.7-1.09-1.7c-1.15,0-1.61,1.13-1.61,2.27v3.08h-1.13v-3.65
			c0-0.76-0.18-1.7-1.09-1.7c-1.15,0-1.61,1.13-1.61,2.27v3.08h-1.13V116.34z"/>
		<path d="M144.05,116.78c0.56-0.34,1.23-0.58,2.01-0.58c1.75,0,2.46,0.86,2.46,2.53v2.53c0,0.7,0.02,1.02,0.05,1.2h-1.06v-0.79
			h-0.02c-0.26,0.37-0.86,0.94-1.89,0.94c-1.32,0-2.24-0.58-2.24-1.91c0-1.54,1.68-2.01,2.84-2.01c0.44,0,0.76,0,1.2,0.02
			c0-1.06-0.38-1.6-1.51-1.6c-0.64,0-1.32,0.24-1.78,0.62L144.05,116.78z M147.4,119.55c-0.24,0-0.48-0.02-0.72-0.02
			c-0.61,0-2.12,0.1-2.12,1.18c0,0.65,0.62,1,1.14,1c1.12,0,1.7-0.7,1.7-1.61V119.55z"/>
		<path d="M155.84,122.2c0,1.86-0.96,2.93-3.15,2.93c-0.65,0-1.21-0.08-2.2-0.42l0.12-1.04c0.86,0.4,1.38,0.55,2.21,0.55
			c1.19,0,1.89-0.8,1.89-2.1v-0.6h-0.02c-0.48,0.64-1.27,0.95-2.05,0.95c-1.75,0-2.62-1.43-2.62-3.01c0-1.57,0.89-3.25,2.73-3.25
			c1.08,0,1.68,0.4,2.02,1.06h0.02v-0.91h1.04V122.2z M154.72,119.47c0-1.27-0.59-2.36-1.79-2.36c-1.14,0-1.7,1.24-1.7,2.28
			c0,1.15,0.65,2.16,1.7,2.16C153.99,121.55,154.72,120.61,154.72,119.47z"/>
		<path d="M162.46,122.21c-0.43,0.16-0.92,0.4-1.93,0.4c-2.17,0-3.17-1.32-3.17-3.31c0-1.81,1.14-3.09,2.87-3.09
			c2.04,0,2.7,1.49,2.7,3.45h-4.37c0,1.21,0.95,2.04,2.02,2.04c0.74,0,1.61-0.38,1.88-0.61V122.21z M161.73,118.81
			c0-0.94-0.55-1.7-1.52-1.7c-1.1,0-1.56,0.91-1.64,1.7H161.73z"/>
		<path d="M163.98,121.26c0.44,0.29,1.08,0.43,1.4,0.43c0.52,0,1.15-0.22,1.15-0.88c0-1.12-2.65-1.02-2.65-2.73
			c0-1.27,0.95-1.88,2.16-1.88c0.53,0,0.96,0.11,1.4,0.24l-0.1,0.98c-0.25-0.16-0.92-0.31-1.19-0.31c-0.58,0-1.08,0.24-1.08,0.74
			c0,1.25,2.65,0.89,2.65,2.84c0,1.31-1.04,1.91-2.13,1.91c-0.58,0-1.16-0.06-1.68-0.34L163.98,121.26z"/>
		<path d="M175.69,117.26h-1.62v3.35c0,0.71,0.43,1.09,0.95,1.09c0.35,0,0.6-0.11,0.77-0.22v0.96c-0.25,0.07-0.6,0.17-0.96,0.17
			c-1.16,0-1.88-0.55-1.88-1.78v-3.57h-1.38v-0.91h1.38v-1.42l1.13-0.36v1.77h1.62V117.26z"/>
		<path d="M179.82,116.2c1.86,0,3.11,1.34,3.11,3.2c0,1.75-1.27,3.2-3.11,3.2c-1.85,0-3.12-1.45-3.12-3.2
			C176.7,117.54,177.95,116.2,179.82,116.2z M179.82,121.69c1.32,0,1.91-1.2,1.91-2.29c0-1.16-0.71-2.29-1.91-2.29
			c-1.21,0-1.92,1.13-1.92,2.29C177.9,120.49,178.49,121.69,179.82,121.69z"/>
		<path d="M194.7,122.46h-1.31l-1.58-5.13h-0.02l-1.55,5.13h-1.31l-1.97-6.12h1.24l1.4,5.06h0.02l1.56-5.06h1.33l1.54,5.06h0.02
			l1.49-5.06h1.1L194.7,122.46z"/>
		<path d="M200.49,116.2c1.86,0,3.11,1.34,3.11,3.2c0,1.75-1.27,3.2-3.11,3.2c-1.85,0-3.12-1.45-3.12-3.2
			C197.37,117.54,198.61,116.2,200.49,116.2z M200.49,121.69c1.32,0,1.91-1.2,1.91-2.29c0-1.16-0.71-2.29-1.91-2.29
			c-1.21,0-1.92,1.13-1.92,2.29C198.57,120.49,199.15,121.69,200.49,121.69z"/>
		<path d="M205.11,116.34h1.06v0.95h0.02c0.3-0.64,0.95-1.09,1.59-1.09c0.34,0,0.5,0.04,0.74,0.08v1.01
			c-0.2-0.08-0.43-0.11-0.62-0.11c-1.01,0-1.67,0.96-1.67,2.49v2.78h-1.13V116.34z"/>
		<path d="M209.78,113.47h1.13v5.36l2.46-2.48h1.54l-2.84,2.71l3.2,3.41h-1.62l-2.73-3.14v3.14h-1.13V113.47z"/>
		<path d="M222.49,116.2c1.86,0,3.11,1.34,3.11,3.2c0,1.75-1.27,3.2-3.11,3.2c-1.85,0-3.12-1.45-3.12-3.2
			C219.38,117.54,220.62,116.2,222.49,116.2z M222.49,121.69c1.32,0,1.91-1.2,1.91-2.29c0-1.16-0.71-2.29-1.91-2.29
			c-1.21,0-1.92,1.13-1.92,2.29C220.57,120.49,221.16,121.69,222.49,121.69z"/>
		<path d="M227.11,116.34h1.09v0.97h0.02c0.34-0.7,1.15-1.12,2-1.12c1.58,0,2.29,0.98,2.29,2.63v3.63h-1.13v-3.17
			c0-1.43-0.31-2.12-1.29-2.18c-1.28,0-1.86,1.03-1.86,2.52v2.83h-1.13V116.34z"/>
		<path d="M23.5,131.66h-1.62V135c0,0.71,0.43,1.09,0.95,1.09c0.35,0,0.6-0.11,0.77-0.22v0.96c-0.25,0.07-0.6,0.17-0.96,0.17
			c-1.16,0-1.88-0.55-1.88-1.77v-3.57h-1.38v-0.91h1.38v-1.42l1.13-0.36v1.77h1.62V131.66z"/>
		<path d="M24.92,127.87h1.13v3.75h0.02c0.41-0.65,1.12-1.02,1.97-1.02c1.58,0,2.29,0.98,2.29,2.63v3.63H29.2v-3.17
			c0-1.43-0.31-2.12-1.3-2.18c-1.28,0-1.86,1.03-1.86,2.52v2.83h-1.13V127.87z"/>
		<path d="M36.94,136.61c-0.43,0.16-0.92,0.4-1.93,0.4c-2.17,0-3.17-1.32-3.17-3.31c0-1.81,1.14-3.09,2.87-3.09
			c2.04,0,2.7,1.49,2.7,3.45h-4.37c0,1.21,0.95,2.04,2.02,2.04c0.74,0,1.61-0.38,1.88-0.61V136.61z M36.21,133.21
			c0-0.94-0.55-1.7-1.52-1.7c-1.1,0-1.56,0.91-1.64,1.7H36.21z"/>
		<path d="M42.26,130.74h1.08v0.86h0.02c0.3-0.46,1-1.01,2.07-1.01c1.77,0,2.64,1.45,2.64,3.09c0,1.68-0.78,3.31-2.63,3.31
			c-1.08,0-1.69-0.42-2.04-0.98h-0.02v3.36h-1.13V130.74z M45.19,131.51c-1.22,0-1.81,1.16-1.81,2.3c0,1.02,0.53,2.28,1.8,2.28
			c1.21,0,1.72-1.36,1.69-2.32C46.9,132.67,46.42,131.51,45.19,131.51z"/>
		<path d="M49.88,131.17c0.56-0.33,1.23-0.58,2.01-0.58c1.75,0,2.46,0.86,2.46,2.53v2.53c0,0.7,0.02,1.02,0.05,1.2h-1.06v-0.79
			h-0.02c-0.26,0.37-0.86,0.94-1.9,0.94c-1.32,0-2.24-0.58-2.24-1.91c0-1.54,1.68-2.01,2.84-2.01c0.44,0,0.76,0,1.2,0.02
			c0-1.06-0.38-1.6-1.51-1.6c-0.64,0-1.32,0.24-1.78,0.62L49.88,131.17z M53.22,133.95c-0.24,0-0.48-0.02-0.72-0.02
			c-0.61,0-2.12,0.1-2.12,1.17c0,0.65,0.62,1,1.14,1c1.12,0,1.7-0.7,1.7-1.61V133.95z"/>
		<path d="M61.67,136.6c0,1.86-0.96,2.93-3.15,2.93c-0.65,0-1.21-0.08-2.19-0.42l0.12-1.04c0.86,0.4,1.38,0.55,2.21,0.55
			c1.19,0,1.9-0.8,1.9-2.1v-0.6h-0.02c-0.48,0.63-1.27,0.95-2.05,0.95c-1.75,0-2.61-1.43-2.61-3.01c0-1.57,0.89-3.25,2.73-3.25
			c1.08,0,1.68,0.4,2.02,1.06h0.02v-0.91h1.04V136.6z M60.54,133.87c0-1.27-0.59-2.36-1.79-2.36c-1.14,0-1.7,1.24-1.7,2.28
			c0,1.15,0.65,2.16,1.7,2.16S60.54,135.01,60.54,133.87z"/>
		<path d="M68.28,136.61c-0.43,0.16-0.92,0.4-1.93,0.4c-2.17,0-3.17-1.32-3.17-3.31c0-1.81,1.14-3.09,2.87-3.09
			c2.04,0,2.7,1.49,2.7,3.45h-4.37c0,1.21,0.95,2.04,2.02,2.04c0.74,0,1.61-0.38,1.88-0.61V136.61z M67.55,133.21
			c0-0.94-0.55-1.7-1.52-1.7c-1.1,0-1.56,0.91-1.64,1.7H67.55z"/>
		<path d="M73.89,131.17c0.56-0.33,1.23-0.58,2.01-0.58c1.75,0,2.46,0.86,2.46,2.53v2.53c0,0.7,0.02,1.02,0.05,1.2h-1.06v-0.79
			h-0.02c-0.26,0.37-0.86,0.94-1.9,0.94c-1.32,0-2.24-0.58-2.24-1.91c0-1.54,1.68-2.01,2.84-2.01c0.44,0,0.76,0,1.2,0.02
			c0-1.06-0.38-1.6-1.51-1.6c-0.64,0-1.32,0.24-1.78,0.62L73.89,131.17z M77.23,133.95c-0.24,0-0.48-0.02-0.72-0.02
			c-0.61,0-2.12,0.1-2.12,1.17c0,0.65,0.62,1,1.14,1c1.12,0,1.7-0.7,1.7-1.61V133.95z"/>
		<path d="M80.27,130.74h1.09v0.97h0.02c0.34-0.7,1.15-1.12,2-1.12c1.58,0,2.29,0.98,2.29,2.63v3.63h-1.13v-3.17
			c0-1.43-0.31-2.12-1.3-2.18c-1.28,0-1.86,1.03-1.86,2.52v2.83h-1.13V130.74z"/>
		<path d="M91.93,136h-0.02c-0.3,0.46-1,1.01-2.09,1.01c-1.85,0-2.63-1.64-2.63-3.31c0-1.64,0.86-3.09,2.64-3.09
			c1.07,0,1.68,0.42,2.03,0.98h0.02v-3.72h1.13v9h-1.08V136z M90.09,136.09c1.27,0,1.8-1.26,1.8-2.28c0-1.14-0.59-2.3-1.81-2.3
			c-1.22,0-1.7,1.15-1.68,2.27C88.37,134.74,88.88,136.09,90.09,136.09z"/>
		<path d="M99,131.66h-1.44v-0.91H99v-0.56c0-1.49,0.38-2.46,2.05-2.46c0.29,0,0.53,0.04,0.76,0.07l-0.05,0.91
			c-0.13-0.05-0.35-0.07-0.54-0.07c-0.97,0-1.09,0.62-1.09,1.45v0.66h1.62v0.91h-1.62v5.21H99V131.66z"/>
		<path d="M103.23,131.17c0.56-0.33,1.23-0.58,2.01-0.58c1.75,0,2.46,0.86,2.46,2.53v2.53c0,0.7,0.02,1.02,0.05,1.2h-1.06v-0.79
			h-0.02c-0.26,0.37-0.86,0.94-1.9,0.94c-1.32,0-2.24-0.58-2.24-1.91c0-1.54,1.68-2.01,2.84-2.01c0.44,0,0.76,0,1.2,0.02
			c0-1.06-0.38-1.6-1.51-1.6c-0.64,0-1.32,0.24-1.78,0.62L103.23,131.17z M106.57,133.95c-0.24,0-0.48-0.02-0.72-0.02
			c-0.61,0-2.12,0.1-2.12,1.17c0,0.65,0.62,1,1.14,1c1.12,0,1.7-0.7,1.7-1.61V133.95z"/>
		<path d="M109.76,127.87h1.13v9h-1.13V127.87z"/>
		<path d="M113.09,127.87h1.13v9h-1.13V127.87z"/>
		<path d="M126.54,136.86h-1.31l-1.58-5.13h-0.02l-1.55,5.13h-1.31l-1.97-6.12h1.24l1.4,5.06h0.02l1.56-5.06h1.33l1.54,5.06h0.02
			l1.49-5.06h1.1L126.54,136.86z"/>
		<path d="M130.96,129.38h-1.27v-1.27h1.27V129.38z M129.76,130.74h1.13v6.12h-1.13V130.74z"/>
		<path d="M136.2,131.66h-1.62V135c0,0.71,0.43,1.09,0.95,1.09c0.35,0,0.6-0.11,0.77-0.22v0.96c-0.25,0.07-0.6,0.17-0.96,0.17
			c-1.16,0-1.88-0.55-1.88-1.77v-3.57h-1.38v-0.91h1.38v-1.42l1.13-0.36v1.77h1.62V131.66z"/>
		<path d="M137.62,127.87h1.13v3.75h0.02c0.41-0.65,1.12-1.02,1.97-1.02c1.58,0,2.29,0.98,2.29,2.63v3.63h-1.13v-3.17
			c0-1.43-0.31-2.12-1.29-2.18c-1.28,0-1.86,1.03-1.86,2.52v2.83h-1.13V127.87z"/>
		<path d="M146.29,129.38h-1.27v-1.27h1.27V129.38z M145.09,130.74h1.13v6.12h-1.13V130.74z"/>
		<path d="M148.29,130.74h1.09v0.97h0.02c0.34-0.7,1.15-1.12,2-1.12c1.58,0,2.29,0.98,2.29,2.63v3.63h-1.13v-3.17
			c0-1.43-0.31-2.12-1.29-2.18c-1.28,0-1.86,1.03-1.86,2.52v2.83h-1.13V130.74z"/>
		<path d="M158.5,138.52c0.14,0.05,0.34,0.1,0.53,0.1c1.01,0,1.34-1.39,1.34-1.51c0-0.13-0.14-0.44-0.22-0.65l-2.08-5.71h1.24
			l1.64,5.06h0.02l1.68-5.06h1.14l-2.25,6.25c-0.42,1.17-0.86,2.53-2.35,2.53c-0.36,0-0.56-0.05-0.77-0.08L158.5,138.52z"/>
		<path d="M167.67,130.6c1.86,0,3.11,1.34,3.11,3.2c0,1.75-1.27,3.2-3.11,3.2c-1.85,0-3.12-1.45-3.12-3.2
			C164.55,131.94,165.79,130.6,167.67,130.6z M167.67,136.09c1.32,0,1.91-1.2,1.91-2.29c0-1.16-0.71-2.29-1.91-2.29
			c-1.21,0-1.92,1.13-1.92,2.29C165.75,134.89,166.33,136.09,167.67,136.09z"/>
		<path d="M177.7,136.86h-1.09v-0.97h-0.02c-0.33,0.7-1.15,1.12-2,1.12c-1.58,0-2.29-0.98-2.29-2.63v-3.63h1.13v3.17
			c0,1.43,0.31,2.12,1.3,2.18c1.28,0,1.86-1.03,1.86-2.52v-2.83h1.13V136.86z"/>
		<path d="M179.62,130.74h1.06v0.95h0.02c0.3-0.64,0.95-1.09,1.59-1.09c0.34,0,0.5,0.04,0.74,0.08v1.01
			c-0.2-0.08-0.43-0.11-0.62-0.11c-1.01,0-1.67,0.96-1.67,2.5v2.78h-1.13V130.74z"/>
		<path d="M187.62,127.87h1.13v3.72h0.02c0.35-0.56,0.96-0.98,2.03-0.98c1.78,0,2.64,1.45,2.64,3.09c0,1.68-0.78,3.31-2.63,3.31
			c-1.09,0-1.79-0.55-2.09-1.01h-0.02v0.86h-1.08V127.87z M190.56,131.51c-1.22,0-1.81,1.16-1.81,2.3c0,1.02,0.53,2.28,1.8,2.28
			c1.21,0,1.72-1.36,1.69-2.32C192.26,132.67,191.78,131.51,190.56,131.51z"/>
		<path d="M200.36,136.86h-1.09v-0.97h-0.02c-0.33,0.7-1.15,1.12-2,1.12c-1.58,0-2.29-0.98-2.29-2.63v-3.63h1.13v3.17
			c0,1.43,0.31,2.12,1.3,2.18c1.28,0,1.86-1.03,1.86-2.52v-2.83h1.13V136.86z"/>
		<path d="M206.62,136h-0.02c-0.3,0.46-1,1.01-2.09,1.01c-1.85,0-2.63-1.64-2.63-3.31c0-1.64,0.86-3.09,2.64-3.09
			c1.07,0,1.68,0.42,2.03,0.98h0.02v-3.72h1.13v9h-1.08V136z M204.77,136.09c1.27,0,1.8-1.26,1.8-2.28c0-1.14-0.59-2.3-1.81-2.3
			c-1.22,0-1.7,1.15-1.68,2.27C203.05,134.74,203.56,136.09,204.77,136.09z"/>
		<path d="M215.03,136.6c0,1.86-0.96,2.93-3.15,2.93c-0.65,0-1.21-0.08-2.2-0.42l0.12-1.04c0.86,0.4,1.38,0.55,2.21,0.55
			c1.19,0,1.89-0.8,1.89-2.1v-0.6h-0.02c-0.48,0.63-1.27,0.95-2.05,0.95c-1.75,0-2.62-1.43-2.62-3.01c0-1.57,0.89-3.25,2.73-3.25
			c1.08,0,1.68,0.4,2.02,1.06h0.02v-0.91h1.04V136.6z M213.9,133.87c0-1.27-0.59-2.36-1.79-2.36c-1.14,0-1.7,1.24-1.7,2.28
			c0,1.15,0.65,2.16,1.7,2.16C213.17,135.95,213.9,135.01,213.9,133.87z"/>
		<path d="M221.64,136.61c-0.43,0.16-0.92,0.4-1.93,0.4c-2.17,0-3.17-1.32-3.17-3.31c0-1.81,1.14-3.09,2.87-3.09
			c2.04,0,2.7,1.49,2.7,3.45h-4.37c0,1.21,0.95,2.04,2.02,2.04c0.74,0,1.61-0.38,1.88-0.61V136.61z M220.91,133.21
			c0-0.94-0.55-1.7-1.52-1.7c-1.1,0-1.56,0.91-1.64,1.7H220.91z"/>
		<path d="M226.87,131.66h-1.62V135c0,0.71,0.43,1.09,0.95,1.09c0.35,0,0.6-0.11,0.77-0.22v0.96c-0.25,0.07-0.6,0.17-0.96,0.17
			c-1.16,0-1.88-0.55-1.88-1.77v-3.57h-1.38v-0.91h1.38v-1.42l1.13-0.36v1.77h1.62V131.66z"/>
		<path d="M228.33,135.52h1.34v1.34h-1.34V135.52z"/>
		<path d="M25.15,142.89h1.32l2,7.17h0.02l1.79-7.17h1.7l1.81,7.17h0.02l2-7.17h1.27l-2.58,8.37h-1.55l-1.82-7.32h-0.02l-1.83,7.32
			h-1.61L25.15,142.89z"/>
		<path d="M42.42,151.01c-0.43,0.16-0.92,0.4-1.93,0.4c-2.17,0-3.17-1.32-3.17-3.31c0-1.81,1.14-3.09,2.87-3.09
			c2.04,0,2.7,1.49,2.7,3.45h-4.37c0,1.21,0.95,2.04,2.02,2.04c0.74,0,1.61-0.38,1.88-0.61V151.01z M41.69,147.61
			c0-0.94-0.55-1.7-1.52-1.7c-1.1,0-1.56,0.91-1.64,1.7H41.69z"/>
		<path d="M54.66,151.26h-1.31l-1.58-5.13h-0.02l-1.55,5.13h-1.31l-1.97-6.12h1.24l1.4,5.06h0.02l1.56-5.06h1.33l1.54,5.06h0.02
			l1.49-5.06h1.1L54.66,151.26z"/>
		<path d="M59.07,143.78H57.8v-1.27h1.27V143.78z M57.88,145.14H59v6.12h-1.13V145.14z"/>
		<path d="M61.21,142.26h1.13v9h-1.13V142.26z"/>
		<path d="M64.55,142.26h1.13v9h-1.13V142.26z"/>
		<path d="M71.36,145.58c0.56-0.34,1.24-0.58,2.02-0.58c1.75,0,2.46,0.86,2.46,2.53v2.53c0,0.7,0.02,1.02,0.05,1.2h-1.06v-0.79H74.8
			c-0.26,0.37-0.86,0.94-1.9,0.94c-1.32,0-2.24-0.58-2.24-1.91c0-1.54,1.68-2.01,2.84-2.01c0.44,0,0.76,0,1.2,0.02
			c0-1.06-0.38-1.59-1.51-1.59c-0.64,0-1.32,0.24-1.78,0.62L71.36,145.58z M74.71,148.35c-0.24,0-0.48-0.02-0.72-0.02
			c-0.61,0-2.12,0.1-2.12,1.18c0,0.65,0.62,1,1.14,1c1.12,0,1.7-0.7,1.7-1.61V148.35z"/>
		<path d="M77.89,142.26h1.13v9h-1.13V142.26z"/>
		<path d="M80.63,150.06c0.44,0.29,1.08,0.43,1.4,0.43c0.52,0,1.15-0.22,1.15-0.88c0-1.12-2.65-1.02-2.65-2.73
			c0-1.27,0.95-1.88,2.16-1.88c0.53,0,0.96,0.11,1.4,0.24l-0.1,0.98c-0.25-0.16-0.92-0.31-1.19-0.31c-0.58,0-1.08,0.24-1.08,0.74
			c0,1.25,2.65,0.89,2.65,2.84c0,1.31-1.04,1.91-2.13,1.91c-0.58,0-1.16-0.06-1.68-0.34L80.63,150.06z"/>
		<path d="M88.46,145c1.86,0,3.11,1.34,3.11,3.2c0,1.75-1.27,3.2-3.11,3.2c-1.85,0-3.12-1.45-3.12-3.2
			C85.34,146.34,86.59,145,88.46,145z M88.46,150.49c1.32,0,1.91-1.2,1.91-2.29c0-1.16-0.71-2.29-1.91-2.29
			c-1.21,0-1.92,1.13-1.92,2.29C86.54,149.29,87.13,150.49,88.46,150.49z"/>
		<path d="M96.42,142.26h1.13v3.75h0.02c0.41-0.65,1.12-1.02,1.97-1.02c1.58,0,2.29,0.98,2.29,2.63v3.63h-1.13v-3.17
			c0-1.43-0.31-2.12-1.3-2.18c-1.28,0-1.86,1.03-1.86,2.52v2.83h-1.13V142.26z"/>
		<path d="M104.04,145.58c0.56-0.34,1.24-0.58,2.02-0.58c1.75,0,2.46,0.86,2.46,2.53v2.53c0,0.7,0.02,1.02,0.05,1.2h-1.06v-0.79
			h-0.02c-0.26,0.37-0.86,0.94-1.9,0.94c-1.32,0-2.24-0.58-2.24-1.91c0-1.54,1.68-2.01,2.84-2.01c0.44,0,0.76,0,1.2,0.02
			c0-1.06-0.38-1.59-1.51-1.59c-0.64,0-1.32,0.24-1.78,0.62L104.04,145.58z M107.38,148.35c-0.24,0-0.48-0.02-0.72-0.02
			c-0.61,0-2.12,0.1-2.12,1.18c0,0.65,0.62,1,1.14,1c1.12,0,1.7-0.7,1.7-1.61V148.35z"/>
		<path d="M110.42,145.14h1.09v0.97h0.02c0.34-0.7,1.15-1.12,2-1.12c1.58,0,2.29,0.98,2.29,2.63v3.63h-1.13v-3.17
			c0-1.43-0.31-2.12-1.3-2.18c-1.28,0-1.86,1.03-1.86,2.52v2.83h-1.13V145.14z"/>
		<path d="M122.08,150.4h-0.02c-0.3,0.46-1,1.01-2.09,1.01c-1.85,0-2.63-1.64-2.63-3.31c0-1.64,0.86-3.09,2.64-3.09
			c1.07,0,1.68,0.42,2.03,0.98h0.02v-3.72h1.13v9h-1.08V150.4z M120.24,150.49c1.27,0,1.8-1.26,1.8-2.28c0-1.14-0.59-2.3-1.81-2.3
			s-1.7,1.15-1.68,2.27C118.52,149.14,119.03,150.49,120.24,150.49z"/>
		<path d="M125.23,142.26h1.13v9h-1.13V142.26z"/>
		<path d="M133.11,151.01c-0.43,0.16-0.92,0.4-1.93,0.4c-2.17,0-3.17-1.32-3.17-3.31c0-1.81,1.14-3.09,2.87-3.09
			c2.04,0,2.7,1.49,2.7,3.45h-4.37c0,1.21,0.95,2.04,2.01,2.04c0.74,0,1.61-0.38,1.88-0.61V151.01z M132.38,147.61
			c0-0.94-0.55-1.7-1.52-1.7c-1.1,0-1.56,0.91-1.64,1.7H132.38z"/>
		<path d="M139.77,143.78h-1.27v-1.27h1.27V143.78z M138.57,145.14h1.13v6.12h-1.13V145.14z"/>
		<path d="M141.75,145.14h1.06v0.89h0.02c0.43-0.71,1.04-1.03,1.94-1.03c0.71,0,1.42,0.36,1.74,1.19c0.42-0.88,1.34-1.19,1.89-1.19
			c1.56,0,2.12,1.01,2.12,2.34v3.92h-1.13v-3.65c0-0.76-0.18-1.7-1.09-1.7c-1.15,0-1.61,1.13-1.61,2.27v3.08h-1.13v-3.65
			c0-0.76-0.18-1.7-1.09-1.7c-1.15,0-1.61,1.13-1.61,2.27v3.08h-1.13V145.14z"/>
		<path d="M152.72,145.58c0.56-0.34,1.24-0.58,2.01-0.58c1.75,0,2.46,0.86,2.46,2.53v2.53c0,0.7,0.02,1.02,0.05,1.2h-1.06v-0.79
			h-0.02c-0.26,0.37-0.86,0.94-1.9,0.94c-1.32,0-2.24-0.58-2.24-1.91c0-1.54,1.68-2.01,2.84-2.01c0.44,0,0.76,0,1.2,0.02
			c0-1.06-0.38-1.59-1.51-1.59c-0.64,0-1.32,0.24-1.78,0.62L152.72,145.58z M156.07,148.35c-0.24,0-0.48-0.02-0.72-0.02
			c-0.61,0-2.12,0.1-2.12,1.18c0,0.65,0.62,1,1.14,1c1.12,0,1.7-0.7,1.7-1.61V148.35z"/>
		<path d="M164.51,151c0,1.86-0.96,2.93-3.15,2.93c-0.65,0-1.21-0.08-2.19-0.42l0.12-1.04c0.86,0.4,1.38,0.55,2.21,0.55
			c1.19,0,1.9-0.8,1.9-2.1v-0.6h-0.02c-0.48,0.64-1.27,0.95-2.05,0.95c-1.75,0-2.61-1.43-2.61-3.01c0-1.57,0.89-3.25,2.73-3.25
			c1.08,0,1.68,0.4,2.01,1.06h0.02v-0.91h1.04V151z M163.39,148.27c0-1.27-0.59-2.36-1.79-2.36c-1.14,0-1.7,1.24-1.7,2.28
			c0,1.15,0.65,2.16,1.7,2.16S163.39,149.41,163.39,148.27z"/>
		<path d="M171.13,151.01c-0.43,0.16-0.92,0.4-1.93,0.4c-2.17,0-3.17-1.32-3.17-3.31c0-1.81,1.14-3.09,2.87-3.09
			c2.04,0,2.7,1.49,2.7,3.45h-4.37c0,1.21,0.95,2.04,2.01,2.04c0.74,0,1.61-0.38,1.88-0.61V151.01z M170.4,147.61
			c0-0.94-0.55-1.7-1.52-1.7c-1.1,0-1.56,0.91-1.64,1.7H170.4z"/>
		<path d="M179.7,146.05h-1.62v3.35c0,0.71,0.43,1.09,0.95,1.09c0.35,0,0.6-0.11,0.77-0.22v0.96c-0.25,0.07-0.6,0.17-0.96,0.17
			c-1.16,0-1.88-0.55-1.88-1.78v-3.57h-1.38v-0.91h1.38v-1.42l1.13-0.36v1.78h1.62V146.05z"/>
		<path d="M181.11,145.14h1.06v0.95h0.02c0.3-0.64,0.95-1.09,1.59-1.09c0.34,0,0.5,0.04,0.74,0.08v1.01
			c-0.2-0.08-0.43-0.11-0.62-0.11c-1.01,0-1.67,0.96-1.67,2.49v2.78h-1.13V145.14z"/>
		<path d="M186.07,145.58c0.56-0.34,1.24-0.58,2.01-0.58c1.75,0,2.46,0.86,2.46,2.53v2.53c0,0.7,0.02,1.02,0.05,1.2h-1.06v-0.79
			h-0.02c-0.26,0.37-0.86,0.94-1.9,0.94c-1.32,0-2.24-0.58-2.24-1.91c0-1.54,1.68-2.01,2.84-2.01c0.44,0,0.76,0,1.2,0.02
			c0-1.06-0.38-1.59-1.51-1.59c-0.64,0-1.32,0.24-1.78,0.62L186.07,145.58z M189.42,148.35c-0.24,0-0.48-0.02-0.72-0.02
			c-0.61,0-2.12,0.1-2.12,1.18c0,0.65,0.62,1,1.14,1c1.12,0,1.7-0.7,1.7-1.61V148.35z"/>
		<path d="M196.34,146.17c-0.43-0.18-0.86-0.26-1.22-0.26c-1.26,0-1.97,1.13-1.97,2.29c0,1.09,0.59,2.29,2.04,2.29
			c0.38,0,0.86-0.12,1.21-0.35l0.08,1.01c-0.47,0.22-1.01,0.25-1.42,0.25c-1.85,0-3.12-1.45-3.12-3.2c0-1.86,1.25-3.2,3.12-3.2
			c0.46,0,1.04,0.11,1.37,0.24L196.34,146.17z"/>
		<path d="M197.78,142.26h1.13v5.36l2.46-2.48h1.54l-2.84,2.71l3.2,3.41h-1.62l-2.73-3.14v3.14h-1.13V142.26z"/>
		<path d="M205.8,143.78h-1.27v-1.27h1.27V143.78z M204.6,145.14h1.13v6.12h-1.13V145.14z"/>
		<path d="M207.79,145.14h1.09v0.97h0.02c0.34-0.7,1.15-1.12,2-1.12c1.58,0,2.29,0.98,2.29,2.63v3.63h-1.13v-3.17
			c0-1.43-0.31-2.12-1.29-2.18c-1.28,0-1.86,1.03-1.86,2.52v2.83h-1.13V145.14z"/>
		<path d="M220.53,151c0,1.86-0.96,2.93-3.15,2.93c-0.65,0-1.21-0.08-2.2-0.42l0.12-1.04c0.86,0.4,1.38,0.55,2.21,0.55
			c1.19,0,1.89-0.8,1.89-2.1v-0.6h-0.02c-0.48,0.64-1.27,0.95-2.05,0.95c-1.75,0-2.62-1.43-2.62-3.01c0-1.57,0.89-3.25,2.73-3.25
			c1.08,0,1.68,0.4,2.02,1.06h0.02v-0.91h1.04V151z M219.4,148.27c0-1.27-0.59-2.36-1.79-2.36c-1.14,0-1.7,1.24-1.7,2.28
			c0,1.15,0.65,2.16,1.7,2.16C218.67,150.35,219.4,149.41,219.4,148.27z"/>
		<path d="M222.49,149.92h1.34l-1.02,2.94h-1.08L222.49,149.92z"/>
		<path d="M54.81,160.58c-0.43-0.18-0.86-0.26-1.22-0.26c-1.26,0-1.97,1.13-1.97,2.29c0,1.09,0.59,2.29,2.04,2.29
			c0.38,0,0.86-0.12,1.21-0.35l0.08,1.01c-0.47,0.22-1.01,0.25-1.42,0.25c-1.85,0-3.12-1.45-3.12-3.2c0-1.86,1.25-3.2,3.12-3.2
			c0.46,0,1.04,0.11,1.37,0.24L54.81,160.58z"/>
		<path d="M58.96,159.4c1.86,0,3.11,1.34,3.11,3.2c0,1.75-1.27,3.2-3.11,3.2c-1.85,0-3.12-1.45-3.12-3.2
			C55.85,160.74,57.09,159.4,58.96,159.4z M58.96,164.89c1.32,0,1.91-1.2,1.91-2.29c0-1.16-0.71-2.29-1.91-2.29
			c-1.21,0-1.92,1.13-1.92,2.29C57.04,163.69,57.63,164.89,58.96,164.89z"/>
		<path d="M63.59,159.54h1.09v0.97h0.02c0.34-0.7,1.15-1.12,2-1.12c1.58,0,2.29,0.98,2.29,2.63v3.63h-1.13v-3.17
			c0-1.43-0.31-2.12-1.3-2.18c-1.28,0-1.86,1.03-1.86,2.52v2.83h-1.13V159.54z"/>
		<path d="M74.17,160.46h-1.62v3.35c0,0.71,0.43,1.09,0.95,1.09c0.35,0,0.6-0.11,0.77-0.22v0.96c-0.25,0.07-0.6,0.17-0.96,0.17
			c-1.16,0-1.88-0.55-1.88-1.78v-3.57h-1.38v-0.91h1.38v-1.42l1.13-0.36v1.78h1.62V160.46z"/>
		<path d="M75.59,159.54h1.06v0.95h0.02c0.3-0.64,0.95-1.09,1.59-1.09c0.34,0,0.5,0.04,0.74,0.08v1.01
			c-0.2-0.08-0.43-0.11-0.62-0.11c-1.01,0-1.67,0.96-1.67,2.49v2.78h-1.13V159.54z"/>
		<path d="M80.54,159.98c0.56-0.34,1.24-0.58,2.02-0.58c1.75,0,2.46,0.86,2.46,2.53v2.53c0,0.7,0.02,1.02,0.05,1.2h-1.06v-0.79
			h-0.02c-0.26,0.37-0.86,0.94-1.9,0.94c-1.32,0-2.24-0.58-2.24-1.91c0-1.54,1.68-2.01,2.84-2.01c0.44,0,0.76,0,1.2,0.02
			c0-1.06-0.38-1.59-1.51-1.59c-0.64,0-1.32,0.24-1.78,0.62L80.54,159.98z M83.89,162.75c-0.24,0-0.48-0.02-0.72-0.02
			c-0.61,0-2.12,0.1-2.12,1.18c0,0.65,0.62,1,1.14,1c1.12,0,1.7-0.7,1.7-1.61V162.75z"/>
		<path d="M90.81,160.58c-0.43-0.18-0.86-0.26-1.22-0.26c-1.26,0-1.97,1.13-1.97,2.29c0,1.09,0.59,2.29,2.04,2.29
			c0.38,0,0.86-0.12,1.21-0.35l0.08,1.01c-0.47,0.22-1.01,0.25-1.42,0.25c-1.85,0-3.12-1.45-3.12-3.2c0-1.86,1.25-3.2,3.12-3.2
			c0.46,0,1.04,0.11,1.37,0.24L90.81,160.58z"/>
		<path d="M95.5,160.46h-1.62v3.35c0,0.71,0.43,1.09,0.95,1.09c0.35,0,0.6-0.11,0.77-0.22v0.96c-0.25,0.07-0.6,0.17-0.96,0.17
			c-1.16,0-1.88-0.55-1.88-1.78v-3.57h-1.38v-0.91h1.38v-1.42l1.13-0.36v1.78h1.62V160.46z"/>
		<path d="M96.47,164.46c0.44,0.29,1.08,0.43,1.4,0.43c0.52,0,1.15-0.22,1.15-0.88c0-1.12-2.65-1.02-2.65-2.73
			c0-1.27,0.95-1.88,2.16-1.88c0.53,0,0.96,0.11,1.4,0.24l-0.1,0.98c-0.25-0.16-0.92-0.31-1.19-0.31c-0.58,0-1.08,0.24-1.08,0.74
			c0,1.25,2.65,0.89,2.65,2.84c0,1.31-1.04,1.91-2.13,1.91c-0.58,0-1.16-0.06-1.68-0.34L96.47,164.46z"/>
		<path d="M101.62,164.32h1.34l-1.02,2.94h-1.08L101.62,164.32z"/>
		<path d="M108.55,159.98c0.56-0.34,1.23-0.58,2.01-0.58c1.75,0,2.46,0.86,2.46,2.53v2.53c0,0.7,0.02,1.02,0.05,1.2h-1.06v-0.79
			h-0.02c-0.26,0.37-0.86,0.94-1.9,0.94c-1.32,0-2.24-0.58-2.24-1.91c0-1.54,1.68-2.01,2.84-2.01c0.44,0,0.76,0,1.2,0.02
			c0-1.06-0.38-1.59-1.51-1.59c-0.64,0-1.32,0.24-1.78,0.62L108.55,159.98z M111.89,162.75c-0.24,0-0.48-0.02-0.72-0.02
			c-0.61,0-2.12,0.1-2.12,1.18c0,0.65,0.62,1,1.14,1c1.12,0,1.7-0.7,1.7-1.61V162.75z"/>
		<path d="M114.93,159.54h1.09v0.97h0.02c0.34-0.7,1.15-1.12,2-1.12c1.58,0,2.29,0.98,2.29,2.63v3.63h-1.13v-3.17
			c0-1.43-0.31-2.12-1.3-2.18c-1.28,0-1.86,1.03-1.86,2.52v2.83h-1.13V159.54z"/>
		<path d="M126.59,164.8h-0.02c-0.3,0.46-1,1.01-2.09,1.01c-1.85,0-2.63-1.64-2.63-3.31c0-1.64,0.86-3.09,2.64-3.09
			c1.07,0,1.68,0.42,2.03,0.98h0.02v-3.72h1.13v9h-1.08V164.8z M124.75,164.89c1.27,0,1.8-1.26,1.8-2.28c0-1.14-0.59-2.3-1.81-2.3
			c-1.22,0-1.7,1.15-1.68,2.27C123.03,163.54,123.54,164.89,124.75,164.89z"/>
		<path d="M132.93,159.54h1.08v0.86h0.02c0.3-0.46,1-1.01,2.07-1.01c1.78,0,2.64,1.45,2.64,3.09c0,1.68-0.78,3.31-2.63,3.31
			c-1.08,0-1.69-0.42-2.04-0.98h-0.02v3.36h-1.13V159.54z M135.87,160.31c-1.22,0-1.81,1.16-1.81,2.3c0,1.02,0.53,2.28,1.8,2.28
			c1.21,0,1.72-1.36,1.69-2.31C137.57,161.47,137.09,160.31,135.87,160.31z"/>
		<path d="M144.95,165.41c-0.43,0.16-0.92,0.4-1.93,0.4c-2.17,0-3.17-1.32-3.17-3.31c0-1.81,1.14-3.09,2.87-3.09
			c2.04,0,2.7,1.49,2.7,3.45h-4.37c0,1.21,0.95,2.04,2.02,2.04c0.74,0,1.61-0.38,1.88-0.61V165.41z M144.22,162.01
			c0-0.94-0.55-1.7-1.52-1.7c-1.1,0-1.56,0.91-1.64,1.7H144.22z"/>
		<path d="M146.94,159.54h1.06v0.95h0.02c0.3-0.64,0.95-1.09,1.59-1.09c0.34,0,0.5,0.04,0.74,0.08v1.01
			c-0.2-0.08-0.43-0.11-0.62-0.11c-1.01,0-1.67,0.96-1.67,2.49v2.78h-1.13V159.54z"/>
		<path d="M151.59,159.54h1.06v0.89h0.02c0.43-0.71,1.04-1.03,1.94-1.03c0.71,0,1.42,0.36,1.74,1.19c0.42-0.88,1.34-1.19,1.9-1.19
			c1.56,0,2.12,1.01,2.12,2.34v3.92h-1.13v-3.65c0-0.76-0.18-1.7-1.09-1.7c-1.15,0-1.61,1.13-1.61,2.27v3.08h-1.13v-3.65
			c0-0.76-0.18-1.7-1.09-1.7c-1.15,0-1.61,1.13-1.61,2.27v3.08h-1.13V159.54z"/>
		<path d="M163.62,158.18h-1.27v-1.27h1.27V158.18z M162.42,159.54h1.13v6.12h-1.13V159.54z"/>
		<path d="M165.15,164.46c0.44,0.29,1.08,0.43,1.4,0.43c0.52,0,1.15-0.22,1.15-0.88c0-1.12-2.65-1.02-2.65-2.73
			c0-1.27,0.95-1.88,2.16-1.88c0.53,0,0.96,0.11,1.4,0.24l-0.1,0.98c-0.25-0.16-0.92-0.31-1.19-0.31c-0.58,0-1.08,0.24-1.08,0.74
			c0,1.25,2.65,0.89,2.65,2.84c0,1.31-1.04,1.91-2.13,1.91c-0.58,0-1.16-0.06-1.68-0.34L165.15,164.46z"/>
		<path d="M169.82,164.46c0.44,0.29,1.08,0.43,1.4,0.43c0.52,0,1.15-0.22,1.15-0.88c0-1.12-2.65-1.02-2.65-2.73
			c0-1.27,0.95-1.88,2.16-1.88c0.53,0,0.96,0.11,1.4,0.24l-0.1,0.98c-0.25-0.16-0.92-0.31-1.19-0.31c-0.58,0-1.08,0.24-1.08,0.74
			c0,1.25,2.65,0.89,2.65,2.84c0,1.31-1.04,1.91-2.13,1.91c-0.58,0-1.16-0.06-1.68-0.34L169.82,164.46z"/>
		<path d="M176.29,158.18h-1.27v-1.27h1.27V158.18z M175.09,159.54h1.13v6.12h-1.13V159.54z"/>
		<path d="M180.99,159.4c1.86,0,3.11,1.34,3.11,3.2c0,1.75-1.27,3.2-3.11,3.2c-1.85,0-3.12-1.45-3.12-3.2
			C177.87,160.74,179.12,159.4,180.99,159.4z M180.99,164.89c1.32,0,1.91-1.2,1.91-2.29c0-1.16-0.71-2.29-1.91-2.29
			c-1.21,0-1.92,1.13-1.92,2.29C179.07,163.69,179.66,164.89,180.99,164.89z"/>
		<path d="M185.61,159.54h1.09v0.97h0.02c0.34-0.7,1.15-1.12,2-1.12c1.58,0,2.29,0.98,2.29,2.63v3.63h-1.13v-3.17
			c0-1.43-0.31-2.12-1.29-2.18c-1.28,0-1.86,1.03-1.86,2.52v2.83h-1.13V159.54z"/>
		<path d="M192.49,164.46c0.44,0.29,1.08,0.43,1.4,0.43c0.52,0,1.15-0.22,1.15-0.88c0-1.12-2.65-1.02-2.65-2.73
			c0-1.27,0.95-1.88,2.16-1.88c0.53,0,0.96,0.11,1.4,0.24l-0.1,0.98c-0.25-0.16-0.92-0.31-1.19-0.31c-0.58,0-1.08,0.24-1.08,0.74
			c0,1.25,2.65,0.89,2.65,2.84c0,1.31-1.04,1.91-2.13,1.91c-0.58,0-1.16-0.06-1.68-0.34L192.49,164.46z"/>
		<path d="M197.65,164.32h1.34v1.34h-1.34V164.32z"/>
	</g>
</g>
</svg>
