<?xml version="1.0" encoding="utf-8"?>
<!-- Generator: Adobe Illustrator 23.0.3, SVG Export Plug-In . SVG Version: 6.00 Build 0)  -->
<svg version="1.1" id="Layer_1" xmlns="http://www.w3.org/2000/svg" xmlns:xlink="http://www.w3.org/1999/xlink" x="0px" y="0px"
	 viewBox="0 0 250 250" style="enable-background:new 0 0 250 250;" xml:space="preserve">
<style type="text/css">
	.st0{fill:#9AD7D9;}
	.st1{fill:none;stroke:#FFFFFF;stroke-width:10;stroke-miterlimit:10;}
</style>
<circle class="st0" cx="125" cy="125" r="125"/>
<g>
	<path class="st1" d="M107.39,125H50.72c-6.6,0-12-5.4-12-12V56.33c0-6.6,5.4-12,12-12h56.67c6.6,0,12,5.4,12,12V113
		C119.39,119.6,113.99,125,107.39,125z"/>
	<path class="st1" d="M199.28,205.67h-56.67c-6.6,0-12-5.4-12-12V137c0-6.6,5.4-12,12-12h56.67c6.6,0,12,5.4,12,12v56.67
		C211.28,200.27,205.88,205.67,199.28,205.67z"/>
	<polyline class="st1" points="58.02,79.73 74.05,98.56 100.09,64.1 	"/>
	<g>
		<line class="st1" x1="151.07" y1="145.46" x2="190.82" y2="185.21"/>
		<line class="st1" x1="190.82" y1="145.46" x2="151.07" y2="185.21"/>
	</g>
</g>
<g>
	<g>
		<path d="M85.2,81.99h3.19c2.74,0,5.24,0.79,5.24,3.8c0,2.93-2.14,4-4.84,4h-1.06v4.77H85.2V81.99z M87.72,87.81h0.88
			c1.26,0,2.39-0.41,2.39-1.87s-1.1-1.96-2.39-1.96h-0.88V87.81z"/>
		<path d="M95.21,81.99h2.72c2.7,0,5.92-0.09,5.92,3.4c0,1.48-0.99,2.7-2.59,2.92v0.04c0.68,0.05,1.08,0.74,1.33,1.3l2.02,4.92
			h-2.81l-1.51-3.93c-0.36-0.94-0.68-1.3-1.75-1.3h-0.81v5.22h-2.52V81.99z M97.73,87.36h0.83c1.24,0,2.67-0.18,2.67-1.75
			c0-1.51-1.4-1.64-2.67-1.64h-0.83V87.36z"/>
		<path d="M106.42,81.99h7.42v1.98h-4.9v3.1h4.48v1.98h-4.48v3.53h4.93v1.98h-7.45V81.99z"/>
		<path d="M116.21,81.99h3.19c2.74,0,5.24,0.79,5.24,3.8c0,2.93-2.14,4-4.84,4h-1.06v4.77h-2.52V81.99z M118.73,87.81h0.88
			c1.26,0,2.39-0.41,2.39-1.87s-1.1-1.96-2.39-1.96h-0.88V87.81z"/>
		<path d="M126.22,81.99h2.72c2.7,0,5.92-0.09,5.92,3.4c0,1.48-0.99,2.7-2.59,2.92v0.04c0.68,0.05,1.08,0.74,1.33,1.3l2.02,4.92
			h-2.81l-1.51-3.93c-0.36-0.94-0.68-1.3-1.75-1.3h-0.81v5.22h-2.52V81.99z M128.74,87.36h0.83c1.24,0,2.67-0.18,2.67-1.75
			c0-1.51-1.4-1.64-2.67-1.64h-0.83V87.36z"/>
		<path d="M137.43,81.99h7.42v1.98h-4.9v3.1h4.48v1.98h-4.48v3.53h4.93v1.98h-7.45V81.99z"/>
		<path d="M154.19,84.3c-0.79-0.34-1.67-0.54-2.56-0.54c-0.86,0-1.98,0.38-1.98,1.75c0,2.18,5.51,1.26,5.51,5.47
			c0,2.75-2.18,3.8-4.72,3.8c-1.37,0-1.98-0.18-3.22-0.49l0.23-2.27c0.86,0.47,1.85,0.77,2.84,0.77c0.95,0,2.23-0.49,2.23-1.62
			c0-2.4-5.51-1.4-5.51-5.56c0-2.81,2.18-3.83,4.39-3.83c1.08,0,2.09,0.14,3.01,0.45L154.19,84.3z"/>
		<path d="M164.2,84.3c-0.79-0.34-1.67-0.54-2.56-0.54c-0.86,0-1.98,0.38-1.98,1.75c0,2.18,5.51,1.26,5.51,5.47
			c0,2.75-2.18,3.8-4.72,3.8c-1.37,0-1.98-0.18-3.22-0.49l0.23-2.27c0.86,0.47,1.85,0.77,2.84,0.77c0.95,0,2.23-0.49,2.23-1.62
			c0-2.4-5.51-1.4-5.51-5.56c0-2.81,2.18-3.83,4.39-3.83c1.08,0,2.09,0.14,3.01,0.45L164.2,84.3z"/>
	</g>
	<g>
		<path d="M17.82,114.09h1.32l2,7.17h0.02l1.79-7.17h1.7l1.81,7.17h0.02l2-7.17h1.27l-2.58,8.37h-1.55l-1.82-7.32H23.8l-1.83,7.32
			h-1.61L17.82,114.09z"/>
		<path d="M35.09,122.21c-0.43,0.16-0.92,0.4-1.93,0.4c-2.17,0-3.17-1.32-3.17-3.31c0-1.81,1.14-3.09,2.87-3.09
			c2.04,0,2.7,1.49,2.7,3.45h-4.37c0,1.21,0.95,2.04,2.02,2.04c0.74,0,1.61-0.38,1.88-0.61V122.21z M34.36,118.81
			c0-0.94-0.55-1.7-1.52-1.7c-1.1,0-1.56,0.91-1.64,1.7H34.36z"/>
		<path d="M40.41,113.47h1.13v3.75h0.02c0.41-0.65,1.12-1.02,1.97-1.02c1.58,0,2.29,0.98,2.29,2.63v3.63h-1.13v-3.17
			c0-1.43-0.31-2.12-1.3-2.18c-1.28,0-1.86,1.03-1.86,2.52v2.83h-1.13V113.47z"/>
		<path d="M48.03,116.78c0.56-0.34,1.23-0.58,2.01-0.58c1.75,0,2.46,0.86,2.46,2.53v2.53c0,0.7,0.02,1.02,0.05,1.2H51.5v-0.79h-0.02
			c-0.26,0.37-0.86,0.94-1.9,0.94c-1.32,0-2.24-0.58-2.24-1.91c0-1.54,1.68-2.01,2.84-2.01c0.44,0,0.76,0,1.2,0.02
			c0-1.06-0.38-1.6-1.51-1.6c-0.64,0-1.32,0.24-1.78,0.62L48.03,116.78z M51.38,119.55c-0.24,0-0.48-0.02-0.72-0.02
			c-0.61,0-2.12,0.1-2.12,1.18c0,0.65,0.62,1,1.14,1c1.12,0,1.7-0.7,1.7-1.61V119.55z"/>
		<path d="M57.12,122.46h-1.34l-2.19-6.12h1.24l1.66,4.99h0.02l1.69-4.99h1.13L57.12,122.46z"/>
		<path d="M65.1,122.21c-0.43,0.16-0.92,0.4-1.93,0.4c-2.17,0-3.17-1.32-3.17-3.31c0-1.81,1.14-3.09,2.87-3.09
			c2.04,0,2.7,1.49,2.7,3.45H61.2c0,1.21,0.95,2.04,2.02,2.04c0.74,0,1.61-0.38,1.88-0.61V122.21z M64.37,118.81
			c0-0.94-0.55-1.7-1.52-1.7c-1.1,0-1.56,0.91-1.64,1.7H64.37z"/>
		<path d="M71.76,114.98h-1.27v-1.27h1.27V114.98z M70.56,116.34h1.13v6.12h-1.13V116.34z"/>
		<path d="M73.76,116.34h1.09v0.97h0.02c0.34-0.7,1.15-1.12,2-1.12c1.58,0,2.29,0.98,2.29,2.63v3.63h-1.13v-3.17
			c0-1.43-0.31-2.12-1.3-2.18c-1.28,0-1.86,1.03-1.86,2.52v2.83h-1.13V116.34z"/>
		<path d="M85.42,121.6h-0.02c-0.3,0.46-1,1.01-2.09,1.01c-1.85,0-2.63-1.64-2.63-3.31c0-1.64,0.86-3.09,2.64-3.09
			c1.07,0,1.68,0.42,2.03,0.98h0.02v-3.72h1.13v9h-1.08V121.6z M83.57,121.69c1.27,0,1.8-1.26,1.8-2.28c0-1.14-0.59-2.3-1.81-2.3
			c-1.22,0-1.7,1.15-1.68,2.27C81.86,120.34,82.36,121.69,83.57,121.69z"/>
		<path d="M93.83,122.46h-1.09v-0.97h-0.02c-0.34,0.7-1.15,1.12-2,1.12c-1.58,0-2.29-0.98-2.29-2.63v-3.63h1.13v3.17
			c0,1.43,0.31,2.12,1.3,2.18c1.28,0,1.86-1.03,1.86-2.52v-2.83h1.13V122.46z"/>
		<path d="M95.3,121.26c0.44,0.29,1.08,0.43,1.4,0.43c0.52,0,1.15-0.22,1.15-0.88c0-1.12-2.65-1.02-2.65-2.73
			c0-1.27,0.95-1.88,2.16-1.88c0.53,0,0.96,0.11,1.4,0.24l-0.1,0.98c-0.25-0.16-0.92-0.31-1.19-0.31c-0.58,0-1.08,0.24-1.08,0.74
			c0,1.25,2.65,0.89,2.65,2.84c0,1.31-1.04,1.91-2.13,1.91c-0.58,0-1.16-0.06-1.68-0.34L95.3,121.26z"/>
		<path d="M103.67,117.26h-1.62v3.35c0,0.71,0.43,1.09,0.95,1.09c0.35,0,0.6-0.11,0.77-0.22v0.96c-0.25,0.07-0.6,0.17-0.96,0.17
			c-1.16,0-1.88-0.55-1.88-1.78v-3.57h-1.38v-0.91h1.38v-1.42l1.13-0.36v1.77h1.62V117.26z"/>
		<path d="M105.09,116.34h1.06v0.95h0.02c0.3-0.64,0.95-1.09,1.59-1.09c0.34,0,0.5,0.04,0.74,0.08v1.01
			c-0.2-0.08-0.43-0.11-0.62-0.11c-1.01,0-1.67,0.96-1.67,2.49v2.78h-1.13V116.34z"/>
		<path d="M109.3,124.12c0.14,0.05,0.34,0.1,0.53,0.1c1.01,0,1.34-1.39,1.34-1.51c0-0.13-0.14-0.44-0.22-0.65l-2.07-5.71h1.24
			l1.64,5.06h0.02l1.68-5.06h1.14l-2.25,6.25c-0.42,1.18-0.86,2.53-2.35,2.53c-0.36,0-0.56-0.05-0.77-0.08L109.3,124.12z"/>
		<path d="M115.25,118.78h3.08v0.91h-3.08V118.78z"/>
		<path d="M119.9,113.47h1.13v9h-1.13V113.47z"/>
		<path d="M127.78,122.21c-0.43,0.16-0.92,0.4-1.93,0.4c-2.17,0-3.17-1.32-3.17-3.31c0-1.81,1.14-3.09,2.87-3.09
			c2.04,0,2.7,1.49,2.7,3.45h-4.37c0,1.21,0.95,2.04,2.02,2.04c0.74,0,1.61-0.38,1.88-0.61V122.21z M127.05,118.81
			c0-0.94-0.55-1.7-1.52-1.7c-1.1,0-1.56,0.91-1.64,1.7H127.05z"/>
		<path d="M130.05,116.78c0.56-0.34,1.23-0.58,2.01-0.58c1.75,0,2.46,0.86,2.46,2.53v2.53c0,0.7,0.02,1.02,0.05,1.2h-1.06v-0.79
			h-0.02c-0.26,0.37-0.86,0.94-1.89,0.94c-1.32,0-2.24-0.58-2.24-1.91c0-1.54,1.68-2.01,2.84-2.01c0.44,0,0.76,0,1.2,0.02
			c0-1.06-0.38-1.6-1.51-1.6c-0.64,0-1.32,0.24-1.78,0.62L130.05,116.78z M133.39,119.55c-0.24,0-0.48-0.02-0.72-0.02
			c-0.61,0-2.12,0.1-2.12,1.18c0,0.65,0.62,1,1.14,1c1.12,0,1.7-0.7,1.7-1.61V119.55z"/>
		<path d="M140.76,121.6h-0.02c-0.3,0.46-1,1.01-2.09,1.01c-1.85,0-2.63-1.64-2.63-3.31c0-1.64,0.86-3.09,2.64-3.09
			c1.07,0,1.68,0.42,2.03,0.98h0.02v-3.72h1.13v9h-1.08V121.6z M138.92,121.69c1.27,0,1.8-1.26,1.8-2.28c0-1.14-0.59-2.3-1.81-2.3
			c-1.22,0-1.7,1.15-1.68,2.27C137.2,120.34,137.7,121.69,138.92,121.69z"/>
		<path d="M145.11,114.98h-1.27v-1.27h1.27V114.98z M143.91,116.34h1.13v6.12h-1.13V116.34z"/>
		<path d="M147.1,116.34h1.09v0.97h0.02c0.34-0.7,1.15-1.12,2-1.12c1.58,0,2.29,0.98,2.29,2.63v3.63h-1.13v-3.17
			c0-1.43-0.31-2.12-1.29-2.18c-1.28,0-1.86,1.03-1.86,2.52v2.83h-1.13V116.34z"/>
		<path d="M159.84,122.2c0,1.86-0.96,2.93-3.15,2.93c-0.65,0-1.21-0.08-2.2-0.42l0.12-1.04c0.86,0.4,1.38,0.55,2.21,0.55
			c1.19,0,1.89-0.8,1.89-2.1v-0.6h-0.02c-0.48,0.64-1.27,0.95-2.05,0.95c-1.75,0-2.62-1.43-2.62-3.01c0-1.57,0.89-3.25,2.73-3.25
			c1.08,0,1.68,0.4,2.02,1.06h0.02v-0.91h1.04V122.2z M158.71,119.47c0-1.27-0.59-2.36-1.79-2.36c-1.14,0-1.7,1.24-1.7,2.28
			c0,1.15,0.65,2.16,1.7,2.16C157.98,121.55,158.71,120.61,158.71,119.47z"/>
		<path d="M164.64,121.26c0.44,0.29,1.08,0.43,1.4,0.43c0.52,0,1.15-0.22,1.15-0.88c0-1.12-2.65-1.02-2.65-2.73
			c0-1.27,0.95-1.88,2.16-1.88c0.53,0,0.96,0.11,1.4,0.24l-0.1,0.98c-0.25-0.16-0.92-0.31-1.19-0.31c-0.58,0-1.08,0.24-1.08,0.74
			c0,1.25,2.65,0.89,2.65,2.84c0,1.31-1.04,1.91-2.13,1.91c-0.58,0-1.16-0.06-1.68-0.34L164.64,121.26z"/>
		<path d="M173.02,117.26h-1.62v3.35c0,0.71,0.43,1.09,0.95,1.09c0.35,0,0.6-0.11,0.77-0.22v0.96c-0.25,0.07-0.6,0.17-0.96,0.17
			c-1.16,0-1.88-0.55-1.88-1.78v-3.57h-1.38v-0.91h1.38v-1.42l1.13-0.36v1.77h1.62V117.26z"/>
		<path d="M174.72,116.78c0.56-0.34,1.23-0.58,2.01-0.58c1.75,0,2.46,0.86,2.46,2.53v2.53c0,0.7,0.02,1.02,0.05,1.2h-1.06v-0.79
			h-0.02c-0.26,0.37-0.86,0.94-1.89,0.94c-1.32,0-2.24-0.58-2.24-1.91c0-1.54,1.68-2.01,2.84-2.01c0.44,0,0.76,0,1.2,0.02
			c0-1.06-0.38-1.6-1.51-1.6c-0.64,0-1.32,0.24-1.78,0.62L174.72,116.78z M178.07,119.55c-0.24,0-0.48-0.02-0.72-0.02
			c-0.61,0-2.12,0.1-2.12,1.18c0,0.65,0.62,1,1.14,1c1.12,0,1.7-0.7,1.7-1.61V119.55z"/>
		<path d="M181.11,116.34h1.09v0.97h0.02c0.34-0.7,1.15-1.12,2-1.12c1.58,0,2.29,0.98,2.29,2.63v3.63h-1.13v-3.17
			c0-1.43-0.31-2.12-1.29-2.18c-1.28,0-1.86,1.03-1.86,2.52v2.83h-1.13V116.34z"/>
		<path d="M192.77,121.6h-0.02c-0.3,0.46-1,1.01-2.09,1.01c-1.85,0-2.63-1.64-2.63-3.31c0-1.64,0.86-3.09,2.64-3.09
			c1.07,0,1.68,0.42,2.03,0.98h0.02v-3.72h1.13v9h-1.08V121.6z M190.92,121.69c1.27,0,1.8-1.26,1.8-2.28c0-1.14-0.59-2.3-1.81-2.3
			c-1.22,0-1.7,1.15-1.68,2.27C189.21,120.34,189.71,121.69,190.92,121.69z"/>
		<path d="M196.06,116.78c0.56-0.34,1.23-0.58,2.01-0.58c1.75,0,2.46,0.86,2.46,2.53v2.53c0,0.7,0.02,1.02,0.05,1.2h-1.06v-0.79
			h-0.02c-0.26,0.37-0.86,0.94-1.89,0.94c-1.32,0-2.24-0.58-2.24-1.91c0-1.54,1.68-2.01,2.84-2.01c0.44,0,0.76,0,1.2,0.02
			c0-1.06-0.38-1.6-1.51-1.6c-0.64,0-1.32,0.24-1.78,0.62L196.06,116.78z M199.41,119.55c-0.24,0-0.48-0.02-0.72-0.02
			c-0.61,0-2.12,0.1-2.12,1.18c0,0.65,0.62,1,1.14,1c1.12,0,1.7-0.7,1.7-1.61V119.55z"/>
		<path d="M202.44,116.34h1.06v0.95h0.02c0.3-0.64,0.95-1.09,1.59-1.09c0.34,0,0.5,0.04,0.74,0.08v1.01
			c-0.2-0.08-0.43-0.11-0.62-0.11c-1.01,0-1.67,0.96-1.67,2.49v2.78h-1.13V116.34z"/>
		<path d="M211.44,121.6h-0.02c-0.3,0.46-1,1.01-2.09,1.01c-1.85,0-2.63-1.64-2.63-3.31c0-1.64,0.86-3.09,2.64-3.09
			c1.07,0,1.68,0.42,2.03,0.98h0.02v-3.72h1.13v9h-1.08V121.6z M209.59,121.69c1.27,0,1.8-1.26,1.8-2.28c0-1.14-0.59-2.3-1.81-2.3
			c-1.22,0-1.7,1.15-1.68,2.27C207.88,120.34,208.38,121.69,209.59,121.69z"/>
		<path d="M213.99,121.26c0.44,0.29,1.08,0.43,1.4,0.43c0.52,0,1.15-0.22,1.15-0.88c0-1.12-2.65-1.02-2.65-2.73
			c0-1.27,0.95-1.88,2.16-1.88c0.53,0,0.96,0.11,1.4,0.24l-0.1,0.98c-0.25-0.16-0.92-0.31-1.19-0.31c-0.58,0-1.08,0.24-1.08,0.74
			c0,1.25,2.65,0.89,2.65,2.84c0,1.31-1.04,1.91-2.13,1.91c-0.58,0-1.16-0.06-1.68-0.34L213.99,121.26z"/>
		<path d="M223.79,114.98h-1.27v-1.27h1.27V114.98z M222.59,116.34h1.13v6.12h-1.13V116.34z"/>
		<path d="M225.78,116.34h1.09v0.97h0.02c0.34-0.7,1.15-1.12,2-1.12c1.58,0,2.29,0.98,2.29,2.63v3.63h-1.13v-3.17
			c0-1.43-0.31-2.12-1.29-2.18c-1.28,0-1.86,1.03-1.86,2.52v2.83h-1.13V116.34z"/>
		<path d="M24.76,130.74h1.08v0.86h0.02c0.3-0.46,1-1.01,2.07-1.01c1.77,0,2.64,1.45,2.64,3.09c0,1.68-0.78,3.31-2.63,3.31
			c-1.08,0-1.69-0.42-2.04-0.98h-0.02v3.36h-1.13V130.74z M27.7,131.51c-1.22,0-1.81,1.16-1.81,2.3c0,1.02,0.53,2.28,1.8,2.28
			c1.21,0,1.72-1.36,1.69-2.32C29.41,132.67,28.93,131.51,27.7,131.51z"/>
		<path d="M32.1,130.74h1.06v0.95h0.02c0.3-0.64,0.95-1.09,1.59-1.09c0.34,0,0.5,0.04,0.74,0.08v1.01c-0.2-0.08-0.43-0.11-0.62-0.11
			c-1.01,0-1.67,0.96-1.67,2.5v2.78H32.1V130.74z"/>
		<path d="M41.45,136.61c-0.43,0.16-0.92,0.4-1.93,0.4c-2.17,0-3.17-1.32-3.17-3.31c0-1.81,1.14-3.09,2.87-3.09
			c2.04,0,2.7,1.49,2.7,3.45h-4.37c0,1.21,0.95,2.04,2.02,2.04c0.74,0,1.61-0.38,1.88-0.61V136.61z M40.72,133.21
			c0-0.94-0.55-1.7-1.52-1.7c-1.1,0-1.56,0.91-1.64,1.7H40.72z"/>
		<path d="M44.17,131.66h-1.44v-0.91h1.44v-0.56c0-1.49,0.38-2.46,2.05-2.46c0.29,0,0.53,0.04,0.76,0.07l-0.05,0.91
			c-0.13-0.05-0.35-0.07-0.54-0.07c-0.97,0-1.09,0.62-1.09,1.45v0.66h1.62v0.91H45.3v5.21h-1.13V131.66z"/>
		<path d="M48.25,127.87h1.13v9h-1.13V127.87z"/>
		<path d="M52.78,129.38h-1.27v-1.27h1.27V129.38z M51.58,130.74h1.13v6.12h-1.13V130.74z"/>
		<path d="M60.19,136.6c0,1.86-0.96,2.93-3.15,2.93c-0.65,0-1.21-0.08-2.19-0.42l0.12-1.04c0.86,0.4,1.38,0.55,2.21,0.55
			c1.19,0,1.9-0.8,1.9-2.1v-0.6h-0.02c-0.48,0.63-1.27,0.95-2.05,0.95c-1.75,0-2.61-1.43-2.61-3.01c0-1.57,0.89-3.25,2.73-3.25
			c1.08,0,1.68,0.4,2.02,1.06h0.02v-0.91h1.04V136.6z M59.06,133.87c0-1.27-0.59-2.36-1.79-2.36c-1.14,0-1.7,1.24-1.7,2.28
			c0,1.15,0.65,2.16,1.7,2.16S59.06,135.01,59.06,133.87z"/>
		<path d="M62.11,127.87h1.13v3.75h0.02c0.41-0.65,1.12-1.02,1.97-1.02c1.58,0,2.29,0.98,2.29,2.63v3.63h-1.13v-3.17
			c0-1.43-0.31-2.12-1.3-2.18c-1.28,0-1.86,1.03-1.86,2.52v2.83h-1.13V127.87z"/>
		<path d="M72.69,131.66h-1.62V135c0,0.71,0.43,1.09,0.95,1.09c0.35,0,0.6-0.11,0.77-0.22v0.96c-0.25,0.07-0.6,0.17-0.96,0.17
			c-1.16,0-1.88-0.55-1.88-1.77v-3.57h-1.38v-0.91h1.38v-1.42l1.13-0.36v1.77h1.62V131.66z"/>
		<path d="M75.45,129.38h-1.27v-1.27h1.27V129.38z M74.25,130.74h1.13v6.12h-1.13V130.74z"/>
		<path d="M77.44,130.74h1.09v0.97h0.02c0.34-0.7,1.15-1.12,2-1.12c1.58,0,2.29,0.98,2.29,2.63v3.63h-1.13v-3.17
			c0-1.43-0.31-2.12-1.3-2.18c-1.28,0-1.86,1.03-1.86,2.52v2.83h-1.13V130.74z"/>
		<path d="M90.19,136.6c0,1.86-0.96,2.93-3.15,2.93c-0.65,0-1.21-0.08-2.19-0.42l0.12-1.04c0.86,0.4,1.38,0.55,2.21,0.55
			c1.19,0,1.9-0.8,1.9-2.1v-0.6h-0.02c-0.48,0.63-1.27,0.95-2.05,0.95c-1.75,0-2.61-1.43-2.61-3.01c0-1.57,0.89-3.25,2.73-3.25
			c1.08,0,1.68,0.4,2.02,1.06h0.02v-0.91h1.04V136.6z M89.06,133.87c0-1.27-0.59-2.36-1.79-2.36c-1.14,0-1.7,1.24-1.7,2.28
			c0,1.15,0.65,2.16,1.7,2.16S89.06,135.01,89.06,133.87z"/>
		<path d="M95.73,131.17c0.56-0.33,1.23-0.58,2.01-0.58c1.75,0,2.46,0.86,2.46,2.53v2.53c0,0.7,0.02,1.02,0.05,1.2H99.2v-0.79h-0.02
			c-0.26,0.37-0.86,0.94-1.9,0.94c-1.32,0-2.24-0.58-2.24-1.91c0-1.54,1.68-2.01,2.84-2.01c0.44,0,0.76,0,1.2,0.02
			c0-1.06-0.38-1.6-1.51-1.6c-0.64,0-1.32,0.24-1.78,0.62L95.73,131.17z M99.08,133.95c-0.24,0-0.48-0.02-0.72-0.02
			c-0.61,0-2.12,0.1-2.12,1.17c0,0.65,0.62,1,1.14,1c1.12,0,1.7-0.7,1.7-1.61V133.95z"/>
		<path d="M102.12,130.74h1.09v0.97h0.02c0.34-0.7,1.15-1.12,2-1.12c1.58,0,2.29,0.98,2.29,2.63v3.63h-1.13v-3.17
			c0-1.43-0.31-2.12-1.3-2.18c-1.28,0-1.86,1.03-1.86,2.52v2.83h-1.13V130.74z"/>
		<path d="M113.78,136h-0.02c-0.3,0.46-1,1.01-2.09,1.01c-1.85,0-2.63-1.64-2.63-3.31c0-1.64,0.86-3.09,2.64-3.09
			c1.07,0,1.68,0.42,2.03,0.98h0.02v-3.72h1.13v9h-1.08V136z M111.93,136.09c1.27,0,1.8-1.26,1.8-2.28c0-1.14-0.59-2.3-1.81-2.3
			c-1.22,0-1.7,1.15-1.68,2.27C110.22,134.74,110.72,136.09,111.93,136.09z"/>
		<path d="M125.53,139.38h-1.13v-3.32h-0.02c-0.35,0.58-1.14,0.95-2.04,0.95c-1.85,0-2.63-1.64-2.63-3.31
			c0-1.64,0.86-3.09,2.64-3.09c1.08,0,1.77,0.55,2.07,1.02h0.02v-0.88h1.08V139.38z M122.6,136.09c1.27,0,1.8-1.26,1.8-2.28
			c0-1.14-0.59-2.3-1.81-2.3c-1.22,0-1.7,1.15-1.68,2.27C120.88,134.74,121.39,136.09,122.6,136.09z"/>
		<path d="M132.86,136.86h-1.09v-0.97h-0.02c-0.33,0.7-1.15,1.12-2,1.12c-1.58,0-2.29-0.98-2.29-2.63v-3.63h1.13v3.17
			c0,1.43,0.31,2.12,1.3,2.18c1.28,0,1.86-1.03,1.86-2.52v-2.83h1.13V136.86z"/>
		<path d="M135.07,131.17c0.56-0.33,1.23-0.58,2.01-0.58c1.75,0,2.46,0.86,2.46,2.53v2.53c0,0.7,0.02,1.02,0.05,1.2h-1.06v-0.79
			h-0.02c-0.26,0.37-0.86,0.94-1.89,0.94c-1.32,0-2.24-0.58-2.24-1.91c0-1.54,1.68-2.01,2.84-2.01c0.44,0,0.76,0,1.2,0.02
			c0-1.06-0.38-1.6-1.51-1.6c-0.64,0-1.32,0.24-1.78,0.62L135.07,131.17z M138.41,133.95c-0.24,0-0.48-0.02-0.72-0.02
			c-0.61,0-2.12,0.1-2.12,1.17c0,0.65,0.62,1,1.14,1c1.12,0,1.7-0.7,1.7-1.61V133.95z"/>
		<path d="M141.6,127.87h1.13v9h-1.13V127.87z"/>
		<path d="M146.13,129.38h-1.27v-1.27h1.27V129.38z M144.93,130.74h1.13v6.12h-1.13V130.74z"/>
		<path d="M151.37,131.66h-1.62V135c0,0.71,0.43,1.09,0.95,1.09c0.35,0,0.6-0.11,0.77-0.22v0.96c-0.25,0.07-0.6,0.17-0.96,0.17
			c-1.16,0-1.88-0.55-1.88-1.77v-3.57h-1.38v-0.91h1.38v-1.42l1.13-0.36v1.77h1.62V131.66z"/>
		<path d="M152.34,138.52c0.14,0.05,0.34,0.1,0.53,0.1c1.01,0,1.34-1.39,1.34-1.51c0-0.13-0.14-0.44-0.22-0.65l-2.08-5.71h1.24
			l1.64,5.06h0.02l1.68-5.06h1.14l-2.25,6.25c-0.42,1.17-0.86,2.53-2.35,2.53c-0.36,0-0.56-0.05-0.77-0.08L152.34,138.52z"/>
		<path d="M166.01,131.78c-0.43-0.18-0.86-0.26-1.22-0.26c-1.26,0-1.97,1.13-1.97,2.29c0,1.09,0.59,2.29,2.04,2.29
			c0.38,0,0.86-0.12,1.21-0.35l0.08,1.01c-0.47,0.22-1.01,0.25-1.42,0.25c-1.85,0-3.12-1.45-3.12-3.2c0-1.86,1.25-3.2,3.12-3.2
			c0.46,0,1.04,0.11,1.37,0.24L166.01,131.78z"/>
		<path d="M170.17,130.6c1.86,0,3.11,1.34,3.11,3.2c0,1.75-1.27,3.2-3.11,3.2c-1.85,0-3.12-1.45-3.12-3.2
			C167.05,131.94,168.29,130.6,170.17,130.6z M170.17,136.09c1.32,0,1.91-1.2,1.91-2.29c0-1.16-0.71-2.29-1.91-2.29
			c-1.21,0-1.92,1.13-1.92,2.29C168.25,134.89,168.83,136.09,170.17,136.09z"/>
		<path d="M174.79,130.74h1.09v0.97h0.02c0.34-0.7,1.15-1.12,2-1.12c1.58,0,2.29,0.98,2.29,2.63v3.63h-1.13v-3.17
			c0-1.43-0.31-2.12-1.3-2.18c-1.28,0-1.86,1.03-1.86,2.52v2.83h-1.13V130.74z"/>
		<path d="M185.37,131.66h-1.62V135c0,0.71,0.43,1.09,0.95,1.09c0.35,0,0.6-0.11,0.77-0.22v0.96c-0.25,0.07-0.6,0.17-0.96,0.17
			c-1.16,0-1.88-0.55-1.88-1.77v-3.57h-1.38v-0.91h1.38v-1.42l1.13-0.36v1.77h1.62V131.66z"/>
		<path d="M186.79,130.74h1.06v0.95h0.02c0.3-0.64,0.95-1.09,1.59-1.09c0.34,0,0.5,0.04,0.74,0.08v1.01
			c-0.2-0.08-0.43-0.11-0.62-0.11c-1.01,0-1.67,0.96-1.67,2.5v2.78h-1.13V130.74z"/>
		<path d="M194.17,130.6c1.86,0,3.11,1.34,3.11,3.2c0,1.75-1.27,3.2-3.11,3.2c-1.85,0-3.12-1.45-3.12-3.2
			C191.05,131.94,192.29,130.6,194.17,130.6z M194.17,136.09c1.32,0,1.91-1.2,1.91-2.29c0-1.16-0.71-2.29-1.91-2.29
			c-1.21,0-1.92,1.13-1.92,2.29C192.25,134.89,192.83,136.09,194.17,136.09z"/>
		<path d="M198.93,127.87h1.13v9h-1.13V127.87z"/>
		<path d="M202.16,135.52h1.34v1.34h-1.34V135.52z"/>
		<path d="M207.86,128.49h1.32l2,7.17h0.02l1.79-7.17h1.7l1.81,7.17h0.02l2-7.17h1.27l-2.58,8.37h-1.55l-1.82-7.32h-0.02l-1.83,7.32
			h-1.61L207.86,128.49z"/>
		<path d="M225.13,136.61c-0.43,0.16-0.92,0.4-1.93,0.4c-2.17,0-3.17-1.32-3.17-3.31c0-1.81,1.14-3.09,2.87-3.09
			c2.04,0,2.7,1.49,2.7,3.45h-4.37c0,1.21,0.95,2.04,2.01,2.04c0.74,0,1.61-0.38,1.88-0.61V136.61z M224.4,133.21
			c0-0.94-0.55-1.7-1.52-1.7c-1.1,0-1.56,0.91-1.64,1.7H224.4z"/>
		<path d="M24.91,142.26h1.13v3.75h0.02c0.41-0.65,1.12-1.02,1.97-1.02c1.58,0,2.29,0.98,2.29,2.63v3.63h-1.13v-3.17
			c0-1.43-0.31-2.12-1.3-2.18c-1.28,0-1.86,1.03-1.86,2.52v2.83h-1.13V142.26z"/>
		<path d="M32.53,145.58c0.56-0.34,1.23-0.58,2.01-0.58c1.75,0,2.46,0.86,2.46,2.53v2.53c0,0.7,0.02,1.02,0.05,1.2H36v-0.79h-0.02
			c-0.26,0.37-0.86,0.94-1.9,0.94c-1.32,0-2.24-0.58-2.24-1.91c0-1.54,1.68-2.01,2.84-2.01c0.44,0,0.76,0,1.2,0.02
			c0-1.06-0.38-1.59-1.51-1.59c-0.64,0-1.32,0.24-1.78,0.62L32.53,145.58z M35.88,148.35c-0.24,0-0.48-0.02-0.72-0.02
			c-0.61,0-2.12,0.1-2.12,1.18c0,0.65,0.62,1,1.14,1c1.12,0,1.7-0.7,1.7-1.61V148.35z"/>
		<path d="M41.62,151.26h-1.34l-2.19-6.12h1.24l1.66,4.99H41l1.69-4.99h1.13L41.62,151.26z"/>
		<path d="M49.6,151.01c-0.43,0.16-0.92,0.4-1.93,0.4c-2.17,0-3.17-1.32-3.17-3.31c0-1.81,1.14-3.09,2.87-3.09
			c2.04,0,2.7,1.49,2.7,3.45h-4.37c0,1.21,0.95,2.04,2.02,2.04c0.74,0,1.61-0.38,1.88-0.61V151.01z M48.87,147.61
			c0-0.94-0.55-1.7-1.52-1.7c-1.1,0-1.56,0.91-1.64,1.7H48.87z"/>
		<path d="M54.92,142.26h1.13v3.72h0.02c0.35-0.56,0.96-0.98,2.03-0.98c1.77,0,2.64,1.45,2.64,3.09c0,1.68-0.78,3.31-2.63,3.31
			c-1.09,0-1.79-0.55-2.09-1.01H56v0.86h-1.08V142.26z M57.86,145.91c-1.22,0-1.81,1.16-1.81,2.3c0,1.02,0.53,2.28,1.8,2.28
			c1.21,0,1.72-1.36,1.69-2.31C59.56,147.07,59.08,145.91,57.86,145.91z"/>
		<path d="M66.94,151.01c-0.43,0.16-0.92,0.4-1.93,0.4c-2.17,0-3.17-1.32-3.17-3.31c0-1.81,1.14-3.09,2.87-3.09
			c2.04,0,2.7,1.49,2.7,3.45h-4.37c0,1.21,0.95,2.04,2.02,2.04c0.74,0,1.61-0.38,1.88-0.61V151.01z M66.21,147.61
			c0-0.94-0.55-1.7-1.52-1.7c-1.1,0-1.56,0.91-1.64,1.7H66.21z"/>
		<path d="M73.62,151.01c-0.43,0.16-0.92,0.4-1.93,0.4c-2.17,0-3.17-1.32-3.17-3.31c0-1.81,1.14-3.09,2.87-3.09
			c2.04,0,2.7,1.49,2.7,3.45h-4.37c0,1.21,0.95,2.04,2.02,2.04c0.74,0,1.61-0.38,1.88-0.61V151.01z M72.88,147.61
			c0-0.94-0.55-1.7-1.52-1.7c-1.1,0-1.56,0.91-1.64,1.7H72.88z"/>
		<path d="M75.6,145.14h1.09v0.97h0.02c0.34-0.7,1.15-1.12,2-1.12c1.58,0,2.29,0.98,2.29,2.63v3.63h-1.13v-3.17
			c0-1.43-0.31-2.12-1.3-2.18c-1.28,0-1.86,1.03-1.86,2.52v2.83H75.6V145.14z"/>
		<path d="M90.15,146.17c-0.43-0.18-0.86-0.26-1.22-0.26c-1.26,0-1.97,1.13-1.97,2.29c0,1.09,0.59,2.29,2.04,2.29
			c0.38,0,0.86-0.12,1.21-0.35l0.08,1.01c-0.47,0.22-1.01,0.25-1.42,0.25c-1.85,0-3.12-1.45-3.12-3.2c0-1.86,1.25-3.2,3.12-3.2
			c0.46,0,1.04,0.11,1.37,0.24L90.15,146.17z"/>
		<path d="M91.59,145.14h1.06v0.95h0.02c0.3-0.64,0.95-1.09,1.59-1.09c0.34,0,0.5,0.04,0.74,0.08v1.01
			c-0.2-0.08-0.43-0.11-0.62-0.11c-1.01,0-1.67,0.96-1.67,2.49v2.78h-1.13V145.14z"/>
		<path d="M100.95,151.01c-0.43,0.16-0.92,0.4-1.93,0.4c-2.17,0-3.17-1.32-3.17-3.31c0-1.81,1.14-3.09,2.87-3.09
			c2.04,0,2.7,1.49,2.7,3.45h-4.37c0,1.21,0.95,2.04,2.02,2.04c0.74,0,1.61-0.38,1.88-0.61V151.01z M100.22,147.61
			c0-0.94-0.55-1.7-1.52-1.7c-1.1,0-1.56,0.91-1.64,1.7H100.22z"/>
		<path d="M103.22,145.58c0.56-0.34,1.24-0.58,2.02-0.58c1.75,0,2.46,0.86,2.46,2.53v2.53c0,0.7,0.02,1.02,0.05,1.2h-1.06v-0.79
			h-0.02c-0.26,0.37-0.86,0.94-1.9,0.94c-1.32,0-2.24-0.58-2.24-1.91c0-1.54,1.68-2.01,2.84-2.01c0.44,0,0.76,0,1.2,0.02
			c0-1.06-0.38-1.59-1.51-1.59c-0.64,0-1.32,0.24-1.78,0.62L103.22,145.58z M106.57,148.35c-0.24,0-0.48-0.02-0.72-0.02
			c-0.61,0-2.12,0.1-2.12,1.18c0,0.65,0.62,1,1.14,1c1.12,0,1.7-0.7,1.7-1.61V148.35z"/>
		<path d="M112.85,146.05h-1.62v3.35c0,0.71,0.43,1.09,0.95,1.09c0.35,0,0.6-0.11,0.77-0.22v0.96c-0.25,0.07-0.6,0.17-0.96,0.17
			c-1.16,0-1.88-0.55-1.88-1.78v-3.57h-1.38v-0.91h1.38v-1.42l1.13-0.36v1.78h1.62V146.05z"/>
		<path d="M115.62,143.78h-1.27v-1.27h1.27V143.78z M114.42,145.14h1.13v6.12h-1.13V145.14z"/>
		<path d="M117.61,145.14h1.09v0.97h0.02c0.34-0.7,1.15-1.12,2-1.12c1.58,0,2.29,0.98,2.29,2.63v3.63h-1.13v-3.17
			c0-1.43-0.31-2.12-1.3-2.18c-1.28,0-1.86,1.03-1.86,2.52v2.83h-1.13V145.14z"/>
		<path d="M130.35,151c0,1.86-0.96,2.93-3.15,2.93c-0.65,0-1.21-0.08-2.19-0.42l0.12-1.04c0.86,0.4,1.38,0.55,2.21,0.55
			c1.19,0,1.9-0.8,1.9-2.1v-0.6h-0.02c-0.48,0.64-1.27,0.95-2.05,0.95c-1.75,0-2.61-1.43-2.61-3.01c0-1.57,0.89-3.25,2.73-3.25
			c1.08,0,1.68,0.4,2.01,1.06h0.02v-0.91h1.04V151z M129.22,148.27c0-1.27-0.59-2.36-1.79-2.36c-1.14,0-1.7,1.24-1.7,2.28
			c0,1.15,0.65,2.16,1.7,2.16S129.22,149.41,129.22,148.27z"/>
		<path d="M139.49,146.17c-0.43-0.18-0.86-0.26-1.22-0.26c-1.26,0-1.97,1.13-1.97,2.29c0,1.09,0.59,2.29,2.04,2.29
			c0.38,0,0.86-0.12,1.21-0.35l0.08,1.01c-0.47,0.22-1.01,0.25-1.42,0.25c-1.85,0-3.12-1.45-3.12-3.2c0-1.86,1.25-3.2,3.12-3.2
			c0.46,0,1.04,0.11,1.37,0.24L139.49,146.17z"/>
		<path d="M145.63,151.01c-0.43,0.16-0.92,0.4-1.93,0.4c-2.17,0-3.17-1.32-3.17-3.31c0-1.81,1.14-3.09,2.87-3.09
			c2.04,0,2.7,1.49,2.7,3.45h-4.37c0,1.21,0.95,2.04,2.02,2.04c0.74,0,1.61-0.38,1.88-0.61V151.01z M144.89,147.61
			c0-0.94-0.55-1.7-1.52-1.7c-1.1,0-1.56,0.91-1.64,1.7H144.89z"/>
		<path d="M147.61,145.14h1.06v0.95h0.02c0.3-0.64,0.95-1.09,1.59-1.09c0.34,0,0.5,0.04,0.74,0.08v1.01
			c-0.2-0.08-0.43-0.11-0.62-0.11c-1.01,0-1.67,0.96-1.67,2.49v2.78h-1.13V145.14z"/>
		<path d="M155.53,146.05h-1.62v3.35c0,0.71,0.43,1.09,0.95,1.09c0.35,0,0.6-0.11,0.77-0.22v0.96c-0.25,0.07-0.6,0.17-0.96,0.17
			c-1.16,0-1.88-0.55-1.88-1.78v-3.57h-1.38v-0.91h1.38v-1.42l1.13-0.36v1.78h1.62V146.05z"/>
		<path d="M158.29,143.78h-1.27v-1.27h1.27V143.78z M157.09,145.14h1.13v6.12h-1.13V145.14z"/>
		<path d="M161.01,146.05h-1.44v-0.91h1.44v-0.56c0-1.49,0.38-2.46,2.05-2.46c0.29,0,0.53,0.04,0.76,0.07l-0.05,0.91
			c-0.13-0.05-0.35-0.07-0.54-0.07c-0.97,0-1.09,0.62-1.09,1.45v0.66h1.62v0.91h-1.62v5.21h-1.13V146.05z"/>
		<path d="M166.29,143.78h-1.27v-1.27h1.27V143.78z M165.09,145.14h1.13v6.12h-1.13V145.14z"/>
		<path d="M172.97,151.01c-0.43,0.16-0.92,0.4-1.93,0.4c-2.17,0-3.17-1.32-3.17-3.31c0-1.81,1.14-3.09,2.87-3.09
			c2.04,0,2.7,1.49,2.7,3.45h-4.37c0,1.21,0.95,2.04,2.02,2.04c0.74,0,1.61-0.38,1.88-0.61V151.01z M172.24,147.61
			c0-0.94-0.55-1.7-1.52-1.7c-1.1,0-1.56,0.91-1.64,1.7H172.24z"/>
		<path d="M179.29,150.4h-0.02c-0.3,0.46-1,1.01-2.09,1.01c-1.85,0-2.63-1.64-2.63-3.31c0-1.64,0.86-3.09,2.64-3.09
			c1.07,0,1.68,0.42,2.03,0.98h0.02v-3.72h1.13v9h-1.08V150.4z M177.44,150.49c1.27,0,1.8-1.26,1.8-2.28c0-1.14-0.59-2.3-1.81-2.3
			c-1.22,0-1.7,1.15-1.68,2.27C175.72,149.14,176.23,150.49,177.44,150.49z"/>
		<path d="M185.66,142.89h2.19c1.71,0,3.14,0.6,3.14,2.51c0,1.86-1.45,2.52-2.96,2.52h-1.17v3.35h-1.2V142.89z M186.86,146.86h1.19
			c0.74,0,1.68-0.37,1.68-1.48c0-1.05-1.1-1.44-1.85-1.44h-1.02V146.86z"/>
		<path d="M192.33,142.89h2.47c2.48,0,4.46,1.54,4.46,4.11c0,2.81-1.7,4.26-4.46,4.26h-2.47V142.89z M193.53,150.21h1.26
			c2.06,0,3.2-1,3.2-3.15c0-1.96-1.33-3.11-3.06-3.11h-1.4V150.21z"/>
		<path d="M201,142.89h4.45v1.06h-3.25v2.45h3.11v1.06h-3.11v3.81H201V142.89z"/>
		<path d="M206.5,150.06c0.44,0.29,1.08,0.43,1.4,0.43c0.52,0,1.15-0.22,1.15-0.88c0-1.12-2.65-1.02-2.65-2.73
			c0-1.27,0.95-1.88,2.16-1.88c0.53,0,0.96,0.11,1.4,0.24l-0.1,0.98c-0.25-0.16-0.92-0.31-1.19-0.31c-0.58,0-1.08,0.24-1.08,0.74
			c0,1.25,2.65,0.89,2.65,2.84c0,1.31-1.04,1.91-2.13,1.91c-0.58,0-1.16-0.06-1.68-0.34L206.5,150.06z"/>
		<path d="M218.21,146.05h-1.62v3.35c0,0.71,0.43,1.09,0.95,1.09c0.35,0,0.6-0.11,0.77-0.22v0.96c-0.25,0.07-0.6,0.17-0.96,0.17
			c-1.16,0-1.88-0.55-1.88-1.78v-3.57h-1.38v-0.91h1.38v-1.42l1.13-0.36v1.78h1.62V146.05z"/>
		<path d="M222.34,145c1.86,0,3.11,1.34,3.11,3.2c0,1.75-1.27,3.2-3.11,3.2c-1.85,0-3.12-1.45-3.12-3.2
			C219.22,146.34,220.47,145,222.34,145z M222.34,150.49c1.32,0,1.91-1.2,1.91-2.29c0-1.16-0.71-2.29-1.91-2.29
			c-1.21,0-1.92,1.13-1.92,2.29C220.42,149.29,221.01,150.49,222.34,150.49z"/>
		<path d="M20.9,159.54h1.08v0.86h0.02c0.3-0.46,1-1.01,2.07-1.01c1.77,0,2.64,1.45,2.64,3.09c0,1.68-0.78,3.31-2.63,3.31
			c-1.08,0-1.69-0.42-2.04-0.98h-0.02v3.36H20.9V159.54z M23.84,160.31c-1.22,0-1.81,1.16-1.81,2.3c0,1.02,0.53,2.28,1.8,2.28
			c1.21,0,1.72-1.36,1.69-2.31C25.54,161.47,25.06,160.31,23.84,160.31z"/>
		<path d="M28.23,159.54h1.06v0.95h0.02c0.3-0.64,0.95-1.09,1.59-1.09c0.34,0,0.5,0.04,0.74,0.08v1.01
			c-0.2-0.08-0.43-0.11-0.62-0.11c-1.01,0-1.67,0.96-1.67,2.49v2.78h-1.13V159.54z"/>
		<path d="M34.25,158.18h-1.27v-1.27h1.27V158.18z M33.05,159.54h1.13v6.12h-1.13V159.54z"/>
		<path d="M36.24,159.54h1.09v0.97h0.02c0.34-0.7,1.15-1.12,2-1.12c1.58,0,2.29,0.98,2.29,2.63v3.63h-1.13v-3.17
			c0-1.43-0.31-2.12-1.3-2.18c-1.28,0-1.86,1.03-1.86,2.52v2.83h-1.13V159.54z"/>
		<path d="M46.82,160.46H45.2v3.35c0,0.71,0.43,1.09,0.95,1.09c0.35,0,0.6-0.11,0.77-0.22v0.96c-0.25,0.07-0.6,0.17-0.96,0.17
			c-1.16,0-1.88-0.55-1.88-1.78v-3.57h-1.38v-0.91h1.38v-1.42l1.13-0.36v1.78h1.62V160.46z"/>
		<path d="M52.93,165.41c-0.43,0.16-0.92,0.4-1.93,0.4c-2.17,0-3.17-1.32-3.17-3.31c0-1.81,1.14-3.09,2.87-3.09
			c2.04,0,2.7,1.49,2.7,3.45h-4.37c0,1.21,0.95,2.04,2.02,2.04c0.74,0,1.61-0.38,1.88-0.61V165.41z M52.2,162.01
			c0-0.94-0.55-1.7-1.52-1.7c-1.1,0-1.56,0.91-1.64,1.7H52.2z"/>
		<path d="M54.91,159.54h1.06v0.95h0.02c0.3-0.64,0.95-1.09,1.59-1.09c0.34,0,0.5,0.04,0.74,0.08v1.01
			c-0.2-0.08-0.43-0.11-0.62-0.11c-1.01,0-1.67,0.96-1.67,2.49v2.78h-1.13V159.54z"/>
		<path d="M59.12,164.46c0.44,0.29,1.08,0.43,1.4,0.43c0.52,0,1.15-0.22,1.15-0.88c0-1.12-2.65-1.02-2.65-2.73
			c0-1.27,0.95-1.88,2.16-1.88c0.53,0,0.96,0.11,1.4,0.24l-0.1,0.98c-0.25-0.16-0.92-0.31-1.19-0.31c-0.58,0-1.08,0.24-1.08,0.74
			c0,1.25,2.65,0.89,2.65,2.84c0,1.31-1.04,1.91-2.13,1.91c-0.58,0-1.16-0.06-1.68-0.34L59.12,164.46z"/>
		<path d="M64.65,157.29H66l-1.06,2.94h-1.03L64.65,157.29z"/>
		<path d="M76.33,168.18H75.2v-3.32h-0.02c-0.35,0.58-1.14,0.95-2.04,0.95c-1.85,0-2.63-1.64-2.63-3.31c0-1.64,0.86-3.09,2.64-3.09
			c1.08,0,1.77,0.55,2.07,1.02h0.02v-0.88h1.08V168.18z M73.4,164.89c1.27,0,1.8-1.26,1.8-2.28c0-1.14-0.59-2.3-1.81-2.3
			s-1.7,1.15-1.68,2.27C71.69,163.54,72.19,164.89,73.4,164.89z"/>
		<path d="M83.66,165.66h-1.09v-0.97h-0.02c-0.34,0.7-1.15,1.12-2,1.12c-1.58,0-2.29-0.98-2.29-2.63v-3.63h1.13v3.17
			c0,1.43,0.31,2.12,1.3,2.18c1.28,0,1.86-1.03,1.86-2.52v-2.83h1.13V165.66z"/>
		<path d="M85.87,159.98c0.56-0.34,1.24-0.58,2.02-0.58c1.75,0,2.46,0.86,2.46,2.53v2.53c0,0.7,0.02,1.02,0.05,1.2h-1.06v-0.79
			h-0.02c-0.26,0.37-0.86,0.94-1.9,0.94c-1.32,0-2.24-0.58-2.24-1.91c0-1.54,1.68-2.01,2.84-2.01c0.44,0,0.76,0,1.2,0.02
			c0-1.06-0.38-1.59-1.51-1.59c-0.64,0-1.32,0.24-1.78,0.62L85.87,159.98z M89.22,162.75c-0.24,0-0.48-0.02-0.72-0.02
			c-0.61,0-2.12,0.1-2.12,1.18c0,0.65,0.62,1,1.14,1c1.12,0,1.7-0.7,1.7-1.61V162.75z"/>
		<path d="M92.4,156.67h1.13v9H92.4V156.67z"/>
		<path d="M96.93,158.18h-1.27v-1.27h1.27V158.18z M95.73,159.54h1.13v6.12h-1.13V159.54z"/>
		<path d="M102.18,160.46h-1.62v3.35c0,0.71,0.43,1.09,0.95,1.09c0.35,0,0.6-0.11,0.77-0.22v0.96c-0.25,0.07-0.6,0.17-0.96,0.17
			c-1.16,0-1.88-0.55-1.88-1.78v-3.57h-1.38v-0.91h1.38v-1.42l1.13-0.36v1.78h1.62V160.46z"/>
		<path d="M103.14,167.32c0.14,0.05,0.34,0.1,0.53,0.1c1.01,0,1.34-1.39,1.34-1.51c0-0.13-0.14-0.44-0.22-0.65l-2.07-5.71h1.24
			l1.64,5.06h0.02l1.68-5.06h1.14l-2.25,6.25c-0.42,1.18-0.86,2.53-2.35,2.53c-0.36,0-0.56-0.05-0.77-0.08L103.14,167.32z"/>
		<path d="M112.47,164.46c0.44,0.29,1.08,0.43,1.4,0.43c0.52,0,1.15-0.22,1.15-0.88c0-1.12-2.65-1.02-2.65-2.73
			c0-1.27,0.95-1.88,2.16-1.88c0.53,0,0.96,0.11,1.4,0.24l-0.1,0.98c-0.25-0.16-0.92-0.31-1.19-0.31c-0.58,0-1.08,0.24-1.08,0.74
			c0,1.25,2.65,0.89,2.65,2.84c0,1.31-1.04,1.91-2.13,1.91c-0.58,0-1.16-0.06-1.68-0.34L112.47,164.46z"/>
		<path d="M120.85,160.46h-1.62v3.35c0,0.71,0.43,1.09,0.95,1.09c0.35,0,0.6-0.11,0.77-0.22v0.96c-0.25,0.07-0.6,0.17-0.96,0.17
			c-1.16,0-1.88-0.55-1.88-1.78v-3.57h-1.38v-0.91h1.38v-1.42l1.13-0.36v1.78h1.62V160.46z"/>
		<path d="M122.55,159.98c0.56-0.34,1.24-0.58,2.02-0.58c1.75,0,2.46,0.86,2.46,2.53v2.53c0,0.7,0.02,1.02,0.05,1.2h-1.06v-0.79H126
			c-0.26,0.37-0.86,0.94-1.9,0.94c-1.32,0-2.24-0.58-2.24-1.91c0-1.54,1.68-2.01,2.84-2.01c0.44,0,0.76,0,1.2,0.02
			c0-1.06-0.38-1.59-1.51-1.59c-0.64,0-1.32,0.24-1.78,0.62L122.55,159.98z M125.9,162.75c-0.24,0-0.48-0.02-0.72-0.02
			c-0.61,0-2.12,0.1-2.12,1.18c0,0.65,0.62,1,1.14,1c1.12,0,1.7-0.7,1.7-1.61V162.75z"/>
		<path d="M128.94,159.54h1.09v0.97h0.02c0.34-0.7,1.15-1.12,2-1.12c1.58,0,2.29,0.98,2.29,2.63v3.63h-1.13v-3.17
			c0-1.43-0.31-2.12-1.3-2.18c-1.28,0-1.86,1.03-1.86,2.52v2.83h-1.13V159.54z"/>
		<path d="M140.6,164.8h-0.02c-0.3,0.46-1,1.01-2.09,1.01c-1.85,0-2.63-1.64-2.63-3.31c0-1.64,0.86-3.09,2.64-3.09
			c1.07,0,1.68,0.42,2.03,0.98h0.02v-3.72h1.13v9h-1.08V164.8z M138.75,164.89c1.27,0,1.8-1.26,1.8-2.28c0-1.14-0.59-2.3-1.81-2.3
			c-1.22,0-1.7,1.15-1.68,2.27C137.04,163.54,137.54,164.89,138.75,164.89z"/>
		<path d="M143.89,159.98c0.56-0.34,1.24-0.58,2.01-0.58c1.75,0,2.46,0.86,2.46,2.53v2.53c0,0.7,0.02,1.02,0.05,1.2h-1.06v-0.79
			h-0.02c-0.26,0.37-0.86,0.94-1.9,0.94c-1.32,0-2.24-0.58-2.24-1.91c0-1.54,1.68-2.01,2.84-2.01c0.44,0,0.76,0,1.2,0.02
			c0-1.06-0.38-1.59-1.51-1.59c-0.64,0-1.32,0.24-1.78,0.62L143.89,159.98z M147.23,162.75c-0.24,0-0.48-0.02-0.72-0.02
			c-0.61,0-2.12,0.1-2.12,1.18c0,0.65,0.62,1,1.14,1c1.12,0,1.7-0.7,1.7-1.61V162.75z"/>
		<path d="M150.27,159.54h1.06v0.95h0.02c0.3-0.64,0.95-1.09,1.59-1.09c0.34,0,0.5,0.04,0.74,0.08v1.01
			c-0.2-0.08-0.43-0.11-0.62-0.11c-1.01,0-1.67,0.96-1.67,2.49v2.78h-1.13V159.54z"/>
		<path d="M159.27,164.8h-0.02c-0.3,0.46-1,1.01-2.09,1.01c-1.85,0-2.63-1.64-2.63-3.31c0-1.64,0.86-3.09,2.64-3.09
			c1.07,0,1.68,0.42,2.03,0.98h0.02v-3.72h1.13v9h-1.08V164.8z M157.42,164.89c1.27,0,1.8-1.26,1.8-2.28c0-1.14-0.59-2.3-1.81-2.3
			c-1.22,0-1.7,1.15-1.68,2.27C155.71,163.54,156.21,164.89,157.42,164.89z"/>
		<path d="M161.82,164.46c0.44,0.29,1.08,0.43,1.4,0.43c0.52,0,1.15-0.22,1.15-0.88c0-1.12-2.65-1.02-2.65-2.73
			c0-1.27,0.95-1.88,2.16-1.88c0.53,0,0.96,0.11,1.4,0.24l-0.1,0.98c-0.25-0.16-0.92-0.31-1.19-0.31c-0.58,0-1.08,0.24-1.08,0.74
			c0,1.25,2.65,0.89,2.65,2.84c0,1.31-1.04,1.91-2.13,1.91c-0.58,0-1.16-0.06-1.68-0.34L161.82,164.46z"/>
		<path d="M169.82,164.46c0.44,0.29,1.08,0.43,1.4,0.43c0.52,0,1.15-0.22,1.15-0.88c0-1.12-2.65-1.02-2.65-2.73
			c0-1.27,0.95-1.88,2.16-1.88c0.53,0,0.96,0.11,1.4,0.24l-0.1,0.98c-0.25-0.16-0.92-0.31-1.19-0.31c-0.58,0-1.08,0.24-1.08,0.74
			c0,1.25,2.65,0.89,2.65,2.84c0,1.31-1.04,1.91-2.13,1.91c-0.58,0-1.16-0.06-1.68-0.34L169.82,164.46z"/>
		<path d="M176.29,158.18h-1.27v-1.27h1.27V158.18z M175.09,159.54h1.13v6.12h-1.13V159.54z"/>
		<path d="M178.28,159.54h1.09v0.97h0.02c0.34-0.7,1.15-1.12,2-1.12c1.58,0,2.29,0.98,2.29,2.63v3.63h-1.13v-3.17
			c0-1.43-0.31-2.12-1.3-2.18c-1.28,0-1.86,1.03-1.86,2.52v2.83h-1.13V159.54z"/>
		<path d="M189.5,160.58c-0.43-0.18-0.86-0.26-1.22-0.26c-1.26,0-1.97,1.13-1.97,2.29c0,1.09,0.59,2.29,2.04,2.29
			c0.38,0,0.86-0.12,1.21-0.35l0.08,1.01c-0.47,0.22-1.01,0.25-1.42,0.25c-1.85,0-3.12-1.45-3.12-3.2c0-1.86,1.25-3.2,3.12-3.2
			c0.46,0,1.04,0.11,1.37,0.24L189.5,160.58z"/>
		<path d="M195.63,165.41c-0.43,0.16-0.92,0.4-1.93,0.4c-2.17,0-3.17-1.32-3.17-3.31c0-1.81,1.14-3.09,2.87-3.09
			c2.04,0,2.7,1.49,2.7,3.45h-4.37c0,1.21,0.95,2.04,2.02,2.04c0.74,0,1.61-0.38,1.88-0.61V165.41z M194.9,162.01
			c0-0.94-0.55-1.7-1.52-1.7c-1.1,0-1.56,0.91-1.64,1.7H194.9z"/>
		<path d="M200.59,164.38c0.43-0.38,0.97-0.85,1.5-1.34c0.92-0.86,2.41-2.22,2.41-3.57c0-0.78-0.7-1.33-1.61-1.33
			c-0.74,0-1.46,0.29-1.92,0.54l-0.12-1.03c0.7-0.3,1.44-0.49,2.19-0.49c1.51,0,2.72,0.82,2.72,2.39c0,1.39-1.5,2.88-2.42,3.8
			c-0.47,0.47-1.07,0.97-1.48,1.34h4.02v0.98h-5.3V164.38z"/>
		<path d="M209.99,157.15c2.32,0,2.84,2.49,2.84,4.33s-0.53,4.33-2.84,4.33c-2.31,0-2.84-2.5-2.84-4.33S207.68,157.15,209.99,157.15
			z M209.99,164.82c1.44,0,1.57-2.3,1.57-3.35c0-1.06-0.19-3.35-1.57-3.35c-1.38,0-1.57,2.29-1.57,3.35
			C208.42,162.52,208.56,164.82,209.99,164.82z"/>
		<path d="M216.67,157.15c2.32,0,2.84,2.49,2.84,4.33s-0.53,4.33-2.84,4.33c-2.31,0-2.84-2.5-2.84-4.33S214.35,157.15,216.67,157.15
			z M216.67,164.82c1.44,0,1.57-2.3,1.57-3.35c0-1.06-0.19-3.35-1.57-3.35c-1.38,0-1.57,2.29-1.57,3.35
			C215.1,162.52,215.23,164.82,216.67,164.82z"/>
		<path d="M220.6,164.38c0.43-0.38,0.97-0.85,1.5-1.34c0.92-0.86,2.41-2.22,2.41-3.57c0-0.78-0.7-1.33-1.61-1.33
			c-0.74,0-1.46,0.29-1.92,0.54l-0.12-1.03c0.7-0.3,1.44-0.49,2.19-0.49c1.51,0,2.72,0.82,2.72,2.39c0,1.39-1.5,2.88-2.42,3.8
			c-0.47,0.47-1.07,0.97-1.48,1.34h4.02v0.98h-5.3V164.38z"/>
		<path d="M227.67,164.32h1.34v1.34h-1.34V164.32z"/>
	</g>
</g>
</svg>
