<?xml version="1.0" encoding="utf-8"?>
<!-- Generator: Adobe Illustrator 23.0.3, SVG Export Plug-In . SVG Version: 6.00 Build 0)  -->
<svg version="1.1" id="Layer_1" xmlns="http://www.w3.org/2000/svg" xmlns:xlink="http://www.w3.org/1999/xlink" x="0px" y="0px"
	 viewBox="0 0 250 250" style="enable-background:new 0 0 250 250;" xml:space="preserve">
<style type="text/css">
	.st0{fill:#5E5F5F;}
	.st1{fill:#9AD7D9;}
	.st2{fill:none;stroke:#FFFFFF;stroke-width:10;stroke-miterlimit:10;}
	.st3{fill:#FFFFFF;stroke:#FFFFFF;stroke-width:10;stroke-linecap:round;stroke-linejoin:round;stroke-miterlimit:10;}
	.st4{fill:none;stroke:#FFFFFF;stroke-width:10;stroke-linecap:round;stroke-linejoin:round;stroke-miterlimit:10;}
	.st5{fill:none;stroke:#9AD7D9;stroke-width:1.5;stroke-miterlimit:10;}
	.st6{fill:#FFFFFF;}
</style>
<circle class="st0" cx="125" cy="125" r="125"/>
<circle class="st1" cx="125" cy="125" r="122.5"/>
<g>
	<g>
		<polyline class="st2" points="118.4,116.5 107.6,127.4 104.7,140.8 116.9,134.7 124.9,121.5 		"/>
	</g>
	
		<rect x="117.6" y="109" transform="matrix(0.7888 0.6146 -0.6146 0.7888 96.821 -52.6879)" class="st3" width="14.9" height="11.2"/>
	
		<rect x="118.6" y="100.1" transform="matrix(0.7888 0.6146 -0.6146 0.7888 92.8456 -58.7827)" class="st3" width="26.8" height="11.2"/>
	
		<rect x="155.4" y="25.8" transform="matrix(0.7888 0.6146 -0.6146 0.7888 75.8779 -84.7962)" class="st4" width="11.9" height="84.4"/>
	<path class="st4" d="M192,38.4c2-2.6,1.6-6.3-1-8.3v0c-2.6-2-6.3-1.6-8.3,1"/>
	<line class="st5" x1="116.8" y1="125.3" x2="95.4" y2="152.7"/>
	<g>
		<path class="st6" d="M58.9,216.3c5.1-1.9,10.3-4.2,15.3-6.5c5-2.4,10-4.9,14.8-7.6c4.8-2.8,9.4-5.8,13.5-9.2
			c2-1.7,3.9-3.6,5.3-5.6c1.4-2,2.4-4.2,2.2-6.1c-0.1-1-0.4-2-1-2.9c-0.6-0.9-1.4-1.8-2.4-2.6c-1.9-1.6-4.3-2.9-6.8-4.1
			c-1.2-0.5-2.5-1.1-3.9-1.6c-1.3-0.5-2.6-1.1-4-1.7c-2.6-1.1-5.2-2.4-7.8-3.8c-1.3-0.7-2.5-1.5-3.7-2.4c-1.2-0.9-2.4-1.9-3.3-3.2
			c-0.4-0.7-0.8-1.5-0.8-2.5c0-1,0.5-1.8,1-2.4c1.2-1.2,2.5-1.8,3.9-2.4c2.7-1,5.5-1.6,8.4-2c2.8-0.4,5.6-0.7,8.5-0.8
			c-2.8,0.3-5.6,0.8-8.4,1.4c-2.7,0.6-5.5,1.4-8,2.5c-1.2,0.6-2.4,1.3-3.2,2.2c-0.8,0.9-0.6,1.9,0.1,2.9c0.7,1,1.8,1.8,3,2.5
			c1.1,0.7,2.4,1.4,3.6,2c2.5,1.2,5.1,2.2,7.7,3.1c1.3,0.5,2.6,0.9,4,1.3c1.3,0.4,2.7,0.9,4.1,1.4c2.8,1,5.5,2.2,8.1,4.1
			c1.3,0.9,2.5,2,3.5,3.4c1,1.4,1.8,3.1,2.1,4.9c0.3,1.8,0.1,3.7-0.4,5.3c-0.5,1.7-1.2,3.1-2,4.5c-0.8,1.4-1.7,2.6-2.7,3.8
			c-1,1.2-2,2.3-3.1,3.3c-4.3,4.2-9,7.7-13.7,11c-4.8,3.3-9.8,6.2-14.8,9.1c-5.1,2.8-10.1,5.5-15.4,8c-2.5,1.2-5.5,0.1-6.7-2.4
			c-1.2-2.5-0.1-5.5,2.4-6.7C58.6,216.4,58.7,216.3,58.9,216.3L58.9,216.3z"/>
	</g>
	<circle class="st1" cx="116.7" cy="125.3" r="2.2"/>
</g>
</svg>
