<?xml version="1.0" encoding="utf-8"?>
<!-- Generator: Adobe Illustrator 23.0.3, SVG Export Plug-In . SVG Version: 6.00 Build 0)  -->
<svg version="1.1" id="Layer_1" xmlns="http://www.w3.org/2000/svg" xmlns:xlink="http://www.w3.org/1999/xlink" x="0px" y="0px"
	 viewBox="0 0 151.2 151.2" style="enable-background:new 0 0 151.2 151.2;" xml:space="preserve">
<style type="text/css">
	.st0{fill:#FFFFFF;}
	.st1{fill:none;}
	.st2{fill:#9AD8DA;}
	.st3{fill:#231F20;}
	.st4{fill:#C2E6E7;}
	.st5{font-family:'Futura-Heavy';}
	.st6{font-size:18.4884px;}
</style>
<g id="Logo">
	<g>
		<g>
			<circle class="st0" cx="75.6" cy="75.6" r="75.6"/>
		</g>
		<g>
			<path class="st1" d="M75.6,3.6v144c39.8,0,72-32.2,72-72S115.4,3.6,75.6,3.6z"/>
			<path class="st2" d="M3.6,75.6c0,39.8,32.2,72,72,72V3.6C35.8,3.6,3.6,35.8,3.6,75.6z"/>
		</g>
		<g>
			<path class="st1" d="M75.6,3.6c-34.4,0-63.2,24.2-70.3,56.5h28.3v30H5.1c6.7,32.8,35.7,57.5,70.6,57.5c39.8,0,72-32.2,72-72
				S115.4,3.6,75.6,3.6z"/>
			<path class="st3" d="M33.6,60.1H5.3c-1.1,5-1.7,10.2-1.7,15.5c0,4.9,0.5,9.8,1.5,14.5h28.5V60.1z"/>
		</g>
		<g>
			<path class="st4" d="M75.6,3.6v144c39.8,0,72-32.2,72-72S115.4,3.6,75.6,3.6z"/>
			<path class="st1" d="M3.6,75.6c0,39.8,32.2,72,72,72V3.6C35.8,3.6,3.6,35.8,3.6,75.6z"/>
		</g>
		<g>
			<path class="st1" d="M117.6,60.1h28.3C138.8,27.8,110,3.6,75.6,3.6c-39.8,0-72,32.2-72,72s32.2,72,72,72
				c34.8,0,63.8-24.7,70.5-57.5h-28.5V60.1z"/>
			<path class="st3" d="M117.6,60.1v30h28.5c0.9-4.7,1.4-9.5,1.4-14.5c0-5.3-0.6-10.5-1.7-15.5C145.9,60.1,117.6,60.1,117.6,60.1z"
				/>
		</g>
		<path class="st3" d="M69.2,46.6l5.9-1.5c3.6-19.2,18.9-25.2,29-25.2c3,0,7.9,0.4,13.5,2.6c-2.5,3.2-5,7.2-7.3,11.8l-2.9-1.2l1.3-5
			c-1.3-1-4-2.6-7.4-2.6c-10.7,0-13.2,15-13.9,19.7h13.5l-3.4,5.6H86.1c-2.1,11.8-6.7,37.5-11.6,50.9c-6.2,16.7-15.8,30-31.2,30
			c-3.5,0-6.7-0.7-9.7-2c2.1-3,2.8-4.1,4.6-7.4c2.3,1.5,5.2,3.2,8.8,3.2c11.5,0,16.2-19.9,18.3-28.9c2.2-9.2,6.9-36.5,8.5-45.7h-5.5
			L69.2,46.6z"/>
		<rect x="12.2" y="67.8" class="st0" width="12.8" height="2.7"/>
		<rect x="17.2" y="68.6" class="st0" width="2.7" height="13.8"/>
		<rect x="117.6" y="66.4" class="st1" width="30" height="18.6"/>
		<text transform="matrix(0.9851 0 0 1 125.8745 82.0454)" class="st0 st5 st6">G</text>
	</g>
</g>
</svg>
