<?xml version="1.0" encoding="UTF-8"?>
<svg id="Layer_1" data-name="Layer 1" xmlns="http://www.w3.org/2000/svg" viewBox="0 0 800 166.77">
  <defs>
    <style>
      .cls-1 {
        letter-spacing: .02em;
      }

      .cls-2 {
        fill: none;
        stroke: #000;
      }

      .cls-2, .cls-3, .cls-4 {
        stroke-miterlimit: 10;
      }

      .cls-2, .cls-4 {
        stroke-width: 3px;
      }

      .cls-3 {
        stroke-width: 5px;
      }

      .cls-3, .cls-4 {
        stroke: #0796d8;
      }

      .cls-3, .cls-4, .cls-5 {
        fill: #0796d8;
      }

      .cls-6 {
        font-size: 107.27px;
      }

      .cls-6, .cls-7, .cls-8 {
        font-family: MyriadPro-Regular, 'Myriad Pro';
      }

      .cls-7 {
        font-size: 50.83px;
      }

      .cls-9 {
        letter-spacing: -.06em;
      }

      .cls-10 {
        letter-spacing: -.01em;
      }

      .cls-8 {
        font-size: 40.26px;
      }

      .cls-11 {
        letter-spacing: .01em;
      }

      .cls-12 {
        font-family: TimesNewRomanPS-BoldMT, 'Times New Roman';
        font-size: 102.5px;
        font-weight: 700;
      }

      .cls-13 {
        letter-spacing: -.03em;
      }

      .cls-5 {
        stroke-width: 0px;
      }
    </style>
  </defs>
  <circle class="cls-2" cx="149.32" cy="85.94" r="79.34"/>
  <line class="cls-3" x1="275.84" y1="102.73" x2="797.2" y2="102.73"/>
  <text class="cls-7" transform="translate(0 66.74)"><tspan class="cls-10" x="0" y="0">C</tspan><tspan x="28.92" y="0">e</tspan><tspan class="cls-1" x="54.39" y="0">r</tspan><tspan x="72.23" y="0">tified</tspan></text>
  <text class="cls-8" transform="translate(279.29 145.2)"><tspan class="cls-13" x="0" y="0">W</tspan><tspan x="32.73" y="0">oman </tspan><tspan class="cls-11" x="138.68" y="0">O</tspan><tspan x="166.98" y="0">wned Small Business</tspan></text>
  <g>
    <path class="cls-4" d="m483.7,25.6v58.96s-176.05,0-176.05,0c58.75-.5,131.05-12.31,176.05-58.96Z"/>
    <text class="cls-6" transform="translate(496.98 91.8) scale(1.1 1)"><tspan x="0" y="0">WOSB</tspan></text>
    <text class="cls-12" transform="translate(273.04 85.18) scale(1.04 1)"><tspan x="0" y="0">SB</tspan><tspan class="cls-9" x="125.37" y="0">A</tspan></text>
  </g>
  <path class="cls-5" d="m130.22,90.46c1.36-4.26,7.74-6.14,13.57-7.85,4.91-1.44,9.46-2.78,14.28-.71,6.14,2.63,8.63,9.03,9.28,10.71,2.37,6.09.75,10.22,2.14,10.71,2.24.79,7.7-9.56,14.99-22.85,13.36-24.34,16.52-28.72,18.56-31.42,7.77-10.24,13.15-17.31,22.85-20.71,1.96-.69,7.84-2.86,19.99-3.57s11.7-1.65,12.14-.71c0,0-9.03,6.74-15.71,13.57-8.45,8.63-30.7,38.55-30.7,38.55-20.91,30.59-17.86,26.95-26.64,40.21-11.88,17.95-17.54,29.63-22.63,29.05-5.13-.58-3.2-13.01-13.57-29.27-9.45-14.83-20.57-19.42-18.56-25.7Z"/>
</svg>