<?xml version="1.0" encoding="utf-8"?>
<!-- Generator: Adobe Illustrator 23.0.3, SVG Export Plug-In . SVG Version: 6.00 Build 0)  -->
<svg version="1.1" id="Layer_1" xmlns="http://www.w3.org/2000/svg" xmlns:xlink="http://www.w3.org/1999/xlink" x="0px" y="0px"
	 viewBox="0 0 250 250" style="enable-background:new 0 0 250 250;" xml:space="preserve">
<style type="text/css">
	.st0{fill:#5E5F5F;}
	.st1{fill:#C4E7E8;}
	.st2{fill:#FFFFFF;stroke:#FFFFFF;stroke-width:10;stroke-linecap:round;stroke-linejoin:round;stroke-miterlimit:10;}
	.st3{fill:none;stroke:#FFFFFF;stroke-width:10;stroke-linecap:round;stroke-linejoin:round;stroke-miterlimit:10;}
</style>
<circle class="st0" cx="125" cy="125" r="125"/>
<circle class="st1" cx="125" cy="125" r="122.5"/>
<g>
	<g>
		<path class="st2" d="M144.1,178.2v-6.5c15-1.8,16.8-4.1,13.6-12.9c-3-9-7.6-20.5-12.4-35H95.5c-3.7,10.4-7.1,19.4-10.4,28.8
			c-5.1,15-1.8,16.8,17,19.1v6.5H49v-6.5c14.5-1.8,18.2-3.5,26.3-24.2l47.7-120.9l7.4-1.4c14.5,39.4,30.4,82.9,44.9,122.8
			c7.4,20,9.4,21.9,25.8,23.7v6.5H144.1z M121.1,55.4c-7.4,19.8-15.2,40.8-22.1,59H142L121.1,55.4z"/>
	</g>
	<line class="st3" x1="45" y1="196.6" x2="205" y2="196.6"/>
	<circle class="st2" cx="169.4" cy="34.5" r="9.2"/>
</g>
</svg>
