<?xml version="1.0" encoding="utf-8"?>
<!-- Generator: Adobe Illustrator 23.0.3, SVG Export Plug-In . SVG Version: 6.00 Build 0)  -->
<svg version="1.1" id="Layer_1" xmlns="http://www.w3.org/2000/svg" xmlns:xlink="http://www.w3.org/1999/xlink" x="0px" y="0px"
	 viewBox="0 0 250 250" style="enable-background:new 0 0 250 250;" xml:space="preserve">
<style type="text/css">
	.st0{fill:#5E5F5F;}
	.st1{fill:#C4E7E8;}
	.st2{fill:none;stroke:#FFFFFF;stroke-width:10;stroke-miterlimit:10;}
</style>
<circle class="st0" cx="125" cy="125" r="125"/>
<circle class="st1" cx="125" cy="125" r="122.5"/>
<g>
	<path class="st2" d="M107.4,125H50.7c-6.6,0-12-5.4-12-12V56.3c0-6.6,5.4-12,12-12h56.7c6.6,0,12,5.4,12,12V113
		C119.4,119.6,114,125,107.4,125z"/>
	<path class="st2" d="M199.3,205.7h-56.7c-6.6,0-12-5.4-12-12V137c0-6.6,5.4-12,12-12h56.7c6.6,0,12,5.4,12,12v56.7
		C211.3,200.3,205.9,205.7,199.3,205.7z"/>
	<polyline class="st2" points="58,79.7 74,98.6 100.1,64.1 	"/>
	<g>
		<line class="st2" x1="151.1" y1="145.5" x2="190.8" y2="185.2"/>
		<line class="st2" x1="190.8" y1="145.5" x2="151.1" y2="185.2"/>
	</g>
</g>
</svg>
