<?xml version="1.0" encoding="utf-8"?>
<!-- Generator: Adobe Illustrator 23.0.3, SVG Export Plug-In . SVG Version: 6.00 Build 0)  -->
<svg version="1.1" id="Layer_1" xmlns="http://www.w3.org/2000/svg" xmlns:xlink="http://www.w3.org/1999/xlink" x="0px" y="0px"
	 viewBox="0 0 250 250" style="enable-background:new 0 0 250 250;" xml:space="preserve">
<style type="text/css">
	.st0{fill:#5E5F5F;}
	.st1{fill:#9AD7D9;}
	.st2{fill:none;stroke:#FFFFFF;stroke-width:10;stroke-miterlimit:10;}
	.st3{fill:none;stroke:#FFFFFF;stroke-width:10;stroke-linecap:round;stroke-linejoin:round;stroke-miterlimit:10;}
	.st4{fill:none;stroke:#FFFFFF;stroke-width:5;stroke-miterlimit:10;}
	.st5{fill:none;stroke:#FFFFFF;stroke-width:5;stroke-linecap:round;stroke-linejoin:round;stroke-miterlimit:10;}
	.st6{fill:none;stroke:#FFFFFF;stroke-width:3;stroke-miterlimit:10;}
	.st7{fill:none;stroke:#FFFFFF;stroke-width:3;stroke-linecap:round;stroke-linejoin:round;stroke-miterlimit:10;}
	.st8{fill:none;stroke:#FFFFFF;stroke-width:6;stroke-miterlimit:10;}
	.st9{fill:none;stroke:#FFFFFF;stroke-width:6;stroke-linecap:round;stroke-linejoin:round;stroke-miterlimit:10;}
	.st10{fill:none;stroke:#FFFFFF;stroke-width:7;stroke-miterlimit:10;}
	.st11{fill:none;stroke:#FFFFFF;stroke-width:7;stroke-linecap:round;stroke-linejoin:round;stroke-miterlimit:10;}
</style>
<circle class="st0" cx="125" cy="125" r="125"/>
<circle class="st1" cx="125" cy="125" r="122.5"/>
<g>
	<g>
		<circle class="st2" cx="135.3" cy="117.7" r="34.9"/>
		<polygon class="st3" points="132,82.7 123.7,84.5 122.7,73.9 128.5,72.6 		"/>
		<polygon class="st3" points="138.7,152.8 147,150.9 148,161.6 142.2,162.9 		"/>
		<polygon class="st3" points="114.9,89.1 108.7,94.8 102.5,86.1 106.8,82.1 		"/>
		<polygon class="st3" points="155.8,146.4 162,140.7 168.2,149.4 163.9,153.4 		"/>
		<polygon class="st3" points="103.3,103.1 100.8,111.2 91,106.8 92.8,101.1 		"/>
		<polygon class="st3" points="167.4,132.4 169.9,124.3 179.7,128.7 177.9,134.3 		"/>
		<polygon class="st3" points="100.3,121.1 102.1,129.4 91.5,130.4 90.2,124.6 		"/>
		<polygon class="st3" points="170.4,114.4 168.6,106.1 179.2,105.1 180.5,110.9 		"/>
		<polygon class="st3" points="106.7,138.1 112.4,144.4 103.7,150.6 99.7,146.2 		"/>
		<polygon class="st3" points="164,97.3 158.3,91.1 167,84.8 171,89.2 		"/>
		<polygon class="st3" points="120.7,149.7 128.8,152.3 124.4,162 118.7,160.2 		"/>
		<polygon class="st3" points="150,85.7 141.9,83.2 146.3,73.4 152,75.2 		"/>
	</g>
	<g>
		<circle class="st4" cx="177.2" cy="62" r="14.1"/>
		<polygon class="st5" points="175.8,47.9 172.5,48.7 172.1,44.4 174.4,43.9 		"/>
		<polygon class="st5" points="178.5,76.1 181.9,75.4 182.3,79.7 179.9,80.2 		"/>
		<polygon class="st5" points="169,50.5 166.4,52.8 163.9,49.3 165.7,47.7 		"/>
		<polygon class="st5" points="185.4,73.6 187.9,71.3 190.4,74.8 188.6,76.4 		"/>
		<polygon class="st5" points="164.3,56.1 163.3,59.4 159.3,57.6 160.1,55.3 		"/>
		<polygon class="st5" points="190.1,67.9 191.1,64.7 195,66.5 194.3,68.7 		"/>
		<polygon class="st5" points="163.1,63.4 163.8,66.7 159.5,67.1 159,64.8 		"/>
		<polygon class="st5" points="191.3,60.7 190.5,57.4 194.8,56.9 195.3,59.3 		"/>
		<polygon class="st5" points="165.6,70.2 167.9,72.8 164.4,75.3 162.8,73.5 		"/>
		<polygon class="st5" points="188.7,53.8 186.4,51.3 189.9,48.8 191.5,50.6 		"/>
		<polygon class="st5" points="171.3,74.9 174.5,75.9 172.8,79.9 170.5,79.1 		"/>
		<polygon class="st5" points="183.1,49.2 179.8,48.1 181.6,44.2 183.9,44.9 		"/>
	</g>
	<g>
		<circle class="st6" cx="106.5" cy="61.3" r="11.2"/>
		<polygon class="st7" points="105.5,50.1 102.8,50.7 102.5,47.3 104.3,46.9 		"/>
		<polygon class="st7" points="107.6,72.6 110.3,72 110.6,75.4 108.7,75.8 		"/>
		<polygon class="st7" points="100,52.2 98,54 96,51.2 97.4,49.9 		"/>
		<polygon class="st7" points="113.1,70.5 115.1,68.7 117.1,71.5 115.7,72.8 		"/>
		<polygon class="st7" points="96.3,56.7 95.5,59.3 92.4,57.8 92.9,56 		"/>
		<polygon class="st7" points="116.8,66 117.6,63.4 120.7,64.9 120.1,66.7 		"/>
		<polygon class="st7" points="95.3,62.4 95.9,65.1 92.5,65.4 92.1,63.5 		"/>
		<polygon class="st7" points="117.8,60.3 117.2,57.6 120.6,57.3 121,59.1 		"/>
		<polygon class="st7" points="97.4,67.9 99.2,69.9 96.4,71.9 95.1,70.5 		"/>
		<polygon class="st7" points="115.7,54.8 113.9,52.8 116.7,50.8 118,52.2 		"/>
		<polygon class="st7" points="101.9,71.6 104.5,72.4 103,75.5 101.2,75 		"/>
		<polygon class="st7" points="111.2,51.1 108.6,50.3 110.1,47.2 111.9,47.7 		"/>
	</g>
	<g>
		<circle class="st6" cx="71.8" cy="191.7" r="11.2"/>
		<polygon class="st7" points="70.7,180.5 68.1,181.1 67.7,177.7 69.6,177.2 		"/>
		<polygon class="st7" points="72.8,202.9 75.5,202.3 75.8,205.7 74,206.1 		"/>
		<polygon class="st7" points="65.2,182.5 63.2,184.3 61.3,181.6 62.6,180.3 		"/>
		<polygon class="st7" points="78.3,200.9 80.3,199 82.3,201.8 80.9,203.1 		"/>
		<polygon class="st7" points="61.5,187 60.7,189.6 57.6,188.2 58.2,186.4 		"/>
		<polygon class="st7" points="82,196.4 82.8,193.8 85.9,195.2 85.4,197 		"/>
		<polygon class="st7" points="60.6,192.8 61.1,195.4 57.7,195.7 57.3,193.9 		"/>
		<polygon class="st7" points="83,190.6 82.4,188 85.8,187.6 86.2,189.5 		"/>
		<polygon class="st7" points="62.6,198.2 64.4,200.2 61.6,202.2 60.4,200.8 		"/>
		<polygon class="st7" points="80.9,185.2 79.1,183.1 81.9,181.2 83.2,182.6 		"/>
		<polygon class="st7" points="67.1,201.9 69.7,202.7 68.3,205.9 66.5,205.3 		"/>
		<polygon class="st7" points="76.5,181.4 73.9,180.6 75.3,177.5 77.1,178.1 		"/>
	</g>
	<g>
		<circle class="st8" cx="207.2" cy="96.6" r="16.8"/>
		<polygon class="st9" points="205.6,79.8 201.7,80.7 201.2,75.6 203.9,75 		"/>
		<polygon class="st9" points="208.8,113.5 212.8,112.6 213.3,117.7 210.5,118.3 		"/>
		<polygon class="st9" points="197.4,82.9 194.4,85.6 191.5,81.4 193.6,79.5 		"/>
		<polygon class="st9" points="217,110.4 220.1,107.7 223,111.8 220.9,113.7 		"/>
		<polygon class="st9" points="191.9,89.6 190.6,93.5 186,91.4 186.8,88.7 		"/>
		<polygon class="st9" points="222.6,103.7 223.8,99.8 228.5,101.9 227.7,104.6 		"/>
		<polygon class="st9" points="190.4,98.2 191.3,102.2 186.2,102.7 185.6,99.9 		"/>
		<polygon class="st9" points="224.1,95 223.2,91 228.3,90.6 228.9,93.3 		"/>
		<polygon class="st9" points="193.5,106.4 196.2,109.4 192,112.4 190.1,110.3 		"/>
		<polygon class="st9" points="221,86.8 218.3,83.8 222.4,80.8 224.4,82.9 		"/>
		<polygon class="st9" points="200.2,112 204.1,113.2 202,117.9 199.3,117 		"/>
		<polygon class="st9" points="214.3,81.3 210.4,80 212.5,75.4 215.2,76.2 		"/>
	</g>
	<g>
		<circle class="st8" cx="204.1" cy="144.8" r="16.8"/>
		<polygon class="st9" points="202.5,128 198.5,128.9 198,123.8 200.8,123.1 		"/>
		<polygon class="st9" points="205.7,161.6 209.7,160.8 210.2,165.9 207.4,166.5 		"/>
		<polygon class="st9" points="194.3,131.1 191.3,133.8 188.3,129.6 190.4,127.7 		"/>
		<polygon class="st9" points="213.9,158.6 216.9,155.8 219.9,160 217.8,161.9 		"/>
		<polygon class="st9" points="188.7,137.8 187.5,141.7 182.8,139.5 183.7,136.8 		"/>
		<polygon class="st9" points="219.5,151.8 220.7,148 225.4,150.1 224.5,152.8 		"/>
		<polygon class="st9" points="187.3,146.4 188.2,150.4 183,150.9 182.4,148.1 		"/>
		<polygon class="st9" points="220.9,143.2 220.1,139.2 225.2,138.7 225.8,141.5 		"/>
		<polygon class="st9" points="190.3,154.6 193.1,157.6 188.9,160.6 187,158.5 		"/>
		<polygon class="st9" points="217.9,135 215.1,132 219.3,129 221.2,131.1 		"/>
		<polygon class="st9" points="197.1,160.2 201,161.4 198.8,166.1 196.1,165.2 		"/>
		<polygon class="st9" points="211.1,129.4 207.2,128.2 209.4,123.5 212.1,124.4 		"/>
	</g>
	<g>
		<circle class="st6" cx="99.5" cy="173.6" r="14"/>
		<polygon class="st7" points="98.2,159.5 94.8,160.2 94.4,156 96.7,155.5 		"/>
		<polygon class="st7" points="100.8,187.6 104.2,186.9 104.6,191.2 102.3,191.7 		"/>
		<polygon class="st7" points="91.3,162.1 88.8,164.4 86.3,160.9 88.1,159.3 		"/>
		<polygon class="st7" points="107.7,185.1 110.2,182.8 112.7,186.3 110.9,187.9 		"/>
		<polygon class="st7" points="86.7,167.7 85.6,171 81.7,169.2 82.4,166.9 		"/>
		<polygon class="st7" points="112.4,179.4 113.4,176.2 117.3,178 116.6,180.2 		"/>
		<polygon class="st7" points="85.4,174.9 86.2,178.2 81.9,178.6 81.4,176.3 		"/>
		<polygon class="st7" points="113.6,172.2 112.8,168.9 117.1,168.5 117.6,170.8 		"/>
		<polygon class="st7" points="88,181.8 90.3,184.3 86.8,186.8 85.2,185 		"/>
		<polygon class="st7" points="111,165.4 108.7,162.9 112.2,160.4 113.8,162.1 		"/>
		<polygon class="st7" points="93.6,186.4 96.9,187.5 95.1,191.4 92.8,190.6 		"/>
		<polygon class="st7" points="105.4,160.7 102.1,159.7 103.9,155.8 106.2,156.5 		"/>
	</g>
	<g>
		<circle class="st10" cx="54" cy="143.9" r="25.5"/>
		<polygon class="st11" points="51.5,118.4 45.5,119.7 44.8,112 49,111 		"/>
		<polygon class="st11" points="56.4,169.5 62.5,168.1 63.2,175.9 59,176.8 		"/>
		<polygon class="st11" points="39.1,123 34.5,127.2 30,120.9 33.2,118 		"/>
		<polygon class="st11" points="68.9,164.8 73.4,160.7 77.9,167 74.8,169.9 		"/>
		<polygon class="st11" points="30.6,133.3 28.8,139.2 21.7,135.9 23,131.8 		"/>
		<polygon class="st11" points="77.3,154.6 79.2,148.7 86.3,151.9 85,156 		"/>
		<polygon class="st11" points="28.4,146.4 29.8,152.4 22,153.2 21.1,148.9 		"/>
		<polygon class="st11" points="79.5,141.5 78.2,135.5 85.9,134.7 86.9,138.9 		"/>
		<polygon class="st11" points="33.1,158.8 37.3,163.4 30.9,167.9 28,164.7 		"/>
		<polygon class="st11" points="74.9,129.1 70.7,124.5 77.1,120 80,123.2 		"/>
		<polygon class="st11" points="43.3,167.3 49.2,169.1 46,176.2 41.9,174.9 		"/>
		<polygon class="st11" points="64.6,120.6 58.7,118.7 62,111.6 66.1,112.9 		"/>
	</g>
</g>
</svg>
