<?xml version="1.0" encoding="utf-8"?>
<!-- Generator: Adobe Illustrator 23.0.3, SVG Export Plug-In . SVG Version: 6.00 Build 0)  -->
<svg version="1.1" id="Layer_1" xmlns="http://www.w3.org/2000/svg" xmlns:xlink="http://www.w3.org/1999/xlink" x="0px" y="0px"
	 viewBox="0 0 250 250" style="enable-background:new 0 0 250 250;" xml:space="preserve">
<style type="text/css">
	.st0{fill:#5E5F5F;}
	.st1{fill:#C4E7E8;}
	.st2{fill:none;stroke:#FFFFFF;stroke-width:10;stroke-linecap:round;stroke-linejoin:round;stroke-miterlimit:10;}
	.st3{fill:#FFFFFF;stroke:#FFFFFF;stroke-width:10;stroke-linecap:round;stroke-linejoin:round;stroke-miterlimit:10;}
</style>
<circle class="st0" cx="125" cy="125" r="125"/>
<circle class="st1" cx="125" cy="125" r="122.5"/>
<g>
	<g>
		<line class="st2" x1="82.1" y1="65.7" x2="67" y2="44.6"/>
		<line class="st2" x1="56.4" y1="106.5" x2="30.8" y2="102.3"/>
		<line class="st2" x1="67.1" y1="153.3" x2="46" y2="168.4"/>
		<line class="st2" x1="182.4" y1="82.3" x2="203.5" y2="67.2"/>
		<line class="st2" x1="193.6" y1="129.2" x2="219.2" y2="133.5"/>
		<line class="st2" x1="168.4" y1="170.1" x2="183.5" y2="191.2"/>
	</g>
	<g>
		<line class="st2" x1="136" y1="51.4" x2="140.3" y2="25.8"/>
	</g>
	<path class="st2" d="M145.3,164.6l-1.7,10.5c-1,6.1-6.8,10.3-13,9.3L98.3,179c-6.1-1-10.3-6.8-9.3-13l1.7-10.5l0,0
		c-12.3-11.2-18.8-28.2-15.9-45.9c4.6-27.7,30.8-46.4,58.5-41.8s46.4,30.8,41.8,58.5C172.2,144,160.5,158,145.3,164.6"/>
	<path class="st2" d="M121.9,211.2l-24.4-4c-2-0.3-3.4-2.3-3.1-4.3l3.3-20.1c0.3-2,2.3-3.4,4.3-3.1l24.4,4c2,0.3,3.4,2.3,3.1,4.3
		l-3.3,20.1C125.8,210.2,123.9,211.5,121.9,211.2z"/>
	<line class="st2" x1="96" y1="192.8" x2="127.9" y2="198.1"/>
	<path class="st2" d="M113.4,225.3l-12.6-2.1c-1.9-0.3-3.2-2.1-2.9-4l1.1-6.8c0.3-1.9,2.1-3.2,4-2.9l12.6,2.1c1.9,0.3,3.2,2.1,2.9,4
		l-1.1,6.8C117.1,224.4,115.3,225.6,113.4,225.3z"/>
</g>
<path class="st3" d="M158.5,123.4c-24-31-64.6,10.5-66.9-11.1C94.2,96.2,108.2,84,125,84c18.7,0,33.9,15.2,33.9,33.9
	C158.9,119.8,158.8,121.6,158.5,123.4z"/>
</svg>
