<?xml version="1.0" encoding="utf-8"?>
<!-- Generator: Adobe Illustrator 23.0.3, SVG Export Plug-In . SVG Version: 6.00 Build 0)  -->
<svg version="1.1" id="Layer_1" xmlns="http://www.w3.org/2000/svg" xmlns:xlink="http://www.w3.org/1999/xlink" x="0px" y="0px"
	 viewBox="0 0 250 250" style="enable-background:new 0 0 250 250;" xml:space="preserve">
<style type="text/css">
	.st0{fill:#5E5F5F;}
	.st1{fill:#9AD7D9;}
	.st2{fill:#9AD7D9;stroke:#FFFFFF;stroke-width:10;stroke-miterlimit:10;}
	.st3{fill:#9AD7D9;stroke:#FFFFFF;stroke-width:3;stroke-linecap:round;stroke-linejoin:round;stroke-miterlimit:10;}
	.st4{font-family:'ArialMT';}
	.st5{font-size:62.1166px;}
	.st6{fill:#FFFFFF;stroke:#FFFFFF;stroke-width:3;stroke-linecap:round;stroke-linejoin:round;stroke-miterlimit:10;}
</style>
<circle class="st0" cx="125" cy="125" r="125"/>
<circle class="st1" cx="125" cy="125" r="122.5"/>
<g>
	<g>
		<path class="st2" d="M158.6,194.1l-68.2,30.3c-6,2.7-13.2-0.1-15.8-6.1l-35.7-80.3c-2.7-6,0.1-13.2,6.1-15.8l68.2-30.3
			c6-2.7,13.2,0.1,15.8,6.1l35.7,80.3C167.4,184.3,164.6,191.4,158.6,194.1z"/>
		
			<rect x="55.3" y="108.3" transform="matrix(0.9138 -0.4062 0.4062 0.9138 -53.2053 53.3408)" class="st2" width="87.5" height="87.5"/>
		<text transform="matrix(0.9138 -0.4062 0.4062 0.9138 92.4948 179.6678)" class="st3 st4 st5">$</text>
	</g>
	<g>
		<path class="st2" d="M155.2,159.4l-66.6-33.6c-5.9-3-8.3-10.2-5.3-16.1l39.6-78.5c3-5.9,10.2-8.3,16.1-5.3l66.6,33.6
			c5.9,3,8.3,10.2,5.3,16.1l-39.6,78.5C168.3,160,161.1,162.4,155.2,159.4z"/>
		
			<rect x="106.3" y="43" transform="matrix(0.8929 0.4503 -0.4503 0.8929 55.1192 -58.2902)" class="st2" width="87.5" height="87.5"/>
		<text transform="matrix(0.8929 0.4503 -0.4503 0.8929 124.4495 99.1947)" class="st3 st4 st5">$</text>
	</g>
	<g>
		<path class="st2" d="M172.7,171.1l-74.1,9.2c-6.5,0.8-12.6-3.9-13.4-10.4L74.4,82.6c-0.8-6.5,3.9-12.6,10.4-13.4l74.1-9.2
			c6.5-0.8,12.6,3.9,13.4,10.4l10.8,87.3C183.9,164.3,179.2,170.3,172.7,171.1z"/>
		
			<rect x="84.2" y="69.9" transform="matrix(0.9924 -0.123 0.123 0.9924 -13.0045 16.6005)" class="st2" width="87.5" height="87.5"/>
		<text transform="matrix(0.9924 -0.123 0.123 0.9924 113.5642 138.158)" class="st6 st4 st5">$</text>
	</g>
</g>
</svg>
