<?xml version="1.0" encoding="utf-8"?>
<!-- Generator: Adobe Illustrator 23.0.3, SVG Export Plug-In . SVG Version: 6.00 Build 0)  -->
<svg version="1.1" xmlns="http://www.w3.org/2000/svg" xmlns:xlink="http://www.w3.org/1999/xlink" x="0px" y="0px"
	 viewBox="0 0 663.56 151.2" style="enable-background:new 0 0 663.56 151.2;" xml:space="preserve">
<style type="text/css">
	.st0{fill:#FFFFFF;}
	.st1{fill:none;}
	.st2{fill:#9AD8DA;}
	.st3{fill:#231F20;}
	.st4{fill:#C2E6E7;}
	.st5{font-family:'Futura-Heavy';}
	.st6{font-size:18.4884px;}
	.st7{font-family:'Copperplate';}
	.st8{font-size:98.2931px;}
</style>
<g id="Logo">
	<g>
		<g>
			<circle class="st0" cx="75.6" cy="75.6" r="75.6"/>
		</g>
		<g>
			<path class="st1" d="M75.6,3.6v144c39.76,0,72-32.24,72-72S115.36,3.6,75.6,3.6z"/>
			<path class="st2" d="M3.6,75.6c0,39.76,32.24,72,72,72V3.6C35.84,3.6,3.6,35.84,3.6,75.6z"/>
		</g>
		<g>
			<path class="st1" d="M75.6,3.6c-34.43,0-63.19,24.17-70.3,56.46h28.3v30H5.05c6.69,32.84,35.73,57.54,70.55,57.54
				c39.76,0,72-32.24,72-72S115.36,3.6,75.6,3.6z"/>
			<path class="st3" d="M33.6,60.06H5.3c-1.1,5.01-1.7,10.2-1.7,15.54c0,4.95,0.5,9.79,1.45,14.46H33.6V60.06z"/>
		</g>
		<g>
			<path class="st4" d="M75.6,3.6v144c39.76,0,72-32.24,72-72S115.36,3.6,75.6,3.6z"/>
			<path class="st1" d="M3.6,75.6c0,39.76,32.24,72,72,72V3.6C35.84,3.6,3.6,35.84,3.6,75.6z"/>
		</g>
		<g>
			<path class="st1" d="M117.6,60.06h28.3C138.79,27.77,110.03,3.6,75.6,3.6c-39.76,0-72,32.24-72,72s32.24,72,72,72
				c34.81,0,63.85-24.71,70.55-57.54H117.6V60.06z"/>
			<path class="st3" d="M117.6,60.06v30h28.55c0.95-4.67,1.45-9.5,1.45-14.46c0-5.34-0.6-10.54-1.7-15.54H117.6z"/>
		</g>
		<path class="st3" d="M69.22,46.57l5.87-1.54c3.6-19.25,18.94-25.22,29.03-25.22c2.99,0,7.93,0.41,13.49,2.57
			c-2.47,3.19-5.04,7.21-7.31,11.84l-2.88-1.24l1.34-5.04c-1.34-1.03-4.01-2.57-7.41-2.57c-10.71,0-13.18,15.03-13.9,19.66h13.48
			l-3.4,5.56H86.1c-2.06,11.84-6.69,37.47-11.63,50.85c-6.18,16.68-15.85,29.96-31.19,29.96c-3.5,0-6.69-0.72-9.68-1.96
			c2.06-2.98,2.78-4.12,4.63-7.41c2.26,1.54,5.15,3.19,8.75,3.19c11.53,0,16.16-19.87,18.32-28.93c2.16-9.16,6.9-36.54,8.54-45.71
			h-5.46L69.22,46.57z"/>
		<rect x="12.21" y="67.76" class="st0" width="12.77" height="2.69"/>
		<rect x="17.25" y="68.61" class="st0" width="2.69" height="13.81"/>
		<rect x="117.6" y="66.37" class="st1" width="30" height="18.57"/>
		<text transform="matrix(0.9851 0 0 1 125.8744 82.0453)" class="st0 st5 st6">G</text>
	</g>
</g>
<g id="Border">
	<text transform="matrix(1.2 0 0 1 165.5782 100.2715)" class="st0 st7 st8">FORMAT</text>
</g>
</svg>
