<?xml version="1.0" encoding="utf-8"?>
<!-- Generator: Adobe Illustrator 23.0.3, SVG Export Plug-In . SVG Version: 6.00 Build 0)  -->
<svg version="1.1" id="Layer_1" xmlns="http://www.w3.org/2000/svg" xmlns:xlink="http://www.w3.org/1999/xlink" x="0px" y="0px"
	 viewBox="0 0 250 250" style="enable-background:new 0 0 250 250;" xml:space="preserve">
<style type="text/css">
	.st0{fill:#C4E7E8;}
	.st1{fill:none;stroke:#FFFFFF;stroke-width:10;stroke-miterlimit:10;}
	.st2{fill:#FFFFFF;stroke:#FFFFFF;stroke-width:10;stroke-linecap:round;stroke-linejoin:round;stroke-miterlimit:10;}
	.st3{fill:none;stroke:#FFFFFF;stroke-width:10;stroke-linecap:round;stroke-linejoin:round;stroke-miterlimit:10;}
	.st4{fill:none;stroke:#C4E7E8;stroke-width:1.5;stroke-miterlimit:10;}
	.st5{fill:#FFFFFF;}
</style>
<circle class="st0" cx="125" cy="125" r="125"/>
<g>
	<g>
		<polyline class="st1" points="118.41,116.45 107.58,127.41 104.66,140.78 116.92,134.69 124.9,121.51 		"/>
	</g>
	
		<rect x="117.64" y="108.96" transform="matrix(0.7888 0.6146 -0.6146 0.7888 96.821 -52.6879)" class="st2" width="14.9" height="11.2"/>
	
		<rect x="118.56" y="100.13" transform="matrix(0.7888 0.6146 -0.6146 0.7888 92.8456 -58.7827)" class="st2" width="26.81" height="11.2"/>
	
		<rect x="155.41" y="25.83" transform="matrix(0.7888 0.6146 -0.6146 0.7888 75.8779 -84.7962)" class="st3" width="11.87" height="84.38"/>
	<path class="st3" d="M191.95,38.39c2.01-2.58,1.55-6.31-1.03-8.33v0c-2.58-2.01-6.31-1.55-8.33,1.03"/>
	<line class="st4" x1="116.76" y1="125.25" x2="95.37" y2="152.72"/>
	<g>
		<path class="st5" d="M58.86,216.25c5.07-1.95,10.26-4.19,15.29-6.53c5.04-2.36,10-4.88,14.79-7.63c4.77-2.77,9.42-5.76,13.48-9.23
			c2.02-1.73,3.9-3.6,5.33-5.62c1.43-2.01,2.38-4.18,2.21-6.14c-0.07-0.99-0.4-1.96-0.98-2.9c-0.59-0.94-1.43-1.82-2.37-2.64
			c-1.93-1.62-4.29-2.94-6.77-4.05c-1.24-0.54-2.52-1.06-3.87-1.6c-1.33-0.54-2.65-1.09-3.96-1.67c-2.63-1.15-5.22-2.39-7.75-3.81
			c-1.26-0.72-2.5-1.49-3.69-2.37c-1.18-0.89-2.35-1.86-3.27-3.22c-0.43-0.69-0.82-1.53-0.8-2.49c0.01-0.96,0.47-1.85,1.03-2.44
			c1.15-1.21,2.53-1.82,3.89-2.35c2.74-1.02,5.55-1.55,8.36-1.98c2.81-0.41,5.64-0.69,8.47-0.83c-2.81,0.35-5.6,0.83-8.36,1.44
			c-2.74,0.63-5.48,1.37-7.99,2.52c-1.23,0.58-2.44,1.29-3.18,2.22c-0.76,0.93-0.63,1.88,0.12,2.85c0.74,0.95,1.83,1.77,2.96,2.48
			c1.14,0.72,2.36,1.36,3.61,1.95c2.51,1.17,5.11,2.19,7.75,3.12c1.32,0.46,2.65,0.91,3.98,1.34c1.32,0.41,2.7,0.86,4.1,1.35
			c2.76,1.01,5.5,2.25,8.07,4.09c1.27,0.95,2.5,2.04,3.53,3.43c1.02,1.39,1.8,3.11,2.08,4.93c0.29,1.83,0.07,3.67-0.41,5.32
			c-0.49,1.65-1.22,3.14-2.04,4.5c-0.82,1.37-1.75,2.63-2.73,3.8c-0.97,1.19-2.01,2.29-3.07,3.34c-4.26,4.22-8.95,7.72-13.74,11
			c-4.81,3.26-9.75,6.25-14.78,9.07c-5.05,2.82-10.09,5.46-15.42,7.97c-2.5,1.18-5.48,0.11-6.66-2.39c-1.18-2.5-0.11-5.48,2.39-6.66
			c0.11-0.05,0.22-0.1,0.33-0.14L58.86,216.25z"/>
	</g>
	<circle class="st0" cx="116.73" cy="125.29" r="2.22"/>
</g>
<g>
	<g>
		<path d="M37.57,80.99h7.42v1.98h-4.9v3.1h4.48v1.98h-4.48v3.53h4.93v1.98h-7.45V80.99z"/>
		<path d="M47.57,80.99h3.44c3.85,0,7.26,1.3,7.26,6.28c0,4.99-3.4,6.28-7.26,6.28h-3.44V80.99z M50.1,91.58h1.4
			c2.11,0,4.14-1.57,4.14-4.3s-2.03-4.3-4.14-4.3h-1.4V91.58z"/>
		<path d="M60.35,80.99h2.52v12.57h-2.52V80.99z"/>
		<path d="M67.86,82.98h-3.6v-1.98h9.72v1.98h-3.6v10.59h-2.52V82.98z"/>
		<path d="M81.13,80.78c3.94,0,6.16,2.66,6.16,6.46s-2.18,6.54-6.16,6.54c-4.03,0-6.16-2.68-6.16-6.54S77.13,80.78,81.13,80.78z
			 M81.13,91.8c2.58,0,3.53-2.29,3.53-4.56c0-2.21-1.03-4.48-3.53-4.48c-2.5,0-3.53,2.27-3.53,4.48
			C77.6,89.51,78.55,91.8,81.13,91.8z"/>
		<path d="M89.37,80.99h2.72c2.7,0,5.92-0.09,5.92,3.4c0,1.48-0.99,2.7-2.59,2.92v0.04c0.68,0.05,1.08,0.74,1.33,1.3l2.02,4.92
			h-2.81l-1.51-3.93c-0.36-0.94-0.68-1.3-1.75-1.3h-0.81v5.22h-2.52V80.99z M91.89,86.36h0.83c1.24,0,2.67-0.18,2.67-1.75
			c0-1.51-1.4-1.64-2.67-1.64h-0.83V86.36z"/>
		<path d="M100.37,80.99h2.52v12.57h-2.52V80.99z"/>
		<path d="M109.19,80.99h2.84l4.93,12.57h-2.79l-1.08-2.88H108l-1.1,2.88h-2.61L109.19,80.99z M110.58,83.52h-0.04l-1.82,5.19h3.67
			L110.58,83.52z"/>
		<path d="M118.58,80.99h2.52v10.59h4.88v1.98h-7.4V80.99z"/>
		<path d="M139.34,83.3c-0.79-0.34-1.67-0.54-2.56-0.54c-0.86,0-1.98,0.38-1.98,1.75c0,2.18,5.51,1.26,5.51,5.47
			c0,2.75-2.18,3.8-4.72,3.8c-1.37,0-1.98-0.18-3.22-0.49l0.23-2.27c0.86,0.47,1.85,0.77,2.84,0.77c0.95,0,2.23-0.49,2.23-1.62
			c0-2.4-5.51-1.4-5.51-5.56c0-2.81,2.18-3.83,4.39-3.83c1.08,0,2.09,0.14,3.01,0.45L139.34,83.3z"/>
		<path d="M142.6,80.99h7.42v1.98h-4.9v3.1h4.48v1.98h-4.48v3.53h4.93v1.98h-7.45V80.99z"/>
		<path d="M152.39,80.99h2.72c2.7,0,5.92-0.09,5.92,3.4c0,1.48-0.99,2.7-2.59,2.92v0.04c0.68,0.05,1.08,0.74,1.33,1.3l2.02,4.92
			h-2.81l-1.51-3.93c-0.36-0.94-0.68-1.3-1.75-1.3h-0.81v5.22h-2.52V80.99z M154.91,86.36h0.83c1.24,0,2.67-0.18,2.67-1.75
			c0-1.51-1.41-1.64-2.67-1.64h-0.83V86.36z"/>
		<path d="M162,80.99h2.7l3.22,9.87h0.04l3.19-9.87h2.5l-4.23,12.57h-3.1L162,80.99z"/>
		<path d="M175.07,80.99h2.52v12.57h-2.52V80.99z"/>
		<path d="M189.44,93.38c-0.92,0.22-1.91,0.4-2.86,0.4c-4.07,0-6.9-2.03-6.9-6.28c0-4.3,2.63-6.72,6.9-6.72
			c0.83,0,1.93,0.16,2.84,0.52l-0.18,2.12c-0.96-0.54-1.82-0.67-2.72-0.67c-2.59,0-4.21,1.98-4.21,4.56c0,2.56,1.58,4.48,4.27,4.48
			c0.99,0,2.16-0.22,2.75-0.52L189.44,93.38z"/>
		<path d="M191.29,80.99h7.42v1.98h-4.9v3.1h4.48v1.98h-4.48v3.53h4.93v1.98h-7.45V80.99z"/>
		<path d="M208.05,83.3c-0.79-0.34-1.67-0.54-2.56-0.54c-0.86,0-1.98,0.38-1.98,1.75c0,2.18,5.51,1.26,5.51,5.47
			c0,2.75-2.18,3.8-4.72,3.8c-1.37,0-1.98-0.18-3.22-0.49l0.23-2.27c0.86,0.47,1.85,0.77,2.84,0.77c0.95,0,2.23-0.49,2.23-1.62
			c0-2.4-5.51-1.4-5.51-5.56c0-2.81,2.18-3.83,4.39-3.83c1.08,0,2.09,0.14,3.01,0.45L208.05,83.3z"/>
	</g>
	<g>
		<path d="M30.83,113.09h1.32l2,7.17h0.02l1.79-7.17h1.7l1.81,7.17h0.02l2-7.17h1.27l-2.58,8.37h-1.55l-1.82-7.32h-0.02l-1.83,7.32
			h-1.61L30.83,113.09z"/>
		<path d="M48.1,121.21c-0.43,0.16-0.92,0.4-1.93,0.4c-2.17,0-3.17-1.32-3.17-3.31c0-1.81,1.14-3.09,2.87-3.09
			c2.04,0,2.7,1.49,2.7,3.45H44.2c0,1.21,0.95,2.04,2.02,2.04c0.74,0,1.61-0.38,1.88-0.61V121.21z M47.37,117.81
			c0-0.94-0.55-1.7-1.52-1.7c-1.1,0-1.56,0.91-1.64,1.7H47.37z"/>
		<path d="M53.42,115.34h1.08v0.86h0.02c0.3-0.46,1-1.01,2.07-1.01c1.77,0,2.64,1.45,2.64,3.09c0,1.68-0.78,3.31-2.63,3.31
			c-1.08,0-1.69-0.42-2.04-0.98h-0.02v3.36h-1.13V115.34z M56.36,116.11c-1.22,0-1.81,1.16-1.81,2.3c0,1.02,0.53,2.28,1.8,2.28
			c1.21,0,1.72-1.36,1.69-2.31C58.06,117.27,57.58,116.11,56.36,116.11z"/>
		<path d="M60.75,115.34h1.06v0.95h0.02c0.3-0.64,0.95-1.09,1.59-1.09c0.34,0,0.5,0.04,0.74,0.08v1.01
			c-0.2-0.08-0.43-0.11-0.62-0.11c-1.01,0-1.67,0.96-1.67,2.49v2.78h-1.13V115.34z"/>
		<path d="M68.13,115.2c1.86,0,3.11,1.34,3.11,3.2c0,1.75-1.27,3.2-3.11,3.2c-1.85,0-3.12-1.45-3.12-3.2
			C65.01,116.54,66.26,115.2,68.13,115.2z M68.13,120.69c1.32,0,1.91-1.2,1.91-2.29c0-1.16-0.71-2.29-1.91-2.29
			c-1.21,0-1.92,1.13-1.92,2.29C66.21,119.49,66.8,120.69,68.13,120.69z"/>
		<path d="M75.46,121.46h-1.34l-2.19-6.12h1.24l1.66,4.99h0.02l1.69-4.99h1.13L75.46,121.46z"/>
		<path d="M80.1,113.98h-1.27v-1.27h1.27V113.98z M78.9,115.34h1.13v6.12H78.9V115.34z"/>
		<path d="M86.42,120.6h-0.02c-0.3,0.46-1,1.01-2.09,1.01c-1.85,0-2.63-1.64-2.63-3.31c0-1.64,0.86-3.09,2.64-3.09
			c1.07,0,1.68,0.42,2.03,0.98h0.02v-3.72h1.13v9h-1.08V120.6z M84.57,120.69c1.27,0,1.8-1.26,1.8-2.28c0-1.14-0.59-2.3-1.81-2.3
			c-1.22,0-1.7,1.15-1.68,2.27C82.86,119.34,83.36,120.69,84.57,120.69z"/>
		<path d="M94.11,121.21c-0.43,0.16-0.92,0.4-1.93,0.4c-2.17,0-3.17-1.32-3.17-3.31c0-1.81,1.14-3.09,2.87-3.09
			c2.04,0,2.7,1.49,2.7,3.45h-4.37c0,1.21,0.95,2.04,2.02,2.04c0.74,0,1.61-0.38,1.88-0.61V121.21z M93.38,117.81
			c0-0.94-0.55-1.7-1.52-1.7c-1.1,0-1.56,0.91-1.64,1.7H93.38z"/>
		<path d="M106.35,121.46h-1.31l-1.58-5.13h-0.02l-1.55,5.13h-1.31l-1.97-6.12h1.24l1.4,5.06h0.02l1.56-5.06h1.33l1.54,5.06h0.02
			l1.49-5.06h1.1L106.35,121.46z"/>
		<path d="M109.42,115.34h1.06v0.95h0.02c0.3-0.64,0.95-1.09,1.59-1.09c0.34,0,0.5,0.04,0.74,0.08v1.01
			c-0.2-0.08-0.43-0.11-0.62-0.11c-1.01,0-1.67,0.96-1.67,2.49v2.78h-1.13V115.34z"/>
		<path d="M115.44,113.98h-1.27v-1.27h1.27V113.98z M114.24,115.34h1.13v6.12h-1.13V115.34z"/>
		<path d="M120.68,116.26h-1.62v3.35c0,0.71,0.43,1.09,0.95,1.09c0.35,0,0.6-0.11,0.77-0.22v0.96c-0.25,0.07-0.6,0.17-0.96,0.17
			c-1.16,0-1.88-0.55-1.88-1.78v-3.57h-1.38v-0.91h1.38v-1.42l1.13-0.36v1.77h1.62V116.26z"/>
		<path d="M123.44,113.98h-1.27v-1.27h1.27V113.98z M122.24,115.34h1.13v6.12h-1.13V115.34z"/>
		<path d="M125.43,115.34h1.09v0.97h0.02c0.34-0.7,1.15-1.12,2-1.12c1.58,0,2.29,0.98,2.29,2.63v3.63h-1.13v-3.17
			c0-1.43-0.31-2.12-1.29-2.18c-1.28,0-1.86,1.03-1.86,2.52v2.83h-1.13V115.34z"/>
		<path d="M138.17,121.2c0,1.86-0.96,2.93-3.15,2.93c-0.65,0-1.21-0.08-2.2-0.42l0.12-1.04c0.86,0.4,1.38,0.55,2.21,0.55
			c1.19,0,1.89-0.8,1.89-2.1v-0.6h-0.02c-0.48,0.64-1.27,0.95-2.05,0.95c-1.75,0-2.62-1.43-2.62-3.01c0-1.57,0.89-3.25,2.73-3.25
			c1.08,0,1.68,0.4,2.02,1.06h0.02v-0.91h1.04V121.2z M137.05,118.47c0-1.27-0.59-2.36-1.79-2.36c-1.14,0-1.7,1.24-1.7,2.28
			c0,1.15,0.65,2.16,1.7,2.16C136.31,120.55,137.05,119.61,137.05,118.47z"/>
		<path d="M140.13,120.12h1.34l-1.02,2.94h-1.08L140.13,120.12z"/>
		<path d="M150.65,116.38c-0.43-0.18-0.86-0.26-1.22-0.26c-1.26,0-1.97,1.13-1.97,2.29c0,1.09,0.59,2.29,2.04,2.29
			c0.38,0,0.86-0.12,1.21-0.35l0.08,1.01c-0.47,0.22-1.01,0.25-1.42,0.25c-1.85,0-3.12-1.45-3.12-3.2c0-1.86,1.25-3.2,3.12-3.2
			c0.46,0,1.04,0.11,1.37,0.24L150.65,116.38z"/>
		<path d="M154.81,115.2c1.86,0,3.11,1.34,3.11,3.2c0,1.75-1.27,3.2-3.11,3.2c-1.85,0-3.12-1.45-3.12-3.2
			C151.69,116.54,152.94,115.2,154.81,115.2z M154.81,120.69c1.32,0,1.91-1.2,1.91-2.29c0-1.16-0.71-2.29-1.91-2.29
			c-1.21,0-1.92,1.13-1.92,2.29C152.89,119.49,153.48,120.69,154.81,120.69z"/>
		<path d="M159.43,115.34h1.08v0.86h0.02c0.3-0.46,1-1.01,2.08-1.01c1.77,0,2.64,1.45,2.64,3.09c0,1.68-0.78,3.31-2.63,3.31
			c-1.08,0-1.69-0.42-2.04-0.98h-0.02v3.36h-1.13V115.34z M162.37,116.11c-1.22,0-1.81,1.16-1.81,2.3c0,1.02,0.53,2.28,1.8,2.28
			c1.21,0,1.71-1.36,1.69-2.31C164.07,117.27,163.59,116.11,162.37,116.11z"/>
		<path d="M166.3,123.12c0.14,0.05,0.33,0.1,0.53,0.1c1.01,0,1.34-1.39,1.34-1.51c0-0.13-0.14-0.44-0.22-0.65l-2.07-5.71h1.24
			l1.64,5.06h0.02l1.68-5.06h1.14l-2.25,6.25c-0.42,1.18-0.86,2.53-2.35,2.53c-0.36,0-0.56-0.05-0.77-0.08L166.3,123.12z"/>
		<path d="M177.45,121.21c-0.43,0.16-0.92,0.4-1.93,0.4c-2.17,0-3.17-1.32-3.17-3.31c0-1.81,1.14-3.09,2.87-3.09
			c2.04,0,2.7,1.49,2.7,3.45h-4.37c0,1.21,0.95,2.04,2.01,2.04c0.74,0,1.61-0.38,1.88-0.61V121.21z M176.72,117.81
			c0-0.94-0.55-1.7-1.52-1.7c-1.1,0-1.56,0.91-1.64,1.7H176.72z"/>
		<path d="M183.76,120.6h-0.02c-0.3,0.46-1,1.01-2.09,1.01c-1.85,0-2.63-1.64-2.63-3.31c0-1.64,0.86-3.09,2.64-3.09
			c1.07,0,1.68,0.42,2.03,0.98h0.02v-3.72h1.13v9h-1.08V120.6z M181.91,120.69c1.27,0,1.8-1.26,1.8-2.28c0-1.14-0.59-2.3-1.81-2.3
			c-1.22,0-1.7,1.15-1.68,2.27C180.2,119.34,180.7,120.69,181.91,120.69z"/>
		<path d="M188.11,113.98h-1.27v-1.27h1.27V113.98z M186.91,115.34h1.13v6.12h-1.13V115.34z"/>
		<path d="M193.35,116.26h-1.62v3.35c0,0.71,0.43,1.09,0.95,1.09c0.35,0,0.6-0.11,0.77-0.22v0.96c-0.25,0.07-0.6,0.17-0.96,0.17
			c-1.16,0-1.88-0.55-1.88-1.78v-3.57h-1.38v-0.91h1.38v-1.42l1.13-0.36v1.77h1.62V116.26z"/>
		<path d="M196.11,113.98h-1.27v-1.27h1.27V113.98z M194.91,115.34h1.13v6.12h-1.13V115.34z"/>
		<path d="M198.1,115.34h1.09v0.97h0.02c0.34-0.7,1.15-1.12,2-1.12c1.58,0,2.29,0.98,2.29,2.63v3.63h-1.13v-3.17
			c0-1.43-0.31-2.12-1.3-2.18c-1.28,0-1.86,1.03-1.86,2.52v2.83h-1.13V115.34z"/>
		<path d="M210.84,121.2c0,1.86-0.96,2.93-3.15,2.93c-0.65,0-1.21-0.08-2.19-0.42l0.12-1.04c0.86,0.4,1.38,0.55,2.21,0.55
			c1.19,0,1.9-0.8,1.9-2.1v-0.6h-0.02c-0.48,0.64-1.27,0.95-2.05,0.95c-1.75,0-2.61-1.43-2.61-3.01c0-1.57,0.89-3.25,2.73-3.25
			c1.08,0,1.68,0.4,2.01,1.06h0.02v-0.91h1.04V121.2z M209.72,118.47c0-1.27-0.59-2.36-1.79-2.36c-1.14,0-1.7,1.24-1.7,2.28
			c0,1.15,0.65,2.16,1.7,2.16S209.72,119.61,209.72,118.47z"/>
		<path d="M212.8,120.12h1.34l-1.02,2.94h-1.08L212.8,120.12z"/>
		<path d="M50.6,129.74h1.08v0.86h0.02c0.3-0.46,1-1.01,2.07-1.01c1.77,0,2.64,1.45,2.64,3.09c0,1.68-0.78,3.31-2.63,3.31
			c-1.08,0-1.69-0.42-2.04-0.98h-0.02v3.36H50.6V129.74z M53.54,130.51c-1.22,0-1.81,1.16-1.81,2.3c0,1.02,0.53,2.28,1.8,2.28
			c1.21,0,1.72-1.36,1.69-2.32C55.24,131.67,54.76,130.51,53.54,130.51z"/>
		<path d="M57.93,129.74h1.06v0.95h0.02c0.3-0.64,0.95-1.09,1.59-1.09c0.34,0,0.5,0.04,0.74,0.08v1.01
			c-0.2-0.08-0.43-0.11-0.62-0.11c-1.01,0-1.67,0.96-1.67,2.5v2.78h-1.13V129.74z"/>
		<path d="M65.31,129.6c1.86,0,3.11,1.34,3.11,3.2c0,1.75-1.27,3.2-3.11,3.2c-1.85,0-3.12-1.45-3.12-3.2
			C62.19,130.94,63.44,129.6,65.31,129.6z M65.31,135.09c1.32,0,1.91-1.2,1.91-2.29c0-1.16-0.71-2.29-1.91-2.29
			c-1.21,0-1.92,1.13-1.92,2.29C63.39,133.89,63.98,135.09,65.31,135.09z"/>
		<path d="M74.26,135h-0.02c-0.3,0.46-1,1.01-2.09,1.01c-1.85,0-2.63-1.64-2.63-3.31c0-1.64,0.86-3.09,2.64-3.09
			c1.07,0,1.68,0.42,2.03,0.98h0.02v-3.72h1.13v9h-1.08V135z M72.41,135.09c1.27,0,1.8-1.26,1.8-2.28c0-1.14-0.59-2.3-1.81-2.3
			s-1.7,1.15-1.68,2.27C70.7,133.74,71.2,135.09,72.41,135.09z"/>
		<path d="M82.67,135.86h-1.09v-0.97h-0.02c-0.34,0.7-1.15,1.12-2,1.12c-1.58,0-2.29-0.98-2.29-2.63v-3.63h1.13v3.17
			c0,1.43,0.31,2.12,1.3,2.18c1.28,0,1.86-1.03,1.86-2.52v-2.83h1.13V135.86z"/>
		<path d="M88.48,130.78c-0.43-0.18-0.86-0.26-1.22-0.26c-1.26,0-1.97,1.13-1.97,2.29c0,1.09,0.59,2.29,2.04,2.29
			c0.38,0,0.86-0.12,1.21-0.35l0.08,1.01c-0.47,0.22-1.01,0.25-1.42,0.25c-1.85,0-3.12-1.45-3.12-3.2c0-1.86,1.25-3.2,3.12-3.2
			c0.46,0,1.04,0.11,1.37,0.24L88.48,130.78z"/>
		<path d="M93.17,130.66h-1.62V134c0,0.71,0.43,1.09,0.95,1.09c0.35,0,0.6-0.11,0.77-0.22v0.96c-0.25,0.07-0.6,0.17-0.96,0.17
			c-1.16,0-1.88-0.55-1.88-1.77v-3.57h-1.38v-0.91h1.38v-1.42l1.13-0.36v1.77h1.62V130.66z"/>
		<path d="M95.94,128.38h-1.27v-1.27h1.27V128.38z M94.74,129.74h1.13v6.12h-1.13V129.74z"/>
		<path d="M100.64,129.6c1.86,0,3.11,1.34,3.11,3.2c0,1.75-1.27,3.2-3.11,3.2c-1.85,0-3.12-1.45-3.12-3.2
			C97.52,130.94,98.77,129.6,100.64,129.6z M100.64,135.09c1.32,0,1.91-1.2,1.91-2.29c0-1.16-0.71-2.29-1.91-2.29
			c-1.21,0-1.92,1.13-1.92,2.29C98.72,133.89,99.31,135.09,100.64,135.09z"/>
		<path d="M105.26,129.74h1.09v0.97h0.02c0.34-0.7,1.15-1.12,2-1.12c1.58,0,2.29,0.98,2.29,2.63v3.63h-1.13v-3.17
			c0-1.43-0.31-2.12-1.3-2.18c-1.28,0-1.86,1.03-1.86,2.52v2.83h-1.13V129.74z"/>
		<path d="M112.63,134.52h1.34l-1.02,2.94h-1.08L112.63,134.52z"/>
		<path d="M119.26,129.74h1.08v0.86h0.02c0.3-0.46,1-1.01,2.07-1.01c1.77,0,2.64,1.45,2.64,3.09c0,1.68-0.78,3.31-2.63,3.31
			c-1.08,0-1.69-0.42-2.04-0.98h-0.02v3.36h-1.13V129.74z M122.2,130.51c-1.22,0-1.81,1.16-1.81,2.3c0,1.02,0.53,2.28,1.8,2.28
			c1.21,0,1.72-1.36,1.69-2.32C123.91,131.67,123.43,130.51,122.2,130.51z"/>
		<path d="M126.6,129.74h1.06v0.95h0.02c0.3-0.64,0.95-1.09,1.59-1.09c0.34,0,0.5,0.04,0.74,0.08v1.01
			c-0.2-0.08-0.43-0.11-0.62-0.11c-1.01,0-1.67,0.96-1.67,2.5v2.78h-1.13V129.74z"/>
		<path d="M133.97,129.6c1.86,0,3.11,1.34,3.11,3.2c0,1.75-1.27,3.2-3.11,3.2c-1.85,0-3.12-1.45-3.12-3.2
			C130.86,130.94,132.1,129.6,133.97,129.6z M133.97,135.09c1.32,0,1.91-1.2,1.91-2.29c0-1.16-0.71-2.29-1.91-2.29
			c-1.21,0-1.92,1.13-1.92,2.29C132.05,133.89,132.64,135.09,133.97,135.09z"/>
		<path d="M141.31,129.6c1.86,0,3.11,1.34,3.11,3.2c0,1.75-1.27,3.2-3.11,3.2c-1.85,0-3.12-1.45-3.12-3.2
			C138.19,130.94,139.43,129.6,141.31,129.6z M141.31,135.09c1.32,0,1.91-1.2,1.91-2.29c0-1.16-0.71-2.29-1.91-2.29
			c-1.21,0-1.92,1.13-1.92,2.29C139.39,133.89,139.97,135.09,141.31,135.09z"/>
		<path d="M146.66,130.66h-1.44v-0.91h1.44v-0.56c0-1.49,0.38-2.46,2.05-2.46c0.29,0,0.53,0.04,0.76,0.07l-0.05,0.91
			c-0.13-0.05-0.35-0.07-0.54-0.07c-0.97,0-1.09,0.62-1.09,1.45v0.66h1.62v0.91h-1.62v5.21h-1.13V130.66z"/>
		<path d="M150.6,129.74h1.06v0.95h0.02c0.3-0.64,0.95-1.09,1.59-1.09c0.34,0,0.5,0.04,0.74,0.08v1.01
			c-0.2-0.08-0.43-0.11-0.62-0.11c-1.01,0-1.67,0.96-1.67,2.5v2.78h-1.13V129.74z"/>
		<path d="M159.95,135.61c-0.43,0.16-0.92,0.4-1.93,0.4c-2.17,0-3.17-1.32-3.17-3.31c0-1.81,1.14-3.09,2.87-3.09
			c2.04,0,2.7,1.49,2.7,3.45h-4.37c0,1.21,0.95,2.04,2.02,2.04c0.74,0,1.61-0.38,1.88-0.61V135.61z M159.22,132.21
			c0-0.94-0.55-1.7-1.52-1.7c-1.1,0-1.56,0.91-1.64,1.7H159.22z"/>
		<path d="M162.22,130.17c0.56-0.33,1.23-0.58,2.01-0.58c1.75,0,2.46,0.86,2.46,2.53v2.53c0,0.7,0.02,1.02,0.05,1.2h-1.06v-0.79
			h-0.02c-0.26,0.37-0.86,0.94-1.89,0.94c-1.32,0-2.24-0.58-2.24-1.91c0-1.54,1.68-2.01,2.84-2.01c0.44,0,0.76,0,1.2,0.02
			c0-1.06-0.38-1.6-1.51-1.6c-0.64,0-1.32,0.24-1.78,0.62L162.22,130.17z M165.57,132.95c-0.24,0-0.48-0.02-0.72-0.02
			c-0.61,0-2.12,0.1-2.12,1.17c0,0.65,0.62,1,1.14,1c1.12,0,1.7-0.7,1.7-1.61V132.95z"/>
		<path d="M172.94,135h-0.02c-0.3,0.46-1,1.01-2.09,1.01c-1.85,0-2.63-1.64-2.63-3.31c0-1.64,0.86-3.09,2.64-3.09
			c1.07,0,1.68,0.42,2.03,0.98h0.02v-3.72h1.13v9h-1.08V135z M171.09,135.09c1.27,0,1.8-1.26,1.8-2.28c0-1.14-0.59-2.3-1.81-2.3
			c-1.22,0-1.7,1.15-1.68,2.27C169.38,133.74,169.88,135.09,171.09,135.09z"/>
		<path d="M177.28,128.38h-1.27v-1.27h1.27V128.38z M176.08,129.74h1.13v6.12h-1.13V129.74z"/>
		<path d="M179.28,129.74h1.09v0.97h0.02c0.34-0.7,1.15-1.12,2-1.12c1.58,0,2.29,0.98,2.29,2.63v3.63h-1.13v-3.17
			c0-1.43-0.31-2.12-1.29-2.18c-1.28,0-1.86,1.03-1.86,2.52v2.83h-1.13V129.74z"/>
		<path d="M192.02,135.6c0,1.86-0.96,2.93-3.15,2.93c-0.65,0-1.21-0.08-2.2-0.42l0.12-1.04c0.86,0.4,1.38,0.55,2.21,0.55
			c1.19,0,1.89-0.8,1.89-2.1v-0.6h-0.02c-0.48,0.63-1.27,0.95-2.05,0.95c-1.75,0-2.62-1.43-2.62-3.01c0-1.57,0.89-3.25,2.73-3.25
			c1.08,0,1.68,0.4,2.02,1.06h0.02v-0.91h1.04V135.6z M190.89,132.87c0-1.27-0.59-2.36-1.79-2.36c-1.14,0-1.7,1.24-1.7,2.28
			c0,1.15,0.65,2.16,1.7,2.16C190.16,134.95,190.89,134.01,190.89,132.87z"/>
		<path d="M193.98,134.52h1.34l-1.02,2.94h-1.08L193.98,134.52z"/>
		<path d="M34.66,145.05h-1.44v-0.91h1.44v-0.56c0-1.49,0.38-2.46,2.05-2.46c0.29,0,0.53,0.04,0.76,0.07l-0.05,0.91
			c-0.13-0.05-0.35-0.07-0.54-0.07c-0.97,0-1.09,0.62-1.09,1.45v0.66h1.62v0.91h-1.62v5.21h-1.13V145.05z"/>
		<path d="M38.89,144.58c0.56-0.34,1.24-0.58,2.02-0.58c1.75,0,2.46,0.86,2.46,2.53v2.53c0,0.7,0.02,1.02,0.05,1.2h-1.06v-0.79
			h-0.02c-0.26,0.37-0.86,0.94-1.9,0.94c-1.32,0-2.24-0.58-2.24-1.91c0-1.54,1.68-2.01,2.84-2.01c0.44,0,0.76,0,1.2,0.02
			c0-1.06-0.38-1.59-1.51-1.59c-0.64,0-1.32,0.24-1.78,0.62L38.89,144.58z M42.23,147.35c-0.24,0-0.48-0.02-0.72-0.02
			c-0.61,0-2.12,0.1-2.12,1.18c0,0.65,0.62,1,1.14,1c1.12,0,1.7-0.7,1.7-1.61V147.35z"/>
		<path d="M49.16,145.17c-0.43-0.18-0.86-0.26-1.22-0.26c-1.26,0-1.97,1.13-1.97,2.29c0,1.09,0.59,2.29,2.04,2.29
			c0.38,0,0.86-0.12,1.21-0.35l0.08,1.01c-0.47,0.22-1.01,0.25-1.42,0.25c-1.85,0-3.12-1.45-3.12-3.2c0-1.86,1.25-3.2,3.12-3.2
			c0.46,0,1.04,0.11,1.37,0.24L49.16,145.17z"/>
		<path d="M53.85,145.05h-1.62v3.35c0,0.71,0.43,1.09,0.95,1.09c0.35,0,0.6-0.11,0.77-0.22v0.96c-0.25,0.07-0.6,0.17-0.96,0.17
			c-1.16,0-1.88-0.55-1.88-1.78v-3.57h-1.38v-0.91h1.38v-1.42l1.13-0.36v1.78h1.62V145.05z"/>
		<path d="M54.76,146.58h3.08v0.91h-3.08V146.58z"/>
		<path d="M63.15,145.17c-0.43-0.18-0.86-0.26-1.22-0.26c-1.26,0-1.97,1.13-1.97,2.29c0,1.09,0.59,2.29,2.04,2.29
			c0.38,0,0.86-0.12,1.21-0.35l0.08,1.01c-0.47,0.22-1.01,0.25-1.42,0.25c-1.85,0-3.12-1.45-3.12-3.2c0-1.86,1.25-3.2,3.12-3.2
			c0.46,0,1.04,0.11,1.37,0.24L63.15,145.17z"/>
		<path d="M64.59,141.26h1.13v3.75h0.02c0.41-0.65,1.12-1.02,1.97-1.02c1.58,0,2.29,0.98,2.29,2.63v3.63h-1.13v-3.17
			c0-1.43-0.31-2.12-1.3-2.18c-1.28,0-1.86,1.03-1.86,2.52v2.83h-1.13V141.26z"/>
		<path d="M76.61,150.01c-0.43,0.16-0.92,0.4-1.93,0.4c-2.17,0-3.17-1.32-3.17-3.31c0-1.81,1.14-3.09,2.87-3.09
			c2.04,0,2.7,1.49,2.7,3.45h-4.37c0,1.21,0.95,2.04,2.02,2.04c0.74,0,1.61-0.38,1.88-0.61V150.01z M75.88,146.61
			c0-0.94-0.55-1.7-1.52-1.7c-1.1,0-1.56,0.91-1.64,1.7H75.88z"/>
		<path d="M82.48,145.17c-0.43-0.18-0.86-0.26-1.22-0.26c-1.26,0-1.97,1.13-1.97,2.29c0,1.09,0.59,2.29,2.04,2.29
			c0.38,0,0.86-0.12,1.21-0.35l0.08,1.01c-0.47,0.22-1.01,0.25-1.42,0.25c-1.85,0-3.12-1.45-3.12-3.2c0-1.86,1.25-3.2,3.12-3.2
			c0.46,0,1.04,0.11,1.37,0.24L82.48,145.17z"/>
		<path d="M83.92,141.26h1.13v5.36l2.46-2.48h1.54l-2.84,2.71l3.2,3.41h-1.62l-2.73-3.14v3.14h-1.13V141.26z"/>
		<path d="M91.94,142.78h-1.27v-1.27h1.27V142.78z M90.74,144.14h1.13v6.12h-1.13V144.14z"/>
		<path d="M93.93,144.14h1.09v0.97h0.02c0.34-0.7,1.15-1.12,2-1.12c1.58,0,2.29,0.98,2.29,2.63v3.63h-1.13v-3.17
			c0-1.43-0.31-2.12-1.3-2.18c-1.28,0-1.86,1.03-1.86,2.52v2.83h-1.13V144.14z"/>
		<path d="M106.67,150c0,1.86-0.96,2.93-3.15,2.93c-0.65,0-1.21-0.08-2.19-0.42l0.12-1.04c0.86,0.4,1.38,0.55,2.21,0.55
			c1.19,0,1.9-0.8,1.9-2.1v-0.6h-0.02c-0.48,0.64-1.27,0.95-2.05,0.95c-1.75,0-2.61-1.43-2.61-3.01c0-1.57,0.89-3.25,2.73-3.25
			c1.08,0,1.68,0.4,2.02,1.06h0.02v-0.91h1.04V150z M105.54,147.27c0-1.27-0.59-2.36-1.79-2.36c-1.14,0-1.7,1.24-1.7,2.28
			c0,1.15,0.65,2.16,1.7,2.16S105.54,148.41,105.54,147.27z"/>
		<path d="M108.63,148.92h1.34l-1.02,2.94h-1.08L108.63,148.92z"/>
		<path d="M119.15,145.17c-0.43-0.18-0.86-0.26-1.22-0.26c-1.26,0-1.97,1.13-1.97,2.29c0,1.09,0.59,2.29,2.04,2.29
			c0.38,0,0.86-0.12,1.21-0.35l0.08,1.01c-0.47,0.22-1.01,0.25-1.42,0.25c-1.85,0-3.12-1.45-3.12-3.2c0-1.86,1.25-3.2,3.12-3.2
			c0.46,0,1.04,0.11,1.37,0.24L119.15,145.17z"/>
		<path d="M120.59,144.14h1.06v0.95h0.02c0.3-0.64,0.95-1.09,1.59-1.09c0.34,0,0.5,0.04,0.74,0.08v1.01
			c-0.2-0.08-0.43-0.11-0.62-0.11c-1.01,0-1.67,0.96-1.67,2.49v2.78h-1.13V144.14z"/>
		<path d="M127.97,144c1.86,0,3.11,1.34,3.11,3.2c0,1.75-1.27,3.2-3.11,3.2c-1.85,0-3.12-1.45-3.12-3.2
			C124.85,145.34,126.1,144,127.97,144z M127.97,149.49c1.32,0,1.91-1.2,1.91-2.29c0-1.16-0.71-2.29-1.91-2.29
			c-1.21,0-1.92,1.13-1.92,2.29C126.05,148.29,126.64,149.49,127.97,149.49z"/>
		<path d="M132.14,149.06c0.44,0.29,1.08,0.43,1.4,0.43c0.52,0,1.15-0.22,1.15-0.88c0-1.12-2.65-1.02-2.65-2.73
			c0-1.27,0.95-1.88,2.16-1.88c0.53,0,0.96,0.11,1.4,0.24l-0.1,0.98c-0.25-0.16-0.92-0.31-1.19-0.31c-0.58,0-1.08,0.24-1.08,0.74
			c0,1.25,2.65,0.89,2.65,2.84c0,1.31-1.04,1.91-2.13,1.91c-0.58,0-1.16-0.06-1.68-0.34L132.14,149.06z"/>
		<path d="M136.81,149.06c0.44,0.29,1.08,0.43,1.4,0.43c0.52,0,1.15-0.22,1.15-0.88c0-1.12-2.65-1.02-2.65-2.73
			c0-1.27,0.95-1.88,2.16-1.88c0.53,0,0.96,0.11,1.4,0.24l-0.1,0.98c-0.25-0.16-0.92-0.31-1.19-0.31c-0.58,0-1.08,0.24-1.08,0.74
			c0,1.25,2.65,0.89,2.65,2.84c0,1.31-1.04,1.91-2.13,1.91c-0.58,0-1.16-0.06-1.68-0.34L136.81,149.06z"/>
		<path d="M141.43,146.58h3.08v0.91h-3.08V146.58z"/>
		<path d="M145.93,144.14h1.06v0.95h0.02c0.3-0.64,0.95-1.09,1.59-1.09c0.34,0,0.5,0.04,0.74,0.08v1.01
			c-0.2-0.08-0.43-0.11-0.62-0.11c-1.01,0-1.67,0.96-1.67,2.49v2.78h-1.13V144.14z"/>
		<path d="M155.28,150.01c-0.43,0.16-0.92,0.4-1.93,0.4c-2.17,0-3.17-1.32-3.17-3.31c0-1.81,1.14-3.09,2.87-3.09
			c2.04,0,2.7,1.49,2.7,3.45h-4.37c0,1.21,0.95,2.04,2.01,2.04c0.74,0,1.61-0.38,1.88-0.61V150.01z M154.55,146.61
			c0-0.94-0.55-1.7-1.52-1.7c-1.1,0-1.56,0.91-1.64,1.7H154.55z"/>
		<path d="M158,145.05h-1.44v-0.91H158v-0.56c0-1.49,0.38-2.46,2.05-2.46c0.29,0,0.53,0.04,0.75,0.07l-0.05,0.91
			c-0.13-0.05-0.35-0.07-0.54-0.07c-0.97,0-1.09,0.62-1.09,1.45v0.66h1.62v0.91h-1.62v5.21H158V145.05z"/>
		<path d="M166.62,150.01c-0.43,0.16-0.92,0.4-1.93,0.4c-2.17,0-3.17-1.32-3.17-3.31c0-1.81,1.14-3.09,2.87-3.09
			c2.04,0,2.7,1.49,2.7,3.45h-4.37c0,1.21,0.95,2.04,2.01,2.04c0.74,0,1.61-0.38,1.88-0.61V150.01z M165.89,146.61
			c0-0.94-0.55-1.7-1.52-1.7c-1.1,0-1.56,0.91-1.64,1.7H165.89z"/>
		<path d="M168.61,144.14h1.06v0.95h0.02c0.3-0.64,0.95-1.09,1.59-1.09c0.34,0,0.5,0.04,0.74,0.08v1.01
			c-0.2-0.08-0.43-0.11-0.62-0.11c-1.01,0-1.67,0.96-1.67,2.49v2.78h-1.13V144.14z"/>
		<path d="M177.96,150.01c-0.43,0.16-0.92,0.4-1.93,0.4c-2.17,0-3.17-1.32-3.17-3.31c0-1.81,1.14-3.09,2.87-3.09
			c2.04,0,2.7,1.49,2.7,3.45h-4.37c0,1.21,0.95,2.04,2.01,2.04c0.74,0,1.61-0.38,1.88-0.61V150.01z M177.23,146.61
			c0-0.94-0.55-1.7-1.52-1.7c-1.1,0-1.56,0.91-1.64,1.7H177.23z"/>
		<path d="M179.95,144.14h1.09v0.97h0.02c0.34-0.7,1.15-1.12,2-1.12c1.58,0,2.29,0.98,2.29,2.63v3.63h-1.13v-3.17
			c0-1.43-0.31-2.12-1.3-2.18c-1.28,0-1.86,1.03-1.86,2.52v2.83h-1.13V144.14z"/>
		<path d="M191.16,145.17c-0.43-0.18-0.86-0.26-1.22-0.26c-1.26,0-1.97,1.13-1.97,2.29c0,1.09,0.59,2.29,2.04,2.29
			c0.38,0,0.86-0.12,1.21-0.35l0.08,1.01c-0.47,0.22-1.01,0.25-1.42,0.25c-1.85,0-3.12-1.45-3.12-3.2c0-1.86,1.25-3.2,3.12-3.2
			c0.46,0,1.04,0.11,1.37,0.24L191.16,145.17z"/>
		<path d="M193.95,142.78h-1.27v-1.27h1.27V142.78z M192.75,144.14h1.13v6.12h-1.13V144.14z"/>
		<path d="M195.94,144.14h1.09v0.97h0.02c0.34-0.7,1.15-1.12,2-1.12c1.58,0,2.29,0.98,2.29,2.63v3.63h-1.13v-3.17
			c0-1.43-0.31-2.12-1.29-2.18c-1.28,0-1.86,1.03-1.86,2.52v2.83h-1.13V144.14z"/>
		<path d="M208.68,150c0,1.86-0.96,2.93-3.15,2.93c-0.65,0-1.21-0.08-2.2-0.42l0.12-1.04c0.86,0.4,1.38,0.55,2.21,0.55
			c1.19,0,1.89-0.8,1.89-2.1v-0.6h-0.02c-0.48,0.64-1.27,0.95-2.05,0.95c-1.75,0-2.62-1.43-2.62-3.01c0-1.57,0.89-3.25,2.73-3.25
			c1.08,0,1.68,0.4,2.02,1.06h0.02v-0.91h1.04V150z M207.55,147.27c0-1.27-0.59-2.36-1.79-2.36c-1.14,0-1.7,1.24-1.7,2.28
			c0,1.15,0.65,2.16,1.7,2.16C206.82,149.35,207.55,148.41,207.55,147.27z"/>
		<path d="M210.64,148.92h1.34l-1.02,2.94h-1.08L210.64,148.92z"/>
		<path d="M63.47,163.46c0.44,0.29,1.08,0.43,1.4,0.43c0.52,0,1.15-0.22,1.15-0.88c0-1.12-2.65-1.02-2.65-2.73
			c0-1.27,0.95-1.88,2.16-1.88c0.53,0,0.96,0.11,1.4,0.24l-0.1,0.98c-0.25-0.16-0.92-0.31-1.19-0.31c-0.58,0-1.08,0.24-1.08,0.74
			c0,1.25,2.65,0.89,2.65,2.84c0,1.31-1.04,1.91-2.13,1.91c-0.58,0-1.16-0.06-1.68-0.34L63.47,163.46z"/>
		<path d="M71.84,159.46h-1.62v3.35c0,0.71,0.43,1.09,0.95,1.09c0.35,0,0.6-0.11,0.77-0.22v0.96c-0.25,0.07-0.6,0.17-0.96,0.17
			c-1.16,0-1.88-0.55-1.88-1.78v-3.57h-1.38v-0.91h1.38v-1.42l1.13-0.36v1.78h1.62V159.46z"/>
		<path d="M72.81,166.32c0.14,0.05,0.34,0.1,0.53,0.1c1.01,0,1.34-1.39,1.34-1.51c0-0.13-0.14-0.44-0.22-0.65l-2.07-5.71h1.24
			l1.64,5.06h0.02l1.68-5.06h1.14l-2.25,6.25c-0.42,1.18-0.86,2.53-2.35,2.53c-0.36,0-0.56-0.05-0.77-0.08L72.81,166.32z"/>
		<path d="M79.41,155.67h1.13v9h-1.13V155.67z"/>
		<path d="M83.94,157.18h-1.27v-1.27h1.27V157.18z M82.74,158.54h1.13v6.12h-1.13V158.54z"/>
		<path d="M85.93,158.54h1.09v0.97h0.02c0.34-0.7,1.15-1.12,2-1.12c1.58,0,2.29,0.98,2.29,2.63v3.63h-1.13v-3.17
			c0-1.43-0.31-2.12-1.3-2.18c-1.28,0-1.86,1.03-1.86,2.52v2.83h-1.13V158.54z"/>
		<path d="M98.67,164.4c0,1.86-0.96,2.93-3.15,2.93c-0.65,0-1.21-0.08-2.19-0.42l0.12-1.04c0.86,0.4,1.38,0.55,2.21,0.55
			c1.19,0,1.9-0.8,1.9-2.1v-0.6h-0.02c-0.48,0.64-1.27,0.95-2.05,0.95c-1.75,0-2.61-1.43-2.61-3.01c0-1.57,0.89-3.25,2.73-3.25
			c1.08,0,1.68,0.4,2.02,1.06h0.02v-0.91h1.04V164.4z M97.55,161.67c0-1.27-0.59-2.36-1.79-2.36c-1.14,0-1.7,1.24-1.7,2.28
			c0,1.15,0.65,2.16,1.7,2.16S97.55,162.81,97.55,161.67z"/>
		<path d="M100.63,163.32h1.34l-1.02,2.94h-1.08L100.63,163.32z"/>
		<path d="M107.56,158.98c0.56-0.34,1.24-0.58,2.02-0.58c1.75,0,2.46,0.86,2.46,2.53v2.53c0,0.7,0.02,1.02,0.05,1.2h-1.06v-0.79H111
			c-0.26,0.37-0.86,0.94-1.9,0.94c-1.32,0-2.24-0.58-2.24-1.91c0-1.54,1.68-2.01,2.84-2.01c0.44,0,0.76,0,1.2,0.02
			c0-1.06-0.38-1.59-1.51-1.59c-0.64,0-1.32,0.24-1.78,0.62L107.56,158.98z M110.9,161.75c-0.24,0-0.48-0.02-0.72-0.02
			c-0.61,0-2.12,0.1-2.12,1.18c0,0.65,0.62,1,1.14,1c1.12,0,1.7-0.7,1.7-1.61V161.75z"/>
		<path d="M113.94,158.54h1.09v0.97h0.02c0.34-0.7,1.15-1.12,2-1.12c1.58,0,2.29,0.98,2.29,2.63v3.63h-1.13v-3.17
			c0-1.43-0.31-2.12-1.3-2.18c-1.28,0-1.86,1.03-1.86,2.52v2.83h-1.13V158.54z"/>
		<path d="M125.6,163.8h-0.02c-0.3,0.46-1,1.01-2.09,1.01c-1.85,0-2.63-1.64-2.63-3.31c0-1.64,0.86-3.09,2.64-3.09
			c1.07,0,1.68,0.42,2.03,0.98h0.02v-3.72h1.13v9h-1.08V163.8z M123.76,163.89c1.27,0,1.8-1.26,1.8-2.28c0-1.14-0.59-2.3-1.81-2.3
			s-1.7,1.15-1.68,2.27C122.04,162.54,122.54,163.89,123.76,163.89z"/>
		<path d="M133.28,157.18h-1.27v-1.27h1.27V157.18z M132.08,158.54h1.13v6.12h-1.13V158.54z"/>
		<path d="M135.28,158.54h1.09v0.97h0.02c0.34-0.7,1.15-1.12,2-1.12c1.58,0,2.29,0.98,2.29,2.63v3.63h-1.13v-3.17
			c0-1.43-0.31-2.12-1.3-2.18c-1.28,0-1.86,1.03-1.86,2.52v2.83h-1.13V158.54z"/>
		<path d="M146.94,163.8h-0.02c-0.3,0.46-1,1.01-2.09,1.01c-1.85,0-2.63-1.64-2.63-3.31c0-1.64,0.86-3.09,2.64-3.09
			c1.07,0,1.68,0.42,2.03,0.98h0.02v-3.72h1.13v9h-1.08V163.8z M145.09,163.89c1.27,0,1.8-1.26,1.8-2.28c0-1.14-0.59-2.3-1.81-2.3
			c-1.22,0-1.7,1.15-1.68,2.27C143.38,162.54,143.88,163.89,145.09,163.89z"/>
		<path d="M154.63,164.41c-0.43,0.16-0.92,0.4-1.93,0.4c-2.17,0-3.17-1.32-3.17-3.31c0-1.81,1.14-3.09,2.87-3.09
			c2.04,0,2.7,1.49,2.7,3.45h-4.37c0,1.21,0.95,2.04,2.01,2.04c0.74,0,1.61-0.38,1.88-0.61V164.41z M153.9,161.01
			c0-0.94-0.55-1.7-1.52-1.7c-1.1,0-1.56,0.91-1.64,1.7H153.9z"/>
		<path d="M157.98,161.46l-1.99-2.91h1.4l1.33,2.18l1.36-2.18h1.26l-1.97,2.91l2.16,3.2h-1.39l-1.51-2.4l-1.51,2.4h-1.34
			L157.98,161.46z"/>
		<path d="M163.96,157.18h-1.27v-1.27h1.27V157.18z M162.76,158.54h1.13v6.12h-1.13V158.54z"/>
		<path d="M165.95,158.54h1.09v0.97h0.02c0.34-0.7,1.15-1.12,2-1.12c1.58,0,2.29,0.98,2.29,2.63v3.63h-1.13v-3.17
			c0-1.43-0.31-2.12-1.3-2.18c-1.28,0-1.86,1.03-1.86,2.52v2.83h-1.13V158.54z"/>
		<path d="M178.69,164.4c0,1.86-0.96,2.93-3.15,2.93c-0.65,0-1.21-0.08-2.19-0.42l0.12-1.04c0.86,0.4,1.38,0.55,2.21,0.55
			c1.19,0,1.9-0.8,1.9-2.1v-0.6h-0.02c-0.48,0.64-1.27,0.95-2.05,0.95c-1.75,0-2.61-1.43-2.61-3.01c0-1.57,0.89-3.25,2.73-3.25
			c1.08,0,1.68,0.4,2.01,1.06h0.02v-0.91h1.04V164.4z M177.56,161.67c0-1.27-0.59-2.36-1.79-2.36c-1.14,0-1.7,1.24-1.7,2.28
			c0,1.15,0.65,2.16,1.7,2.16S177.56,162.81,177.56,161.67z"/>
		<path d="M180.65,163.32h1.34v1.34h-1.34V163.32z"/>
	</g>
</g>
</svg>
