<?xml version="1.0" encoding="utf-8"?>
<!-- Generator: Adobe Illustrator 23.0.3, SVG Export Plug-In . SVG Version: 6.00 Build 0)  -->
<svg version="1.1" id="Layer_1" xmlns="http://www.w3.org/2000/svg" xmlns:xlink="http://www.w3.org/1999/xlink" x="0px" y="0px"
	 viewBox="0 0 250 250" style="enable-background:new 0 0 250 250;" xml:space="preserve">
<style type="text/css">
	.st0{fill:#C4E7E8;}
	.st1{fill:#C4E7E8;stroke:#FFFFFF;stroke-width:10;stroke-linecap:round;stroke-linejoin:round;stroke-miterlimit:10;}
	.st2{fill:none;stroke:#FFFFFF;stroke-width:10;stroke-linecap:round;stroke-linejoin:round;stroke-miterlimit:10;}
</style>
<circle class="st0" cx="125" cy="125" r="125"/>
<g>
	<path class="st1" d="M38.1,178.6c-14.7-14.7,0-30.7,0-30.7l112.4-18.5l66.5,26.5c0,0-14.7,16,0,30.7L116.9,203L38.1,178.6z"/>
	<line class="st2" x1="116.9" y1="172.4" x2="217" y2="155.9"/>
	<line class="st2" x1="38.1" y1="147.9" x2="116.9" y2="172.4"/>
	<path class="st2" d="M116.9,172.4c0,0-14.7,16,0,30.7"/>
	<path class="st1" d="M19.8,135.6c-14.7-14.7,0-30.7,0-30.7l112.4-18.5l66.5,26.5c0,0-14.7,16,0,30.7L98.6,160L19.8,135.6z"/>
	<line class="st2" x1="98.6" y1="129.4" x2="198.7" y2="112.9"/>
	<line class="st2" x1="19.8" y1="104.9" x2="98.6" y2="129.4"/>
	<path class="st2" d="M98.6,129.4c0,0-14.7,16,0,30.7"/>
	<path class="st1" d="M45.2,96.1c-14.7-14.7,0-30.7,0-30.7L157.6,47l66.5,26.5c0,0-14.7,16,0,30.7L124,120.6L45.2,96.1z"/>
	<line class="st2" x1="124" y1="90" x2="224.1" y2="73.5"/>
	<line class="st2" x1="45.2" y1="65.5" x2="124" y2="90"/>
	<path class="st2" d="M124,90c0,0-14.7,16,0,30.7"/>
</g>
<g>
	<g>
		<path d="M63.9,81h2.5v12.6h-2.5V81z"/>
		<path d="M69.1,81h2.5v10.6h4.9v2h-7.4V81z"/>
		<path d="M78.1,81h2.5v10.6h4.9v2h-7.4V81z"/>
		<path d="M87.1,81h2.5v7.3c0,2.1,0.7,3.5,2.6,3.5c1.9,0,2.6-1.4,2.6-3.5V81h2.5v8c0,3.4-1.9,4.8-5.1,4.8s-5.1-1.4-5.1-4.8V81z"/>
		<path d="M106.9,83.3c-0.8-0.3-1.7-0.5-2.6-0.5c-0.9,0-2,0.4-2,1.7c0,2.2,5.5,1.3,5.5,5.5c0,2.8-2.2,3.8-4.7,3.8
			c-1.4,0-2-0.2-3.2-0.5l0.2-2.3c0.9,0.5,1.9,0.8,2.8,0.8c1,0,2.2-0.5,2.2-1.6c0-2.4-5.5-1.4-5.5-5.6c0-2.8,2.2-3.8,4.4-3.8
			c1.1,0,2.1,0.1,3,0.5L106.9,83.3z"/>
		<path d="M112.4,83h-3.6v-2h9.7v2H115v10.6h-2.5V83z"/>
		<path d="M119.9,81h2.7c2.7,0,5.9-0.1,5.9,3.4c0,1.5-1,2.7-2.6,2.9v0c0.7,0.1,1.1,0.7,1.3,1.3l2,4.9h-2.8l-1.5-3.9
			c-0.4-0.9-0.7-1.3-1.7-1.3h-0.8v5.2h-2.5V81z M122.5,86.4h0.8c1.2,0,2.7-0.2,2.7-1.7c0-1.5-1.4-1.6-2.7-1.6h-0.8V86.4z"/>
		<path d="M134.8,81h2.8l4.9,12.6h-2.8l-1.1-2.9h-5.1l-1.1,2.9h-2.6L134.8,81z M136.1,83.5L136.1,83.5l-1.9,5.2h3.7L136.1,83.5z"/>
		<path d="M145,83h-3.6v-2h9.7v2h-3.6v10.6H145V83z"/>
		<path d="M152.5,81h2.5v12.6h-2.5V81z"/>
		<path d="M163.3,80.8c3.9,0,6.2,2.7,6.2,6.5s-2.2,6.5-6.2,6.5c-4,0-6.2-2.7-6.2-6.5S159.3,80.8,163.3,80.8z M163.3,91.8
			c2.6,0,3.5-2.3,3.5-4.6c0-2.2-1-4.5-3.5-4.5s-3.5,2.3-3.5,4.5C159.7,89.5,160.7,91.8,163.3,91.8z"/>
		<path d="M171.6,81h3.1l4.8,9.4h0V81h2.4v12.6h-3.1l-4.8-9.4h0v9.4h-2.4V81z"/>
	</g>
	<g>
		<path d="M7.2,113.1h1.3l2,7.2h0l1.8-7.2H14l1.8,7.2h0l2-7.2h1.3l-2.6,8.4H15l-1.8-7.3h0l-1.8,7.3H9.7L7.2,113.1z"/>
		<path d="M24.4,121.2c-0.4,0.2-0.9,0.4-1.9,0.4c-2.2,0-3.2-1.3-3.2-3.3c0-1.8,1.1-3.1,2.9-3.1c2,0,2.7,1.5,2.7,3.5h-4.4
			c0,1.2,0.9,2,2,2c0.7,0,1.6-0.4,1.9-0.6V121.2z M23.7,117.8c0-0.9-0.6-1.7-1.5-1.7c-1.1,0-1.6,0.9-1.6,1.7H23.7z"/>
		<path d="M29.7,115.3h1.1v0.9h0c0.3-0.5,1-1,2.1-1c1.8,0,2.6,1.5,2.6,3.1c0,1.7-0.8,3.3-2.6,3.3c-1.1,0-1.7-0.4-2-1h0v3.4h-1.1
			V115.3z M32.7,116.1c-1.2,0-1.8,1.2-1.8,2.3c0,1,0.5,2.3,1.8,2.3c1.2,0,1.7-1.4,1.7-2.3C34.4,117.3,33.9,116.1,32.7,116.1z"/>
		<path d="M37.1,115.3h1.1v0.9h0c0.3-0.6,0.9-1.1,1.6-1.1c0.3,0,0.5,0,0.7,0.1v1c-0.2-0.1-0.4-0.1-0.6-0.1c-1,0-1.7,1-1.7,2.5v2.8
			h-1.1V115.3z"/>
		<path d="M44.4,115.2c1.9,0,3.1,1.3,3.1,3.2c0,1.8-1.3,3.2-3.1,3.2c-1.8,0-3.1-1.5-3.1-3.2C41.3,116.5,42.6,115.2,44.4,115.2z
			 M44.4,120.7c1.3,0,1.9-1.2,1.9-2.3c0-1.2-0.7-2.3-1.9-2.3c-1.2,0-1.9,1.1-1.9,2.3C42.5,119.5,43.1,120.7,44.4,120.7z"/>
		<path d="M53.4,120.6L53.4,120.6c-0.3,0.5-1,1-2.1,1c-1.8,0-2.6-1.6-2.6-3.3c0-1.6,0.9-3.1,2.6-3.1c1.1,0,1.7,0.4,2,1h0v-3.7h1.1v9
			h-1.1V120.6z M51.6,120.7c1.3,0,1.8-1.3,1.8-2.3c0-1.1-0.6-2.3-1.8-2.3c-1.2,0-1.7,1.2-1.7,2.3C49.8,119.3,50.3,120.7,51.6,120.7z
			"/>
		<path d="M61.8,121.5h-1.1v-1h0c-0.3,0.7-1.2,1.1-2,1.1c-1.6,0-2.3-1-2.3-2.6v-3.6h1.1v3.2c0,1.4,0.3,2.1,1.3,2.2
			c1.3,0,1.9-1,1.9-2.5v-2.8h1.1V121.5z"/>
		<path d="M67.6,116.4c-0.4-0.2-0.9-0.3-1.2-0.3c-1.3,0-2,1.1-2,2.3c0,1.1,0.6,2.3,2,2.3c0.4,0,0.9-0.1,1.2-0.3l0.1,1
			c-0.5,0.2-1,0.3-1.4,0.3c-1.8,0-3.1-1.5-3.1-3.2c0-1.9,1.2-3.2,3.1-3.2c0.5,0,1,0.1,1.4,0.2L67.6,116.4z"/>
		<path d="M73.8,121.2c-0.4,0.2-0.9,0.4-1.9,0.4c-2.2,0-3.2-1.3-3.2-3.3c0-1.8,1.1-3.1,2.9-3.1c2,0,2.7,1.5,2.7,3.5h-4.4
			c0,1.2,0.9,2,2,2c0.7,0,1.6-0.4,1.9-0.6V121.2z M73,117.8c0-0.9-0.6-1.7-1.5-1.7c-1.1,0-1.6,0.9-1.6,1.7H73z"/>
		<path d="M79.4,115.8c0.6-0.3,1.2-0.6,2-0.6c1.8,0,2.5,0.9,2.5,2.5v2.5c0,0.7,0,1,0,1.2h-1.1v-0.8h0c-0.3,0.4-0.9,0.9-1.9,0.9
			c-1.3,0-2.2-0.6-2.2-1.9c0-1.5,1.7-2,2.8-2c0.4,0,0.8,0,1.2,0c0-1.1-0.4-1.6-1.5-1.6c-0.6,0-1.3,0.2-1.8,0.6L79.4,115.8z
			 M82.7,118.5c-0.2,0-0.5,0-0.7,0c-0.6,0-2.1,0.1-2.1,1.2c0,0.6,0.6,1,1.1,1c1.1,0,1.7-0.7,1.7-1.6V118.5z"/>
		<path d="M96,121.5h-1.3l-1.6-5.1h0l-1.5,5.1h-1.3l-2-6.1h1.2l1.4,5.1h0l1.6-5.1h1.3l1.5,5.1h0l1.5-5.1H98L96,121.5z"/>
		<path d="M100.4,114h-1.3v-1.3h1.3V114z M99.2,115.3h1.1v6.1h-1.1V115.3z"/>
		<path d="M106.7,120.6L106.7,120.6c-0.3,0.5-1,1-2.1,1c-1.8,0-2.6-1.6-2.6-3.3c0-1.6,0.9-3.1,2.6-3.1c1.1,0,1.7,0.4,2,1h0v-3.7h1.1
			v9h-1.1V120.6z M104.9,120.7c1.3,0,1.8-1.3,1.8-2.3c0-1.1-0.6-2.3-1.8-2.3s-1.7,1.2-1.7,2.3C103.2,119.3,103.7,120.7,104.9,120.7z
			"/>
		<path d="M114.4,121.2c-0.4,0.2-0.9,0.4-1.9,0.4c-2.2,0-3.2-1.3-3.2-3.3c0-1.8,1.1-3.1,2.9-3.1c2,0,2.7,1.5,2.7,3.5h-4.4
			c0,1.2,0.9,2,2,2c0.7,0,1.6-0.4,1.9-0.6V121.2z M113.7,117.8c0-0.9-0.6-1.7-1.5-1.7c-1.1,0-1.6,0.9-1.6,1.7H113.7z"/>
		<path d="M119.8,115.3h1.1v0.9h0c0.3-0.6,0.9-1.1,1.6-1.1c0.3,0,0.5,0,0.7,0.1v1c-0.2-0.1-0.4-0.1-0.6-0.1c-1,0-1.7,1-1.7,2.5v2.8
			h-1.1V115.3z"/>
		<path d="M124.7,115.8c0.6-0.3,1.2-0.6,2-0.6c1.8,0,2.5,0.9,2.5,2.5v2.5c0,0.7,0,1,0,1.2h-1.1v-0.8h0c-0.3,0.4-0.9,0.9-1.9,0.9
			c-1.3,0-2.2-0.6-2.2-1.9c0-1.5,1.7-2,2.8-2c0.4,0,0.8,0,1.2,0c0-1.1-0.4-1.6-1.5-1.6c-0.6,0-1.3,0.2-1.8,0.6L124.7,115.8z
			 M128.1,118.5c-0.2,0-0.5,0-0.7,0c-0.6,0-2.1,0.1-2.1,1.2c0,0.6,0.6,1,1.1,1c1.1,0,1.7-0.7,1.7-1.6V118.5z"/>
		<path d="M131.1,115.3h1.1v1h0c0.3-0.7,1.2-1.1,2-1.1c1.6,0,2.3,1,2.3,2.6v3.6h-1.1v-3.2c0-1.4-0.3-2.1-1.3-2.2
			c-1.3,0-1.9,1-1.9,2.5v2.8h-1.1V115.3z"/>
		<path d="M143.8,121.2c0,1.9-1,2.9-3.2,2.9c-0.6,0-1.2-0.1-2.2-0.4l0.1-1c0.9,0.4,1.4,0.6,2.2,0.6c1.2,0,1.9-0.8,1.9-2.1v-0.6h0
			c-0.5,0.6-1.3,0.9-2.1,0.9c-1.8,0-2.6-1.4-2.6-3c0-1.6,0.9-3.3,2.7-3.3c1.1,0,1.7,0.4,2,1.1h0v-0.9h1V121.2z M142.7,118.5
			c0-1.3-0.6-2.4-1.8-2.4c-1.1,0-1.7,1.2-1.7,2.3c0,1.2,0.6,2.2,1.7,2.2S142.7,119.6,142.7,118.5z"/>
		<path d="M150.4,121.2c-0.4,0.2-0.9,0.4-1.9,0.4c-2.2,0-3.2-1.3-3.2-3.3c0-1.8,1.1-3.1,2.9-3.1c2,0,2.7,1.5,2.7,3.5h-4.4
			c0,1.2,0.9,2,2,2c0.7,0,1.6-0.4,1.9-0.6V121.2z M149.7,117.8c0-0.9-0.6-1.7-1.5-1.7c-1.1,0-1.6,0.9-1.6,1.7H149.7z"/>
		<path d="M158.5,115.2c1.9,0,3.1,1.3,3.1,3.2c0,1.8-1.3,3.2-3.1,3.2c-1.8,0-3.1-1.5-3.1-3.2C155.4,116.5,156.6,115.2,158.5,115.2z
			 M158.5,120.7c1.3,0,1.9-1.2,1.9-2.3c0-1.2-0.7-2.3-1.9-2.3c-1.2,0-1.9,1.1-1.9,2.3C156.6,119.5,157.1,120.7,158.5,120.7z"/>
		<path d="M163.8,116.3h-1.4v-0.9h1.4v-0.6c0-1.5,0.4-2.5,2.1-2.5c0.3,0,0.5,0,0.8,0.1l0,0.9c-0.1,0-0.3-0.1-0.5-0.1
			c-1,0-1.1,0.6-1.1,1.5v0.7h1.6v0.9H165v5.2h-1.1V116.3z"/>
		<path d="M172.4,114h-1.3v-1.3h1.3V114z M171.2,115.3h1.1v6.1h-1.1V115.3z"/>
		<path d="M174.6,112.5h1.1v9h-1.1V112.5z"/>
		<path d="M177.9,112.5h1.1v9h-1.1V112.5z"/>
		<path d="M186.5,121.5h-1.1v-1h0c-0.3,0.7-1.2,1.1-2,1.1c-1.6,0-2.3-1-2.3-2.6v-3.6h1.1v3.2c0,1.4,0.3,2.1,1.3,2.2
			c1.3,0,1.9-1,1.9-2.5v-2.8h1.1V121.5z"/>
		<path d="M188,120.3c0.4,0.3,1.1,0.4,1.4,0.4c0.5,0,1.2-0.2,1.2-0.9c0-1.1-2.7-1-2.7-2.7c0-1.3,0.9-1.9,2.2-1.9
			c0.5,0,1,0.1,1.4,0.2l-0.1,1c-0.3-0.2-0.9-0.3-1.2-0.3c-0.6,0-1.1,0.2-1.1,0.7c0,1.2,2.7,0.9,2.7,2.8c0,1.3-1,1.9-2.1,1.9
			c-0.6,0-1.2-0.1-1.7-0.3L188,120.3z"/>
		<path d="M196.4,116.3h-1.6v3.3c0,0.7,0.4,1.1,0.9,1.1c0.3,0,0.6-0.1,0.8-0.2v1c-0.3,0.1-0.6,0.2-1,0.2c-1.2,0-1.9-0.6-1.9-1.8
			v-3.6h-1.4v-0.9h1.4v-1.4l1.1-0.4v1.8h1.6V116.3z"/>
		<path d="M197.8,115.3h1.1v0.9h0c0.3-0.6,0.9-1.1,1.6-1.1c0.3,0,0.5,0,0.7,0.1v1c-0.2-0.1-0.4-0.1-0.6-0.1c-1,0-1.7,1-1.7,2.5v2.8
			h-1.1V115.3z"/>
		<path d="M202.7,115.8c0.6-0.3,1.2-0.6,2-0.6c1.8,0,2.5,0.9,2.5,2.5v2.5c0,0.7,0,1,0,1.2h-1.1v-0.8h0c-0.3,0.4-0.9,0.9-1.9,0.9
			c-1.3,0-2.2-0.6-2.2-1.9c0-1.5,1.7-2,2.8-2c0.4,0,0.8,0,1.2,0c0-1.1-0.4-1.6-1.5-1.6c-0.6,0-1.3,0.2-1.8,0.6L202.7,115.8z
			 M206.1,118.5c-0.2,0-0.5,0-0.7,0c-0.6,0-2.1,0.1-2.1,1.2c0,0.6,0.6,1,1.1,1c1.1,0,1.7-0.7,1.7-1.6V118.5z"/>
		<path d="M212.4,116.3h-1.6v3.3c0,0.7,0.4,1.1,0.9,1.1c0.3,0,0.6-0.1,0.8-0.2v1c-0.3,0.1-0.6,0.2-1,0.2c-1.2,0-1.9-0.6-1.9-1.8
			v-3.6h-1.4v-0.9h1.4v-1.4l1.1-0.4v1.8h1.6V116.3z"/>
		<path d="M215.1,114h-1.3v-1.3h1.3V114z M213.9,115.3h1.1v6.1h-1.1V115.3z"/>
		<path d="M219.8,115.2c1.9,0,3.1,1.3,3.1,3.2c0,1.8-1.3,3.2-3.1,3.2c-1.8,0-3.1-1.5-3.1-3.2C216.7,116.5,218,115.2,219.8,115.2z
			 M219.8,120.7c1.3,0,1.9-1.2,1.9-2.3c0-1.2-0.7-2.3-1.9-2.3c-1.2,0-1.9,1.1-1.9,2.3C217.9,119.5,218.5,120.7,219.8,120.7z"/>
		<path d="M224.5,115.3h1.1v1h0c0.3-0.7,1.2-1.1,2-1.1c1.6,0,2.3,1,2.3,2.6v3.6h-1.1v-3.2c0-1.4-0.3-2.1-1.3-2.2
			c-1.3,0-1.9,1-1.9,2.5v2.8h-1.1V115.3z"/>
		<path d="M231.3,120.3c0.4,0.3,1.1,0.4,1.4,0.4c0.5,0,1.2-0.2,1.2-0.9c0-1.1-2.7-1-2.7-2.7c0-1.3,0.9-1.9,2.2-1.9
			c0.5,0,1,0.1,1.4,0.2l-0.1,1c-0.3-0.2-0.9-0.3-1.2-0.3c-0.6,0-1.1,0.2-1.1,0.7c0,1.2,2.7,0.9,2.7,2.8c0,1.3-1,1.9-2.1,1.9
			c-0.6,0-1.2-0.1-1.7-0.3L231.3,120.3z"/>
		<path d="M236.5,120.1h1.3l-1,2.9h-1.1L236.5,120.1z"/>
		<path d="M19.3,130.7h-1.4v-0.9h1.4v-0.6c0-1.5,0.4-2.5,2.1-2.5c0.3,0,0.5,0,0.8,0.1l0,0.9c-0.1,0-0.3-0.1-0.5-0.1
			c-1,0-1.1,0.6-1.1,1.5v0.7h1.6v0.9h-1.6v5.2h-1.1V130.7z"/>
		<path d="M23.3,129.7h1.1v0.9h0c0.3-0.6,0.9-1.1,1.6-1.1c0.3,0,0.5,0,0.7,0.1v1c-0.2-0.1-0.4-0.1-0.6-0.1c-1,0-1.7,1-1.7,2.5v2.8
			h-1.1V129.7z"/>
		<path d="M30.6,129.6c1.9,0,3.1,1.3,3.1,3.2c0,1.8-1.3,3.2-3.1,3.2c-1.8,0-3.1-1.5-3.1-3.2C27.5,130.9,28.8,129.6,30.6,129.6z
			 M30.6,135.1c1.3,0,1.9-1.2,1.9-2.3c0-1.2-0.7-2.3-1.9-2.3c-1.2,0-1.9,1.1-1.9,2.3C28.7,133.9,29.3,135.1,30.6,135.1z"/>
		<path d="M35.2,129.7h1.1v0.9h0c0.4-0.7,1-1,1.9-1c0.7,0,1.4,0.4,1.7,1.2c0.4-0.9,1.3-1.2,1.9-1.2c1.6,0,2.1,1,2.1,2.3v3.9h-1.1
			v-3.6c0-0.8-0.2-1.7-1.1-1.7c-1.2,0-1.6,1.1-1.6,2.3v3.1h-1.1v-3.6c0-0.8-0.2-1.7-1.1-1.7c-1.2,0-1.6,1.1-1.6,2.3v3.1h-1.1V129.7z
			"/>
		<path d="M49.4,126.9h1.1v9h-1.1V126.9z"/>
		<path d="M53.9,128.4h-1.3v-1.3h1.3V128.4z M52.7,129.7h1.1v6.1h-1.1V129.7z"/>
		<path d="M55.9,129.7H57v1h0c0.3-0.7,1.2-1.1,2-1.1c1.6,0,2.3,1,2.3,2.6v3.6h-1.1v-3.2c0-1.4-0.3-2.1-1.3-2.2c-1.3,0-1.9,1-1.9,2.5
			v2.8h-1.1V129.7z"/>
		<path d="M67.9,135.6c-0.4,0.2-0.9,0.4-1.9,0.4c-2.2,0-3.2-1.3-3.2-3.3c0-1.8,1.1-3.1,2.9-3.1c2,0,2.7,1.5,2.7,3.5h-4.4
			c0,1.2,0.9,2,2,2c0.7,0,1.6-0.4,1.9-0.6V135.6z M67.2,132.2c0-0.9-0.6-1.7-1.5-1.7c-1.1,0-1.6,0.9-1.6,1.7H67.2z"/>
		<path d="M77.6,135L77.6,135c-0.3,0.5-1,1-2.1,1c-1.8,0-2.6-1.6-2.6-3.3c0-1.6,0.9-3.1,2.6-3.1c1.1,0,1.7,0.4,2,1h0v-3.7h1.1v9
			h-1.1V135z M75.8,135.1c1.3,0,1.8-1.3,1.8-2.3c0-1.1-0.6-2.3-1.8-2.3s-1.7,1.2-1.7,2.3C74,133.7,74.5,135.1,75.8,135.1z"/>
		<path d="M80.6,129.7h1.1v0.9h0c0.3-0.6,0.9-1.1,1.6-1.1c0.3,0,0.5,0,0.7,0.1v1c-0.2-0.1-0.4-0.1-0.6-0.1c-1,0-1.7,1-1.7,2.5v2.8
			h-1.1V129.7z"/>
		<path d="M85.6,130.2c0.6-0.3,1.2-0.6,2-0.6c1.8,0,2.5,0.9,2.5,2.5v2.5c0,0.7,0,1,0,1.2H89v-0.8h0c-0.3,0.4-0.9,0.9-1.9,0.9
			c-1.3,0-2.2-0.6-2.2-1.9c0-1.5,1.7-2,2.8-2c0.4,0,0.8,0,1.2,0c0-1.1-0.4-1.6-1.5-1.6c-0.6,0-1.3,0.2-1.8,0.6L85.6,130.2z
			 M88.9,132.9c-0.2,0-0.5,0-0.7,0c-0.6,0-2.1,0.1-2.1,1.2c0,0.6,0.6,1,1.1,1c1.1,0,1.7-0.7,1.7-1.6V132.9z"/>
		<path d="M98.9,135.9h-1.3l-1.6-5.1h0l-1.5,5.1h-1.3l-2-6.1h1.2l1.4,5.1h0l1.6-5.1h1.3l1.5,5.1h0l1.5-5.1h1.1L98.9,135.9z"/>
		<path d="M103.3,128.4H102v-1.3h1.3V128.4z M102.1,129.7h1.1v6.1h-1.1V129.7z"/>
		<path d="M105.3,129.7h1.1v1h0c0.3-0.7,1.2-1.1,2-1.1c1.6,0,2.3,1,2.3,2.6v3.6h-1.1v-3.2c0-1.4-0.3-2.1-1.3-2.2
			c-1.3,0-1.9,1-1.9,2.5v2.8h-1.1V129.7z"/>
		<path d="M118,135.6c0,1.9-1,2.9-3.2,2.9c-0.6,0-1.2-0.1-2.2-0.4l0.1-1c0.9,0.4,1.4,0.6,2.2,0.6c1.2,0,1.9-0.8,1.9-2.1v-0.6h0
			c-0.5,0.6-1.3,0.9-2.1,0.9c-1.8,0-2.6-1.4-2.6-3c0-1.6,0.9-3.2,2.7-3.2c1.1,0,1.7,0.4,2,1.1h0v-0.9h1V135.6z M116.9,132.9
			c0-1.3-0.6-2.4-1.8-2.4c-1.1,0-1.7,1.2-1.7,2.3c0,1.2,0.6,2.2,1.7,2.2S116.9,134,116.9,132.9z"/>
		<path d="M119.5,134.7c0.4,0.3,1.1,0.4,1.4,0.4c0.5,0,1.2-0.2,1.2-0.9c0-1.1-2.7-1-2.7-2.7c0-1.3,0.9-1.9,2.2-1.9
			c0.5,0,1,0.1,1.4,0.2l-0.1,1c-0.3-0.2-0.9-0.3-1.2-0.3c-0.6,0-1.1,0.2-1.1,0.7c0,1.2,2.7,0.9,2.7,2.8c0,1.3-1,1.9-2.1,1.9
			c-0.6,0-1.2-0.1-1.7-0.3L119.5,134.7z"/>
		<path d="M131.2,130.7h-1.6v3.3c0,0.7,0.4,1.1,0.9,1.1c0.3,0,0.6-0.1,0.8-0.2v1c-0.3,0.1-0.6,0.2-1,0.2c-1.2,0-1.9-0.6-1.9-1.8
			v-3.6h-1.4v-0.9h1.4v-1.4l1.1-0.4v1.8h1.6V130.7z"/>
		<path d="M135.3,129.6c1.9,0,3.1,1.3,3.1,3.2c0,1.8-1.3,3.2-3.1,3.2c-1.8,0-3.1-1.5-3.1-3.2C132.2,130.9,133.4,129.6,135.3,129.6z
			 M135.3,135.1c1.3,0,1.9-1.2,1.9-2.3c0-1.2-0.7-2.3-1.9-2.3c-1.2,0-1.9,1.1-1.9,2.3C133.4,133.9,134,135.1,135.3,135.1z"/>
		<path d="M144.1,131h0.7c0.9,0,2.1-0.3,2.1-1.4c0-1-0.8-1.3-1.6-1.3c-0.8,0-1.4,0.2-1.9,0.5l-0.1-1.1c0.6-0.2,1.4-0.4,2.1-0.4
			c1.5,0,2.7,0.7,2.7,2.3c0,1.1-0.8,1.7-1.8,1.9v0c1.1,0.2,1.9,0.9,1.9,2.1c0,1.9-1.6,2.4-3.3,2.4c-0.7,0-1.4-0.2-1.9-0.3l0.1-1.1
			c0.4,0.2,1.1,0.5,1.8,0.5c0.9,0,2-0.4,2-1.4c0-1.2-1-1.6-2.1-1.6h-0.7V131z"/>
		<path d="M149.4,132.2h3.1v0.9h-3.1V132.2z"/>
		<path d="M154,127.5h2.5c2.5,0,4.5,1.5,4.5,4.1c0,2.8-1.7,4.3-4.5,4.3H154V127.5z M155.2,134.8h1.3c2.1,0,3.2-1,3.2-3.2
			c0-2-1.3-3.1-3.1-3.1h-1.4V134.8z"/>
		<path d="M165.9,129.7h1.1v0.9h0c0.3-0.6,0.9-1.1,1.6-1.1c0.3,0,0.5,0,0.7,0.1v1c-0.2-0.1-0.4-0.1-0.6-0.1c-1,0-1.7,1-1.7,2.5v2.8
			h-1.1V129.7z"/>
		<path d="M175.3,135.6c-0.4,0.2-0.9,0.4-1.9,0.4c-2.2,0-3.2-1.3-3.2-3.3c0-1.8,1.1-3.1,2.9-3.1c2,0,2.7,1.5,2.7,3.5h-4.4
			c0,1.2,0.9,2,2,2c0.7,0,1.6-0.4,1.9-0.6V135.6z M174.6,132.2c0-0.9-0.6-1.7-1.5-1.7c-1.1,0-1.6,0.9-1.6,1.7H174.6z"/>
		<path d="M177.3,129.7h1.1v1h0c0.3-0.7,1.2-1.1,2-1.1c1.6,0,2.3,1,2.3,2.6v3.6h-1.1v-3.2c0-1.4-0.3-2.1-1.3-2.2
			c-1.3,0-1.9,1-1.9,2.5v2.8h-1.1V129.7z"/>
		<path d="M188.9,135L188.9,135c-0.3,0.5-1,1-2.1,1c-1.8,0-2.6-1.6-2.6-3.3c0-1.6,0.9-3.1,2.6-3.1c1.1,0,1.7,0.4,2,1h0v-3.7h1.1v9
			h-1.1V135z M187.1,135.1c1.3,0,1.8-1.3,1.8-2.3c0-1.1-0.6-2.3-1.8-2.3c-1.2,0-1.7,1.2-1.7,2.3
			C185.4,133.7,185.9,135.1,187.1,135.1z"/>
		<path d="M196.6,135.6c-0.4,0.2-0.9,0.4-1.9,0.4c-2.2,0-3.2-1.3-3.2-3.3c0-1.8,1.1-3.1,2.9-3.1c2,0,2.7,1.5,2.7,3.5h-4.4
			c0,1.2,0.9,2,2,2c0.7,0,1.6-0.4,1.9-0.6V135.6z M195.9,132.2c0-0.9-0.6-1.7-1.5-1.7c-1.1,0-1.6,0.9-1.6,1.7H195.9z"/>
		<path d="M198.6,129.7h1.1v0.9h0c0.3-0.6,0.9-1.1,1.6-1.1c0.3,0,0.5,0,0.7,0.1v1c-0.2-0.1-0.4-0.1-0.6-0.1c-1,0-1.7,1-1.7,2.5v2.8
			h-1.1V129.7z"/>
		<path d="M204.6,128.4h-1.3v-1.3h1.3V128.4z M203.4,129.7h1.1v6.1h-1.1V129.7z"/>
		<path d="M206.6,129.7h1.1v1h0c0.3-0.7,1.2-1.1,2-1.1c1.6,0,2.3,1,2.3,2.6v3.6h-1.1v-3.2c0-1.4-0.3-2.1-1.3-2.2
			c-1.3,0-1.9,1-1.9,2.5v2.8h-1.1V129.7z"/>
		<path d="M219.4,135.6c0,1.9-1,2.9-3.2,2.9c-0.6,0-1.2-0.1-2.2-0.4l0.1-1c0.9,0.4,1.4,0.6,2.2,0.6c1.2,0,1.9-0.8,1.9-2.1v-0.6h0
			c-0.5,0.6-1.3,0.9-2.1,0.9c-1.8,0-2.6-1.4-2.6-3c0-1.6,0.9-3.2,2.7-3.2c1.1,0,1.7,0.4,2,1.1h0v-0.9h1V135.6z M218.2,132.9
			c0-1.3-0.6-2.4-1.8-2.4c-1.1,0-1.7,1.2-1.7,2.3c0,1.2,0.6,2.2,1.7,2.2S218.2,134,218.2,132.9z"/>
		<path d="M220.8,134.7c0.4,0.3,1.1,0.4,1.4,0.4c0.5,0,1.2-0.2,1.2-0.9c0-1.1-2.7-1-2.7-2.7c0-1.3,0.9-1.9,2.2-1.9
			c0.5,0,1,0.1,1.4,0.2l-0.1,1c-0.3-0.2-0.9-0.3-1.2-0.3c-0.6,0-1.1,0.2-1.1,0.7c0,1.2,2.7,0.9,2.7,2.8c0,1.3-1,1.9-2.1,1.9
			c-0.6,0-1.2-0.1-1.7-0.3L220.8,134.7z"/>
		<path d="M226,134.5h1.3v1.3H226V134.5z"/>
		<path d="M14.9,141.9h1.3l2,7.2h0l1.8-7.2h1.7l1.8,7.2h0l2-7.2h1.3l-2.6,8.4h-1.5l-1.8-7.3h0l-1.8,7.3h-1.6L14.9,141.9z"/>
		<path d="M32.2,150c-0.4,0.2-0.9,0.4-1.9,0.4c-2.2,0-3.2-1.3-3.2-3.3c0-1.8,1.1-3.1,2.9-3.1c2,0,2.7,1.5,2.7,3.5h-4.4
			c0,1.2,0.9,2,2,2c0.7,0,1.6-0.4,1.9-0.6V150z M31.5,146.6c0-0.9-0.6-1.7-1.5-1.7c-1.1,0-1.6,0.9-1.6,1.7H31.5z"/>
		<path d="M44.4,150.3h-1.3l-1.6-5.1h0l-1.5,5.1h-1.3l-2-6.1h1.2l1.4,5.1h0l1.6-5.1h1.3l1.5,5.1h0l1.5-5.1h1.1L44.4,150.3z"/>
		<path d="M50.2,144c1.9,0,3.1,1.3,3.1,3.2c0,1.8-1.3,3.2-3.1,3.2c-1.8,0-3.1-1.5-3.1-3.2C47.1,145.3,48.3,144,50.2,144z
			 M50.2,149.5c1.3,0,1.9-1.2,1.9-2.3c0-1.2-0.7-2.3-1.9-2.3c-1.2,0-1.9,1.1-1.9,2.3C48.3,148.3,48.9,149.5,50.2,149.5z"/>
		<path d="M54.8,144.1h1.1v0.9h0c0.3-0.6,0.9-1.1,1.6-1.1c0.3,0,0.5,0,0.7,0.1v1c-0.2-0.1-0.4-0.1-0.6-0.1c-1,0-1.7,1-1.7,2.5v2.8
			h-1.1V144.1z"/>
		<path d="M59.5,141.3h1.1v5.4l2.5-2.5h1.5l-2.8,2.7l3.2,3.4h-1.6l-2.7-3.1v3.1h-1.1V141.3z"/>
		<path d="M70.9,142.8h-1.3v-1.3h1.3V142.8z M69.7,144.1h1.1v6.1h-1.1V144.1z"/>
		<path d="M72.8,144.1h1.1v1h0c0.3-0.7,1.2-1.1,2-1.1c1.6,0,2.3,1,2.3,2.6v3.6h-1.1v-3.2c0-1.4-0.3-2.1-1.3-2.2
			c-1.3,0-1.9,1-1.9,2.5v2.8h-1.1V144.1z"/>
		<path d="M83.5,144.1h1.1v0.9h0c0.4-0.7,1-1,1.9-1c0.7,0,1.4,0.4,1.7,1.2c0.4-0.9,1.3-1.2,1.9-1.2c1.6,0,2.1,1,2.1,2.3v3.9h-1.1
			v-3.6c0-0.8-0.2-1.7-1.1-1.7c-1.2,0-1.6,1.1-1.6,2.3v3.1h-1.1v-3.6c0-0.8-0.2-1.7-1.1-1.7c-1.2,0-1.6,1.1-1.6,2.3v3.1h-1.1V144.1z
			"/>
		<path d="M94.5,144.6c0.6-0.3,1.2-0.6,2-0.6c1.8,0,2.5,0.9,2.5,2.5v2.5c0,0.7,0,1,0,1.2h-1.1v-0.8h0c-0.3,0.4-0.9,0.9-1.9,0.9
			c-1.3,0-2.2-0.6-2.2-1.9c0-1.5,1.7-2,2.8-2c0.4,0,0.8,0,1.2,0c0-1.1-0.4-1.6-1.5-1.6c-0.6,0-1.3,0.2-1.8,0.6L94.5,144.6z
			 M97.8,147.3c-0.2,0-0.5,0-0.7,0c-0.6,0-2.1,0.1-2.1,1.2c0,0.6,0.6,1,1.1,1c1.1,0,1.7-0.7,1.7-1.6V147.3z"/>
		<path d="M100.9,144.1h1.1v1h0c0.3-0.7,1.2-1.1,2-1.1c1.6,0,2.3,1,2.3,2.6v3.6h-1.1v-3.2c0-1.4-0.3-2.1-1.3-2.2
			c-1.3,0-1.9,1-1.9,2.5v2.8h-1.1V144.1z"/>
		<path d="M107.7,151.9c0.1,0,0.3,0.1,0.5,0.1c1,0,1.3-1.4,1.3-1.5c0-0.1-0.1-0.4-0.2-0.6l-2.1-5.7h1.2l1.6,5.1h0l1.7-5.1h1.1
			l-2.3,6.2c-0.4,1.2-0.9,2.5-2.4,2.5c-0.4,0-0.6,0-0.8-0.1L107.7,151.9z"/>
		<path d="M121.9,149.4L121.9,149.4c-0.3,0.5-1,1-2.1,1c-1.8,0-2.6-1.6-2.6-3.3c0-1.6,0.9-3.1,2.6-3.1c1.1,0,1.7,0.4,2,1h0v-3.7h1.1
			v9h-1.1V149.4z M120,149.5c1.3,0,1.8-1.3,1.8-2.3c0-1.1-0.6-2.3-1.8-2.3s-1.7,1.2-1.7,2.3C118.3,148.1,118.8,149.5,120,149.5z"/>
		<path d="M126.2,142.8h-1.3v-1.3h1.3V142.8z M125,144.1h1.1v6.1H125V144.1z"/>
		<path d="M128.9,145.1h-1.4v-0.9h1.4v-0.6c0-1.5,0.4-2.5,2.1-2.5c0.3,0,0.5,0,0.8,0.1l0,0.9c-0.1,0-0.3-0.1-0.5-0.1
			c-1,0-1.1,0.6-1.1,1.5v0.7h1.6v0.9h-1.6v5.2h-1.1V145.1z"/>
		<path d="M133.4,145.1h-1.4v-0.9h1.4v-0.6c0-1.5,0.4-2.5,2.1-2.5c0.3,0,0.5,0,0.8,0.1l0,0.9c-0.1,0-0.3-0.1-0.5-0.1
			c-1,0-1.1,0.6-1.1,1.5v0.7h1.6v0.9h-1.6v5.2h-1.1V145.1z"/>
		<path d="M142,150c-0.4,0.2-0.9,0.4-1.9,0.4c-2.2,0-3.2-1.3-3.2-3.3c0-1.8,1.1-3.1,2.9-3.1c2,0,2.7,1.5,2.7,3.5h-4.4
			c0,1.2,0.9,2,2,2c0.7,0,1.6-0.4,1.9-0.6V150z M141.3,146.6c0-0.9-0.6-1.7-1.5-1.7c-1.1,0-1.6,0.9-1.6,1.7H141.3z"/>
		<path d="M144,144.1h1.1v0.9h0c0.3-0.6,0.9-1.1,1.6-1.1c0.3,0,0.5,0,0.7,0.1v1c-0.2-0.1-0.4-0.1-0.6-0.1c-1,0-1.7,1-1.7,2.5v2.8
			H144V144.1z"/>
		<path d="M153.3,150c-0.4,0.2-0.9,0.4-1.9,0.4c-2.2,0-3.2-1.3-3.2-3.3c0-1.8,1.1-3.1,2.9-3.1c2,0,2.7,1.5,2.7,3.5h-4.4
			c0,1.2,0.9,2,2,2c0.7,0,1.6-0.4,1.9-0.6V150z M152.6,146.6c0-0.9-0.6-1.7-1.5-1.7c-1.1,0-1.6,0.9-1.6,1.7H152.6z"/>
		<path d="M155.3,144.1h1.1v1h0c0.3-0.7,1.2-1.1,2-1.1c1.6,0,2.3,1,2.3,2.6v3.6h-1.1v-3.2c0-1.4-0.3-2.1-1.3-2.2
			c-1.3,0-1.9,1-1.9,2.5v2.8h-1.1V144.1z"/>
		<path d="M165.9,145.1h-1.6v3.3c0,0.7,0.4,1.1,0.9,1.1c0.3,0,0.6-0.1,0.8-0.2v1c-0.3,0.1-0.6,0.2-1,0.2c-1.2,0-1.9-0.6-1.9-1.8
			v-3.6h-1.4v-0.9h1.4v-1.4l1.1-0.4v1.8h1.6V145.1z"/>
		<path d="M170.2,149.1c0.4,0.3,1.1,0.4,1.4,0.4c0.5,0,1.2-0.2,1.2-0.9c0-1.1-2.7-1-2.7-2.7c0-1.3,0.9-1.9,2.2-1.9
			c0.5,0,1,0.1,1.4,0.2l-0.1,1c-0.3-0.2-0.9-0.3-1.2-0.3c-0.6,0-1.1,0.2-1.1,0.7c0,1.2,2.7,0.9,2.7,2.8c0,1.3-1,1.9-2.1,1.9
			c-0.6,0-1.2-0.1-1.7-0.3L170.2,149.1z"/>
		<path d="M178.6,145.1H177v3.3c0,0.7,0.4,1.1,0.9,1.1c0.3,0,0.6-0.1,0.8-0.2v1c-0.3,0.1-0.6,0.2-1,0.2c-1.2,0-1.9-0.6-1.9-1.8v-3.6
			h-1.4v-0.9h1.4v-1.4l1.1-0.4v1.8h1.6V145.1z"/>
		<path d="M179.5,151.9c0.1,0,0.3,0.1,0.5,0.1c1,0,1.3-1.4,1.3-1.5c0-0.1-0.1-0.4-0.2-0.6l-2.1-5.7h1.2l1.6,5.1h0l1.7-5.1h1.1
			l-2.3,6.2c-0.4,1.2-0.9,2.5-2.4,2.5c-0.4,0-0.6,0-0.8-0.1L179.5,151.9z"/>
		<path d="M186.1,141.3h1.1v9h-1.1V141.3z"/>
		<path d="M194,150c-0.4,0.2-0.9,0.4-1.9,0.4c-2.2,0-3.2-1.3-3.2-3.3c0-1.8,1.1-3.1,2.9-3.1c2,0,2.7,1.5,2.7,3.5h-4.4
			c0,1.2,0.9,2,2,2c0.7,0,1.6-0.4,1.9-0.6V150z M193.3,146.6c0-0.9-0.6-1.7-1.5-1.7c-1.1,0-1.6,0.9-1.6,1.7H193.3z"/>
		<path d="M195.5,149.1c0.4,0.3,1.1,0.4,1.4,0.4c0.5,0,1.2-0.2,1.2-0.9c0-1.1-2.7-1-2.7-2.7c0-1.3,0.9-1.9,2.2-1.9
			c0.5,0,1,0.1,1.4,0.2l-0.1,1c-0.3-0.2-0.9-0.3-1.2-0.3c-0.6,0-1.1,0.2-1.1,0.7c0,1.2,2.7,0.9,2.7,2.8c0,1.3-1,1.9-2.1,1.9
			c-0.6,0-1.2-0.1-1.7-0.3L195.5,149.1z"/>
		<path d="M207.3,145.1h-1.6v3.3c0,0.7,0.4,1.1,0.9,1.1c0.3,0,0.6-0.1,0.8-0.2v1c-0.3,0.1-0.6,0.2-1,0.2c-1.2,0-1.9-0.6-1.9-1.8
			v-3.6h-1.4v-0.9h1.4v-1.4l1.1-0.4v1.8h1.6V145.1z"/>
		<path d="M211.4,144c1.9,0,3.1,1.3,3.1,3.2c0,1.8-1.3,3.2-3.1,3.2c-1.8,0-3.1-1.5-3.1-3.2C208.3,145.3,209.5,144,211.4,144z
			 M211.4,149.5c1.3,0,1.9-1.2,1.9-2.3c0-1.2-0.7-2.3-1.9-2.3c-1.2,0-1.9,1.1-1.9,2.3C209.5,148.3,210.1,149.5,211.4,149.5z"/>
		<path d="M220.1,145.1h-1.4v-0.9h1.4v-0.6c0-1.5,0.4-2.5,2.1-2.5c0.3,0,0.5,0,0.8,0.1l0,0.9c-0.1,0-0.3-0.1-0.5-0.1
			c-1,0-1.1,0.6-1.1,1.5v0.7h1.6v0.9h-1.6v5.2h-1.1V145.1z"/>
		<path d="M225.4,142.8h-1.3v-1.3h1.3V142.8z M224.2,144.1h1.1v6.1h-1.1V144.1z"/>
		<path d="M230.6,145.1H229v3.3c0,0.7,0.4,1.1,0.9,1.1c0.3,0,0.6-0.1,0.8-0.2v1c-0.3,0.1-0.6,0.2-1,0.2c-1.2,0-1.9-0.6-1.9-1.8v-3.6
			h-1.4v-0.9h1.4v-1.4l1.1-0.4v1.8h1.6V145.1z"/>
		<path d="M15.8,159.5h-1.6v3.3c0,0.7,0.4,1.1,0.9,1.1c0.3,0,0.6-0.1,0.8-0.2v1c-0.3,0.1-0.6,0.2-1,0.2c-1.2,0-1.9-0.6-1.9-1.8v-3.6
			h-1.4v-0.9h1.4v-1.4l1.1-0.4v1.8h1.6V159.5z"/>
		<path d="M17.3,155.7h1.1v3.8h0c0.4-0.6,1.1-1,2-1c1.6,0,2.3,1,2.3,2.6v3.6h-1.1v-3.2c0-1.4-0.3-2.1-1.3-2.2c-1.3,0-1.9,1-1.9,2.5
			v2.8h-1.1V155.7z"/>
		<path d="M29.3,164.4c-0.4,0.2-0.9,0.4-1.9,0.4c-2.2,0-3.2-1.3-3.2-3.3c0-1.8,1.1-3.1,2.9-3.1c2,0,2.7,1.5,2.7,3.5h-4.4
			c0,1.2,0.9,2,2,2c0.7,0,1.6-0.4,1.9-0.6V164.4z M28.5,161c0-0.9-0.6-1.7-1.5-1.7c-1.1,0-1.6,0.9-1.6,1.7H28.5z"/>
		<path d="M38.9,163.8L38.9,163.8c-0.3,0.5-1,1-2.1,1c-1.8,0-2.6-1.6-2.6-3.3c0-1.6,0.9-3.1,2.6-3.1c1.1,0,1.7,0.4,2,1h0v-3.7H40v9
			h-1.1V163.8z M37.1,163.9c1.3,0,1.8-1.3,1.8-2.3c0-1.1-0.6-2.3-1.8-2.3s-1.7,1.2-1.7,2.3C35.4,162.5,35.9,163.9,37.1,163.9z"/>
		<path d="M46.6,164.4c-0.4,0.2-0.9,0.4-1.9,0.4c-2.2,0-3.2-1.3-3.2-3.3c0-1.8,1.1-3.1,2.9-3.1c2,0,2.7,1.5,2.7,3.5h-4.4
			c0,1.2,0.9,2,2,2c0.7,0,1.6-0.4,1.9-0.6V164.4z M45.9,161c0-0.9-0.6-1.7-1.5-1.7c-1.1,0-1.6,0.9-1.6,1.7H45.9z"/>
		<path d="M48.1,163.5c0.4,0.3,1.1,0.4,1.4,0.4c0.5,0,1.2-0.2,1.2-0.9c0-1.1-2.7-1-2.7-2.7c0-1.3,0.9-1.9,2.2-1.9
			c0.5,0,1,0.1,1.4,0.2l-0.1,1c-0.3-0.2-0.9-0.3-1.2-0.3c-0.6,0-1.1,0.2-1.1,0.7c0,1.2,2.7,0.9,2.7,2.8c0,1.3-1,1.9-2.1,1.9
			c-0.6,0-1.2-0.1-1.7-0.3L48.1,163.5z"/>
		<path d="M54.6,157.2h-1.3v-1.3h1.3V157.2z M53.4,158.5h1.1v6.1h-1.1V158.5z"/>
		<path d="M62,164.4c0,1.9-1,2.9-3.2,2.9c-0.6,0-1.2-0.1-2.2-0.4l0.1-1c0.9,0.4,1.4,0.6,2.2,0.6c1.2,0,1.9-0.8,1.9-2.1v-0.6h0
			c-0.5,0.6-1.3,0.9-2.1,0.9c-1.8,0-2.6-1.4-2.6-3c0-1.6,0.9-3.3,2.7-3.3c1.1,0,1.7,0.4,2,1.1h0v-0.9h1V164.4z M60.9,161.7
			c0-1.3-0.6-2.4-1.8-2.4c-1.1,0-1.7,1.2-1.7,2.3c0,1.2,0.6,2.2,1.7,2.2S60.9,162.8,60.9,161.7z"/>
		<path d="M63.9,158.5H65v1h0c0.3-0.7,1.2-1.1,2-1.1c1.6,0,2.3,1,2.3,2.6v3.6h-1.1v-3.2c0-1.4-0.3-2.1-1.3-2.2c-1.3,0-1.9,1-1.9,2.5
			v2.8h-1.1V158.5z"/>
		<path d="M74.9,159c0.6-0.3,1.2-0.6,2-0.6c1.8,0,2.5,0.9,2.5,2.5v2.5c0,0.7,0,1,0,1.2h-1.1v-0.8h0c-0.3,0.4-0.9,0.9-1.9,0.9
			c-1.3,0-2.2-0.6-2.2-1.9c0-1.5,1.7-2,2.8-2c0.4,0,0.8,0,1.2,0c0-1.1-0.4-1.6-1.5-1.6c-0.6,0-1.3,0.2-1.8,0.6L74.9,159z
			 M78.2,161.7c-0.2,0-0.5,0-0.7,0c-0.6,0-2.1,0.1-2.1,1.2c0,0.6,0.6,1,1.1,1c1.1,0,1.7-0.7,1.7-1.6V161.7z"/>
		<path d="M81.3,158.5h1.1v1h0c0.3-0.7,1.2-1.1,2-1.1c1.6,0,2.3,1,2.3,2.6v3.6h-1.1v-3.2c0-1.4-0.3-2.1-1.3-2.2
			c-1.3,0-1.9,1-1.9,2.5v2.8h-1.1V158.5z"/>
		<path d="M92.9,163.8L92.9,163.8c-0.3,0.5-1,1-2.1,1c-1.8,0-2.6-1.6-2.6-3.3c0-1.6,0.9-3.1,2.6-3.1c1.1,0,1.7,0.4,2,1h0v-3.7H94v9
			h-1.1V163.8z M91.1,163.9c1.3,0,1.8-1.3,1.8-2.3c0-1.1-0.6-2.3-1.8-2.3s-1.7,1.2-1.7,2.3C89.4,162.5,89.9,163.9,91.1,163.9z"/>
		<path d="M103.2,159.6c-0.4-0.2-0.9-0.3-1.2-0.3c-1.3,0-2,1.1-2,2.3c0,1.1,0.6,2.3,2,2.3c0.4,0,0.9-0.1,1.2-0.3l0.1,1
			c-0.5,0.2-1,0.3-1.4,0.3c-1.8,0-3.1-1.5-3.1-3.2c0-1.9,1.2-3.2,3.1-3.2c0.5,0,1,0.1,1.4,0.2L103.2,159.6z"/>
		<path d="M107.3,158.4c1.9,0,3.1,1.3,3.1,3.2c0,1.8-1.3,3.2-3.1,3.2c-1.8,0-3.1-1.5-3.1-3.2C104.2,159.7,105.4,158.4,107.3,158.4z
			 M107.3,163.9c1.3,0,1.9-1.2,1.9-2.3c0-1.2-0.7-2.3-1.9-2.3c-1.2,0-1.9,1.1-1.9,2.3C105.4,162.7,106,163.9,107.3,163.9z"/>
		<path d="M111.9,158.5h1.1v1h0c0.3-0.7,1.2-1.1,2-1.1c1.6,0,2.3,1,2.3,2.6v3.6h-1.1v-3.2c0-1.4-0.3-2.1-1.3-2.2
			c-1.3,0-1.9,1-1.9,2.5v2.8h-1.1V158.5z"/>
		<path d="M122.5,159.5h-1.6v3.3c0,0.7,0.4,1.1,0.9,1.1c0.3,0,0.6-0.1,0.8-0.2v1c-0.3,0.1-0.6,0.2-1,0.2c-1.2,0-1.9-0.6-1.9-1.8
			v-3.6h-1.4v-0.9h1.4v-1.4l1.1-0.4v1.8h1.6V159.5z"/>
		<path d="M128.6,164.4c-0.4,0.2-0.9,0.4-1.9,0.4c-2.2,0-3.2-1.3-3.2-3.3c0-1.8,1.1-3.1,2.9-3.1c2,0,2.7,1.5,2.7,3.5h-4.4
			c0,1.2,0.9,2,2,2c0.7,0,1.6-0.4,1.9-0.6V164.4z M127.9,161c0-0.9-0.6-1.7-1.5-1.7c-1.1,0-1.6,0.9-1.6,1.7H127.9z"/>
		<path d="M130.6,158.5h1.1v1h0c0.3-0.7,1.2-1.1,2-1.1c1.6,0,2.3,1,2.3,2.6v3.6h-1.1v-3.2c0-1.4-0.3-2.1-1.3-2.2
			c-1.3,0-1.9,1-1.9,2.5v2.8h-1.1V158.5z"/>
		<path d="M141.2,159.5h-1.6v3.3c0,0.7,0.4,1.1,0.9,1.1c0.3,0,0.6-0.1,0.8-0.2v1c-0.3,0.1-0.6,0.2-1,0.2c-1.2,0-1.9-0.6-1.9-1.8
			v-3.6h-1.4v-0.9h1.4v-1.4l1.1-0.4v1.8h1.6V159.5z"/>
		<path d="M148.6,158.4c1.9,0,3.1,1.3,3.1,3.2c0,1.8-1.3,3.2-3.1,3.2c-1.8,0-3.1-1.5-3.1-3.2C145.5,159.7,146.8,158.4,148.6,158.4z
			 M148.6,163.9c1.3,0,1.9-1.2,1.9-2.3c0-1.2-0.7-2.3-1.9-2.3c-1.2,0-1.9,1.1-1.9,2.3C146.7,162.7,147.3,163.9,148.6,163.9z"/>
		<path d="M154,159.5h-1.4v-0.9h1.4V158c0-1.5,0.4-2.5,2.1-2.5c0.3,0,0.5,0,0.8,0.1l0,0.9c-0.1,0-0.3-0.1-0.5-0.1
			c-1,0-1.1,0.6-1.1,1.5v0.7h1.6v0.9h-1.6v5.2H154V159.5z"/>
		<path d="M164.5,159.5h-1.6v3.3c0,0.7,0.4,1.1,0.9,1.1c0.3,0,0.6-0.1,0.8-0.2v1c-0.3,0.1-0.6,0.2-1,0.2c-1.2,0-1.9-0.6-1.9-1.8
			v-3.6h-1.4v-0.9h1.4v-1.4l1.1-0.4v1.8h1.6V159.5z"/>
		<path d="M165.9,155.7h1.1v3.8h0c0.4-0.6,1.1-1,2-1c1.6,0,2.3,1,2.3,2.6v3.6h-1.1v-3.2c0-1.4-0.3-2.1-1.3-2.2c-1.3,0-1.9,1-1.9,2.5
			v2.8h-1.1V155.7z"/>
		<path d="M178,164.4c-0.4,0.2-0.9,0.4-1.9,0.4c-2.2,0-3.2-1.3-3.2-3.3c0-1.8,1.1-3.1,2.9-3.1c2,0,2.7,1.5,2.7,3.5h-4.4
			c0,1.2,0.9,2,2,2c0.7,0,1.6-0.4,1.9-0.6V164.4z M177.2,161c0-0.9-0.6-1.7-1.5-1.7c-1.1,0-1.6,0.9-1.6,1.7H177.2z"/>
		<path d="M183.3,158.5h1.1v0.9h0c0.3-0.5,1-1,2.1-1c1.8,0,2.6,1.5,2.6,3.1c0,1.7-0.8,3.3-2.6,3.3c-1.1,0-1.7-0.4-2-1h0v3.4h-1.1
			V158.5z M186.2,159.3c-1.2,0-1.8,1.2-1.8,2.3c0,1,0.5,2.3,1.8,2.3c1.2,0,1.7-1.4,1.7-2.3C187.9,160.5,187.4,159.3,186.2,159.3z"/>
		<path d="M190.6,158.5h1.1v0.9h0c0.3-0.6,0.9-1.1,1.6-1.1c0.3,0,0.5,0,0.7,0.1v1c-0.2-0.1-0.4-0.1-0.6-0.1c-1,0-1.7,1-1.7,2.5v2.8
			h-1.1V158.5z"/>
		<path d="M198,158.4c1.9,0,3.1,1.3,3.1,3.2c0,1.8-1.3,3.2-3.1,3.2c-1.8,0-3.1-1.5-3.1-3.2C194.9,159.7,196.1,158.4,198,158.4z
			 M198,163.9c1.3,0,1.9-1.2,1.9-2.3c0-1.2-0.7-2.3-1.9-2.3c-1.2,0-1.9,1.1-1.9,2.3C196.1,162.7,196.7,163.9,198,163.9z"/>
		<path d="M208,164.4c0,1.9-1,2.9-3.2,2.9c-0.6,0-1.2-0.1-2.2-0.4l0.1-1c0.9,0.4,1.4,0.6,2.2,0.6c1.2,0,1.9-0.8,1.9-2.1v-0.6h0
			c-0.5,0.6-1.3,0.9-2.1,0.9c-1.8,0-2.6-1.4-2.6-3c0-1.6,0.9-3.3,2.7-3.3c1.1,0,1.7,0.4,2,1.1h0v-0.9h1V164.4z M206.9,161.7
			c0-1.3-0.6-2.4-1.8-2.4c-1.1,0-1.7,1.2-1.7,2.3c0,1.2,0.6,2.2,1.7,2.2C206.2,163.7,206.9,162.8,206.9,161.7z"/>
		<path d="M209.9,158.5h1.1v0.9h0c0.3-0.6,0.9-1.1,1.6-1.1c0.3,0,0.5,0,0.7,0.1v1c-0.2-0.1-0.4-0.1-0.6-0.1c-1,0-1.7,1-1.7,2.5v2.8
			h-1.1V158.5z"/>
		<path d="M214.9,159c0.6-0.3,1.2-0.6,2-0.6c1.8,0,2.5,0.9,2.5,2.5v2.5c0,0.7,0,1,0,1.2h-1.1v-0.8h0c-0.3,0.4-0.9,0.9-1.9,0.9
			c-1.3,0-2.2-0.6-2.2-1.9c0-1.5,1.7-2,2.8-2c0.4,0,0.8,0,1.2,0c0-1.1-0.4-1.6-1.5-1.6c-0.6,0-1.3,0.2-1.8,0.6L214.9,159z
			 M218.2,161.7c-0.2,0-0.5,0-0.7,0c-0.6,0-2.1,0.1-2.1,1.2c0,0.6,0.6,1,1.1,1c1.1,0,1.7-0.7,1.7-1.6V161.7z"/>
		<path d="M221.3,158.5h1.1v0.9h0c0.4-0.7,1-1,1.9-1c0.7,0,1.4,0.4,1.7,1.2c0.4-0.9,1.3-1.2,1.9-1.2c1.6,0,2.1,1,2.1,2.3v3.9h-1.1
			V161c0-0.8-0.2-1.7-1.1-1.7c-1.2,0-1.6,1.1-1.6,2.3v3.1h-1.1V161c0-0.8-0.2-1.7-1.1-1.7c-1.2,0-1.6,1.1-1.6,2.3v3.1h-1.1V158.5z"
			/>
		<path d="M232,163.3h1.3v1.3H232V163.3z"/>
	</g>
</g>
</svg>
