<?xml version="1.0" encoding="utf-8"?>
<!-- Generator: Adobe Illustrator 23.0.3, SVG Export Plug-In . SVG Version: 6.00 Build 0)  -->
<svg version="1.1" id="Layer_1" xmlns="http://www.w3.org/2000/svg" xmlns:xlink="http://www.w3.org/1999/xlink" x="0px" y="0px"
	 viewBox="0 0 250 250" style="enable-background:new 0 0 250 250;" xml:space="preserve">
<style type="text/css">
	.st0{fill:#5E5F5F;}
	.st1{fill:#C4E7E8;}
	.st2{fill:none;stroke:#FFFFFF;stroke-width:10;stroke-miterlimit:10;}
	.st3{fill:#FFFFFF;stroke:#FFFFFF;stroke-width:10;stroke-linecap:round;stroke-linejoin:round;stroke-miterlimit:10;}
	.st4{fill:none;stroke:#FFFFFF;stroke-width:10;stroke-linecap:round;stroke-linejoin:round;stroke-miterlimit:10;}
	.st5{fill:none;stroke:#C4E7E8;stroke-width:1.5;stroke-miterlimit:10;}
</style>
<circle class="st0" cx="125" cy="125" r="125"/>
<circle class="st1" cx="125" cy="125" r="122.5"/>
<g>
	<g>
		<polyline class="st2" points="119.6,108.1 132.3,114.5 138.8,125.3 126.3,123.6 115.4,114.5 		"/>
	</g>
	
		<rect x="108.4" y="103.3" transform="matrix(-0.5486 0.8361 -0.8361 -0.5486 265.963 73.353)" class="st3" width="9.6" height="10.3"/>
	
		<rect x="96.8" y="97.7" transform="matrix(-0.5486 0.8361 -0.8361 -0.5486 247.8733 71.8003)" class="st3" width="15.4" height="10.3"/>
	
		<rect x="62.3" y="39.8" transform="matrix(-0.5486 0.8361 -0.8361 -0.5486 170.6644 65.1731)" class="st4" width="10.9" height="77.7"/>
	
		<rect x="67.4" y="49.2" transform="matrix(-0.5486 0.8361 -0.8361 -0.5486 181.3766 66.0926)" class="st4" width="10.9" height="65.5"/>
	<line class="st5" x1="123.6" y1="115.3" x2="150.4" y2="132.9"/>
	<circle class="st1" cx="123.7" cy="115.4" r="2"/>
</g>
<g>
	
		<rect x="96.9" y="137.1" transform="matrix(-1 -4.488289e-11 4.488289e-11 -1 250.4952 330.9523)" class="st2" width="56.7" height="56.7"/>
	
		<rect x="153.6" y="137.1" transform="matrix(-1 -4.491486e-11 4.491486e-11 -1 363.8918 330.9523)" class="st2" width="56.7" height="56.7"/>
	
		<rect x="125.2" y="165.5" transform="matrix(-1 -4.488289e-11 4.488289e-11 -1 307.1935 387.6506)" class="st2" width="56.7" height="56.7"/>
	
		<rect x="68.5" y="165.5" transform="matrix(-1 -4.491486e-11 4.491486e-11 -1 193.7969 387.6506)" class="st2" width="56.7" height="56.7"/>
	
		<rect x="153.6" y="108.8" transform="matrix(-1 -4.491486e-11 4.491486e-11 -1 363.8918 274.254)" class="st2" width="56.7" height="56.7"/>
	
		<rect x="39.7" y="137.1" transform="matrix(-1 -4.491486e-11 4.491486e-11 -1 136.1082 330.9523)" class="st2" width="56.7" height="56.7"/>
</g>
</svg>
