<?xml version="1.0" encoding="utf-8"?>
<!-- Generator: Adobe Illustrator 23.0.3, SVG Export Plug-In . SVG Version: 6.00 Build 0)  -->
<svg version="1.1" id="Layer_1" xmlns="http://www.w3.org/2000/svg" xmlns:xlink="http://www.w3.org/1999/xlink" x="0px" y="0px"
	 viewBox="0 0 250 250" style="enable-background:new 0 0 250 250;" xml:space="preserve">
<style type="text/css">
	.st0{fill:#5E5F5F;}
	.st1{fill:#C3E6E8;}
	.st2{fill:none;stroke:#FFFFFF;stroke-width:10;stroke-linecap:round;stroke-linejoin:round;stroke-miterlimit:10;}
</style>
<circle class="st0" cx="125" cy="125" r="125"/>
<circle class="st1" cx="125" cy="125" r="122.5"/>
<g>
	<line class="st2" x1="39.5" y1="60.2" x2="39.5" y2="190.7"/>
	<path class="st2" d="M39.5,60.2c21.6,6.3,64.9-24.8,85.5,0"/>
	<path class="st2" d="M66.9,77.1c14.6-3.9,30.7-9.1,43.7-6.1"/>
	<path class="st2" d="M66.9,90.4c14.6-3.9,30.7-9.1,43.7-6.1"/>
	<path class="st2" d="M66.9,103.7c14.6-3.9,30.7-9.1,43.7-6.1"/>
	<path class="st2" d="M66.9,117c14.6-3.9,30.7-9.1,43.7-6.1"/>
	<path class="st2" d="M66.9,130.4c14.6-3.9,30.7-9.1,43.7-6.1"/>
	<path class="st2" d="M66.9,143.7c14.6-3.9,30.7-9.1,43.7-6.1"/>
	<path class="st2" d="M66.9,157c14.6-3.9,30.7-9.1,43.7-6.1"/>
	<path class="st2" d="M183.4,77.1c-14.6-3.9-30.7-9.1-43.7-6.1"/>
	<path class="st2" d="M183.4,117c-14.6-3.9-30.7-9.1-43.7-6.1"/>
	<path class="st2" d="M183.4,130.4c-14.6-3.9-30.7-9.1-43.7-6.1"/>
	<path class="st2" d="M183.4,143.7c-14.6-3.9-30.7-9.1-43.7-6.1"/>
	<path class="st2" d="M183.4,157c-14.6-3.9-30.7-9.1-43.7-6.1"/>
	<path class="st2" d="M39.5,190.7c18.9,5.5,54.3-17.5,76.6-6.9"/>
	<path class="st2" d="M51.9,175.9c23-3,56-21.1,73.1-0.5"/>
	<line class="st2" x1="51.8" y1="175.5" x2="51.8" y2="60.6"/>
	<line class="st2" x1="125" y1="60.2" x2="125" y2="183.8"/>
	<line class="st2" x1="116.2" y1="183.8" x2="125" y2="183.8"/>
	<line class="st2" x1="210.5" y1="60.2" x2="210.5" y2="190.7"/>
	<path class="st2" d="M210.5,60.2c-21.6,6.3-64.9-24.8-85.5,0"/>
	<path class="st2" d="M210.5,190.7c-18.9,5.5-54.3-17.5-76.6-6.9"/>
	<path class="st2" d="M198.1,175.9c-23-3-56-21.1-73.1-0.5"/>
	<line class="st2" x1="198.2" y1="175.5" x2="198.2" y2="60.6"/>
	<line class="st2" x1="133.8" y1="183.8" x2="125" y2="183.8"/>
	<line class="st2" x1="139.7" y1="71" x2="139.7" y2="110.9"/>
	<line class="st2" x1="183.4" y1="77.1" x2="183.4" y2="117"/>
</g>
</svg>
