<?xml version="1.0" encoding="utf-8"?>
<!-- Generator: Adobe Illustrator 23.0.3, SVG Export Plug-In . SVG Version: 6.00 Build 0)  -->
<svg version="1.1" id="Layer_1" xmlns="http://www.w3.org/2000/svg" xmlns:xlink="http://www.w3.org/1999/xlink" x="0px" y="0px"
	 viewBox="0 0 250 250" style="enable-background:new 0 0 250 250;" xml:space="preserve">
<style type="text/css">
	.st0{fill:#C4E7E8;}
	.st1{fill:#FFFFFF;stroke:#FFFFFF;stroke-width:10;stroke-miterlimit:10;}
	.st2{fill:#C4E7E8;stroke:#FFFFFF;stroke-width:10;stroke-miterlimit:10;}
	.st3{fill:#FFFFFF;stroke:#FFFFFF;stroke-width:3;stroke-linecap:round;stroke-linejoin:round;stroke-miterlimit:10;}
	.st4{font-family:'ArialMT';}
	.st5{font-size:62.1166px;}
</style>
<circle class="st0" cx="125" cy="125" r="125"/>
<g>
	<g>
		<path class="st1" d="M158.59,194.07l-68.2,30.31c-6.03,2.68-13.16-0.06-15.84-6.09l-35.71-80.34c-2.68-6.03,0.06-13.16,6.09-15.84
			l68.2-30.31c6.03-2.68,13.16,0.06,15.84,6.09l35.71,80.34C167.36,184.26,164.62,191.39,158.59,194.07z"/>
		
			<rect x="55.31" y="108.27" transform="matrix(0.9138 -0.4062 0.4062 0.9138 -53.2053 53.3408)" class="st2" width="87.49" height="87.49"/>
		<text transform="matrix(0.9138 -0.4062 0.4062 0.9138 92.4948 179.6678)" class="st3 st4 st5">$</text>
	</g>
	<g>
		<path class="st1" d="M155.2,159.41L88.57,125.8c-5.89-2.97-8.28-10.23-5.31-16.12l39.59-78.51c2.97-5.89,10.23-8.28,16.12-5.31
			l66.63,33.61c5.89,2.97,8.28,10.23,5.31,16.12l-39.59,78.51C168.35,159.99,161.09,162.38,155.2,159.41z"/>
		
			<rect x="106.33" y="42.96" transform="matrix(0.8929 0.4503 -0.4503 0.8929 55.1192 -58.2902)" class="st2" width="87.49" height="87.49"/>
		<text transform="matrix(0.8929 0.4503 -0.4503 0.8929 124.4495 99.1947)" class="st3 st4 st5">$</text>
	</g>
	<g>
		<path class="st1" d="M172.65,171.14l-74.06,9.18c-6.55,0.81-12.57-3.88-13.39-10.43L74.39,82.64
			c-0.81-6.55,3.88-12.57,10.43-13.39l74.06-9.18c6.55-0.81,12.57,3.88,13.39,10.43l10.82,87.26
			C183.9,164.31,179.2,170.33,172.65,171.14z"/>
		
			<rect x="84.17" y="69.86" transform="matrix(0.9924 -0.123 0.123 0.9924 -13.0045 16.6005)" class="st2" width="87.49" height="87.49"/>
		<text transform="matrix(0.9924 -0.123 0.123 0.9924 113.5642 138.158)" class="st3 st4 st5">$</text>
	</g>
</g>
<g>
	<g>
		<path d="M48.7,81.99h3.19c2.74,0,5.24,0.79,5.24,3.8c0,2.93-2.14,4-4.84,4h-1.06v4.77H48.7V81.99z M51.22,87.81h0.88
			c1.26,0,2.39-0.41,2.39-1.87s-1.1-1.96-2.39-1.96h-0.88V87.81z"/>
		<path d="M58.93,81.99h2.52v5.08h5.04v-5.08h2.52v12.57h-2.52v-5.51h-5.04v5.51h-2.52V81.99z"/>
		<path d="M77.47,81.78c3.94,0,6.16,2.66,6.16,6.46s-2.18,6.54-6.16,6.54c-4.03,0-6.16-2.68-6.16-6.54S73.47,81.78,77.47,81.78z
			 M77.47,92.8c2.58,0,3.53-2.29,3.53-4.56c0-2.21-1.03-4.48-3.53-4.48c-2.5,0-3.53,2.27-3.53,4.48
			C73.94,90.51,74.89,92.8,77.47,92.8z"/>
		<path d="M88.21,83.98h-3.6v-1.98h9.72v1.98h-3.6v10.59h-2.52V83.98z"/>
		<path d="M101.48,81.78c3.94,0,6.16,2.66,6.16,6.46s-2.18,6.54-6.16,6.54c-4.03,0-6.16-2.68-6.16-6.54S97.48,81.78,101.48,81.78z
			 M101.48,92.8c2.58,0,3.53-2.29,3.53-4.56c0-2.21-1.03-4.48-3.53-4.48c-2.5,0-3.53,2.27-3.53,4.48
			C97.95,90.51,98.91,92.8,101.48,92.8z"/>
		<path d="M114.73,81.99h2.72c2.7,0,5.92-0.09,5.92,3.4c0,1.48-0.99,2.7-2.59,2.92v0.04c0.68,0.05,1.08,0.74,1.33,1.3l2.02,4.92
			h-2.81l-1.51-3.93c-0.36-0.94-0.68-1.3-1.75-1.3h-0.81v5.22h-2.52V81.99z M117.25,87.36h0.83c1.24,0,2.67-0.18,2.67-1.75
			c0-1.51-1.4-1.64-2.67-1.64h-0.83V87.36z"/>
		<path d="M125.94,81.99h7.42v1.98h-4.9v3.1h4.48v1.98h-4.48v3.53h4.93v1.98h-7.45V81.99z"/>
		<path d="M142.7,84.3c-0.79-0.34-1.67-0.54-2.56-0.54c-0.86,0-1.98,0.38-1.98,1.75c0,2.18,5.51,1.26,5.51,5.47
			c0,2.75-2.18,3.8-4.72,3.8c-1.37,0-1.98-0.18-3.22-0.49l0.23-2.27c0.86,0.47,1.85,0.77,2.84,0.77c0.95,0,2.23-0.49,2.23-1.62
			c0-2.4-5.51-1.4-5.51-5.56c0-2.81,2.18-3.83,4.39-3.83c1.08,0,2.09,0.14,3.01,0.45L142.7,84.3z"/>
		<path d="M145.96,81.99h7.42v1.98h-4.9v3.1h4.48v1.98h-4.48v3.53h4.93v1.98h-7.45V81.99z"/>
		<path d="M159.57,81.99h2.84l4.93,12.57h-2.79l-1.08-2.88h-5.1l-1.1,2.88h-2.61L159.57,81.99z M160.95,84.52h-0.04l-1.82,5.19h3.67
			L160.95,84.52z"/>
		<path d="M168.74,81.99h2.72c2.7,0,5.92-0.09,5.92,3.4c0,1.48-0.99,2.7-2.59,2.92v0.04c0.68,0.05,1.08,0.74,1.33,1.3l2.02,4.92
			h-2.81l-1.51-3.93c-0.36-0.94-0.68-1.3-1.75-1.3h-0.81v5.22h-2.52V81.99z M171.26,87.36h0.83c1.24,0,2.67-0.18,2.67-1.75
			c0-1.51-1.41-1.64-2.67-1.64h-0.83V87.36z"/>
		<path d="M189.1,94.38c-0.92,0.22-1.91,0.4-2.86,0.4c-4.07,0-6.9-2.03-6.9-6.28c0-4.3,2.63-6.72,6.9-6.72
			c0.83,0,1.93,0.16,2.85,0.52l-0.18,2.12c-0.95-0.54-1.82-0.67-2.72-0.67c-2.59,0-4.21,1.98-4.21,4.56c0,2.56,1.58,4.48,4.27,4.48
			c0.99,0,2.16-0.22,2.75-0.52L189.1,94.38z"/>
		<path d="M190.96,81.99h2.52v5.08h5.04v-5.08h2.52v12.57h-2.52v-5.51h-5.04v5.51h-2.52V81.99z"/>
	</g>
	<g>
		<path d="M28.16,114.09h1.32l2,7.17h0.02l1.79-7.17H35l1.81,7.17h0.02l2-7.17h1.27l-2.58,8.37h-1.55l-1.82-7.32h-0.02l-1.83,7.32
			h-1.61L28.16,114.09z"/>
		<path d="M45.43,122.21c-0.43,0.16-0.92,0.4-1.93,0.4c-2.17,0-3.17-1.32-3.17-3.31c0-1.81,1.14-3.09,2.87-3.09
			c2.04,0,2.7,1.49,2.7,3.45h-4.37c0,1.21,0.95,2.04,2.02,2.04c0.74,0,1.61-0.38,1.88-0.61V122.21z M44.7,118.81
			c0-0.94-0.55-1.7-1.52-1.7c-1.1,0-1.56,0.91-1.64,1.7H44.7z"/>
		<path d="M56.16,122.46h-1.09v-0.97h-0.02c-0.34,0.7-1.15,1.12-2,1.12c-1.58,0-2.29-0.98-2.29-2.63v-3.63h1.13v3.17
			c0,1.43,0.31,2.12,1.3,2.18c1.28,0,1.86-1.03,1.86-2.52v-2.83h1.13V122.46z"/>
		<path d="M58.08,116.34h1.09v0.97h0.02c0.34-0.7,1.15-1.12,2-1.12c1.58,0,2.29,0.98,2.29,2.63v3.63h-1.13v-3.17
			c0-1.43-0.31-2.12-1.3-2.18c-1.28,0-1.86,1.03-1.86,2.52v2.83h-1.13V116.34z"/>
		<path d="M69.74,121.6h-0.02c-0.3,0.46-1,1.01-2.09,1.01c-1.85,0-2.63-1.64-2.63-3.31c0-1.64,0.86-3.09,2.64-3.09
			c1.07,0,1.68,0.42,2.03,0.98h0.02v-3.72h1.13v9h-1.08V121.6z M67.89,121.69c1.27,0,1.8-1.26,1.8-2.28c0-1.14-0.59-2.3-1.81-2.3
			s-1.7,1.15-1.68,2.27C66.18,120.34,66.68,121.69,67.89,121.69z"/>
		<path d="M77.43,122.21c-0.43,0.16-0.92,0.4-1.93,0.4c-2.17,0-3.17-1.32-3.17-3.31c0-1.81,1.14-3.09,2.87-3.09
			c2.04,0,2.7,1.49,2.7,3.45h-4.37c0,1.21,0.95,2.04,2.02,2.04c0.74,0,1.61-0.38,1.88-0.61V122.21z M76.7,118.81
			c0-0.94-0.55-1.7-1.52-1.7c-1.1,0-1.56,0.91-1.64,1.7H76.7z"/>
		<path d="M79.41,116.34h1.06v0.95h0.02c0.3-0.64,0.95-1.09,1.59-1.09c0.34,0,0.5,0.04,0.74,0.08v1.01
			c-0.2-0.08-0.43-0.11-0.62-0.11c-1.01,0-1.67,0.96-1.67,2.49v2.78h-1.13V116.34z"/>
		<path d="M83.63,121.26c0.44,0.29,1.08,0.43,1.4,0.43c0.52,0,1.15-0.22,1.15-0.88c0-1.12-2.65-1.02-2.65-2.73
			c0-1.27,0.95-1.88,2.16-1.88c0.53,0,0.96,0.11,1.4,0.24l-0.1,0.98c-0.25-0.16-0.92-0.31-1.19-0.31c-0.58,0-1.08,0.24-1.08,0.74
			c0,1.25,2.65,0.89,2.65,2.84c0,1.31-1.04,1.91-2.13,1.91c-0.58,0-1.16-0.06-1.68-0.34L83.63,121.26z"/>
		<path d="M92,117.26h-1.62v3.35c0,0.71,0.43,1.09,0.95,1.09c0.35,0,0.6-0.11,0.77-0.22v0.96c-0.25,0.07-0.6,0.17-0.96,0.17
			c-1.16,0-1.88-0.55-1.88-1.78v-3.57h-1.38v-0.91h1.38v-1.42l1.13-0.36v1.77H92V117.26z"/>
		<path d="M93.71,116.78c0.56-0.34,1.24-0.58,2.02-0.58c1.75,0,2.46,0.86,2.46,2.53v2.53c0,0.7,0.02,1.02,0.05,1.2h-1.06v-0.79
			h-0.02c-0.26,0.37-0.86,0.94-1.9,0.94c-1.32,0-2.24-0.58-2.24-1.91c0-1.54,1.68-2.01,2.84-2.01c0.44,0,0.76,0,1.2,0.02
			c0-1.06-0.38-1.6-1.51-1.6c-0.64,0-1.32,0.24-1.78,0.62L93.71,116.78z M97.05,119.55c-0.24,0-0.48-0.02-0.72-0.02
			c-0.61,0-2.12,0.1-2.12,1.18c0,0.65,0.62,1,1.14,1c1.12,0,1.7-0.7,1.7-1.61V119.55z"/>
		<path d="M100.09,116.34h1.09v0.97h0.02c0.34-0.7,1.15-1.12,2-1.12c1.58,0,2.29,0.98,2.29,2.63v3.63h-1.13v-3.17
			c0-1.43-0.31-2.12-1.3-2.18c-1.28,0-1.86,1.03-1.86,2.52v2.83h-1.13V116.34z"/>
		<path d="M111.75,121.6h-0.02c-0.3,0.46-1,1.01-2.09,1.01c-1.85,0-2.63-1.64-2.63-3.31c0-1.64,0.86-3.09,2.64-3.09
			c1.07,0,1.68,0.42,2.03,0.98h0.02v-3.72h1.13v9h-1.08V121.6z M109.9,121.69c1.27,0,1.8-1.26,1.8-2.28c0-1.14-0.59-2.3-1.81-2.3
			s-1.7,1.15-1.68,2.27C108.19,120.34,108.69,121.69,109.9,121.69z"/>
		<path d="M121.34,117.26h-1.62v3.35c0,0.71,0.43,1.09,0.95,1.09c0.35,0,0.6-0.11,0.77-0.22v0.96c-0.25,0.07-0.6,0.17-0.96,0.17
			c-1.16,0-1.88-0.55-1.88-1.78v-3.57h-1.38v-0.91h1.38v-1.42l1.13-0.36v1.77h1.62V117.26z"/>
		<path d="M122.76,113.47h1.13v3.75h0.02c0.41-0.65,1.12-1.02,1.97-1.02c1.58,0,2.29,0.98,2.29,2.63v3.63h-1.13v-3.17
			c0-1.43-0.31-2.12-1.3-2.18c-1.28,0-1.86,1.03-1.86,2.52v2.83h-1.13V113.47z"/>
		<path d="M134.78,122.21c-0.43,0.16-0.92,0.4-1.93,0.4c-2.17,0-3.17-1.32-3.17-3.31c0-1.81,1.14-3.09,2.87-3.09
			c2.04,0,2.7,1.49,2.7,3.45h-4.37c0,1.21,0.95,2.04,2.01,2.04c0.74,0,1.61-0.38,1.88-0.61V122.21z M134.05,118.81
			c0-0.94-0.55-1.7-1.52-1.7c-1.1,0-1.56,0.91-1.64,1.7H134.05z"/>
		<path d="M140.09,116.34h1.06v0.89h0.02c0.43-0.71,1.04-1.03,1.94-1.03c0.71,0,1.42,0.36,1.74,1.19c0.42-0.88,1.34-1.19,1.89-1.19
			c1.56,0,2.12,1.01,2.12,2.34v3.92h-1.13v-3.65c0-0.76-0.18-1.7-1.09-1.7c-1.15,0-1.61,1.13-1.61,2.27v3.08h-1.13v-3.65
			c0-0.76-0.18-1.7-1.09-1.7c-1.15,0-1.61,1.13-1.61,2.27v3.08h-1.13V116.34z"/>
		<path d="M151.05,116.78c0.56-0.34,1.24-0.58,2.01-0.58c1.75,0,2.46,0.86,2.46,2.53v2.53c0,0.7,0.02,1.02,0.05,1.2h-1.06v-0.79
			h-0.02c-0.26,0.37-0.86,0.94-1.9,0.94c-1.32,0-2.24-0.58-2.24-1.91c0-1.54,1.68-2.01,2.84-2.01c0.44,0,0.76,0,1.2,0.02
			c0-1.06-0.38-1.6-1.51-1.6c-0.64,0-1.32,0.24-1.78,0.62L151.05,116.78z M154.4,119.55c-0.24,0-0.48-0.02-0.72-0.02
			c-0.61,0-2.12,0.1-2.12,1.18c0,0.65,0.62,1,1.14,1c1.12,0,1.7-0.7,1.7-1.61V119.55z"/>
		<path d="M156.99,121.48l3.53-4.22h-3.36v-0.91h4.67v0.98l-3.53,4.22h3.66v0.91h-4.96V121.48z"/>
		<path d="M168.13,122.21c-0.43,0.16-0.92,0.4-1.93,0.4c-2.17,0-3.17-1.32-3.17-3.31c0-1.81,1.14-3.09,2.87-3.09
			c2.04,0,2.7,1.49,2.7,3.45h-4.37c0,1.21,0.95,2.04,2.01,2.04c0.74,0,1.61-0.38,1.88-0.61V122.21z M167.4,118.81
			c0-0.94-0.55-1.7-1.52-1.7c-1.1,0-1.56,0.91-1.64,1.7H167.4z"/>
		<path d="M176.16,116.2c1.86,0,3.11,1.34,3.11,3.2c0,1.75-1.27,3.2-3.11,3.2c-1.85,0-3.12-1.45-3.12-3.2
			C173.04,117.54,174.29,116.2,176.16,116.2z M176.16,121.69c1.32,0,1.91-1.2,1.91-2.29c0-1.16-0.71-2.29-1.91-2.29
			c-1.21,0-1.92,1.13-1.92,2.29C174.24,120.49,174.83,121.69,176.16,121.69z"/>
		<path d="M181.51,117.26h-1.44v-0.91h1.44v-0.56c0-1.49,0.38-2.46,2.05-2.46c0.29,0,0.53,0.04,0.75,0.07l-0.05,0.91
			c-0.13-0.05-0.35-0.07-0.54-0.07c-0.97,0-1.09,0.62-1.09,1.45v0.66h1.62v0.91h-1.62v5.21h-1.13V117.26z"/>
		<path d="M188.78,116.34h1.08v0.86h0.02c0.3-0.46,1-1.01,2.08-1.01c1.77,0,2.64,1.45,2.64,3.09c0,1.68-0.78,3.31-2.63,3.31
			c-1.08,0-1.69-0.42-2.04-0.98h-0.02v3.36h-1.13V116.34z M191.72,117.11c-1.22,0-1.81,1.16-1.81,2.3c0,1.02,0.53,2.28,1.8,2.28
			c1.21,0,1.71-1.36,1.69-2.31C193.42,118.27,192.94,117.11,191.72,117.11z"/>
		<path d="M196.11,113.47h1.13v3.75h0.02c0.41-0.65,1.12-1.02,1.97-1.02c1.58,0,2.29,0.98,2.29,2.63v3.63h-1.13v-3.17
			c0-1.43-0.31-2.12-1.3-2.18c-1.28,0-1.86,1.03-1.86,2.52v2.83h-1.13V113.47z"/>
		<path d="M206.16,116.2c1.86,0,3.11,1.34,3.11,3.2c0,1.75-1.27,3.2-3.11,3.2c-1.85,0-3.12-1.45-3.12-3.2
			C203.04,117.54,204.29,116.2,206.16,116.2z M206.16,121.69c1.32,0,1.91-1.2,1.91-2.29c0-1.16-0.71-2.29-1.91-2.29
			c-1.21,0-1.92,1.13-1.92,2.29C204.24,120.49,204.83,121.69,206.16,121.69z"/>
		<path d="M214.03,117.26h-1.62v3.35c0,0.71,0.43,1.09,0.95,1.09c0.35,0,0.6-0.11,0.77-0.22v0.96c-0.25,0.07-0.6,0.17-0.96,0.17
			c-1.16,0-1.88-0.55-1.88-1.78v-3.57h-1.38v-0.91h1.38v-1.42l1.13-0.36v1.77h1.62V117.26z"/>
		<path d="M218.16,116.2c1.86,0,3.11,1.34,3.11,3.2c0,1.75-1.27,3.2-3.11,3.2c-1.85,0-3.12-1.45-3.12-3.2
			C215.04,117.54,216.29,116.2,218.16,116.2z M218.16,121.69c1.32,0,1.91-1.2,1.91-2.29c0-1.16-0.71-2.29-1.91-2.29
			c-1.21,0-1.92,1.13-1.92,2.29C216.24,120.49,216.83,121.69,218.16,121.69z"/>
		<path d="M37.59,130.74h1.06v0.95h0.02c0.3-0.64,0.95-1.09,1.59-1.09c0.34,0,0.5,0.04,0.74,0.08v1.01
			c-0.2-0.08-0.43-0.11-0.62-0.11c-1.01,0-1.67,0.96-1.67,2.5v2.78h-1.13V130.74z"/>
		<path d="M46.95,136.61c-0.43,0.16-0.92,0.4-1.93,0.4c-2.17,0-3.17-1.32-3.17-3.31c0-1.81,1.14-3.09,2.87-3.09
			c2.04,0,2.7,1.49,2.7,3.45h-4.37c0,1.21,0.95,2.04,2.02,2.04c0.74,0,1.61-0.38,1.88-0.61V136.61z M46.21,133.21
			c0-0.94-0.55-1.7-1.52-1.7c-1.1,0-1.56,0.91-1.64,1.7H46.21z"/>
		<path d="M48.47,135.66c0.44,0.29,1.08,0.43,1.4,0.43c0.52,0,1.15-0.22,1.15-0.88c0-1.12-2.65-1.02-2.65-2.73
			c0-1.27,0.95-1.88,2.16-1.88c0.53,0,0.96,0.11,1.4,0.24l-0.1,0.98c-0.25-0.16-0.92-0.31-1.19-0.31c-0.58,0-1.08,0.24-1.08,0.74
			c0,1.25,2.65,0.89,2.65,2.84c0,1.31-1.04,1.91-2.13,1.91c-0.58,0-1.16-0.06-1.68-0.34L48.47,135.66z"/>
		<path d="M58.29,136.61c-0.43,0.16-0.92,0.4-1.93,0.4c-2.17,0-3.17-1.32-3.17-3.31c0-1.81,1.14-3.09,2.87-3.09
			c2.04,0,2.7,1.49,2.7,3.45h-4.37c0,1.21,0.95,2.04,2.02,2.04c0.74,0,1.61-0.38,1.88-0.61V136.61z M57.55,133.21
			c0-0.94-0.55-1.7-1.52-1.7c-1.1,0-1.56,0.91-1.64,1.7H57.55z"/>
		<path d="M60.56,131.17c0.56-0.33,1.23-0.58,2.01-0.58c1.75,0,2.46,0.86,2.46,2.53v2.53c0,0.7,0.02,1.02,0.05,1.2h-1.06v-0.79H64
			c-0.26,0.37-0.86,0.94-1.9,0.94c-1.32,0-2.24-0.58-2.24-1.91c0-1.54,1.68-2.01,2.84-2.01c0.44,0,0.76,0,1.2,0.02
			c0-1.06-0.38-1.6-1.51-1.6c-0.64,0-1.32,0.24-1.78,0.62L60.56,131.17z M63.9,133.95c-0.24,0-0.48-0.02-0.72-0.02
			c-0.61,0-2.12,0.1-2.12,1.17c0,0.65,0.62,1,1.14,1c1.12,0,1.7-0.7,1.7-1.61V133.95z"/>
		<path d="M66.94,130.74H68v0.95h0.02c0.3-0.64,0.95-1.09,1.59-1.09c0.34,0,0.5,0.04,0.74,0.08v1.01c-0.2-0.08-0.43-0.11-0.62-0.11
			c-1.01,0-1.67,0.96-1.67,2.5v2.78h-1.13V130.74z"/>
		<path d="M75.49,131.78c-0.43-0.18-0.86-0.26-1.22-0.26c-1.26,0-1.97,1.13-1.97,2.29c0,1.09,0.59,2.29,2.04,2.29
			c0.38,0,0.86-0.12,1.21-0.35l0.08,1.01c-0.47,0.22-1.01,0.25-1.42,0.25c-1.85,0-3.12-1.45-3.12-3.2c0-1.86,1.25-3.2,3.12-3.2
			c0.46,0,1.04,0.11,1.37,0.24L75.49,131.78z"/>
		<path d="M76.94,127.87h1.13v3.75h0.02c0.41-0.65,1.12-1.02,1.97-1.02c1.58,0,2.29,0.98,2.29,2.63v3.63h-1.13v-3.17
			c0-1.43-0.31-2.12-1.3-2.18c-1.28,0-1.86,1.03-1.86,2.52v2.83h-1.13V127.87z"/>
		<path d="M84.3,135.52h1.34l-1.02,2.94h-1.08L84.3,135.52z"/>
		<path d="M92.28,129.38h-1.27v-1.27h1.27V129.38z M91.08,130.74h1.13v6.12h-1.13V130.74z"/>
		<path d="M94.27,130.74h1.09v0.97h0.02c0.34-0.7,1.15-1.12,2-1.12c1.58,0,2.29,0.98,2.29,2.63v3.63h-1.13v-3.17
			c0-1.43-0.31-2.12-1.3-2.18c-1.28,0-1.86,1.03-1.86,2.52v2.83h-1.13V130.74z"/>
		<path d="M105.49,131.78c-0.43-0.18-0.86-0.26-1.22-0.26c-1.26,0-1.97,1.13-1.97,2.29c0,1.09,0.59,2.29,2.04,2.29
			c0.38,0,0.86-0.12,1.21-0.35l0.08,1.01c-0.47,0.22-1.01,0.25-1.42,0.25c-1.85,0-3.12-1.45-3.12-3.2c0-1.86,1.25-3.2,3.12-3.2
			c0.46,0,1.04,0.11,1.37,0.24L105.49,131.78z"/>
		<path d="M107.08,127.87h1.13v9h-1.13V127.87z"/>
		<path d="M115.68,136.86h-1.09v-0.97h-0.02c-0.34,0.7-1.15,1.12-2,1.12c-1.58,0-2.29-0.98-2.29-2.63v-3.63h1.13v3.17
			c0,1.43,0.31,2.12,1.3,2.18c1.28,0,1.86-1.03,1.86-2.52v-2.83h1.13V136.86z"/>
		<path d="M121.93,136h-0.02c-0.3,0.46-1,1.01-2.09,1.01c-1.85,0-2.63-1.64-2.63-3.31c0-1.64,0.86-3.09,2.64-3.09
			c1.07,0,1.68,0.42,2.03,0.98h0.02v-3.72h1.13v9h-1.08V136z M120.08,136.09c1.27,0,1.8-1.26,1.8-2.28c0-1.14-0.59-2.3-1.81-2.3
			c-1.22,0-1.7,1.15-1.68,2.27C118.37,134.74,118.87,136.09,120.08,136.09z"/>
		<path d="M126.28,129.38h-1.27v-1.27h1.27V129.38z M125.08,130.74h1.13v6.12h-1.13V130.74z"/>
		<path d="M128.27,130.74h1.09v0.97h0.02c0.34-0.7,1.15-1.12,2-1.12c1.58,0,2.29,0.98,2.29,2.63v3.63h-1.13v-3.17
			c0-1.43-0.31-2.12-1.29-2.18c-1.28,0-1.86,1.03-1.86,2.52v2.83h-1.13V130.74z"/>
		<path d="M141.01,136.6c0,1.86-0.96,2.93-3.15,2.93c-0.65,0-1.21-0.08-2.2-0.42l0.12-1.04c0.86,0.4,1.38,0.55,2.21,0.55
			c1.19,0,1.89-0.8,1.89-2.1v-0.6h-0.02c-0.48,0.63-1.27,0.95-2.05,0.95c-1.75,0-2.62-1.43-2.62-3.01c0-1.57,0.89-3.25,2.73-3.25
			c1.08,0,1.68,0.4,2.02,1.06h0.02v-0.91h1.04V136.6z M139.88,133.87c0-1.27-0.59-2.36-1.79-2.36c-1.14,0-1.7,1.24-1.7,2.28
			c0,1.15,0.65,2.16,1.7,2.16C139.15,135.95,139.88,135.01,139.88,133.87z"/>
		<path d="M146.27,130.74h1.08v0.86h0.02c0.3-0.46,1-1.01,2.07-1.01c1.78,0,2.64,1.45,2.64,3.09c0,1.68-0.78,3.31-2.63,3.31
			c-1.08,0-1.69-0.42-2.04-0.98h-0.02v3.36h-1.13V130.74z M149.21,131.51c-1.22,0-1.81,1.16-1.81,2.3c0,1.02,0.53,2.28,1.8,2.28
			c1.21,0,1.72-1.36,1.69-2.32C150.91,132.67,150.43,131.51,149.21,131.51z"/>
		<path d="M158.29,136.61c-0.43,0.16-0.92,0.4-1.93,0.4c-2.17,0-3.17-1.32-3.17-3.31c0-1.81,1.14-3.09,2.87-3.09
			c2.04,0,2.7,1.49,2.7,3.45h-4.37c0,1.21,0.95,2.04,2.02,2.04c0.74,0,1.61-0.38,1.88-0.61V136.61z M157.56,133.21
			c0-0.94-0.55-1.7-1.52-1.7c-1.1,0-1.56,0.91-1.64,1.7H157.56z"/>
		<path d="M160.27,130.74h1.06v0.95h0.02c0.3-0.64,0.95-1.09,1.59-1.09c0.34,0,0.5,0.04,0.74,0.08v1.01
			c-0.2-0.08-0.43-0.11-0.62-0.11c-1.01,0-1.67,0.96-1.67,2.5v2.78h-1.13V130.74z"/>
		<path d="M164.93,130.74h1.06v0.89h0.02c0.43-0.71,1.04-1.03,1.94-1.03c0.71,0,1.42,0.36,1.74,1.19c0.42-0.88,1.34-1.19,1.9-1.19
			c1.56,0,2.12,1.01,2.12,2.34v3.92h-1.13v-3.65c0-0.75-0.18-1.7-1.09-1.7c-1.15,0-1.61,1.13-1.61,2.27v3.08h-1.13v-3.65
			c0-0.75-0.18-1.7-1.09-1.7c-1.15,0-1.61,1.13-1.61,2.27v3.08h-1.13V130.74z"/>
		<path d="M176.95,129.38h-1.27v-1.27h1.27V129.38z M175.75,130.74h1.13v6.12h-1.13V130.74z"/>
		<path d="M178.49,135.66c0.44,0.29,1.08,0.43,1.4,0.43c0.52,0,1.15-0.22,1.15-0.88c0-1.12-2.65-1.02-2.65-2.73
			c0-1.27,0.95-1.88,2.16-1.88c0.53,0,0.96,0.11,1.4,0.24l-0.1,0.98c-0.25-0.16-0.92-0.31-1.19-0.31c-0.58,0-1.08,0.24-1.08,0.74
			c0,1.25,2.65,0.89,2.65,2.84c0,1.31-1.04,1.91-2.13,1.91c-0.58,0-1.16-0.06-1.68-0.34L178.49,135.66z"/>
		<path d="M183.16,135.66c0.44,0.29,1.08,0.43,1.4,0.43c0.52,0,1.15-0.22,1.15-0.88c0-1.12-2.65-1.02-2.65-2.73
			c0-1.27,0.95-1.88,2.16-1.88c0.53,0,0.96,0.11,1.4,0.24l-0.1,0.98c-0.25-0.16-0.92-0.31-1.19-0.31c-0.58,0-1.08,0.24-1.08,0.74
			c0,1.25,2.65,0.89,2.65,2.84c0,1.31-1.04,1.91-2.13,1.91c-0.58,0-1.16-0.06-1.68-0.34L183.16,135.66z"/>
		<path d="M189.62,129.38h-1.27v-1.27h1.27V129.38z M188.43,130.74h1.13v6.12h-1.13V130.74z"/>
		<path d="M194.33,130.6c1.86,0,3.11,1.34,3.11,3.2c0,1.75-1.27,3.2-3.11,3.2c-1.85,0-3.12-1.45-3.12-3.2
			C191.21,131.94,192.46,130.6,194.33,130.6z M194.33,136.09c1.32,0,1.91-1.2,1.91-2.29c0-1.16-0.71-2.29-1.91-2.29
			c-1.21,0-1.92,1.13-1.92,2.29C192.41,134.89,193,136.09,194.33,136.09z"/>
		<path d="M198.95,130.74h1.09v0.97h0.02c0.34-0.7,1.15-1.12,2-1.12c1.58,0,2.29,0.98,2.29,2.63v3.63h-1.13v-3.17
			c0-1.43-0.31-2.12-1.29-2.18c-1.28,0-1.86,1.03-1.86,2.52v2.83h-1.13V130.74z"/>
		<path d="M205.83,135.66c0.44,0.29,1.08,0.43,1.4,0.43c0.52,0,1.15-0.22,1.15-0.88c0-1.12-2.65-1.02-2.65-2.73
			c0-1.27,0.95-1.88,2.16-1.88c0.53,0,0.96,0.11,1.4,0.24l-0.1,0.98c-0.25-0.16-0.92-0.31-1.19-0.31c-0.58,0-1.08,0.24-1.08,0.74
			c0,1.25,2.65,0.89,2.65,2.84c0,1.31-1.04,1.91-2.13,1.91c-0.58,0-1.16-0.06-1.68-0.34L205.83,135.66z"/>
		<path d="M210.99,135.52h1.34l-1.02,2.94h-1.08L210.99,135.52z"/>
		<path d="M26.25,145.14h1.06v0.95h0.02c0.3-0.64,0.95-1.09,1.59-1.09c0.34,0,0.5,0.04,0.74,0.08v1.01
			c-0.2-0.08-0.43-0.11-0.62-0.11c-1.01,0-1.67,0.96-1.67,2.49v2.78h-1.13V145.14z"/>
		<path d="M32.26,143.78h-1.27v-1.27h1.27V143.78z M31.06,145.14h1.13v6.12h-1.13V145.14z"/>
		<path d="M39.66,151c0,1.86-0.96,2.93-3.15,2.93c-0.65,0-1.21-0.08-2.19-0.42l0.12-1.04c0.86,0.4,1.38,0.55,2.21,0.55
			c1.19,0,1.9-0.8,1.9-2.1v-0.6h-0.02c-0.48,0.64-1.27,0.95-2.05,0.95c-1.75,0-2.61-1.43-2.61-3.01c0-1.57,0.89-3.25,2.73-3.25
			c1.08,0,1.68,0.4,2.02,1.06h0.02v-0.91h1.04V151z M38.53,148.27c0-1.27-0.59-2.36-1.79-2.36c-1.14,0-1.7,1.24-1.7,2.28
			c0,1.15,0.65,2.16,1.7,2.16S38.53,149.41,38.53,148.27z"/>
		<path d="M41.58,142.26h1.13v3.75h0.02c0.41-0.65,1.12-1.02,1.97-1.02c1.58,0,2.29,0.98,2.29,2.63v3.63h-1.13v-3.17
			c0-1.43-0.31-2.12-1.3-2.18c-1.28,0-1.86,1.03-1.86,2.52v2.83h-1.13V142.26z"/>
		<path d="M52.17,146.05h-1.62v3.35c0,0.71,0.43,1.09,0.95,1.09c0.35,0,0.6-0.11,0.77-0.22v0.96c-0.25,0.07-0.6,0.17-0.96,0.17
			c-1.16,0-1.88-0.55-1.88-1.78v-3.57h-1.38v-0.91h1.38v-1.42l1.13-0.36v1.78h1.62V146.05z"/>
		<path d="M53.13,150.06c0.44,0.29,1.08,0.43,1.4,0.43c0.52,0,1.15-0.22,1.15-0.88c0-1.12-2.65-1.02-2.65-2.73
			c0-1.27,0.95-1.88,2.16-1.88c0.53,0,0.96,0.11,1.4,0.24l-0.1,0.98c-0.25-0.16-0.92-0.31-1.19-0.31c-0.58,0-1.08,0.24-1.08,0.74
			c0,1.25,2.65,0.89,2.65,2.84c0,1.31-1.04,1.91-2.13,1.91c-0.58,0-1.16-0.06-1.68-0.34L53.13,150.06z"/>
		<path d="M58.29,149.92h1.34l-1.02,2.94h-1.08L58.29,149.92z"/>
		<path d="M65.21,145.58c0.56-0.34,1.24-0.58,2.02-0.58c1.75,0,2.46,0.86,2.46,2.53v2.53c0,0.7,0.02,1.02,0.05,1.2h-1.06v-0.79
			h-0.02c-0.26,0.37-0.86,0.94-1.9,0.94c-1.32,0-2.24-0.58-2.24-1.91c0-1.54,1.68-2.01,2.84-2.01c0.44,0,0.76,0,1.2,0.02
			c0-1.06-0.38-1.59-1.51-1.59c-0.64,0-1.32,0.24-1.78,0.62L65.21,145.58z M68.56,148.35c-0.24,0-0.48-0.02-0.72-0.02
			c-0.61,0-2.12,0.1-2.12,1.18c0,0.65,0.62,1,1.14,1c1.12,0,1.7-0.7,1.7-1.61V148.35z"/>
		<path d="M71.6,145.14h1.09v0.97h0.02c0.34-0.7,1.15-1.12,2-1.12c1.58,0,2.29,0.98,2.29,2.63v3.63h-1.13v-3.17
			c0-1.43-0.31-2.12-1.3-2.18c-1.28,0-1.86,1.03-1.86,2.52v2.83H71.6V145.14z"/>
		<path d="M83.26,150.4h-0.02c-0.3,0.46-1,1.01-2.09,1.01c-1.85,0-2.63-1.64-2.63-3.31c0-1.64,0.86-3.09,2.64-3.09
			c1.07,0,1.68,0.42,2.03,0.98h0.02v-3.72h1.13v9h-1.08V150.4z M81.41,150.49c1.27,0,1.8-1.26,1.8-2.28c0-1.14-0.59-2.3-1.81-2.3
			s-1.7,1.15-1.68,2.27C79.69,149.14,80.2,150.49,81.41,150.49z"/>
		<path d="M93.48,146.17c-0.43-0.18-0.86-0.26-1.22-0.26c-1.26,0-1.97,1.13-1.97,2.29c0,1.09,0.59,2.29,2.04,2.29
			c0.38,0,0.86-0.12,1.21-0.35l0.08,1.01c-0.47,0.22-1.01,0.25-1.42,0.25c-1.85,0-3.12-1.45-3.12-3.2c0-1.86,1.25-3.2,3.12-3.2
			c0.46,0,1.04,0.11,1.37,0.24L93.48,146.17z"/>
		<path d="M94.92,145.14h1.06v0.95H96c0.3-0.64,0.95-1.09,1.59-1.09c0.34,0,0.5,0.04,0.74,0.08v1.01c-0.2-0.08-0.43-0.11-0.62-0.11
			c-1.01,0-1.67,0.96-1.67,2.49v2.78h-1.13V145.14z"/>
		<path d="M104.28,151.01c-0.43,0.16-0.92,0.4-1.93,0.4c-2.17,0-3.17-1.32-3.17-3.31c0-1.81,1.14-3.09,2.87-3.09
			c2.04,0,2.7,1.49,2.7,3.45h-4.37c0,1.21,0.95,2.04,2.02,2.04c0.74,0,1.61-0.38,1.88-0.61V151.01z M103.55,147.61
			c0-0.94-0.55-1.7-1.52-1.7c-1.1,0-1.56,0.91-1.64,1.7H103.55z"/>
		<path d="M110.59,150.4h-0.02c-0.3,0.46-1,1.01-2.09,1.01c-1.85,0-2.63-1.64-2.63-3.31c0-1.64,0.86-3.09,2.64-3.09
			c1.07,0,1.68,0.42,2.03,0.98h0.02v-3.72h1.13v9h-1.08V150.4z M108.75,150.49c1.27,0,1.8-1.26,1.8-2.28c0-1.14-0.59-2.3-1.81-2.3
			c-1.22,0-1.7,1.15-1.68,2.27C107.03,149.14,107.53,150.49,108.75,150.49z"/>
		<path d="M114.94,143.78h-1.27v-1.27h1.27V143.78z M113.74,145.14h1.13v6.12h-1.13V145.14z"/>
		<path d="M120.18,146.05h-1.62v3.35c0,0.71,0.43,1.09,0.95,1.09c0.35,0,0.6-0.11,0.77-0.22v0.96c-0.25,0.07-0.6,0.17-0.96,0.17
			c-1.16,0-1.88-0.55-1.88-1.78v-3.57h-1.38v-0.91h1.38v-1.42l1.13-0.36v1.78h1.62V146.05z"/>
		<path d="M121.14,150.06c0.44,0.29,1.08,0.43,1.4,0.43c0.52,0,1.15-0.22,1.15-0.88c0-1.12-2.65-1.02-2.65-2.73
			c0-1.27,0.95-1.88,2.16-1.88c0.53,0,0.96,0.11,1.4,0.24l-0.1,0.98c-0.25-0.16-0.92-0.31-1.19-0.31c-0.58,0-1.08,0.24-1.08,0.74
			c0,1.25,2.65,0.89,2.65,2.84c0,1.31-1.04,1.91-2.13,1.91c-0.58,0-1.16-0.06-1.68-0.34L121.14,150.06z"/>
		<path d="M126.3,149.92h1.34l-1.02,2.94h-1.08L126.3,149.92z"/>
		<path d="M133.23,145.58c0.56-0.34,1.23-0.58,2.01-0.58c1.75,0,2.46,0.86,2.46,2.53v2.53c0,0.7,0.02,1.02,0.05,1.2h-1.06v-0.79
			h-0.02c-0.26,0.37-0.86,0.94-1.89,0.94c-1.32,0-2.24-0.58-2.24-1.91c0-1.54,1.68-2.01,2.84-2.01c0.44,0,0.76,0,1.2,0.02
			c0-1.06-0.38-1.59-1.51-1.59c-0.64,0-1.32,0.24-1.78,0.62L133.23,145.58z M136.57,148.35c-0.24,0-0.48-0.02-0.72-0.02
			c-0.61,0-2.12,0.1-2.12,1.18c0,0.65,0.62,1,1.14,1c1.12,0,1.7-0.7,1.7-1.61V148.35z"/>
		<path d="M139.61,145.14h1.09v0.97h0.02c0.34-0.7,1.15-1.12,2-1.12c1.58,0,2.29,0.98,2.29,2.63v3.63h-1.13v-3.17
			c0-1.43-0.31-2.12-1.29-2.18c-1.28,0-1.86,1.03-1.86,2.52v2.83h-1.13V145.14z"/>
		<path d="M151.27,150.4h-0.02c-0.3,0.46-1,1.01-2.09,1.01c-1.85,0-2.63-1.64-2.63-3.31c0-1.64,0.86-3.09,2.64-3.09
			c1.07,0,1.68,0.42,2.03,0.98h0.02v-3.72h1.13v9h-1.08V150.4z M149.42,150.49c1.27,0,1.8-1.26,1.8-2.28c0-1.14-0.59-2.3-1.81-2.3
			c-1.22,0-1.7,1.15-1.68,2.27C147.71,149.14,148.21,150.49,149.42,150.49z"/>
		<path d="M164.53,151.26h-1.31l-1.58-5.13h-0.02l-1.55,5.13h-1.31l-1.97-6.12h1.24l1.4,5.06h0.02l1.56-5.06h1.33l1.54,5.06h0.02
			l1.49-5.06h1.1L164.53,151.26z"/>
		<path d="M168.95,143.78h-1.27v-1.27h1.27V143.78z M167.75,145.14h1.13v6.12h-1.13V145.14z"/>
		<path d="M171.09,142.26h1.13v9h-1.13V142.26z"/>
		<path d="M174.42,142.26h1.13v9h-1.13V142.26z"/>
		<path d="M181.68,146.05h-1.44v-0.91h1.44v-0.56c0-1.49,0.38-2.46,2.05-2.46c0.29,0,0.53,0.04,0.76,0.07l-0.05,0.91
			c-0.13-0.05-0.35-0.07-0.54-0.07c-0.97,0-1.09,0.62-1.09,1.45v0.66h1.62v0.91h-1.62v5.21h-1.13V146.05z"/>
		<path d="M186.96,143.78h-1.27v-1.27h1.27V143.78z M185.76,145.14h1.13v6.12h-1.13V145.14z"/>
		<path d="M188.95,145.14h1.09v0.97h0.02c0.34-0.7,1.15-1.12,2-1.12c1.58,0,2.29,0.98,2.29,2.63v3.63h-1.13v-3.17
			c0-1.43-0.31-2.12-1.29-2.18c-1.28,0-1.86,1.03-1.86,2.52v2.83h-1.13V145.14z"/>
		<path d="M200.62,150.4h-0.02c-0.3,0.46-1,1.01-2.09,1.01c-1.85,0-2.63-1.64-2.63-3.31c0-1.64,0.86-3.09,2.64-3.09
			c1.07,0,1.68,0.42,2.03,0.98h0.02v-3.72h1.13v9h-1.08V150.4z M198.77,150.49c1.27,0,1.8-1.26,1.8-2.28c0-1.14-0.59-2.3-1.81-2.3
			c-1.22,0-1.7,1.15-1.68,2.27C197.05,149.14,197.56,150.49,198.77,150.49z"/>
		<path d="M210.2,146.05h-1.62v3.35c0,0.71,0.43,1.09,0.95,1.09c0.35,0,0.6-0.11,0.77-0.22v0.96c-0.25,0.07-0.6,0.17-0.96,0.17
			c-1.16,0-1.88-0.55-1.88-1.78v-3.57h-1.38v-0.91h1.38v-1.42l1.13-0.36v1.78h1.62V146.05z"/>
		<path d="M211.62,142.26h1.13v3.75h0.02c0.41-0.65,1.12-1.02,1.97-1.02c1.58,0,2.29,0.98,2.29,2.63v3.63h-1.13v-3.17
			c0-1.43-0.31-2.12-1.29-2.18c-1.28,0-1.86,1.03-1.86,2.52v2.83h-1.13V142.26z"/>
		<path d="M223.64,151.01c-0.43,0.16-0.92,0.4-1.93,0.4c-2.17,0-3.17-1.32-3.17-3.31c0-1.81,1.14-3.09,2.87-3.09
			c2.04,0,2.7,1.49,2.7,3.45h-4.37c0,1.21,0.95,2.04,2.02,2.04c0.74,0,1.61-0.38,1.88-0.61V151.01z M222.91,147.61
			c0-0.94-0.55-1.7-1.52-1.7c-1.1,0-1.56,0.91-1.64,1.7H222.91z"/>
		<path d="M39.59,156.67h1.13v3.72h0.02c0.35-0.56,0.96-0.98,2.03-0.98c1.77,0,2.64,1.45,2.64,3.09c0,1.68-0.78,3.31-2.63,3.31
			c-1.09,0-1.79-0.55-2.09-1.01h-0.02v0.86h-1.08V156.67z M42.53,160.31c-1.22,0-1.81,1.16-1.81,2.3c0,1.02,0.53,2.28,1.8,2.28
			c1.21,0,1.72-1.36,1.69-2.31C44.23,161.47,43.75,160.31,42.53,160.31z"/>
		<path d="M51.61,165.41c-0.43,0.16-0.92,0.4-1.93,0.4c-2.17,0-3.17-1.32-3.17-3.31c0-1.81,1.14-3.09,2.87-3.09
			c2.04,0,2.7,1.49,2.7,3.45h-4.37c0,1.21,0.95,2.04,2.02,2.04c0.74,0,1.61-0.38,1.88-0.61V165.41z M50.88,162.01
			c0-0.94-0.55-1.7-1.52-1.7c-1.1,0-1.56,0.91-1.64,1.7H50.88z"/>
		<path d="M53.14,164.46c0.44,0.29,1.08,0.43,1.4,0.43c0.52,0,1.15-0.22,1.15-0.88c0-1.12-2.65-1.02-2.65-2.73
			c0-1.27,0.95-1.88,2.16-1.88c0.53,0,0.96,0.11,1.4,0.24l-0.1,0.98c-0.25-0.16-0.92-0.31-1.19-0.31c-0.58,0-1.08,0.24-1.08,0.74
			c0,1.25,2.65,0.89,2.65,2.84c0,1.31-1.04,1.91-2.13,1.91c-0.58,0-1.16-0.06-1.68-0.34L53.14,164.46z"/>
		<path d="M61.51,160.46h-1.62v3.35c0,0.71,0.43,1.09,0.95,1.09c0.35,0,0.6-0.11,0.77-0.22v0.96c-0.25,0.07-0.6,0.17-0.96,0.17
			c-1.16,0-1.88-0.55-1.88-1.78v-3.57h-1.38v-0.91h1.38v-1.42l1.13-0.36v1.78h1.62V160.46z"/>
		<path d="M65.81,164.46c0.44,0.29,1.08,0.43,1.4,0.43c0.52,0,1.15-0.22,1.15-0.88c0-1.12-2.65-1.02-2.65-2.73
			c0-1.27,0.95-1.88,2.16-1.88c0.53,0,0.96,0.11,1.4,0.24l-0.1,0.98c-0.25-0.16-0.92-0.31-1.19-0.31c-0.58,0-1.08,0.24-1.08,0.74
			c0,1.25,2.65,0.89,2.65,2.84c0,1.31-1.04,1.91-2.13,1.91c-0.58,0-1.16-0.06-1.68-0.34L65.81,164.46z"/>
		<path d="M73.65,159.4c1.86,0,3.11,1.34,3.11,3.2c0,1.75-1.27,3.2-3.11,3.2c-1.85,0-3.12-1.45-3.12-3.2
			C70.53,160.74,71.77,159.4,73.65,159.4z M73.65,164.89c1.32,0,1.91-1.2,1.91-2.29c0-1.16-0.71-2.29-1.91-2.29
			c-1.21,0-1.92,1.13-1.92,2.29C71.73,163.69,72.31,164.89,73.65,164.89z"/>
		<path d="M78.41,156.67h1.13v9h-1.13V156.67z"/>
		<path d="M87.01,165.66h-1.09v-0.97H85.9c-0.34,0.7-1.15,1.12-2,1.12c-1.58,0-2.29-0.98-2.29-2.63v-3.63h1.13v3.17
			c0,1.43,0.31,2.12,1.3,2.18c1.28,0,1.86-1.03,1.86-2.52v-2.83h1.13V165.66z"/>
		<path d="M92.19,160.46h-1.62v3.35c0,0.71,0.43,1.09,0.95,1.09c0.35,0,0.6-0.11,0.77-0.22v0.96c-0.25,0.07-0.6,0.17-0.96,0.17
			c-1.16,0-1.88-0.55-1.88-1.78v-3.57h-1.38v-0.91h1.38v-1.42l1.13-0.36v1.78h1.62V160.46z"/>
		<path d="M94.95,158.18h-1.27v-1.27h1.27V158.18z M93.75,159.54h1.13v6.12h-1.13V159.54z"/>
		<path d="M99.65,159.4c1.86,0,3.11,1.34,3.11,3.2c0,1.75-1.27,3.2-3.11,3.2c-1.85,0-3.12-1.45-3.12-3.2
			C96.53,160.74,97.78,159.4,99.65,159.4z M99.65,164.89c1.32,0,1.91-1.2,1.91-2.29c0-1.16-0.71-2.29-1.91-2.29
			c-1.21,0-1.92,1.13-1.92,2.29C97.73,163.69,98.32,164.89,99.65,164.89z"/>
		<path d="M104.27,159.54h1.09v0.97h0.02c0.34-0.7,1.15-1.12,2-1.12c1.58,0,2.29,0.98,2.29,2.63v3.63h-1.13v-3.17
			c0-1.43-0.31-2.12-1.3-2.18c-1.28,0-1.86,1.03-1.86,2.52v2.83h-1.13V159.54z"/>
		<path d="M111.15,164.46c0.44,0.29,1.08,0.43,1.4,0.43c0.52,0,1.15-0.22,1.15-0.88c0-1.12-2.65-1.02-2.65-2.73
			c0-1.27,0.95-1.88,2.16-1.88c0.53,0,0.96,0.11,1.4,0.24l-0.1,0.98c-0.25-0.16-0.92-0.31-1.19-0.31c-0.58,0-1.08,0.24-1.08,0.74
			c0,1.25,2.65,0.89,2.65,2.84c0,1.31-1.04,1.91-2.13,1.91c-0.58,0-1.16-0.06-1.68-0.34L111.15,164.46z"/>
		<path d="M120.34,160.46h-1.44v-0.91h1.44v-0.56c0-1.49,0.38-2.46,2.05-2.46c0.29,0,0.53,0.04,0.76,0.07l-0.05,0.91
			c-0.13-0.05-0.35-0.07-0.54-0.07c-0.97,0-1.09,0.62-1.09,1.45v0.66h1.62v0.91h-1.62v5.21h-1.13V160.46z"/>
		<path d="M126.99,159.4c1.86,0,3.11,1.34,3.11,3.2c0,1.75-1.27,3.2-3.11,3.2c-1.85,0-3.12-1.45-3.12-3.2
			C123.87,160.74,125.11,159.4,126.99,159.4z M126.99,164.89c1.32,0,1.91-1.2,1.91-2.29c0-1.16-0.71-2.29-1.91-2.29
			c-1.21,0-1.92,1.13-1.92,2.29C125.07,163.69,125.65,164.89,126.99,164.89z"/>
		<path d="M131.61,159.54h1.06v0.95h0.02c0.3-0.64,0.95-1.09,1.59-1.09c0.34,0,0.5,0.04,0.74,0.08v1.01
			c-0.2-0.08-0.43-0.11-0.62-0.11c-1.01,0-1.67,0.96-1.67,2.49v2.78h-1.13V159.54z"/>
		<path d="M139.16,167.32c0.14,0.05,0.34,0.1,0.53,0.1c1.01,0,1.34-1.39,1.34-1.51c0-0.13-0.14-0.44-0.22-0.65l-2.08-5.71h1.24
			l1.64,5.06h0.02l1.68-5.06h1.14l-2.25,6.25c-0.42,1.18-0.86,2.53-2.35,2.53c-0.36,0-0.56-0.05-0.77-0.08L139.16,167.32z"/>
		<path d="M148.32,159.4c1.86,0,3.11,1.34,3.11,3.2c0,1.75-1.27,3.2-3.11,3.2c-1.85,0-3.12-1.45-3.12-3.2
			C145.2,160.74,146.45,159.4,148.32,159.4z M148.32,164.89c1.32,0,1.91-1.2,1.91-2.29c0-1.16-0.71-2.29-1.91-2.29
			c-1.21,0-1.92,1.13-1.92,2.29C146.4,163.69,146.99,164.89,148.32,164.89z"/>
		<path d="M158.35,165.66h-1.09v-0.97h-0.02c-0.33,0.7-1.15,1.12-2,1.12c-1.58,0-2.29-0.98-2.29-2.63v-3.63h1.13v3.17
			c0,1.43,0.31,2.12,1.3,2.18c1.28,0,1.86-1.03,1.86-2.52v-2.83h1.13V165.66z"/>
		<path d="M160.28,159.54h1.06v0.95h0.02c0.3-0.64,0.95-1.09,1.59-1.09c0.34,0,0.5,0.04,0.74,0.08v1.01
			c-0.2-0.08-0.43-0.11-0.62-0.11c-1.01,0-1.67,0.96-1.67,2.49v2.78h-1.13V159.54z"/>
		<path d="M168.28,156.67h1.13v3.72h0.02c0.35-0.56,0.96-0.98,2.03-0.98c1.78,0,2.64,1.45,2.64,3.09c0,1.68-0.78,3.31-2.63,3.31
			c-1.09,0-1.79-0.55-2.09-1.01h-0.02v0.86h-1.08V156.67z M171.22,160.31c-1.22,0-1.81,1.16-1.81,2.3c0,1.02,0.53,2.28,1.8,2.28
			c1.21,0,1.72-1.36,1.69-2.31C172.92,161.47,172.44,160.31,171.22,160.31z"/>
		<path d="M181.02,165.66h-1.09v-0.97h-0.02c-0.33,0.7-1.15,1.12-2,1.12c-1.58,0-2.29-0.98-2.29-2.63v-3.63h1.13v3.17
			c0,1.43,0.31,2.12,1.3,2.18c1.28,0,1.86-1.03,1.86-2.52v-2.83h1.13V165.66z"/>
		<path d="M187.27,164.8h-0.02c-0.3,0.46-1,1.01-2.09,1.01c-1.85,0-2.63-1.64-2.63-3.31c0-1.64,0.86-3.09,2.64-3.09
			c1.07,0,1.68,0.42,2.03,0.98h0.02v-3.72h1.13v9h-1.08V164.8z M185.43,164.89c1.27,0,1.8-1.26,1.8-2.28c0-1.14-0.59-2.3-1.81-2.3
			c-1.22,0-1.7,1.15-1.68,2.27C183.71,163.54,184.21,164.89,185.43,164.89z"/>
		<path d="M195.68,165.4c0,1.86-0.96,2.93-3.15,2.93c-0.65,0-1.21-0.08-2.2-0.42l0.12-1.04c0.86,0.4,1.38,0.55,2.21,0.55
			c1.19,0,1.89-0.8,1.89-2.1v-0.6h-0.02c-0.48,0.64-1.27,0.95-2.05,0.95c-1.75,0-2.62-1.43-2.62-3.01c0-1.57,0.89-3.25,2.73-3.25
			c1.08,0,1.68,0.4,2.02,1.06h0.02v-0.91h1.04V165.4z M194.56,162.67c0-1.27-0.59-2.36-1.79-2.36c-1.14,0-1.7,1.24-1.7,2.28
			c0,1.15,0.65,2.16,1.7,2.16C193.83,164.75,194.56,163.81,194.56,162.67z"/>
		<path d="M202.3,165.41c-0.43,0.16-0.92,0.4-1.93,0.4c-2.17,0-3.17-1.32-3.17-3.31c0-1.81,1.14-3.09,2.87-3.09
			c2.04,0,2.7,1.49,2.7,3.45h-4.37c0,1.21,0.95,2.04,2.02,2.04c0.74,0,1.61-0.38,1.88-0.61V165.41z M201.57,162.01
			c0-0.94-0.55-1.7-1.52-1.7c-1.1,0-1.56,0.91-1.64,1.7H201.57z"/>
		<path d="M207.53,160.46h-1.62v3.35c0,0.71,0.43,1.09,0.95,1.09c0.35,0,0.6-0.11,0.77-0.22v0.96c-0.25,0.07-0.6,0.17-0.96,0.17
			c-1.16,0-1.88-0.55-1.88-1.78v-3.57h-1.38v-0.91h1.38v-1.42l1.13-0.36v1.78h1.62V160.46z"/>
		<path d="M208.98,164.32h1.34v1.34h-1.34V164.32z"/>
	</g>
</g>
</svg>
